<svg version="1.1" id="Layer_1" xmlns="http://www.w3.org/2000/svg" xmlns:xlink="http://www.w3.org/1999/xlink" x="0px" y="0px"
	 width="100%" viewBox="0 0 164 250" enable-background="new 0 0 164 250" xml:space="preserve">
<path fill="#000000" opacity="1.000000" stroke="none" 
	d="
M1.000000,69.000000 
	C1.000000,46.000004 1.000000,23.500011 1.000000,1.000012 
	C55.666645,1.000008 110.333290,1.000008 164.999954,1.000004 
	C164.999969,84.333290 164.999969,167.666580 164.999985,250.999908 
	C110.333382,250.999939 55.666771,250.999939 1.000077,250.999969 
	C1.000000,190.500000 1.000000,130.000000 1.000000,69.000000 
M155.023193,136.979843 
	C155.023193,136.979843 155.033173,136.947098 154.975815,136.260498 
	C154.655716,135.485062 154.335617,134.709610 153.999451,133.995361 
	C153.999451,133.995361 154.062561,133.990921 153.804901,133.342834 
	C152.245087,130.897629 150.685272,128.452438 148.923340,125.522385 
	C148.637573,125.340965 148.351807,125.159546 147.974670,124.177834 
	C146.346375,119.763237 144.718079,115.348633 142.880646,110.353065 
	C142.303268,109.552200 141.725906,108.751328 140.836349,107.312607 
	C139.923645,105.547112 139.010941,103.781624 137.847122,101.402100 
	C137.515945,100.609444 137.184769,99.816795 136.989838,98.150902 
	C136.238846,92.970436 135.786301,87.725357 134.681366,82.621521 
	C131.249954,66.771469 127.594872,50.969551 123.979294,35.159767 
	C121.605873,24.781528 114.971947,18.320799 105.070183,14.941651 
	C105.070183,14.941651 105.099236,14.929900 104.898773,14.469204 
	C104.604164,14.365383 104.309547,14.261562 103.180161,13.986532 
	C101.761765,13.664780 100.345192,13.073752 98.924675,13.064075 
	C88.018127,12.989769 77.108559,12.911304 66.205460,13.121283 
	C63.740807,13.168748 61.297817,14.341573 58.494286,15.036625 
	C58.494286,15.036625 58.171906,15.180113 57.604698,15.150649 
	C57.369545,15.426670 57.134392,15.702691 56.231380,16.023500 
	C55.806107,16.673285 55.380833,17.323071 55.003613,17.995140 
	C55.003613,17.995140 54.971848,17.951891 54.245579,18.002279 
	C49.111752,20.706053 44.692936,24.084265 43.001194,29.997356 
	C43.001194,29.997356 42.975662,29.945505 42.361485,30.369963 
	C41.906532,31.584681 41.294189,32.765167 41.021366,34.019501 
	C38.704021,44.673923 36.448471,55.341782 34.049755,66.700699 
	C34.096802,67.168365 34.143848,67.636032 34.063629,68.459450 
	C34.063629,68.459450 34.006775,68.832985 33.348473,69.286247 
	C32.560463,73.892998 31.772455,78.499756 30.438082,83.439903 
	C29.923712,84.608109 29.409340,85.776314 28.379313,87.208626 
	C27.895138,87.789993 27.410965,88.371361 26.289680,89.251305 
	C20.585835,97.034050 19.982414,106.415352 18.001015,115.386681 
	C16.806448,120.795395 15.870883,126.022064 19.906313,131.273697 
	C18.641008,137.139023 17.220711,142.976425 16.158192,148.878265 
	C15.267167,153.827515 14.793588,158.851913 14.072633,164.490326 
	C14.118381,164.702209 14.164127,164.914093 13.830299,165.765350 
	C12.483688,168.557083 11.753866,172.005707 9.645081,173.985687 
	C6.526434,176.913895 4.176576,179.611298 4.853952,184.745041 
	C4.638503,185.829300 4.423055,186.913559 4.036076,188.815933 
	C5.858176,193.543442 6.564507,199.255829 9.707935,202.817017 
	C19.844582,214.300812 30.644367,225.234131 41.649059,235.904678 
	C49.043266,243.074341 57.721954,248.123550 68.758560,246.991501 
	C73.828613,246.471451 78.924767,246.205734 84.907440,245.989639 
	C88.793190,245.344147 92.777092,245.024796 96.518303,243.898972 
	C98.102188,243.422302 98.937599,240.834915 100.524841,239.924744 
	C106.034660,236.765289 111.565269,233.542999 117.397369,231.076080 
	C122.040222,229.112213 127.135063,228.216904 132.452759,227.015884 
	C132.452759,227.015884 132.904846,227.082672 133.022415,227.490158 
	C133.653778,227.672806 134.285141,227.855438 135.252365,228.761108 
	C137.852539,228.186844 140.452728,227.612579 143.535583,226.922272 
	C143.840912,226.737091 144.016479,226.467438 144.619156,225.967514 
	C144.709137,225.633560 144.799103,225.299606 145.015762,224.571762 
	C145.015762,224.571762 145.049057,224.159348 145.699188,223.852570 
	C145.833267,222.916656 145.967346,221.980728 146.728134,220.744858 
	C148.246872,219.161118 149.560165,217.286392 151.319916,216.044006 
	C158.920792,210.677841 161.561935,200.818848 156.880173,193.413940 
	C156.284760,192.921814 155.689346,192.429703 155.262177,191.306671 
	C155.100311,187.504608 154.938446,183.702560 154.908813,179.127396 
	C154.426956,177.753098 153.543289,176.378036 153.545914,175.004654 
	C153.551605,172.039108 152.923920,168.206329 154.476089,166.260559 
	C160.984848,158.101334 161.233597,147.088669 155.944260,138.324966 
	C155.648636,137.877014 155.353012,137.429077 155.023193,136.979843 
M48.850674,8.337848 
	C48.502071,7.920357 48.153469,7.502865 47.888885,6.284972 
	C45.509178,2.122401 41.670067,3.423820 38.985382,4.935376 
	C36.031418,6.598542 35.122330,9.854338 36.775185,13.542683 
	C38.549171,17.501329 40.853748,20.832747 45.503910,19.426266 
	C47.939011,18.689745 50.232864,16.241884 51.636032,13.975865 
	C52.166321,13.119485 50.008472,10.598554 48.850674,8.337848 
M123.244926,5.019206 
	C119.004143,4.398343 116.132042,6.459743 115.201195,10.286613 
	C114.634354,12.616994 114.667419,16.023865 116.002831,17.679045 
	C118.288132,20.511562 121.836380,21.056133 125.625175,17.809292 
	C126.716476,16.240618 128.153351,14.807484 128.832077,13.076993 
	C130.625336,8.504857 128.865631,5.778162 123.244926,5.019206 
z"/>
<path fill="#B47222" opacity="1.000000" stroke="none" 
	d="
M34.006775,68.832985 
	C34.006775,68.832985 34.063629,68.459450 34.425159,68.201859 
	C35.179165,67.299026 35.571640,66.653786 36.123856,65.658669 
	C38.514282,53.521030 40.744972,41.733269 42.975662,29.945505 
	C42.975662,29.945505 43.001194,29.997356 43.323711,29.960178 
	C47.421436,25.932631 51.196640,21.942261 54.971848,17.951891 
	C54.971848,17.951891 55.003613,17.995140 55.332062,17.991810 
	C56.129658,17.971994 56.598804,17.955513 57.276882,17.831259 
	C57.745014,17.523199 57.917881,17.265051 58.019772,16.729551 
	C58.035126,16.510061 58.060284,16.070728 58.083519,15.847488 
	C58.106754,15.624249 58.171906,15.180113 58.171906,15.180113 
	C58.171906,15.180113 58.494286,15.036625 59.012901,15.149841 
	C67.642570,15.176870 75.756302,14.924498 83.863876,15.054741 
	C90.914421,15.168003 97.958015,15.713712 105.074066,16.417206 
	C106.036842,17.440340 106.905403,18.150894 107.828217,18.782116 
	C110.750595,20.781073 114.314171,22.227217 116.508675,24.831757 
	C122.481461,31.920546 123.080688,41.327061 125.776138,49.758759 
	C128.101898,57.034012 128.453476,64.916374 130.129044,72.429710 
	C132.118546,81.350723 134.590637,90.164108 136.853592,99.024139 
	C137.184769,99.816795 137.515945,100.609444 137.944763,102.092995 
	C137.713058,108.515572 137.383682,114.247253 137.055878,120.008240 
	C137.057449,120.037537 137.003204,120.059929 136.641296,120.079407 
	C127.196266,123.431160 118.195007,127.016502 108.996460,129.991928 
	C104.196075,131.544724 99.048393,132.023895 93.864426,132.838959 
	C93.425285,132.477051 93.189583,132.253342 92.741058,131.728119 
	C90.618805,131.859100 88.719658,132.280792 86.519867,132.852478 
	C85.153427,133.332321 84.087624,133.662170 82.975052,133.852692 
	C82.823158,133.691132 82.718033,133.668869 82.612900,133.646606 
	C82.732849,133.771698 82.852806,133.896774 82.869598,134.184326 
	C82.766434,134.346771 82.751900,134.731384 82.422829,134.727509 
	C81.442314,134.808594 80.790871,134.893524 79.896240,134.724548 
	C78.881882,134.513733 77.776222,134.241272 77.391533,134.648987 
	C73.741005,138.518265 69.881805,137.452896 65.786697,135.529663 
	C63.790611,134.592224 61.574234,134.123871 59.231651,133.341675 
	C58.640701,132.911270 58.275669,132.582397 57.898125,131.900055 
	C56.968586,130.994293 56.051559,130.442017 54.814117,129.770020 
	C54.052032,129.550613 53.610363,129.450912 53.300137,129.284729 
	C53.431576,129.218231 53.513004,128.935104 53.660759,128.687622 
	C49.750076,125.091690 45.691635,121.743233 41.386307,118.231201 
	C40.431911,117.387840 39.724411,116.708061 38.989521,115.682098 
	C35.597439,110.592583 30.150776,107.272629 29.135588,100.649445 
	C29.231796,99.988403 29.309479,99.613586 29.691778,99.083679 
	C30.349016,96.599968 30.701635,94.271347 31.042950,91.633492 
	C31.037416,90.913040 31.043190,90.501823 31.308254,89.837837 
	C31.681908,88.386879 31.796267,87.188690 32.202892,85.732643 
	C32.999031,79.927521 33.502903,74.380257 34.006775,68.832985 
M74.452538,47.011806 
	C74.970612,47.343319 75.488686,47.674828 75.591728,48.553257 
	C74.054665,51.293472 71.351242,53.967751 71.191925,56.785854 
	C70.640083,66.547409 70.868767,76.360466 71.007866,86.150978 
	C71.093285,92.163383 76.666443,96.923958 83.068916,96.817215 
	C88.718910,96.723015 94.400337,91.709717 94.553673,86.284409 
	C94.805656,77.368439 94.931808,68.442955 94.819054,59.525173 
	C94.762817,55.077263 94.268997,50.526188 89.143730,48.077991 
	C89.507744,47.661076 89.871758,47.244160 91.017365,46.873081 
	C98.273880,46.385029 100.973648,43.861797 101.727097,37.023407 
	C96.171051,37.023407 90.599609,37.023407 84.208832,37.008167 
	C83.115326,37.015430 82.021812,37.022694 80.327370,36.799355 
	C79.352013,37.119873 78.393700,37.627350 77.397400,37.718174 
	C75.805313,37.863316 74.182625,37.809456 72.582611,37.698807 
	C70.219757,37.535412 67.865456,37.248421 65.507500,37.014065 
	C65.880539,39.110706 65.564575,41.870075 66.791374,43.145496 
	C68.542419,44.965931 71.423660,45.699249 74.452538,47.011806 
z"/>
<path fill="#B57221" opacity="1.000000" stroke="none" 
	d="
M14.209873,165.125977 
	C14.164127,164.914093 14.118381,164.702209 14.448193,164.092041 
	C17.201408,154.568634 19.579063,145.443512 21.975872,136.244888 
	C33.038277,146.129883 44.110996,156.024078 54.800644,165.944977 
	C49.681973,165.589828 52.206490,170.528595 49.664356,172.006989 
	C48.727497,172.392532 48.125977,172.771072 47.524452,173.149612 
	C47.747391,173.351898 48.140591,173.751404 48.168293,173.727493 
	C48.803047,173.179565 49.397964,172.585480 50.375580,171.988770 
	C53.885128,170.960968 57.019394,169.944382 60.461227,168.912140 
	C61.178795,168.914597 61.588799,168.932724 62.035599,169.250122 
	C62.744823,169.644531 63.417252,169.739670 64.494446,169.869171 
	C67.901016,170.193146 70.902824,170.482727 73.957230,171.070755 
	C74.025932,171.568771 74.042038,171.768326 73.708893,171.986053 
	C72.727737,172.234863 72.095833,172.465500 71.463921,172.696136 
	C71.549721,173.103989 71.635521,173.511826 71.721321,173.919678 
	C73.151375,173.607010 74.581436,173.294357 76.345490,172.990845 
	C77.453049,173.332993 78.226601,173.666031 79.051071,174.373459 
	C82.311478,179.141022 93.375351,179.820099 95.883621,175.307678 
	C98.051414,171.407791 100.965706,169.841766 104.947792,168.656891 
	C106.901009,168.075699 108.285187,165.582092 109.926895,163.953979 
	C108.279366,162.634888 106.631836,161.315796 105.015381,159.678848 
	C105.360077,158.573746 105.673706,157.786499 106.349579,156.957001 
	C109.391243,155.704681 112.070656,154.494644 115.746208,152.834747 
	C113.370773,151.415985 112.168961,150.698196 110.972061,149.735107 
	C110.976974,149.489822 111.002838,148.999832 111.298706,148.842682 
	C112.729156,146.774277 113.863754,144.863037 115.247910,142.732697 
	C117.651550,140.776764 119.709892,138.902237 121.976059,137.326614 
	C132.590622,129.946442 138.414459,131.140717 145.019440,142.360733 
	C145.387939,147.605026 143.584259,151.356674 139.999329,154.632568 
	C137.857101,156.590118 136.223068,159.193619 134.682587,161.704330 
	C128.156769,172.340256 119.299255,180.283142 107.570168,184.587921 
	C97.739342,188.196030 87.774757,187.787628 77.785980,183.747101 
	C76.876465,183.593582 76.167694,183.675674 75.458923,183.757751 
	C76.302399,184.506088 77.145874,185.254425 77.994736,186.001083 
	C78.000114,185.999390 77.996910,186.009598 78.005768,186.384613 
	C78.529099,190.119385 80.199593,190.852600 83.265480,188.964996 
	C83.507088,188.965668 83.990036,188.981354 84.149452,189.277771 
	C85.770584,191.037415 87.159065,191.983200 88.437080,189.042130 
	C90.921638,189.046371 92.967850,189.060379 95.107208,189.215881 
	C95.462181,189.263535 95.724007,189.169724 96.421295,189.060760 
	C99.940689,188.515015 103.233742,188.498871 106.065460,187.347809 
	C112.160378,184.870270 118.017891,181.808731 124.339355,178.984589 
	C126.139412,178.016205 127.572685,177.049423 129.463364,176.065979 
	C135.946640,175.033920 141.972534,174.018539 148.005676,173.353531 
	C148.675079,174.469666 149.337234,175.235443 150.172073,176.236481 
	C150.886078,176.655716 151.427414,176.839676 151.973053,177.350281 
	C151.978424,178.112457 151.979477,178.548004 151.769287,179.167023 
	C152.038620,179.906219 152.519180,180.461960 153.004227,181.468231 
	C152.972580,184.626450 152.936447,187.334122 152.656372,190.294189 
	C151.478851,195.352371 149.581390,199.535477 144.612030,201.938538 
	C135.558762,199.454971 131.693237,201.531097 130.620850,209.040054 
	C127.669739,209.662201 125.054520,210.243149 122.439301,210.824081 
	C122.446800,211.164246 122.454308,211.504410 122.461815,211.844559 
	C124.648232,212.237411 126.834641,212.630264 129.049500,213.334808 
	C129.356216,214.427750 129.634491,215.208984 129.593475,215.992279 
	C128.848419,215.997055 128.422668,215.999771 127.685791,216.161713 
	C125.951942,217.039093 124.464180,217.653564 123.120117,218.497040 
	C120.343918,220.239197 117.644295,222.103363 114.642517,223.963562 
	C113.918518,224.288040 113.465187,224.566315 112.628265,224.892975 
	C107.548546,226.342468 102.852417,227.743561 98.077667,228.780731 
	C96.657082,225.770584 95.570274,222.952286 93.924271,220.511047 
	C89.367462,213.752625 81.472481,214.554565 77.579605,222.012238 
	C72.839890,224.889587 75.435326,226.941055 78.274612,229.229706 
	C79.346657,231.725555 80.159988,233.985962 80.702133,236.478027 
	C77.298851,237.743057 74.166763,238.776443 70.676079,239.889740 
	C69.844582,240.087845 69.371674,240.206009 68.973602,240.213287 
	C69.048447,240.102402 69.080551,239.836761 68.961594,239.489990 
	C65.868698,238.819839 62.894760,238.496490 59.570450,238.156357 
	C58.161137,237.699692 57.102196,237.259811 55.989487,236.473450 
	C54.832485,232.719299 52.231972,231.823090 48.701904,231.893509 
	C48.008770,231.682037 47.611099,231.567551 47.243935,231.318054 
	C47.274445,231.183060 47.307743,230.908249 47.494698,230.685104 
	C45.332687,228.464005 42.983727,226.466049 40.618065,224.435394 
	C40.601372,224.402679 40.534729,224.371826 40.640770,223.999451 
	C39.695984,222.943604 38.645161,222.260147 37.552711,221.531921 
	C37.511093,221.487152 37.441589,221.386566 37.602608,220.990387 
	C38.321766,215.938309 35.447765,215.135895 31.885277,215.142517 
	C32.010471,215.037994 31.754789,215.237259 31.793507,214.875610 
	C29.018250,211.534622 28.640049,205.988525 22.963337,206.032440 
	C22.999163,206.001297 22.937134,206.073273 22.961798,205.669373 
	C21.815172,203.044144 20.773659,200.741333 19.441956,198.620758 
	C17.481180,195.498474 14.544913,192.757996 13.441480,189.390472 
	C12.242484,185.731323 10.614225,183.977570 6.948940,184.082184 
	C7.014243,184.051605 6.891031,184.130386 6.925557,183.739197 
	C8.382481,180.854721 10.130374,178.486298 11.146409,175.837173 
	C12.471128,172.383209 13.215676,168.706711 14.209873,165.125977 
M122.940994,152.627045 
	C122.175636,151.479431 121.410271,150.331833 120.644913,149.184219 
	C119.174431,150.168396 117.703941,151.152573 116.017769,152.281113 
	C121.411690,156.194916 121.411690,156.194916 122.940994,152.627045 
M60.728470,175.529251 
	C61.599022,174.736618 62.469570,173.943985 64.497322,172.097717 
	C61.031986,172.278641 59.124660,172.378235 57.217335,172.477814 
	C57.093300,172.973724 56.969265,173.469635 56.845230,173.965561 
	C57.919235,174.576477 58.993244,175.187393 60.728470,175.529251 
z"/>
<path fill="#57E2FB" opacity="1.000000" stroke="none" 
	d="
M53.513004,128.935104 
	C53.513004,128.935104 53.431576,129.218231 53.358974,129.629395 
	C53.857498,130.356491 54.428623,130.672409 55.001526,130.993011 
	C55.003307,130.997711 55.012531,131.002655 55.124306,131.248627 
	C55.554050,131.645233 55.872028,131.795868 56.473873,132.018768 
	C57.142044,132.145203 57.526344,132.199356 57.910637,132.253510 
	C58.275669,132.582397 58.640701,132.911270 59.297775,133.594727 
	C59.752609,134.257584 59.915398,134.565842 59.886230,135.094589 
	C61.104137,135.895294 62.514004,136.475525 63.950493,137.035583 
	C63.977119,137.015427 63.972412,137.082062 64.112930,137.311218 
	C64.583435,137.662125 64.913406,137.783905 65.422485,137.929382 
	C65.601593,137.953094 65.930115,138.103577 66.119141,138.340240 
	C66.880829,138.721878 67.453506,138.866882 68.271973,139.048630 
	C68.517776,139.085388 68.987648,139.247543 69.229691,139.486023 
	C71.447105,140.373230 73.683800,142.779236 75.217209,138.665955 
	C76.241531,138.036301 77.035141,137.645142 77.893044,137.617401 
	C78.607506,138.393082 79.257690,138.805344 79.907867,139.217606 
	C79.953407,138.117813 79.998947,137.018036 80.102356,135.686752 
	C80.160217,135.455261 80.139427,134.978470 80.139427,134.978470 
	C80.790871,134.893524 81.442314,134.808594 82.638168,134.999908 
	C85.406799,134.410828 87.631020,133.545471 90.101761,132.554443 
	C90.895462,132.439590 91.442627,132.450409 91.983452,132.814636 
	C92.065308,137.886353 87.352959,138.438019 85.059219,141.105209 
	C85.034706,141.100220 85.076141,141.088760 84.838089,141.142578 
	C84.286575,141.350784 84.088997,141.597839 83.999954,141.972626 
	C83.992607,142.007660 83.922424,141.993530 83.697517,142.045349 
	C83.185966,142.246658 82.981644,142.471130 82.753242,142.886108 
	C82.646835,143.001648 82.352966,143.112671 81.944855,143.077423 
	C80.753609,143.859177 79.970482,144.676178 79.133743,145.606079 
	C79.080132,145.718964 78.858253,145.834030 78.554504,145.902527 
	C77.832825,146.598419 77.414886,147.225815 76.978813,147.902405 
	C76.960670,147.951599 76.869011,148.002563 76.560638,148.018463 
	C75.828499,148.660721 75.404724,149.287079 74.982635,149.949036 
	C74.984322,149.984604 74.913094,149.985748 74.574142,150.034058 
	C73.864326,150.839935 73.493454,151.597534 73.107727,152.491486 
	C73.092857,152.627838 72.916634,152.838074 72.681038,153.020203 
	C72.332428,153.573578 72.219414,153.944809 72.087555,154.453873 
	C72.068710,154.591705 71.902100,154.814499 71.558044,154.875122 
	C70.867332,156.008270 70.520676,157.080826 70.120544,158.578369 
	C70.257042,161.897934 70.447021,164.792480 70.630455,167.587433 
	C70.101768,167.842880 69.806442,168.109085 69.518669,168.101151 
	C68.698135,168.078537 67.868134,168.006607 67.063965,167.844437 
	C58.760246,166.169968 52.136513,161.453964 46.163029,155.822296 
	C37.374458,147.536621 28.810099,139.013107 20.150230,130.590912 
	C15.870883,126.022064 16.806448,120.795395 18.001015,115.386681 
	C19.982414,106.415352 20.585835,97.034050 27.005243,89.215256 
	C28.406090,90.326012 29.091375,91.472809 29.719154,92.802628 
	C29.661646,92.985634 29.466339,93.319283 29.253445,93.283371 
	C28.928015,93.330856 28.815481,93.414253 28.702946,93.497650 
	C28.931686,93.623741 29.160429,93.749825 29.357563,94.168427 
	C29.272087,94.649536 29.218216,94.838135 28.859938,95.260437 
	C28.053612,97.541176 27.204702,99.576508 27.135164,101.638138 
	C27.042440,104.387230 26.069851,107.765747 30.257496,109.133835 
	C30.668133,109.513008 30.831894,109.783836 30.963436,110.444733 
	C31.967894,111.554558 32.949707,112.307487 33.957962,113.028679 
	C33.984406,112.996933 33.955799,113.074234 34.062195,113.293091 
	C34.374817,113.781685 34.643295,113.954987 35.181850,114.134262 
	C35.656784,114.407692 35.861897,114.634735 36.094810,115.163704 
	C36.473335,115.588615 36.762054,115.767609 37.050568,115.949272 
	C37.050358,115.951950 37.066772,115.933250 37.085445,116.283546 
	C38.751793,117.759033 40.399467,118.884224 42.315628,120.137009 
	C43.408092,121.114090 44.232071,121.963593 45.166546,123.091309 
	C45.800152,123.615761 46.323265,123.862000 46.884491,124.096138 
	C46.922600,124.084045 46.894936,124.159081 46.965744,124.486313 
	C48.060326,125.530235 49.084095,126.246918 50.395164,127.134766 
	C51.625977,127.848991 52.569492,128.392044 53.513004,128.935104 
z"/>
<path fill="#AE7026" opacity="1.000000" stroke="none" 
	d="
M149.999390,176.001221 
	C149.337234,175.235443 148.675079,174.469666 148.203629,173.109009 
	C149.559082,172.294205 150.723831,172.074265 152.354126,171.766434 
	C151.455032,170.295425 150.821182,169.258392 150.791840,169.210388 
	C143.321548,171.032089 136.543945,172.684875 129.766357,174.337662 
	C129.540680,173.775497 129.314987,173.213348 129.089310,172.651184 
	C134.224289,166.266205 139.534576,160.011551 144.419586,153.440720 
	C146.827484,150.201843 149.554535,146.622375 147.026245,141.855682 
	C147.037949,141.643982 147.043808,141.219971 147.320877,141.068008 
	C147.842972,139.927902 148.087997,138.939743 148.252869,137.704224 
	C148.103775,137.297745 148.034882,137.138657 147.984924,136.980957 
	C148.003860,136.982330 147.969116,136.961151 148.180969,136.707199 
	C148.707138,135.662628 149.021469,134.872009 149.729187,134.059082 
	C151.435898,134.021469 152.749237,134.006195 154.062561,133.990906 
	C154.062561,133.990921 153.999451,133.995361 153.980103,134.304565 
	C154.318222,135.391541 154.675705,136.169327 155.033173,136.947098 
	C155.033173,136.947098 155.023193,136.979843 155.063400,137.263672 
	C155.406128,137.996048 155.708649,138.444580 156.011169,138.893097 
	C161.233597,147.088669 160.984848,158.101334 154.476089,166.260559 
	C152.923920,168.206329 153.551605,172.039108 153.545914,175.004654 
	C153.543289,176.378036 154.426956,177.753098 154.616837,179.422958 
	C153.893280,179.490509 153.461700,179.262482 152.767822,179.019684 
	C152.330521,178.997772 152.155533,178.990646 151.980530,178.983536 
	C151.979477,178.548004 151.978424,178.112457 151.949219,177.061523 
	C151.280502,176.297806 150.639954,176.149521 149.999390,176.001221 
z"/>
<path fill="#7A7B53" opacity="1.000000" stroke="none" 
	d="
M147.043808,141.219971 
	C147.043808,141.219971 147.037949,141.643982 146.695251,141.823776 
	C145.910461,141.980057 145.468369,141.956558 145.026276,141.933044 
	C138.414459,131.140717 132.590622,129.946442 121.976059,137.326614 
	C119.709892,138.902237 117.651550,140.776764 114.919151,142.764862 
	C113.231949,143.713181 112.123055,144.410217 110.638824,145.071045 
	C109.509689,145.032471 108.755890,145.030121 107.675522,144.849670 
	C103.132637,143.502151 98.732712,140.905106 94.732933,141.419495 
	C80.237297,143.283691 72.510719,153.726822 73.977570,168.241241 
	C73.922081,169.326401 73.913361,170.049347 73.904640,170.772308 
	C70.902824,170.482727 67.901016,170.193146 64.291885,169.655029 
	C63.122646,169.254623 62.560722,169.102753 61.998802,168.950867 
	C61.588799,168.932724 61.178795,168.914597 60.275330,168.630463 
	C58.249153,167.549088 56.716434,166.733688 55.183716,165.918289 
	C44.110996,156.024078 33.038277,146.129883 21.975872,136.244888 
	C19.579063,145.443512 17.201408,154.568634 14.479467,163.768402 
	C14.793588,158.851913 15.267167,153.827515 16.158192,148.878265 
	C17.220711,142.976425 18.641008,137.139023 20.028273,130.932312 
	C28.810099,139.013107 37.374458,147.536621 46.163029,155.822296 
	C52.136513,161.453964 58.760246,166.169968 67.063965,167.844437 
	C67.868134,168.006607 68.698135,168.078537 69.518669,168.101151 
	C69.806442,168.109085 70.101768,167.842880 70.630455,167.587433 
	C70.447021,164.792480 70.257042,161.897934 70.422997,158.429626 
	C71.153320,156.842087 71.527710,155.828293 71.902100,154.814499 
	C71.902100,154.814499 72.068710,154.591705 72.334099,154.278366 
	C72.705200,153.589371 72.810921,153.213730 72.916634,152.838074 
	C72.916634,152.838074 73.092857,152.627838 73.369598,152.322815 
	C74.068596,151.340439 74.490845,150.663101 74.913094,149.985748 
	C74.913094,149.985748 74.984322,149.984604 75.254906,149.866730 
	C75.973328,149.166748 76.421173,148.584656 76.869011,148.002563 
	C76.869011,148.002563 76.960670,147.951599 77.248276,147.807800 
	C77.976677,147.054016 78.417465,146.444016 78.858246,145.834030 
	C78.858253,145.834030 79.080132,145.718964 79.462524,145.514557 
	C80.680931,144.577652 81.516953,143.845169 82.352966,143.112671 
	C82.352966,143.112671 82.646835,143.001648 82.992752,142.859497 
	C83.648468,142.568954 83.843056,142.327682 83.922424,141.993530 
	C83.922424,141.993530 83.992607,142.007660 84.253693,141.942490 
	C84.701897,141.614471 84.889015,141.351608 85.076141,141.088760 
	C85.076141,141.088760 85.034706,141.100220 85.457367,141.118500 
	C89.287346,140.364075 92.694656,139.591339 96.452667,138.903503 
	C97.523041,139.009354 98.242729,139.030304 99.250175,139.297821 
	C107.221466,142.588318 114.260223,142.470642 119.879265,135.395065 
	C119.982353,135.265259 120.076729,135.128525 120.437744,134.932922 
	C121.131424,134.558426 121.562523,134.246048 122.251198,133.884186 
	C122.734665,133.576675 122.960564,133.318665 123.370361,133.011200 
	C123.554260,132.961746 123.876785,132.759186 124.127274,132.769806 
	C124.752602,132.690063 124.958382,132.453018 125.016724,132.068192 
	C125.038353,132.067093 125.065834,132.033585 125.399879,132.099609 
	C126.524261,131.783859 127.314606,131.402100 128.314194,131.000656 
	C128.523438,130.980972 128.916962,130.833298 129.360321,130.895340 
	C133.181122,131.303360 136.558578,131.649338 139.950592,132.029694 
	C139.965164,132.064056 140.038696,132.051254 140.169632,132.336929 
	C141.534760,133.433594 142.768951,134.244568 144.117584,135.296463 
	C144.549774,135.966095 144.867523,136.394821 145.165680,137.170547 
	C145.744308,138.088730 146.342545,138.659897 146.953690,139.561523 
	C146.992340,140.334641 147.018082,140.777313 147.043808,141.219971 
z"/>
<path fill="#EAE6ED" opacity="1.000000" stroke="none" 
	d="
M84.009079,245.824692 
	C78.924767,246.205734 73.828613,246.471451 68.758560,246.991501 
	C57.721954,248.123550 49.043266,243.074341 41.649059,235.904678 
	C30.644367,225.234131 19.844582,214.300812 9.707935,202.817017 
	C6.564507,199.255829 5.858176,193.543442 4.482925,188.415619 
	C6.286185,188.866455 8.537176,189.473755 8.846963,190.610199 
	C10.332275,196.059067 13.702191,200.035965 17.368591,204.115341 
	C20.878868,208.020981 23.496620,212.722961 26.587618,217.016647 
	C27.146667,217.793213 28.132999,218.249084 28.860317,218.919968 
	C31.449949,221.308640 34.070477,223.668289 36.568714,226.150238 
	C38.772102,228.339249 40.530716,231.091599 43.007954,232.866196 
	C48.875534,237.069473 55.053276,240.839798 61.473351,245.024857 
	C62.770294,243.231964 63.893799,241.678848 65.424492,240.081833 
	C66.914635,239.970886 67.997597,239.903824 69.080551,239.836761 
	C69.080551,239.836761 69.048447,240.102402 69.020309,240.559692 
	C70.330811,243.814972 71.670082,243.813583 73.030067,240.820526 
	C73.050125,240.623123 73.079559,240.227371 73.459076,240.154007 
	C74.865944,239.996124 75.893303,239.911606 77.178093,240.121490 
	C79.628136,240.916016 81.820747,241.416153 84.009094,242.307129 
	C84.006241,243.740219 84.007660,244.782455 84.009079,245.824692 
z"/>
<path fill="#55E2FC" opacity="1.000000" stroke="none" 
	d="
M98.962410,139.051254 
	C98.242729,139.030304 97.523041,139.009354 96.491508,138.603088 
	C96.809776,137.209122 97.439896,136.200470 98.365417,135.133057 
	C99.057686,135.015930 99.454575,134.957535 100.204010,134.939499 
	C101.363205,134.629044 102.169853,134.278229 102.985229,133.962158 
	C102.993958,133.996902 102.944176,133.945389 103.316460,133.979675 
	C104.748466,133.602783 105.808197,133.191620 106.891022,132.853989 
	C106.914124,132.927521 106.877998,132.788315 107.177124,132.834991 
	C107.978653,132.607330 108.481041,132.332993 109.302521,131.976807 
	C110.053932,131.817871 110.486244,131.740799 111.071709,131.954300 
	C112.503311,131.533279 113.781761,130.821701 115.380737,130.000153 
	C116.777229,129.559021 117.853180,129.227844 119.184143,129.162979 
	C121.761978,130.330048 123.764099,130.545425 124.336044,127.163948 
	C124.553474,127.088219 125.010574,127.032425 125.383766,127.051941 
	C126.839828,126.652069 127.922699,126.232681 129.236511,125.714233 
	C129.631897,125.583191 129.796326,125.551193 130.079742,125.807709 
	C130.778152,125.673912 131.357590,125.251610 132.169647,124.632690 
	C133.172058,124.209984 133.941879,123.983902 135.090118,123.816299 
	C139.637604,122.671387 140.231155,119.473671 140.504272,115.711945 
	C140.623825,114.065414 142.183884,112.523468 143.089783,110.934029 
	C144.718079,115.348633 146.346375,119.763237 147.745300,124.773804 
	C147.666977,129.233566 147.818039,133.097366 147.969116,136.961151 
	C147.969116,136.961151 148.003860,136.982330 147.636780,136.984131 
	C146.574890,136.931808 145.880066,136.877686 145.185257,136.823547 
	C144.867523,136.394821 144.549774,135.966095 144.093109,134.936157 
	C142.649033,133.573730 141.343857,132.812485 140.038696,132.051254 
	C140.038696,132.051254 139.965164,132.064056 139.780426,131.684998 
	C136.036118,131.148376 132.476532,130.990829 128.916962,130.833298 
	C128.916962,130.833298 128.523438,130.980972 127.966347,130.963547 
	C126.628113,131.308609 125.846977,131.671097 125.065834,132.033585 
	C125.065834,132.033585 125.038353,132.067093 124.787445,132.099396 
	C124.234184,132.254166 124.014267,132.463318 123.876785,132.759186 
	C123.876785,132.759186 123.554260,132.961746 123.106415,133.053345 
	C122.436928,133.407852 122.215279,133.670761 121.993637,133.933670 
	C121.562523,134.246048 121.131424,134.558426 120.184242,134.695511 
	C119.046356,134.464279 118.129051,134.113541 117.846832,134.396393 
	C113.228767,139.025101 108.111626,141.357010 101.568367,138.562805 
	C100.892494,138.274170 99.840096,138.867279 98.962410,139.051254 
z"/>
<path fill="#F5E7E6" opacity="1.000000" stroke="none" 
	d="
M65.017303,240.125717 
	C63.893799,241.678848 62.770294,243.231964 61.473351,245.024857 
	C55.053276,240.839798 48.875534,237.069473 43.007954,232.866196 
	C40.530716,231.091599 38.772102,228.339249 36.568714,226.150238 
	C34.070477,223.668289 31.449949,221.308640 28.860317,218.919968 
	C28.132999,218.249084 27.146667,217.793213 26.587618,217.016647 
	C23.496620,212.722961 20.878868,208.020981 17.368591,204.115341 
	C13.702191,200.035965 10.332275,196.059067 8.846963,190.610199 
	C8.537176,189.473755 6.286185,188.866455 4.568690,188.006561 
	C4.423055,186.913559 4.638503,185.829300 5.295260,184.420746 
	C6.121389,184.107758 6.506210,184.119064 6.891031,184.130386 
	C6.891031,184.130386 7.014243,184.051605 7.084536,184.406769 
	C8.524591,186.673264 9.865533,188.606033 11.269634,190.491806 
	C15.144680,195.696136 19.046125,200.880814 22.937134,206.073273 
	C22.937134,206.073273 22.999163,206.001297 23.081320,206.346649 
	C26.027248,209.540421 28.891018,212.388840 31.754789,215.237259 
	C31.754789,215.237259 32.010471,215.037994 31.961906,215.464340 
	C33.756088,217.722641 35.598839,219.554611 37.441589,221.386566 
	C37.441589,221.386566 37.511093,221.487152 37.661514,221.807281 
	C38.719532,222.875534 39.627129,223.623688 40.534725,224.371826 
	C40.534729,224.371826 40.601372,224.402679 40.705444,224.744110 
	C42.975590,227.026443 45.141663,228.967346 47.307739,230.908249 
	C47.307743,230.908249 47.274445,231.183060 47.299103,231.649078 
	C47.880432,232.411255 48.437096,232.707443 49.301003,233.138275 
	C51.753246,234.455246 53.898247,235.637589 56.043251,236.819931 
	C57.102196,237.259811 58.161137,237.699692 59.798752,238.413177 
	C61.924049,239.166428 63.470680,239.646072 65.017303,240.125717 
z"/>
<path fill="#F2EAEE" opacity="1.000000" stroke="none" 
	d="
M84.458260,245.907166 
	C84.007660,244.782455 84.006241,243.740219 84.289856,242.441772 
	C85.407936,242.024551 86.240997,241.863541 87.493134,241.779083 
	C91.373848,242.175949 95.043701,242.927399 96.174408,237.805313 
	C96.473106,237.116974 96.554161,236.593887 96.749603,235.690552 
	C97.973343,234.177170 98.903328,232.720108 100.232567,231.984192 
	C102.421089,230.772552 104.868011,230.027664 107.530731,229.070068 
	C108.563210,228.652588 109.270958,228.251068 110.283981,227.662491 
	C111.799156,226.705399 113.009064,225.935379 114.250275,225.261108 
	C114.281586,225.356857 114.413208,225.507202 114.796356,225.611816 
	C117.019043,225.022873 118.806854,224.069077 120.709099,223.690948 
	C124.457779,222.945801 128.269928,222.519958 132.044403,221.971573 
	C132.032990,221.981094 132.042526,221.946045 132.018051,222.354095 
	C132.005478,224.123825 132.017365,225.485535 132.029251,226.847229 
	C127.135063,228.216904 122.040222,229.112213 117.397369,231.076080 
	C111.565269,233.542999 106.034660,236.765289 100.524841,239.924744 
	C98.937599,240.834915 98.102188,243.422302 96.518303,243.898972 
	C92.777092,245.024796 88.793190,245.344147 84.458260,245.907166 
z"/>
<path fill="#99703E" opacity="1.000000" stroke="none" 
	d="
M136.921722,98.587524 
	C134.590637,90.164108 132.118546,81.350723 130.129044,72.429710 
	C128.453476,64.916374 128.101898,57.034012 125.776138,49.758759 
	C123.080688,41.327061 122.481461,31.920546 116.508675,24.831757 
	C114.314171,22.227217 110.750595,20.781073 107.828217,18.782116 
	C106.905403,18.150894 106.036842,17.440340 105.094398,16.127071 
	C105.062408,15.295429 105.079483,15.102808 105.096558,14.910187 
	C114.971947,18.320799 121.605873,24.781528 123.979294,35.159767 
	C127.594872,50.969551 131.249954,66.771469 134.681366,82.621521 
	C135.786301,87.725357 136.238846,92.970436 136.921722,98.587524 
z"/>
<path fill="#F0E8EA" opacity="1.000000" stroke="none" 
	d="
M157.035645,193.981766 
	C161.561935,200.818848 158.920792,210.677841 151.319916,216.044006 
	C149.560165,217.286392 148.246872,219.161118 146.130722,220.883850 
	C145.344070,221.033554 145.154831,221.044266 144.714020,220.938553 
	C143.984360,220.546158 143.506241,220.270218 143.028961,219.660156 
	C143.007034,218.883591 142.984268,218.441162 143.133881,217.736938 
	C143.350510,217.063049 143.394760,216.650925 143.606201,216.208008 
	C143.773376,216.177231 144.074158,216.018784 144.325027,215.771942 
	C144.670898,214.607742 144.765884,213.690384 144.768326,212.577881 
	C144.675766,212.382736 144.438019,212.022064 144.631561,211.783188 
	C144.926407,211.366104 145.027679,211.187912 145.350464,210.843231 
	C145.734314,210.160263 145.896652,209.643768 146.161194,208.857147 
	C146.503586,208.071655 146.743790,207.556290 147.212677,206.929688 
	C147.833450,206.501099 148.225555,206.183792 148.975723,205.785736 
	C150.507385,203.038147 151.680984,200.371292 152.862915,197.398590 
	C153.018036,196.714233 153.164841,196.335739 153.491791,195.757965 
	C153.712082,195.206253 153.752213,194.853806 153.729309,194.364120 
	C153.666306,194.226898 153.812454,193.962616 154.215302,193.976944 
	C155.423996,193.988098 156.229813,193.984940 157.035645,193.981766 
z"/>
<path fill="#A86D2C" opacity="1.000000" stroke="none" 
	d="
M124.958199,18.049170 
	C121.836380,21.056133 118.288132,20.511562 116.002831,17.679045 
	C114.667419,16.023865 114.634354,12.616994 115.201195,10.286613 
	C116.132042,6.459743 119.004143,4.398343 123.820801,5.386505 
	C126.853127,8.107194 128.067215,10.559345 125.827606,13.874825 
	C125.091393,14.964721 125.223282,16.641022 124.958199,18.049170 
z"/>
<path fill="#B07126" opacity="1.000000" stroke="none" 
	d="
M47.804863,7.085375 
	C48.153469,7.502865 48.502071,7.920357 48.949593,8.957935 
	C49.123367,10.236292 49.461926,11.015195 49.225861,11.531230 
	C48.361694,13.420295 47.687046,16.211355 46.215561,16.777645 
	C44.748520,17.342220 41.492325,16.187769 40.672802,14.806624 
	C39.492847,12.818043 39.806793,9.943033 39.483166,7.446338 
	C42.257065,7.326017 45.030964,7.205696 47.804863,7.085375 
z"/>
<path fill="#937147" opacity="1.000000" stroke="none" 
	d="
M47.846874,6.685174 
	C45.030964,7.205696 42.257065,7.326017 39.483166,7.446338 
	C39.806793,9.943033 39.492847,12.818043 40.672802,14.806624 
	C41.492325,16.187769 44.748520,17.342220 46.215561,16.777645 
	C47.687046,16.211355 48.361694,13.420295 49.225861,11.531230 
	C49.461926,11.015195 49.123367,10.236292 49.062248,9.207205 
	C50.008472,10.598554 52.166321,13.119485 51.636032,13.975865 
	C50.232864,16.241884 47.939011,18.689745 45.503910,19.426266 
	C40.853748,20.832747 38.549171,17.501329 36.775185,13.542683 
	C35.122330,9.854338 36.031418,6.598542 38.985382,4.935376 
	C41.670067,3.423820 45.509178,2.122401 47.846874,6.685174 
z"/>
<path fill="#A47F57" opacity="1.000000" stroke="none" 
	d="
M105.083374,14.925919 
	C105.079483,15.102808 105.062408,15.295429 105.025009,15.778185 
	C97.958015,15.713712 90.914421,15.168003 83.863876,15.054741 
	C75.756302,14.924498 67.642570,15.176870 59.188187,15.129716 
	C61.297817,14.341573 63.740807,13.168748 66.205460,13.121283 
	C77.108559,12.911304 88.018127,12.989769 98.924675,13.064075 
	C100.345192,13.073752 101.761765,13.664780 103.733978,14.257048 
	C104.510208,14.758605 104.780685,14.892717 105.099236,14.929900 
	C105.099236,14.929900 105.070183,14.941651 105.083374,14.925919 
z"/>
<path fill="#987041" opacity="1.000000" stroke="none" 
	d="
M42.668575,30.157734 
	C40.744972,41.733269 38.514282,53.521030 35.826019,65.656845 
	C34.970432,66.005127 34.572411,66.005371 34.174393,66.005615 
	C36.448471,55.341782 38.704021,44.673923 41.021366,34.019501 
	C41.294189,32.765167 41.906532,31.584681 42.668575,30.157734 
z"/>
<path fill="#B68755" opacity="1.000000" stroke="none" 
	d="
M6.925557,183.739197 
	C6.506210,184.119064 6.121389,184.107758 5.447757,184.101990 
	C4.176576,179.611298 6.526434,176.913895 9.645081,173.985687 
	C11.753866,172.005707 12.483688,168.557083 14.020086,165.445663 
	C13.215676,168.706711 12.471128,172.383209 11.146409,175.837173 
	C10.130374,178.486298 8.382481,180.854721 6.925557,183.739197 
z"/>
<path fill="#987041" opacity="1.000000" stroke="none" 
	d="
M54.608711,17.977085 
	C51.196640,21.942261 47.421436,25.932631 43.295830,29.952602 
	C44.692936,24.084265 49.111752,20.706053 54.608711,17.977085 
z"/>
<path fill="#997742" opacity="1.000000" stroke="none" 
	d="
M33.677624,69.059616 
	C33.502903,74.380257 32.999031,79.927521 31.962101,85.526665 
	C31.280846,84.754524 31.132647,83.930519 30.984447,83.106506 
	C31.772455,78.499756 32.560463,73.892998 33.677624,69.059616 
z"/>
<path fill="#46CBD1" opacity="1.000000" stroke="none" 
	d="
M142.985229,110.643547 
	C142.183884,112.523468 140.623825,114.065414 140.504272,115.711945 
	C140.231155,119.473671 139.637604,122.671387 135.288940,123.560356 
	C135.740631,122.183937 136.371918,121.121933 137.003204,120.059921 
	C137.003204,120.059929 137.057449,120.037537 137.400131,119.849030 
	C138.044800,116.977798 138.127060,114.243492 138.739731,111.633698 
	C139.054825,110.291428 140.315277,109.171089 141.148529,107.950462 
	C141.725906,108.751328 142.303268,109.552200 142.985229,110.643547 
z"/>
<path fill="#758C67" opacity="1.000000" stroke="none" 
	d="
M140.992432,107.631531 
	C140.315277,109.171089 139.054825,110.291428 138.739731,111.633698 
	C138.127060,114.243492 138.044800,116.977798 137.398560,119.819733 
	C137.383682,114.247253 137.713058,108.515572 138.070312,102.400009 
	C139.010941,103.781624 139.923645,105.547112 140.992432,107.631531 
z"/>
<path fill="#F2EAEE" opacity="1.000000" stroke="none" 
	d="
M134.916504,228.038071 
	C134.285141,227.855438 133.653778,227.672806 133.135376,227.024124 
	C133.827362,225.745834 134.406387,224.933594 135.362671,224.101212 
	C136.479294,223.988129 137.218674,223.895172 138.262741,223.839905 
	C139.160797,223.730331 139.754181,223.583084 140.741318,223.574249 
	C142.143784,224.114075 143.152481,224.515488 144.122635,225.214859 
	C144.076828,225.712982 144.069565,225.913147 144.062302,226.113297 
	C144.016479,226.467438 143.840912,226.737091 142.881577,226.968811 
	C139.790543,227.356262 137.353531,227.697174 134.916504,228.038071 
z"/>
<path fill="#B08D5D" opacity="1.000000" stroke="none" 
	d="
M153.030121,179.034470 
	C153.461700,179.262482 153.893280,179.490509 154.550720,179.809509 
	C154.938446,183.702560 155.100311,187.504608 154.858826,191.656677 
	C154.243362,191.979340 154.031235,191.951996 153.593109,191.769073 
	C153.211502,191.089615 153.055908,190.565704 152.900314,190.041794 
	C152.936447,187.334122 152.972580,184.626450 153.027496,181.137756 
	C153.040909,179.915985 153.035522,179.475220 153.030121,179.034470 
z"/>
<path fill="#A9845A" opacity="1.000000" stroke="none" 
	d="
M125.291687,17.929230 
	C125.223282,16.641022 125.091393,14.964721 125.827606,13.874825 
	C128.067215,10.559345 126.853127,8.107194 124.228401,5.454679 
	C128.865631,5.778162 130.625336,8.504857 128.832077,13.076993 
	C128.153351,14.807484 126.716476,16.240618 125.291687,17.929230 
z"/>
<path fill="#8D8B6F" opacity="1.000000" stroke="none" 
	d="
M153.933731,133.666870 
	C152.749237,134.006195 151.435898,134.021469 149.584747,133.703583 
	C149.073090,130.916031 149.099274,128.461624 149.125458,126.007233 
	C150.685272,128.452438 152.245087,130.897629 153.933731,133.666870 
z"/>
<path fill="#40D3DD" opacity="1.000000" stroke="none" 
	d="
M149.024384,125.764809 
	C149.099274,128.461624 149.073090,130.916031 149.191345,133.725906 
	C149.021469,134.872009 148.707138,135.662628 148.180969,136.707199 
	C147.818039,133.097366 147.666977,129.233566 147.790985,125.173950 
	C148.351807,125.159546 148.637573,125.340965 149.024384,125.764809 
z"/>
<path fill="#ECD1C2" opacity="1.000000" stroke="none" 
	d="
M144.161179,224.916901 
	C143.152481,224.515488 142.143784,224.114075 140.847168,223.333084 
	C140.679855,222.625366 140.800461,222.297226 141.191971,221.850250 
	C141.984619,221.152374 142.506378,220.573334 143.028122,219.994278 
	C143.506241,220.270218 143.984360,220.546158 144.720703,221.324310 
	C145.002319,222.604126 145.025696,223.381729 145.049057,224.159348 
	C145.049057,224.159348 145.015762,224.571762 144.770325,224.759033 
	C144.524872,224.946304 144.161179,224.916901 144.161179,224.916901 
z"/>
<path fill="#758C67" opacity="1.000000" stroke="none" 
	d="
M30.711266,83.273209 
	C31.132647,83.930519 31.280846,84.754524 31.669834,85.784515 
	C31.796267,87.188690 31.681908,88.386879 31.063072,89.619675 
	C30.004055,88.751022 29.449512,87.847771 28.894970,86.944519 
	C29.409340,85.776314 29.923712,84.608109 30.711266,83.273209 
z"/>
<path fill="#ECD1C2" opacity="1.000000" stroke="none" 
	d="
M134.985413,224.121353 
	C134.406387,224.933594 133.827362,225.745834 133.076599,226.820374 
	C132.904846,227.082672 132.452759,227.015884 132.240997,226.931549 
	C132.017365,225.485535 132.005478,224.123825 132.289017,222.352707 
	C132.938522,222.011169 133.292572,222.079041 133.789642,222.410980 
	C134.283569,223.157150 134.634491,223.639252 134.985413,224.121353 
z"/>
<path fill="#EBDAD6" opacity="1.000000" stroke="none" 
	d="
M135.084442,228.399597 
	C137.353531,227.697174 139.790543,227.356262 142.640228,227.026825 
	C140.452728,227.612579 137.852539,228.186844 135.084442,228.399597 
z"/>
<path fill="#46CBD1" opacity="1.000000" stroke="none" 
	d="
M28.637140,87.076569 
	C29.449512,87.847771 30.004055,88.751022 30.803780,89.872437 
	C31.043190,90.501823 31.037416,90.913040 30.802681,91.690018 
	C30.273806,92.195351 30.008118,92.383293 29.776661,92.619614 
	C29.091375,91.472809 28.406090,90.326012 27.323799,89.065964 
	C27.410965,88.371361 27.895138,87.789993 28.637140,87.076569 
z"/>
<path fill="#EBDAD6" opacity="1.000000" stroke="none" 
	d="
M153.819107,191.924637 
	C154.031235,191.951996 154.243362,191.979340 154.774719,191.972137 
	C155.689346,192.429703 156.284760,192.921814 156.957916,193.697845 
	C156.229813,193.984940 155.423996,193.988098 154.160507,193.639587 
	C153.741592,192.833481 153.780350,192.379059 153.819107,191.924637 
z"/>
<path fill="#987041" opacity="1.000000" stroke="none" 
	d="
M57.067951,17.939032 
	C56.598804,17.955513 56.129658,17.971994 55.308037,17.980667 
	C55.380833,17.323071 55.806107,16.673285 56.856110,16.017929 
	C57.673988,16.031813 57.867138,16.051271 58.060284,16.070728 
	C58.060284,16.070728 58.035126,16.510061 57.817833,16.849213 
	C57.343140,17.381939 57.165607,17.632160 57.067951,17.939032 
z"/>
<path fill="#997742" opacity="1.000000" stroke="none" 
	d="
M34.112076,66.353157 
	C34.572411,66.005371 34.970432,66.005127 35.666283,66.006714 
	C35.571640,66.653786 35.179165,67.299026 34.488792,68.023979 
	C34.143848,67.636032 34.096802,67.168365 34.112076,66.353157 
z"/>
<path fill="#EBDAD6" opacity="1.000000" stroke="none" 
	d="
M145.374115,224.005951 
	C145.025696,223.381729 145.002319,222.604126 144.972260,221.440750 
	C145.154831,221.044266 145.344070,221.033554 145.817352,221.033813 
	C145.967346,221.980728 145.833267,222.916656 145.374115,224.005951 
z"/>
<path fill="#8D8B6F" opacity="1.000000" stroke="none" 
	d="
M155.004486,136.603790 
	C154.675705,136.169327 154.318222,135.391541 153.988129,134.273972 
	C154.335617,134.709610 154.655716,135.485062 155.004486,136.603790 
z"/>
<path fill="#8D8B6F" opacity="1.000000" stroke="none" 
	d="
M155.977722,138.609039 
	C155.708649,138.444580 155.406128,137.996048 155.080505,137.264313 
	C155.353012,137.429077 155.648636,137.877014 155.977722,138.609039 
z"/>
<path fill="#A47F57" opacity="1.000000" stroke="none" 
	d="
M58.083519,15.847488 
	C57.867138,16.051271 57.673988,16.031813 57.190033,15.995534 
	C57.134392,15.702691 57.369545,15.426670 57.888302,15.165380 
	C58.171906,15.180113 58.106754,15.624249 58.083519,15.847488 
z"/>
<path fill="#EBDAD6" opacity="1.000000" stroke="none" 
	d="
M144.122635,225.214859 
	C144.161179,224.916901 144.524872,224.946304 144.706970,224.955978 
	C144.799103,225.299606 144.709137,225.633560 144.340729,226.040405 
	C144.069565,225.913147 144.076828,225.712982 144.122635,225.214859 
z"/>
<path fill="#99703E" opacity="1.000000" stroke="none" 
	d="
M104.999008,14.699553 
	C104.780685,14.892717 104.510208,14.758605 104.151367,14.342653 
	C104.309547,14.261562 104.604164,14.365383 104.999008,14.699553 
z"/>
<path fill="#F7AD45" opacity="1.000000" stroke="none" 
	d="
M89.079521,48.626816 
	C94.268997,50.526188 94.762817,55.077263 94.819054,59.525173 
	C94.931808,68.442955 94.805656,77.368439 94.553673,86.284409 
	C94.400337,91.709717 88.718910,96.723015 83.068916,96.817215 
	C76.666443,96.923958 71.093285,92.163383 71.007866,86.150978 
	C70.868767,76.360466 70.640083,66.547409 71.191925,56.785854 
	C71.351242,53.967751 74.054665,51.293472 76.041595,48.466339 
	C77.006165,49.224625 77.520882,50.069824 78.227196,51.243607 
	C81.211769,51.627522 84.004745,51.682858 86.974670,51.746208 
	C87.241455,51.680618 87.418854,51.581715 87.406151,51.537739 
	C87.346825,51.332424 87.235039,51.142262 87.196548,50.649311 
	C87.308411,49.952564 87.365715,49.553185 87.710480,49.111633 
	C88.358475,48.921913 88.718994,48.774364 89.079521,48.626816 
M85.251572,59.997753 
	C83.833557,60.332565 82.415550,60.667377 80.330765,60.880035 
	C80.528542,59.076237 80.726326,57.272442 80.929939,55.415409 
	C78.996429,55.415409 76.775063,55.415409 74.000427,55.415409 
	C74.000427,61.941978 74.438858,68.280090 73.874634,74.527657 
	C73.332207,80.533813 71.778069,86.420860 78.779922,89.879402 
	C79.233177,90.103279 79.353363,91.001427 79.613945,91.555038 
	C81.090736,91.394073 82.410461,91.345970 83.687675,91.087662 
	C85.426964,90.735893 88.281700,90.650978 88.636063,89.698975 
	C89.638474,87.005951 93.763412,84.469116 89.998512,80.203110 
	C89.998398,79.134392 89.998283,78.065666 89.999580,76.064400 
	C89.999580,68.617805 89.999580,61.171219 89.999580,53.541504 
	C85.362228,54.489738 86.077538,57.440899 85.251572,59.997753 
z"/>
<path fill="#E5E2DE" opacity="1.000000" stroke="none" 
	d="
M85.028160,37.023407 
	C90.599609,37.023407 96.171051,37.023407 101.727097,37.023407 
	C100.973648,43.861797 98.273880,46.385029 90.419327,46.580215 
	C86.819351,43.925919 83.069588,41.951397 85.028160,37.023407 
z"/>
<path fill="#E1DFDC" opacity="1.000000" stroke="none" 
	d="
M73.822189,46.896885 
	C71.423660,45.699249 68.542419,44.965931 66.791374,43.145496 
	C65.564575,41.870075 65.880539,39.110706 65.507507,37.014061 
	C67.865456,37.248421 70.219757,37.535412 72.582611,37.698807 
	C74.182625,37.809456 75.805313,37.863316 77.397400,37.718174 
	C78.393700,37.627350 79.352013,37.119873 80.683342,37.305847 
	C81.507965,43.124023 77.795029,45.113693 73.822189,46.896885 
z"/>
<path fill="#758C67" opacity="1.000000" stroke="none" 
	d="
M136.641296,120.079407 
	C136.371918,121.121933 135.740631,122.183937 134.910522,123.501877 
	C133.941879,123.983902 133.172058,124.209984 131.899277,124.646950 
	C130.917801,125.078285 130.439285,125.298744 129.960770,125.519196 
	C129.796326,125.551193 129.631897,125.583191 128.871979,125.704323 
	C127.187851,126.206451 126.099213,126.619438 125.010574,127.032425 
	C125.010574,127.032425 124.553474,127.088219 123.981735,127.124344 
	C121.916367,127.739204 120.422752,128.317932 118.929131,128.896667 
	C117.853180,129.227844 116.777229,129.559021 115.050461,129.980774 
	C113.239281,130.602142 112.078918,131.132935 110.918556,131.663727 
	C110.486244,131.740799 110.053932,131.817871 109.006660,131.947205 
	C107.887131,132.262405 107.382568,132.525360 106.878006,132.788315 
	C106.877998,132.788315 106.914124,132.927521 106.536514,132.840607 
	C105.087334,133.150925 104.015755,133.548157 102.944176,133.945389 
	C102.944176,133.945389 102.993958,133.996902 102.643478,133.942505 
	C101.479149,134.225128 100.665306,134.562149 99.851456,134.899155 
	C99.454575,134.957535 99.057686,135.015930 98.005157,135.073792 
	C96.447083,135.328400 95.544655,135.583542 94.349388,135.921463 
	C94.238823,134.810028 94.148201,133.899002 94.057571,132.987991 
	C99.048393,132.023895 104.196075,131.544724 108.996460,129.991928 
	C118.195007,127.016502 127.196266,123.431160 136.641296,120.079407 
z"/>
<path fill="#AE7C3B" opacity="1.000000" stroke="none" 
	d="
M74.137360,46.954346 
	C77.795029,45.113693 81.507965,43.124023 80.983810,37.421150 
	C82.021812,37.022694 83.115326,37.015430 84.618500,37.015785 
	C83.069588,41.951397 86.819351,43.925919 90.028534,46.557297 
	C89.871758,47.244160 89.507744,47.661076 89.111626,48.352402 
	C88.718994,48.774364 88.358475,48.921913 87.526695,48.755730 
	C85.139580,47.670483 83.052277,46.052372 81.361977,46.394676 
	C80.003746,46.669735 79.126350,49.319176 78.035599,50.915031 
	C77.520882,50.069824 77.006165,49.224625 76.249107,48.192879 
	C75.488686,47.674828 74.970612,47.343319 74.137360,46.954346 
z"/>
<path fill="#758C67" opacity="1.000000" stroke="none" 
	d="
M77.828766,137.253967 
	C77.035141,137.645142 76.241531,138.036301 74.788101,138.701706 
	C72.414734,139.066483 70.701195,139.157013 68.987648,139.247543 
	C68.987648,139.247543 68.517776,139.085388 68.086594,138.807617 
	C67.080307,138.387756 66.505211,138.245667 65.930115,138.103577 
	C65.930115,138.103577 65.601593,137.953094 65.265800,137.714249 
	C64.610809,137.344284 64.291611,137.213181 63.972412,137.082062 
	C63.972412,137.082062 63.977119,137.015427 63.778526,136.763367 
	C62.412682,135.965561 61.245438,135.419846 60.078190,134.874115 
	C59.915398,134.565842 59.752609,134.257584 59.523697,133.696259 
	C61.574234,134.123871 63.790611,134.592224 65.786697,135.529663 
	C69.881805,137.452896 73.741005,138.518265 77.391533,134.648987 
	C77.776222,134.241272 78.881882,134.513733 79.896240,134.724548 
	C80.139427,134.978470 80.160217,135.455261 79.815659,135.695709 
	C78.923660,136.375443 78.376213,136.814713 77.828766,137.253967 
z"/>
<path fill="#46CBD1" opacity="1.000000" stroke="none" 
	d="
M93.864426,132.838959 
	C94.148201,133.899002 94.238823,134.810028 94.349388,135.921463 
	C95.544655,135.583542 96.447083,135.328400 97.709763,135.132538 
	C97.439896,136.200470 96.809776,137.209122 96.140816,138.518188 
	C92.694656,139.591339 89.287346,140.364075 85.481880,141.123505 
	C87.352959,138.438019 92.065308,137.886353 92.223373,132.696289 
	C92.634483,132.155960 92.799324,132.087387 92.964165,132.018814 
	C93.189583,132.253342 93.425285,132.477051 93.864426,132.838959 
z"/>
<path fill="#758C67" opacity="1.000000" stroke="none" 
	d="
M36.005005,114.917786 
	C35.861897,114.634735 35.656784,114.407692 35.089958,113.902451 
	C34.588947,113.273758 34.310799,113.109093 33.955799,113.074234 
	C33.955799,113.074234 33.984406,112.996933 33.858459,112.733246 
	C32.801941,111.675652 31.871367,110.881744 30.940792,110.087837 
	C30.831894,109.783836 30.668133,109.513008 30.206650,108.768646 
	C29.681543,105.819847 29.399302,103.377754 29.117060,100.935661 
	C30.150776,107.272629 35.597439,110.592583 38.662815,115.688690 
	C37.931255,116.005379 37.499012,115.969315 37.066772,115.933250 
	C37.066772,115.933250 37.050358,115.951950 36.961708,115.704559 
	C36.583706,115.277374 36.294353,115.097580 36.005005,114.917786 
z"/>
<path fill="#758C67" opacity="1.000000" stroke="none" 
	d="
M53.660759,128.687622 
	C52.569492,128.392044 51.625977,127.848991 50.251411,126.855789 
	C48.845219,125.656784 47.870075,124.907928 46.894936,124.159081 
	C46.894936,124.159081 46.922600,124.084045 46.768349,123.826401 
	C46.094749,123.316864 45.575401,123.064980 45.056053,122.813087 
	C44.232071,121.963593 43.408092,121.114090 42.260956,119.863640 
	C41.836266,119.106712 41.734726,118.750748 41.633194,118.394775 
	C45.691635,121.743233 49.750076,125.091690 53.660759,128.687622 
z"/>
<path fill="#46CBD1" opacity="1.000000" stroke="none" 
	d="
M29.135588,100.649445 
	C29.399302,103.377754 29.681543,105.819847 30.014633,108.627129 
	C26.069851,107.765747 27.042440,104.387230 27.135164,101.638138 
	C27.204702,99.576508 28.053612,97.541176 28.882595,95.683151 
	C29.268824,96.994362 29.327991,98.116570 29.387159,99.238770 
	C29.309479,99.613586 29.231796,99.988403 29.135588,100.649445 
z"/>
<path fill="#758C67" opacity="1.000000" stroke="none" 
	d="
M29.691778,99.083679 
	C29.327991,98.116570 29.268824,96.994362 29.187000,95.449448 
	C29.218216,94.838135 29.272087,94.649536 29.403410,94.033958 
	C29.480864,93.606979 29.466339,93.319283 29.466339,93.319283 
	C29.466339,93.319283 29.661646,92.985634 29.719152,92.802628 
	C30.008118,92.383293 30.273806,92.195351 30.813988,91.999252 
	C30.701635,94.271347 30.349016,96.599968 29.691778,99.083679 
z"/>
<path fill="#46CBD1" opacity="1.000000" stroke="none" 
	d="
M41.386303,118.231201 
	C41.734726,118.750748 41.836266,119.106712 41.992470,119.736053 
	C40.399467,118.884224 38.751793,117.759033 37.085445,116.283546 
	C37.499012,115.969315 37.931255,116.005379 38.690201,116.034866 
	C39.724411,116.708061 40.431911,117.387840 41.386303,118.231201 
z"/>
<path fill="#46CBD1" opacity="1.000000" stroke="none" 
	d="
M89.855240,132.680115 
	C87.631020,133.545471 85.406799,134.410828 82.967239,135.003784 
	C82.751900,134.731384 82.766434,134.346771 82.883667,134.179016 
	C83.000893,134.011276 83.021820,133.992020 83.021820,133.992004 
	C84.087624,133.662170 85.153427,133.332321 86.894592,132.934998 
	C88.331718,132.805054 89.093483,132.742584 89.855240,132.680115 
z"/>
<path fill="#758C67" opacity="1.000000" stroke="none" 
	d="
M90.101761,132.554443 
	C89.093483,132.742584 88.331718,132.805054 87.195236,132.785004 
	C88.719658,132.280792 90.618805,131.859100 92.741058,131.728119 
	C92.799324,132.087387 92.634483,132.155960 92.229721,132.342896 
	C91.442627,132.450409 90.895462,132.439590 90.101761,132.554443 
z"/>
<path fill="#758C67" opacity="1.000000" stroke="none" 
	d="
M57.898125,131.900040 
	C57.526344,132.199356 57.142044,132.145203 56.342476,131.788315 
	C55.622314,131.324600 55.317421,131.163635 55.012531,131.002655 
	C55.012531,131.002655 55.003307,130.997711 55.025276,130.717178 
	C55.076340,130.254333 55.105438,130.072021 55.134533,129.889725 
	C56.051559,130.442017 56.968586,130.994293 57.898125,131.900040 
z"/>
<path fill="#46CBD1" opacity="1.000000" stroke="none" 
	d="
M54.814117,129.770020 
	C55.105438,130.072021 55.076340,130.254333 55.023495,130.712494 
	C54.428623,130.672409 53.857498,130.356491 53.227535,129.695892 
	C53.610363,129.450912 54.052032,129.550613 54.814117,129.770020 
z"/>
<path fill="#A47F57" opacity="1.000000" stroke="none" 
	d="
M57.276882,17.831259 
	C57.165607,17.632160 57.343140,17.381939 57.802483,17.068703 
	C57.917881,17.265051 57.745014,17.523199 57.276882,17.831259 
z"/>
<path fill="#758C67" opacity="1.000000" stroke="none" 
	d="
M82.986824,134.016571 
	C82.852806,133.896774 82.732849,133.771698 82.612900,133.646606 
	C82.718033,133.668869 82.823158,133.691132 82.975052,133.852707 
	C83.021820,133.992020 83.000893,134.011276 82.986824,134.016571 
z"/>
<path fill="#9A5E11" opacity="1.000000" stroke="none" 
	d="
M145.019440,142.360733 
	C145.468369,141.956558 145.910461,141.980057 146.683548,142.035477 
	C149.554535,146.622375 146.827484,150.201843 144.419586,153.440720 
	C139.534576,160.011551 134.224289,166.266205 129.089310,172.651184 
	C129.314987,173.213348 129.540680,173.775497 129.766357,174.337662 
	C136.543945,172.684875 143.321548,171.032089 150.791840,169.210388 
	C150.821182,169.258392 151.455032,170.295425 152.354126,171.766434 
	C150.723831,172.074265 149.559082,172.294205 148.196381,172.758652 
	C141.972534,174.018539 135.946640,175.033920 129.083969,176.044296 
	C126.822311,177.021606 125.397438,178.003906 123.972572,178.986221 
	C118.017891,181.808731 112.160378,184.870270 106.065460,187.347809 
	C103.233742,188.498871 99.940689,188.515015 96.178528,189.048279 
	C95.500298,189.050903 95.014053,189.074387 95.014053,189.074387 
	C92.967850,189.060379 90.921638,189.046371 88.036827,189.024094 
	C86.128822,189.004333 85.059433,188.992844 83.990036,188.981354 
	C83.990036,188.981354 83.507088,188.965668 83.061539,188.715088 
	C81.076286,187.646225 79.536598,186.827911 77.996910,186.009598 
	C77.996910,186.009598 78.000114,185.999390 77.993958,185.664474 
	C77.987442,184.880615 77.987076,184.431656 77.986710,183.982712 
	C87.774757,187.787628 97.739342,188.196030 107.570168,184.587921 
	C119.299255,180.283142 128.156769,172.340256 134.682587,161.704330 
	C136.223068,159.193619 137.857101,156.590118 139.999329,154.632568 
	C143.584259,151.356674 145.387939,147.605026 145.019440,142.360733 
z"/>
<path fill="#AF7127" opacity="1.000000" stroke="none" 
	d="
M153.593109,191.769073 
	C153.780350,192.379059 153.741592,192.833481 153.757660,193.625259 
	C153.812454,193.962616 153.666306,194.226898 153.526306,194.557129 
	C153.361420,195.243988 153.336533,195.600601 153.311646,195.957230 
	C153.164841,196.335739 153.018036,196.714233 152.598419,197.626862 
	C151.089615,200.729462 149.853638,203.297974 148.617661,205.866470 
	C148.225555,206.183792 147.833450,206.501099 146.880753,206.970032 
	C145.913101,207.820129 145.506042,208.518616 145.061859,209.425385 
	C145.024750,209.633682 144.792953,209.987717 144.480133,209.996506 
	C143.587143,210.384842 143.006973,210.764389 142.426804,211.143951 
	C143.097198,211.436661 143.767609,211.729370 144.438019,212.022064 
	C144.438019,212.022064 144.675766,212.382736 144.552383,212.746826 
	C144.207855,213.402039 143.986725,213.693176 143.473160,214.050934 
	C143.266830,214.824661 143.352921,215.531723 143.439011,216.238800 
	C143.394760,216.650925 143.350510,217.063049 142.817642,217.785492 
	C141.859726,219.386902 141.390396,220.677994 140.921066,221.969086 
	C140.800461,222.297226 140.679855,222.625366 140.453400,223.194672 
	C139.754181,223.583084 139.160797,223.730331 138.073975,223.547668 
	C136.269211,222.860809 134.957932,222.503876 133.646637,222.146927 
	C133.292572,222.079041 132.938522,222.011169 132.313492,221.944672 
	C132.042526,221.946045 132.032990,221.981094 132.052765,221.646057 
	C132.040756,220.878479 132.008957,220.445908 132.193634,219.844055 
	C131.657959,219.298386 130.905807,218.922028 129.804962,218.648956 
	C128.974350,218.750854 128.492416,218.749481 128.010956,218.404877 
	C128.006577,217.375244 128.001755,216.688858 127.996925,216.002472 
	C128.422668,215.999771 128.848419,215.997055 129.832489,216.134430 
	C131.205933,214.544876 132.280243,212.888367 132.792480,211.073227 
	C135.360077,201.974747 137.322647,201.009430 145.623718,205.366867 
	C145.395752,204.101517 145.205994,203.048355 145.016251,201.995178 
	C149.581390,199.535477 151.478851,195.352371 152.656372,190.294189 
	C153.055908,190.565704 153.211502,191.089615 153.593109,191.769073 
z"/>
<path fill="#B27221" opacity="1.000000" stroke="none" 
	d="
M104.984306,159.996704 
	C106.631836,161.315796 108.279366,162.634888 109.926895,163.953979 
	C108.285187,165.582092 106.901009,168.075699 104.947792,168.656891 
	C100.965706,169.841766 98.051414,171.407791 95.883621,175.307678 
	C93.375351,179.820099 82.311478,179.141022 79.499466,174.374054 
	C88.073868,175.086884 94.288437,171.417725 99.674644,165.797165 
	C101.487801,163.905136 103.216835,161.932510 104.984306,159.996704 
z"/>
<path fill="#9B5F11" opacity="1.000000" stroke="none" 
	d="
M105.015381,159.678848 
	C103.216835,161.932510 101.487801,163.905136 99.674644,165.797165 
	C94.288437,171.417725 88.073868,175.086884 79.448555,173.999664 
	C78.226601,173.666031 77.453049,173.332993 76.173500,172.757812 
	C75.131058,172.333054 74.594597,172.150467 74.058136,171.967880 
	C74.042038,171.768326 74.025932,171.568771 73.957230,171.070740 
	C73.913361,170.049347 73.922081,169.326401 74.329697,168.324097 
	C77.540085,169.245712 80.333824,171.401245 83.166687,171.453949 
	C89.558075,171.572876 95.218544,168.596725 98.643608,163.286789 
	C102.332542,157.567749 104.929001,151.144058 108.002090,145.027771 
	C108.755890,145.030121 109.509689,145.032471 110.639656,145.457901 
	C111.011497,146.920593 111.007172,147.960220 111.002838,148.999832 
	C111.002838,148.999832 110.976974,149.489822 110.627899,149.786942 
	C108.848320,152.389114 107.417824,154.694183 105.987328,156.999252 
	C105.673706,157.786499 105.360077,158.573746 105.015381,159.678848 
z"/>
<path fill="#9B5F10" opacity="1.000000" stroke="none" 
	d="
M80.973320,236.246384 
	C80.159988,233.985962 79.346657,231.725555 78.267746,228.792725 
	C77.986298,226.079147 77.970421,224.037994 77.954552,221.996841 
	C81.472481,214.554565 89.367462,213.752625 93.924271,220.511047 
	C95.570274,222.952286 96.657082,225.770584 98.007843,229.085968 
	C97.338379,230.495621 96.660126,231.236130 95.941391,231.614441 
	C94.646141,228.394913 93.548737,225.454666 92.097649,222.700775 
	C90.191467,219.083176 86.906181,217.878403 83.320267,219.587601 
	C79.775230,221.277298 79.442696,224.407486 80.802605,228.049896 
	C81.876106,230.925201 82.321404,234.035049 82.774963,236.971375 
	C81.993919,236.683487 81.483620,236.464935 80.973320,236.246384 
z"/>
<path fill="#B68755" opacity="1.000000" stroke="none" 
	d="
M22.961796,205.669373 
	C19.046125,200.880814 15.144680,195.696136 11.269634,190.491806 
	C9.865533,188.606033 8.524591,186.673264 7.019233,184.437347 
	C10.614225,183.977570 12.242484,185.731323 13.441480,189.390472 
	C14.544913,192.757996 17.481180,195.498474 19.441956,198.620758 
	C20.773659,200.741333 21.815172,203.044144 22.961796,205.669373 
z"/>
<path fill="#9C6110" opacity="1.000000" stroke="none" 
	d="
M144.612030,201.938538 
	C145.205994,203.048355 145.395752,204.101517 145.623718,205.366867 
	C137.322647,201.009430 135.360077,201.974747 132.792480,211.073227 
	C132.280243,212.888367 131.205933,214.544876 130.151794,216.132385 
	C129.634491,215.208984 129.356216,214.427750 129.346954,213.164871 
	C130.062881,211.455109 130.509827,210.226990 130.956757,208.998856 
	C131.693237,201.531097 135.558762,199.454971 144.612030,201.938538 
z"/>
<path fill="#B68755" opacity="1.000000" stroke="none" 
	d="
M80.702133,236.478027 
	C81.483620,236.464935 81.993919,236.683487 83.145340,236.981750 
	C87.699310,239.291214 91.615456,241.476807 95.956779,237.970581 
	C95.043701,242.927399 91.373848,242.175949 87.313690,241.503113 
	C83.947151,237.032761 80.482719,238.068695 76.920662,239.827087 
	C75.893303,239.911606 74.865944,239.996124 73.106255,240.085922 
	C71.905769,240.166626 71.437622,240.242050 70.946609,240.185516 
	C70.923752,240.053589 71.034668,239.809830 71.034668,239.809830 
	C74.166763,238.776443 77.298851,237.743057 80.702133,236.478027 
z"/>
<path fill="#B68755" opacity="1.000000" stroke="none" 
	d="
M95.981873,231.976639 
	C96.660126,231.236130 97.338379,230.495621 98.086456,229.449890 
	C102.852417,227.743561 107.548546,226.342468 112.939598,224.955643 
	C113.841408,225.015549 114.048286,225.061172 114.256088,225.128784 
	C114.257011,225.150772 114.218964,225.165344 114.218964,225.165344 
	C113.009064,225.935379 111.799156,226.705399 109.957756,227.666061 
	C108.619507,228.266464 107.912758,228.676239 107.206001,229.085999 
	C104.868011,230.027664 102.421089,230.772552 100.232567,231.984192 
	C98.903328,232.720108 97.973343,234.177170 96.449020,235.587234 
	C96.016647,234.568344 95.999260,233.272491 95.981873,231.976639 
z"/>
<path fill="#B27221" opacity="1.000000" stroke="none" 
	d="
M106.349579,156.957001 
	C107.417824,154.694183 108.848320,152.389114 110.622986,150.032227 
	C112.168961,150.698196 113.370773,151.415985 115.746208,152.834747 
	C112.070656,154.494644 109.391243,155.704681 106.349579,156.957001 
z"/>
<path fill="#B27221" opacity="1.000000" stroke="none" 
	d="
M122.959053,152.998169 
	C121.411690,156.194916 121.411690,156.194916 116.017769,152.281113 
	C117.703941,151.152573 119.174431,150.168396 120.644913,149.184219 
	C121.410271,150.331833 122.175636,151.479431 122.959053,152.998169 
z"/>
<path fill="#B47121" opacity="1.000000" stroke="none" 
	d="
M54.800648,165.944977 
	C56.716434,166.733688 58.249153,167.549088 59.967766,168.646149 
	C57.019394,169.944382 53.885128,170.960968 50.375427,171.988770 
	C50.000000,172.000000 49.999695,172.000000 49.999695,172.000000 
	C52.206490,170.528595 49.681973,165.589828 54.800648,165.944977 
z"/>
<path fill="#B1752F" opacity="1.000000" stroke="none" 
	d="
M127.685791,216.161713 
	C128.001755,216.688858 128.006577,217.375244 127.723534,218.638763 
	C123.354935,220.899567 119.274200,222.583237 115.124695,224.178467 
	C115.055923,224.090042 114.913185,223.917358 114.913177,223.917358 
	C117.644295,222.103363 120.343918,220.239197 123.120117,218.497040 
	C124.464180,217.653564 125.951942,217.039093 127.685791,216.161713 
z"/>
<path fill="#B68755" opacity="1.000000" stroke="none" 
	d="
M31.793507,214.875610 
	C28.891018,212.388840 26.027248,209.540421 23.045494,206.377808 
	C28.640049,205.988525 29.018250,211.534622 31.793507,214.875610 
z"/>
<path fill="#B17124" opacity="1.000000" stroke="none" 
	d="
M130.620850,209.040054 
	C130.509827,210.226990 130.062881,211.455109 129.318512,212.853180 
	C126.834641,212.630264 124.648232,212.237411 122.461815,211.844559 
	C122.454308,211.504410 122.446800,211.164246 122.439301,210.824081 
	C125.054520,210.243149 127.669739,209.662201 130.620850,209.040054 
z"/>
<path fill="#B68755" opacity="1.000000" stroke="none" 
	d="
M37.602608,220.990387 
	C35.598839,219.554611 33.756088,217.722641 31.836710,215.568878 
	C35.447765,215.135895 38.321766,215.938309 37.602608,220.990387 
z"/>
<path fill="#B47121" opacity="1.000000" stroke="none" 
	d="
M60.397861,175.663788 
	C58.993244,175.187393 57.919235,174.576477 56.845230,173.965561 
	C56.969265,173.469635 57.093300,172.973724 57.217335,172.477814 
	C59.124660,172.378235 61.031986,172.278641 64.497322,172.097717 
	C62.469570,173.943985 61.599022,174.736618 60.397861,175.663788 
z"/>
<path fill="#B68755" opacity="1.000000" stroke="none" 
	d="
M65.424500,240.081833 
	C63.470680,239.646072 61.924049,239.166428 60.149117,238.429962 
	C62.894760,238.496490 65.868698,238.819839 68.961594,239.489990 
	C67.997597,239.903824 66.914635,239.970886 65.424500,240.081833 
z"/>
<path fill="#B68755" opacity="1.000000" stroke="none" 
	d="
M47.494698,230.685104 
	C45.141663,228.967346 42.975590,227.026443 40.722137,224.776810 
	C42.983727,226.466049 45.332687,228.464005 47.494698,230.685104 
z"/>
<path fill="#B37021" opacity="1.000000" stroke="none" 
	d="
M77.579605,222.012238 
	C77.970421,224.037994 77.986298,226.079147 78.009033,228.557281 
	C75.435326,226.941055 72.839890,224.889587 77.579605,222.012238 
z"/>
<path fill="#B68755" opacity="1.000000" stroke="none" 
	d="
M55.989487,236.473450 
	C53.898247,235.637589 51.753246,234.455246 49.297752,232.884949 
	C48.990635,232.328171 48.993999,232.159317 48.997364,231.990479 
	C52.231972,231.823090 54.832485,232.719299 55.989487,236.473450 
z"/>
<path fill="#AF7127" opacity="1.000000" stroke="none" 
	d="
M78.005768,186.384613 
	C79.536598,186.827911 81.076286,187.646225 82.819931,188.714432 
	C80.199593,190.852600 78.529099,190.119385 78.005768,186.384613 
z"/>
<path fill="#B27221" opacity="1.000000" stroke="none" 
	d="
M111.298706,148.842682 
	C111.007172,147.960220 111.011497,146.920593 111.014984,145.494110 
	C112.123055,144.410217 113.231949,143.713181 114.669601,142.983978 
	C113.863754,144.863037 112.729156,146.774277 111.298706,148.842682 
z"/>
<path fill="#AF7127" opacity="1.000000" stroke="none" 
	d="
M124.339355,178.984589 
	C125.397438,178.003906 126.822311,177.021606 128.626572,176.060974 
	C127.572685,177.049423 126.139412,178.016205 124.339355,178.984589 
z"/>
<path fill="#F5E7E6" opacity="1.000000" stroke="none" 
	d="
M73.010010,241.017929 
	C71.670082,243.813583 70.330811,243.814972 68.945465,240.670593 
	C69.371674,240.206009 69.844582,240.087845 70.676079,239.889740 
	C71.034668,239.809830 70.923752,240.053589 71.160934,240.359741 
	C71.935417,240.783249 72.472710,240.900589 73.010010,241.017929 
z"/>
<path fill="#B27221" opacity="1.000000" stroke="none" 
	d="
M73.708893,171.986053 
	C74.594597,172.150467 75.131058,172.333054 75.839500,172.748672 
	C74.581436,173.294357 73.151375,173.607010 71.721321,173.919678 
	C71.635521,173.511826 71.549721,173.103989 71.463921,172.696136 
	C72.095833,172.465500 72.727737,172.234863 73.708893,171.986053 
z"/>
<path fill="#AF7127" opacity="1.000000" stroke="none" 
	d="
M77.785980,183.747101 
	C77.987076,184.431656 77.987442,184.880615 77.988586,185.666168 
	C77.145874,185.254425 76.302399,184.506088 75.458923,183.757751 
	C76.167694,183.675674 76.876465,183.593582 77.785980,183.747101 
z"/>
<path fill="#AF7127" opacity="1.000000" stroke="none" 
	d="
M84.149452,189.277771 
	C85.059433,188.992844 86.128822,189.004333 87.598473,189.033859 
	C87.159065,191.983200 85.770584,191.037415 84.149452,189.277771 
z"/>
<path fill="#B68755" opacity="1.000000" stroke="none" 
	d="
M40.640762,223.999451 
	C39.627129,223.623688 38.719532,222.875534 37.703136,221.852051 
	C38.645161,222.260147 39.695984,222.943604 40.640762,223.999451 
z"/>
<path fill="#B47121" opacity="1.000000" stroke="none" 
	d="
M50.000153,172.000000 
	C49.397964,172.585480 48.803047,173.179565 48.168293,173.727493 
	C48.140591,173.751404 47.747391,173.351898 47.524452,173.149612 
	C48.125977,172.771072 48.727497,172.392532 49.664356,172.006989 
	C49.999695,172.000000 50.000000,172.000000 50.000153,172.000000 
z"/>
<path fill="#AF7127" opacity="1.000000" stroke="none" 
	d="
M150.172073,176.236481 
	C150.639954,176.149521 151.280502,176.297806 151.944901,176.734879 
	C151.427414,176.839676 150.886078,176.655716 150.172073,176.236481 
z"/>
<path fill="#AF7127" opacity="1.000000" stroke="none" 
	d="
M152.767822,179.019684 
	C153.035522,179.475220 153.040909,179.915985 153.023010,180.687225 
	C152.519180,180.461960 152.038620,179.906219 151.769287,179.167023 
	C152.155533,178.990646 152.330521,178.997772 152.767822,179.019684 
z"/>
<path fill="#B47121" opacity="1.000000" stroke="none" 
	d="
M62.035599,169.250122 
	C62.560722,169.102753 63.122646,169.254623 63.887123,169.620651 
	C63.417252,169.739670 62.744823,169.644531 62.035599,169.250122 
z"/>
<path fill="#B1752F" opacity="1.000000" stroke="none" 
	d="
M114.255165,225.106796 
	C114.048286,225.061172 113.841408,225.015549 113.323196,224.907257 
	C113.465187,224.566315 113.918518,224.288040 114.642517,223.963562 
	C114.913185,223.917358 115.055923,224.090042 114.913719,224.412598 
	C114.596039,224.850967 114.420563,224.966782 114.265259,225.084290 
	C114.285439,225.085953 114.255165,225.106796 114.255165,225.106796 
z"/>
<path fill="#EED4C8" opacity="1.000000" stroke="none" 
	d="
M48.701904,231.893509 
	C48.993999,232.159317 48.990635,232.328171 48.990517,232.750320 
	C48.437096,232.707443 47.880432,232.411255 47.268597,231.784073 
	C47.611099,231.567551 48.008770,231.682037 48.701904,231.893509 
z"/>
<path fill="#AF7127" opacity="1.000000" stroke="none" 
	d="
M95.107208,189.215881 
	C95.014053,189.074387 95.500298,189.050903 95.743057,189.063400 
	C95.724007,189.169724 95.462181,189.263535 95.107208,189.215881 
z"/>
<path fill="#46CBD1" opacity="1.000000" stroke="none" 
	d="
M77.893051,137.617401 
	C78.376213,136.814713 78.923660,136.375443 79.757797,135.927216 
	C79.998947,137.018036 79.953407,138.117813 79.907867,139.217606 
	C79.257690,138.805344 78.607506,138.393082 77.893051,137.617401 
z"/>
<path fill="#46CBD1" opacity="1.000000" stroke="none" 
	d="
M69.229691,139.486023 
	C70.701195,139.157013 72.414734,139.066483 74.557396,138.940186 
	C73.683800,142.779236 71.447105,140.373230 69.229691,139.486023 
z"/>
<path fill="#46CBD1" opacity="1.000000" stroke="none" 
	d="
M71.558044,154.875122 
	C71.527710,155.828293 71.153320,156.842087 70.476479,158.004623 
	C70.520676,157.080826 70.867332,156.008270 71.558044,154.875122 
z"/>
<path fill="#46CBD1" opacity="1.000000" stroke="none" 
	d="
M59.886230,135.094589 
	C61.245438,135.419846 62.412682,135.965561 63.751900,136.783524 
	C62.514004,136.475525 61.104137,135.895294 59.886230,135.094589 
z"/>
<path fill="#46CBD1" opacity="1.000000" stroke="none" 
	d="
M30.963436,110.444733 
	C31.871367,110.881744 32.801941,111.675652 33.832016,112.764992 
	C32.949707,112.307487 31.967894,111.554558 30.963436,110.444733 
z"/>
<path fill="#46CBD1" opacity="1.000000" stroke="none" 
	d="
M81.944855,143.077423 
	C81.516953,143.845169 80.680931,144.577652 79.516129,145.401657 
	C79.970482,144.676178 80.753609,143.859177 81.944855,143.077423 
z"/>
<path fill="#46CBD1" opacity="1.000000" stroke="none" 
	d="
M46.965744,124.486313 
	C47.870075,124.907928 48.845219,125.656784 49.964111,126.684616 
	C49.084095,126.246918 48.060326,125.530235 46.965744,124.486313 
z"/>
<path fill="#46CBD1" opacity="1.000000" stroke="none" 
	d="
M74.574142,150.034058 
	C74.490845,150.663101 74.068596,151.340439 73.384468,152.186462 
	C73.493454,151.597534 73.864326,150.839935 74.574142,150.034058 
z"/>
<path fill="#46CBD1" opacity="1.000000" stroke="none" 
	d="
M76.560638,148.018463 
	C76.421173,148.584656 75.973328,149.166748 75.253220,149.831146 
	C75.404724,149.287079 75.828499,148.660721 76.560638,148.018463 
z"/>
<path fill="#46CBD1" opacity="1.000000" stroke="none" 
	d="
M78.554504,145.902527 
	C78.417465,146.444016 77.976677,147.054016 77.266418,147.758606 
	C77.414886,147.225815 77.832825,146.598419 78.554504,145.902527 
z"/>
<path fill="#46CBD1" opacity="1.000000" stroke="none" 
	d="
M45.166546,123.091309 
	C45.575401,123.064980 46.094749,123.316864 46.730240,123.838493 
	C46.323265,123.862000 45.800152,123.615761 45.166546,123.091309 
z"/>
<path fill="#46CBD1" opacity="1.000000" stroke="none" 
	d="
M66.119141,138.340240 
	C66.505211,138.245667 67.080307,138.387756 67.840790,138.770859 
	C67.453506,138.866882 66.880829,138.721878 66.119141,138.340240 
z"/>
<path fill="#46CBD1" opacity="1.000000" stroke="none" 
	d="
M29.253445,93.283371 
	C29.466339,93.319283 29.480864,93.606979 29.435017,93.741447 
	C29.160429,93.749825 28.931686,93.623741 28.702946,93.497650 
	C28.815481,93.414253 28.928015,93.330856 29.253445,93.283371 
z"/>
<path fill="#46CBD1" opacity="1.000000" stroke="none" 
	d="
M83.697517,142.045349 
	C83.843056,142.327682 83.648468,142.568954 83.099152,142.743958 
	C82.981644,142.471130 83.185966,142.246658 83.697517,142.045349 
z"/>
<path fill="#46CBD1" opacity="1.000000" stroke="none" 
	d="
M34.062195,113.293091 
	C34.310799,113.109093 34.588947,113.273758 34.882141,113.800049 
	C34.643295,113.954987 34.374817,113.781685 34.062195,113.293091 
z"/>
<path fill="#46CBD1" opacity="1.000000" stroke="none" 
	d="
M36.094810,115.163704 
	C36.294353,115.097580 36.583706,115.277374 36.961914,115.701874 
	C36.762054,115.767609 36.473335,115.588615 36.094810,115.163704 
z"/>
<path fill="#46CBD1" opacity="1.000000" stroke="none" 
	d="
M72.681038,153.020203 
	C72.810921,153.213730 72.705200,153.589371 72.352943,154.140533 
	C72.219414,153.944809 72.332428,153.573578 72.681038,153.020203 
z"/>
<path fill="#46CBD1" opacity="1.000000" stroke="none" 
	d="
M84.838089,141.142578 
	C84.889015,141.351608 84.701897,141.614471 84.261032,141.907455 
	C84.088997,141.597839 84.286575,141.350784 84.838089,141.142578 
z"/>
<path fill="#46CBD1" opacity="1.000000" stroke="none" 
	d="
M55.124306,131.248627 
	C55.317421,131.163635 55.622314,131.324600 56.058605,131.716034 
	C55.872028,131.795868 55.554050,131.645233 55.124306,131.248627 
z"/>
<path fill="#46CBD1" opacity="1.000000" stroke="none" 
	d="
M64.112930,137.311218 
	C64.291611,137.213181 64.610809,137.344284 65.086700,137.690536 
	C64.913406,137.783905 64.583435,137.662125 64.112930,137.311218 
z"/>
<path fill="#40D3DD" opacity="1.000000" stroke="none" 
	d="
M145.165680,137.170547 
	C145.880066,136.877686 146.574890,136.931808 147.617859,136.982758 
	C148.034882,137.138657 148.103775,137.297745 148.064178,137.962357 
	C147.617386,138.722290 147.279083,138.976685 146.940765,139.231079 
	C146.342545,138.659897 145.744308,138.088730 145.165680,137.170547 
z"/>
<path fill="#8D8B6F" opacity="1.000000" stroke="none" 
	d="
M146.953690,139.561523 
	C147.279083,138.976685 147.617386,138.722290 148.144363,138.209747 
	C148.087997,138.939743 147.842972,139.927902 147.320877,141.068008 
	C147.018082,140.777313 146.992340,140.334641 146.953690,139.561523 
z"/>
<path fill="#B47221" opacity="1.000000" stroke="none" 
	d="
M107.675522,144.849670 
	C104.929001,151.144058 102.332542,157.567749 98.643608,163.286789 
	C95.218544,168.596725 89.558075,171.572876 83.166687,171.453949 
	C80.333824,171.401245 77.540085,169.245712 74.376457,167.961884 
	C72.510719,153.726822 80.237297,143.283691 94.732933,141.419495 
	C98.732712,140.905106 103.132637,143.502151 107.675522,144.849670 
z"/>
<path fill="#46CBD1" opacity="1.000000" stroke="none" 
	d="
M99.250175,139.297821 
	C99.840096,138.867279 100.892494,138.274170 101.568367,138.562805 
	C108.111626,141.357010 113.228767,139.025101 117.846832,134.396393 
	C118.129051,134.113541 119.046356,134.464279 119.921661,134.757629 
	C120.076729,135.128525 119.982353,135.265259 119.879265,135.395065 
	C114.260223,142.470642 107.221466,142.588318 99.250175,139.297821 
z"/>
<path fill="#46CBD1" opacity="1.000000" stroke="none" 
	d="
M129.360321,130.895340 
	C132.476532,130.990829 136.036118,131.148376 139.765869,131.650635 
	C136.558578,131.649338 133.181122,131.303360 129.360321,130.895340 
z"/>
<path fill="#46CBD1" opacity="1.000000" stroke="none" 
	d="
M140.169632,132.336929 
	C141.343857,132.812485 142.649033,133.573730 143.978668,134.695251 
	C142.768951,134.244568 141.534760,133.433594 140.169632,132.336929 
z"/>
<path fill="#46CBD1" opacity="1.000000" stroke="none" 
	d="
M125.399879,132.099609 
	C125.846977,131.671097 126.628113,131.308609 127.757103,130.983231 
	C127.314606,131.402100 126.524261,131.783859 125.399879,132.099609 
z"/>
<path fill="#46CBD1" opacity="1.000000" stroke="none" 
	d="
M124.127274,132.769806 
	C124.014267,132.463318 124.234184,132.254166 124.765816,132.100494 
	C124.958382,132.453018 124.752602,132.690063 124.127274,132.769806 
z"/>
<path fill="#46CBD1" opacity="1.000000" stroke="none" 
	d="
M122.251205,133.884186 
	C122.215279,133.670761 122.436928,133.407852 122.922516,133.102783 
	C122.960564,133.318665 122.734665,133.576675 122.251205,133.884186 
z"/>
<path fill="#EED4C8" opacity="1.000000" stroke="none" 
	d="
M77.178093,240.121490 
	C80.482719,238.068695 83.947151,237.032761 86.894608,241.426559 
	C86.240997,241.863541 85.407936,242.024551 84.294121,242.050934 
	C81.820747,241.416153 79.628136,240.916016 77.178093,240.121490 
z"/>
<path fill="#EED4C8" opacity="1.000000" stroke="none" 
	d="
M73.030067,240.820526 
	C72.472710,240.900589 71.935417,240.783249 71.183792,240.491684 
	C71.437622,240.242050 71.905769,240.166626 72.726746,240.159286 
	C73.079559,240.227371 73.050125,240.623123 73.030067,240.820526 
z"/>
<path fill="#46CBD1" opacity="1.000000" stroke="none" 
	d="
M119.184143,129.162964 
	C120.422752,128.317932 121.916367,127.739204 123.764297,127.200073 
	C123.764099,130.545425 121.761978,130.330048 119.184143,129.162964 
z"/>
<path fill="#46CBD1" opacity="1.000000" stroke="none" 
	d="
M111.071709,131.954300 
	C112.078918,131.132935 113.239281,130.602142 114.729935,130.090729 
	C113.781761,130.821701 112.503311,131.533279 111.071709,131.954300 
z"/>
<path fill="#46CBD1" opacity="1.000000" stroke="none" 
	d="
M130.079742,125.807709 
	C130.439285,125.298744 130.917801,125.078285 131.666687,124.843567 
	C131.357590,125.251610 130.778152,125.673912 130.079742,125.807709 
z"/>
<path fill="#46CBD1" opacity="1.000000" stroke="none" 
	d="
M125.383766,127.051941 
	C126.099213,126.619438 127.187851,126.206451 128.641022,125.803375 
	C127.922699,126.232681 126.839828,126.652069 125.383766,127.051941 
z"/>
<path fill="#46CBD1" opacity="1.000000" stroke="none" 
	d="
M103.316460,133.979675 
	C104.015755,133.548157 105.087334,133.150925 106.513412,132.767075 
	C105.808197,133.191620 104.748466,133.602783 103.316460,133.979675 
z"/>
<path fill="#46CBD1" opacity="1.000000" stroke="none" 
	d="
M100.204010,134.939499 
	C100.665306,134.562149 101.479149,134.225128 102.634750,133.907776 
	C102.169853,134.278229 101.363205,134.629044 100.204010,134.939499 
z"/>
<path fill="#46CBD1" opacity="1.000000" stroke="none" 
	d="
M107.177132,132.834991 
	C107.382568,132.525360 107.887131,132.262405 108.687561,132.029053 
	C108.481041,132.332993 107.978653,132.607330 107.177132,132.834991 
z"/>
<path fill="#B37122" opacity="1.000000" stroke="none" 
	d="
M95.941391,231.614441 
	C95.999260,233.272491 96.016647,234.568344 96.334625,235.967499 
	C96.554161,236.593887 96.473106,237.116974 96.174408,237.805313 
	C91.615456,241.476807 87.699310,239.291214 83.416084,237.051102 
	C82.321404,234.035049 81.876106,230.925201 80.802605,228.049896 
	C79.442696,224.407486 79.775230,221.277298 83.320267,219.587601 
	C86.906181,217.878403 90.191467,219.083176 92.097649,222.700775 
	C93.548737,225.454666 94.646141,228.394913 95.941391,231.614441 
z"/>
<path fill="#ECD1C2" opacity="1.000000" stroke="none" 
	d="
M114.245087,225.082611 
	C114.420563,224.966782 114.596039,224.850967 114.982483,224.501022 
	C119.274200,222.583237 123.354935,220.899567 127.723083,218.981995 
	C128.492416,218.749481 128.974350,218.750854 130.017822,218.853897 
	C131.045319,219.308151 131.511246,219.660751 131.977173,220.013351 
	C132.008957,220.445908 132.040756,220.878479 132.064178,221.636536 
	C128.269928,222.519958 124.457779,222.945801 120.709099,223.690948 
	C118.806854,224.069077 117.019043,225.022873 114.748535,225.508347 
	C114.317574,225.300278 114.245087,225.082611 114.245087,225.082611 
z"/>
<path fill="#ECD1C2" opacity="1.000000" stroke="none" 
	d="
M107.530731,229.070068 
	C107.912758,228.676239 108.619507,228.266464 109.652481,227.853119 
	C109.270958,228.251068 108.563210,228.652588 107.530731,229.070068 
z"/>
<path fill="#B57221" opacity="1.000000" stroke="none" 
	d="
M114.265259,225.084290 
	C114.245087,225.082611 114.317574,225.300278 114.365387,225.403748 
	C114.413208,225.507202 114.281586,225.356857 114.250275,225.261108 
	C114.218964,225.165344 114.257011,225.150772 114.256088,225.128784 
	C114.255165,225.106796 114.285439,225.085953 114.265259,225.084290 
z"/>
<path fill="#EBDAD6" opacity="1.000000" stroke="none" 
	d="
M148.975723,205.785736 
	C149.853638,203.297974 151.089615,200.729462 152.590088,197.932709 
	C151.680984,200.371292 150.507385,203.038147 148.975723,205.785736 
z"/>
<path fill="#B1752F" opacity="1.000000" stroke="none" 
	d="
M141.191971,221.850250 
	C141.390396,220.677994 141.859726,219.386902 142.645264,218.047272 
	C142.984268,218.441162 143.007034,218.883591 143.028961,219.660156 
	C142.506378,220.573334 141.984619,221.152374 141.191971,221.850250 
z"/>
<path fill="#B1752F" opacity="1.000000" stroke="none" 
	d="
M144.631561,211.783203 
	C143.767609,211.729370 143.097198,211.436661 142.426804,211.143951 
	C143.006973,210.764389 143.587143,210.384842 144.551620,210.256149 
	C145.000259,210.674561 145.064590,210.842133 145.128937,211.009705 
	C145.027679,211.187912 144.926407,211.366104 144.631561,211.783203 
z"/>
<path fill="#B1752F" opacity="1.000000" stroke="none" 
	d="
M143.606201,216.208008 
	C143.352921,215.531723 143.266830,214.824661 143.549133,214.386673 
	C143.969742,215.110107 144.021942,215.564438 144.074158,216.018784 
	C144.074158,216.018784 143.773376,216.177231 143.606201,216.208008 
z"/>
<path fill="#ECD1C2" opacity="1.000000" stroke="none" 
	d="
M144.325027,215.771942 
	C144.021942,215.564438 143.969742,215.110107 143.841553,214.320038 
	C143.986725,213.693176 144.207855,213.402039 144.644943,212.941971 
	C144.765884,213.690384 144.670898,214.607742 144.325027,215.771942 
z"/>
<path fill="#B1752F" opacity="1.000000" stroke="none" 
	d="
M145.098984,209.217087 
	C145.506042,208.518616 145.913101,207.820129 146.652084,207.081299 
	C146.743790,207.556290 146.503586,208.071655 145.919342,208.860352 
	C145.575317,209.133713 145.098984,209.217087 145.098984,209.217087 
z"/>
<path fill="#ECD1C2" opacity="1.000000" stroke="none" 
	d="
M145.061859,209.425385 
	C145.098984,209.217087 145.575317,209.133713 145.817169,209.130493 
	C145.896652,209.643768 145.734314,210.160263 145.350464,210.843231 
	C145.064590,210.842133 145.000259,210.674561 144.864441,210.247360 
	C144.792953,209.987717 145.024750,209.633682 145.061859,209.425385 
z"/>
<path fill="#EBDAD6" opacity="1.000000" stroke="none" 
	d="
M153.491791,195.757965 
	C153.336533,195.600601 153.361420,195.243988 153.589310,194.694351 
	C153.752213,194.853806 153.712082,195.206253 153.491791,195.757965 
z"/>
<path fill="#B1752F" opacity="1.000000" stroke="none" 
	d="
M133.789642,222.410980 
	C134.957932,222.503876 136.269211,222.860809 137.769287,223.509995 
	C137.218674,223.895172 136.479294,223.988129 135.362671,224.101212 
	C134.634491,223.639252 134.283569,223.157150 133.789642,222.410980 
z"/>
<path fill="#FCB236" opacity="1.000000" stroke="none" 
	d="
M89.994865,81.004883 
	C93.763412,84.469116 89.638474,87.005951 88.636063,89.698975 
	C88.281700,90.650978 85.426964,90.735893 83.687675,91.087662 
	C82.410461,91.345970 81.090736,91.394073 79.613945,91.555038 
	C79.353363,91.001427 79.233177,90.103279 78.779922,89.879402 
	C71.778069,86.420860 73.332207,80.533813 73.874634,74.527657 
	C74.438858,68.280090 74.000427,61.941978 74.000427,55.415409 
	C76.775063,55.415409 78.996429,55.415409 80.929939,55.415409 
	C80.726326,57.272442 80.528542,59.076237 80.665001,61.409512 
	C80.999237,70.150681 80.999237,78.362373 80.999237,86.803482 
	C84.659973,84.443764 87.327423,82.724327 89.994865,81.004883 
z"/>
<path fill="#FCB23E" opacity="1.000000" stroke="none" 
	d="
M89.996689,80.603996 
	C87.327423,82.724327 84.659973,84.443764 80.999237,86.803482 
	C80.999237,78.362373 80.999237,70.150681 80.998383,61.470589 
	C82.415550,60.667377 83.833557,60.332565 85.637619,60.418957 
	C86.349319,64.927811 86.766357,69.011070 86.963196,73.104919 
	C87.066139,75.245934 87.047348,77.201416 89.998169,76.996948 
	C89.998283,78.065666 89.998398,79.134392 89.996689,80.603996 
z"/>
<path fill="#FBB335" opacity="1.000000" stroke="none" 
	d="
M89.998871,76.530670 
	C87.047348,77.201416 87.066139,75.245934 86.963196,73.104919 
	C86.766357,69.011070 86.349319,64.927811 86.009850,60.417675 
	C86.077538,57.440899 85.362228,54.489738 89.999580,53.541504 
	C89.999580,61.171219 89.999580,68.617805 89.998871,76.530670 
z"/>
<path fill="#604920" opacity="1.000000" stroke="none" 
	d="
M78.227203,51.243607 
	C79.126350,49.319176 80.003746,46.669735 81.361977,46.394676 
	C83.052277,46.052372 85.139580,47.670483 87.239227,48.797901 
	C87.365715,49.553185 87.308411,49.952564 87.071167,50.830288 
	C86.891228,51.308636 86.797714,51.738190 86.797714,51.738190 
	C84.004745,51.682858 81.211769,51.627522 78.227203,51.243607 
z"/>
<path fill="#AE7C3B" opacity="1.000000" stroke="none" 
	d="
M86.974670,51.746204 
	C86.797714,51.738190 86.891228,51.308636 87.016617,51.127659 
	C87.235039,51.142262 87.346825,51.332424 87.406151,51.537739 
	C87.418854,51.581715 87.241455,51.680618 86.974670,51.746204 
z"/>
<path fill="#B1752F" opacity="1.000000" stroke="none" 
	d="
M132.193649,219.844055 
	C131.511246,219.660751 131.045319,219.308151 130.366516,218.750610 
	C130.905807,218.922028 131.657959,219.298386 132.193649,219.844055 
z"/>
</svg>