<svg xmlns="http://www.w3.org/2000/svg" xmlns:xlink="http://www.w3.org/1999/xlink" width="1200" zoomAndPan="magnify" viewBox="0 0 900 472.499986" height="630" preserveAspectRatio="xMidYMid meet" version="1.0"><defs><clipPath id="1a5be4a20f"><path d="M 153.609375 0 L 746.234375 0 L 746.234375 472 L 153.609375 472 Z M 153.609375 0 " clip-rule="nonzero"/></clipPath></defs><g clip-path="url(#1a5be4a20f)"><path fill="#000000" d="M 307.28125 214.554688 L 329.226562 214.554688 L 329.226562 236.011719 L 307.28125 236.011719 Z M 746.179688 236.011719 L 746.179688 214.554688 L 724.234375 214.554688 L 724.234375 236.011719 Z M 746.179688 128.734375 L 724.234375 128.734375 L 724.234375 150.1875 L 746.179688 150.1875 Z M 307.28125 128.734375 L 307.28125 150.1875 L 329.226562 150.1875 L 329.226562 128.734375 Z M 724.234375 171.644531 L 724.234375 150.1875 L 702.289062 150.1875 L 702.289062 85.824219 L 724.234375 85.824219 L 724.234375 0 L 658.398438 0 L 658.398438 21.457031 L 395.054688 21.457031 L 395.054688 0 L 329.21875 0 L 329.21875 107.277344 L 351.164062 107.277344 L 351.164062 150.191406 L 329.21875 150.191406 L 329.21875 214.558594 L 351.164062 214.558594 L 351.164062 236.011719 L 373.109375 236.011719 L 373.109375 257.46875 L 351.164062 257.46875 L 351.164062 278.925781 L 241.445312 278.925781 L 241.445312 257.46875 L 219.5 257.46875 L 219.5 214.554688 L 241.445312 214.554688 L 241.445312 193.101562 L 263.390625 193.101562 L 263.390625 171.644531 L 241.445312 171.644531 L 241.445312 150.1875 L 219.5 150.1875 L 219.5 171.644531 L 197.554688 171.644531 L 197.554688 193.101562 L 175.609375 193.101562 L 175.609375 214.554688 L 153.664062 214.554688 L 153.664062 278.921875 L 175.609375 278.921875 L 175.609375 300.378906 L 197.554688 300.378906 L 197.554688 321.835938 L 219.5 321.835938 L 219.5 343.289062 L 263.390625 343.289062 L 263.390625 407.65625 L 241.445312 407.65625 L 241.445312 472.027344 L 329.226562 472.027344 L 329.226562 450.570312 L 351.171875 450.570312 L 351.171875 429.113281 L 373.117188 429.113281 L 373.117188 472.027344 L 592.570312 472.027344 L 592.570312 386.203125 L 614.515625 386.203125 L 614.515625 278.921875 L 658.40625 278.921875 L 658.40625 257.46875 L 680.351562 257.46875 L 680.351562 236.011719 L 702.296875 236.011719 L 702.296875 214.554688 L 724.242188 214.554688 L 724.242188 171.644531 Z M 724.234375 171.644531 " fill-opacity="1" fill-rule="nonzero"/></g><path fill="#ed7793" d="M 504.785156 150.1875 L 548.675781 150.1875 L 548.675781 171.644531 L 504.785156 171.644531 Z M 504.785156 150.1875 " fill-opacity="1" fill-rule="nonzero"/><path fill="#fcb973" d="M 702.289062 171.644531 L 702.289062 150.1875 L 680.34375 150.1875 L 680.34375 85.824219 L 658.398438 85.824219 L 658.398438 64.367188 L 636.453125 64.367188 L 636.453125 42.910156 L 417 42.910156 L 417 64.367188 L 395.054688 64.367188 L 395.054688 85.824219 L 373.109375 85.824219 L 373.109375 150.191406 L 351.164062 150.191406 L 351.164062 214.558594 L 373.109375 214.558594 L 373.109375 236.011719 L 395.054688 236.011719 L 395.054688 214.558594 L 417 214.558594 L 417 193.101562 L 482.835938 193.101562 L 482.835938 150.191406 L 504.78125 150.191406 L 504.78125 64.367188 L 548.671875 64.367188 L 548.671875 150.191406 L 570.617188 150.191406 L 570.617188 193.101562 L 636.453125 193.101562 L 636.453125 214.558594 L 658.398438 214.558594 L 658.398438 236.011719 L 680.34375 236.011719 L 680.34375 214.558594 L 702.289062 214.558594 Z M 460.894531 171.644531 L 417.003906 171.644531 L 417.003906 128.734375 L 460.894531 128.734375 Z M 614.507812 171.644531 L 592.5625 171.644531 L 592.5625 128.734375 L 636.453125 128.734375 L 636.453125 171.644531 Z M 592.566406 364.746094 L 592.566406 386.203125 L 570.621094 386.203125 L 570.621094 450.570312 L 548.675781 450.570312 L 548.675781 364.746094 L 570.621094 364.746094 L 570.621094 257.464844 L 592.566406 257.464844 Z M 263.390625 429.113281 L 263.390625 407.65625 L 285.335938 407.65625 L 285.335938 343.289062 L 307.28125 343.289062 L 307.28125 300.378906 L 351.171875 300.378906 L 351.171875 278.921875 L 460.898438 278.921875 L 460.898438 257.464844 L 482.84375 257.464844 L 482.84375 450.570312 L 460.898438 450.570312 L 460.898438 364.746094 L 351.171875 364.746094 L 351.171875 386.199219 L 329.226562 386.199219 L 329.226562 407.65625 L 307.28125 407.65625 L 307.28125 429.113281 L 285.335938 429.113281 L 285.335938 450.570312 L 263.390625 450.570312 Z M 241.445312 321.835938 L 219.5 321.835938 L 219.5 300.378906 L 197.554688 300.378906 L 197.554688 278.921875 L 175.609375 278.921875 L 175.609375 236.011719 L 197.554688 236.011719 L 197.554688 257.46875 L 219.5 257.46875 L 219.5 278.921875 L 241.445312 278.921875 L 241.445312 300.378906 L 285.335938 300.378906 L 285.335938 321.835938 Z M 241.445312 321.835938 " fill-opacity="1" fill-rule="nonzero"/><path fill="#ffffff" d="M 658.398438 42.910156 L 658.398438 21.457031 L 702.289062 21.457031 L 702.289062 85.824219 L 680.34375 85.824219 L 680.34375 64.367188 L 658.398438 64.367188 Z M 658.398438 214.554688 L 636.453125 214.554688 L 636.453125 193.101562 L 570.617188 193.101562 L 570.617188 150.1875 L 548.671875 150.1875 L 548.671875 171.644531 L 504.78125 171.644531 L 504.78125 150.1875 L 482.835938 150.1875 L 482.835938 193.101562 L 417 193.101562 L 417 214.554688 L 395.054688 214.554688 L 395.054688 257.46875 L 482.835938 257.46875 L 482.835938 450.570312 L 504.78125 450.570312 L 504.78125 364.746094 L 526.726562 364.746094 L 526.726562 450.570312 L 548.671875 450.570312 L 548.671875 364.746094 L 570.617188 364.746094 L 570.617188 257.46875 L 658.398438 257.46875 Z M 636.453125 150.1875 L 636.453125 128.734375 L 614.507812 128.734375 L 614.507812 150.1875 Z M 548.675781 150.1875 L 548.675781 64.367188 L 504.785156 64.367188 L 504.785156 150.191406 L 548.675781 150.191406 Z M 395.058594 450.570312 L 438.949219 450.570312 L 438.949219 429.113281 L 417.003906 429.113281 L 417.003906 407.65625 L 373.113281 407.65625 L 373.113281 429.113281 L 395.058594 429.113281 Z M 438.949219 364.746094 L 351.167969 364.746094 L 351.167969 386.203125 L 460.894531 386.203125 L 460.894531 364.746094 Z M 438.949219 128.734375 L 438.949219 150.1875 L 460.894531 150.1875 L 460.894531 128.734375 Z M 329.226562 407.65625 L 351.167969 407.65625 L 351.167969 386.199219 L 329.226562 386.199219 Z M 307.28125 429.113281 L 329.226562 429.113281 L 329.226562 407.65625 L 307.28125 407.65625 Z M 285.335938 450.570312 L 307.28125 450.570312 L 307.28125 429.113281 L 285.335938 429.113281 Z M 351.167969 21.457031 L 351.167969 85.824219 L 373.113281 85.824219 L 373.113281 64.367188 L 395.0625 64.367188 L 395.0625 21.457031 Z M 241.445312 193.101562 L 241.445312 171.644531 L 219.5 171.644531 L 219.5 193.101562 Z M 219.5 214.554688 L 219.5 193.101562 L 197.554688 193.101562 L 197.554688 214.554688 Z M 197.554688 236.011719 L 197.554688 214.554688 L 175.609375 214.554688 L 175.609375 236.011719 Z M 197.554688 236.011719 " fill-opacity="1" fill-rule="nonzero"/></svg>