<svg xmlns="http://www.w3.org/2000/svg" xmlns:xlink="http://www.w3.org/1999/xlink" width="1200" zoomAndPan="magnify" viewBox="0 0 900 472.499986" height="630" preserveAspectRatio="xMidYMid meet" version="1.0"><defs><clipPath id="c7cd5a13d9"><path d="M 186.679688 0 L 713.371094 0 L 713.371094 472 L 186.679688 472 Z M 186.679688 0 " clip-rule="nonzero"/></clipPath></defs><g clip-path="url(#c7cd5a13d9)"><path fill="#000000" d="M 691.425781 236 L 691.425781 214.550781 L 713.371094 214.550781 L 713.371094 236 Z M 274.460938 236 L 296.40625 236 L 296.40625 214.550781 L 274.460938 214.550781 Z M 691.425781 171.652344 L 691.425781 150.207031 L 669.484375 150.207031 L 669.484375 85.859375 L 691.425781 85.859375 L 691.425781 0.0664062 L 625.589844 0.0664062 L 625.589844 21.515625 L 362.246094 21.515625 L 362.246094 0.0664062 L 296.410156 0.0664062 L 296.410156 107.308594 L 318.351562 107.308594 L 318.351562 150.207031 L 296.410156 150.207031 L 296.410156 214.550781 L 318.351562 214.550781 L 318.351562 236 L 340.296875 236 L 340.296875 257.449219 L 362.242188 257.449219 L 362.242188 278.898438 L 384.191406 278.898438 L 384.191406 300.34375 L 362.246094 300.34375 L 362.246094 321.792969 L 340.300781 321.792969 L 340.300781 343.242188 L 318.351562 343.242188 L 318.351562 386.140625 L 296.410156 386.140625 L 296.410156 407.585938 L 274.460938 407.585938 L 274.460938 386.140625 L 252.515625 386.140625 L 252.515625 343.238281 L 274.460938 343.238281 L 274.460938 321.792969 L 296.40625 321.792969 L 296.40625 300.34375 L 274.460938 300.34375 L 274.460938 278.894531 L 252.515625 278.894531 L 252.515625 300.34375 L 230.570312 300.34375 L 230.570312 321.792969 L 208.625 321.792969 L 208.625 343.238281 L 186.679688 343.238281 L 186.679688 407.585938 L 208.625 407.585938 L 208.625 429.035156 L 230.570312 429.035156 L 230.570312 450.484375 L 252.515625 450.484375 L 252.515625 471.929688 L 559.753906 471.929688 L 559.753906 386.136719 L 581.699219 386.136719 L 581.699219 278.894531 L 625.589844 278.894531 L 625.589844 257.445312 L 647.535156 257.445312 L 647.535156 236 L 669.480469 236 L 669.480469 214.550781 L 691.425781 214.550781 Z M 274.460938 128.757812 L 274.460938 150.207031 L 296.40625 150.207031 L 296.40625 128.757812 Z M 713.371094 128.757812 L 691.425781 128.757812 L 691.425781 150.207031 L 713.371094 150.207031 Z M 713.371094 128.757812 " fill-opacity="1" fill-rule="nonzero"/></g><path fill="#ed7793" d="M 493.917969 150.207031 L 515.863281 150.207031 L 515.863281 171.65625 L 471.972656 171.65625 L 471.972656 150.207031 Z M 493.917969 150.207031 " fill-opacity="1" fill-rule="nonzero"/><path fill="#635555" d="M 669.480469 193.101562 L 669.480469 214.550781 L 625.589844 214.550781 L 625.589844 193.101562 Z M 625.589844 150.207031 L 625.589844 171.65625 L 669.480469 171.65625 L 669.480469 150.207031 Z M 559.753906 85.859375 L 559.753906 107.308594 L 581.699219 107.308594 L 581.699219 42.964844 L 559.753906 42.964844 Z M 515.863281 85.859375 L 537.808594 85.859375 L 537.808594 42.964844 L 515.863281 42.964844 Z M 450.027344 85.859375 L 471.972656 85.859375 L 471.972656 42.964844 L 450.027344 42.964844 Z M 428.082031 321.792969 L 450.027344 321.792969 L 450.027344 300.34375 L 428.082031 300.34375 Z M 428.082031 343.238281 L 406.136719 343.238281 L 406.136719 364.6875 L 428.082031 364.6875 Z M 406.136719 278.894531 L 406.136719 300.34375 L 428.082031 300.34375 L 428.082031 278.894531 Z M 406.136719 85.859375 L 406.136719 107.308594 L 428.082031 107.308594 L 428.082031 42.964844 L 406.136719 42.964844 Z M 384.191406 321.792969 L 384.191406 343.238281 L 406.136719 343.238281 L 406.136719 321.792969 Z M 384.191406 386.136719 L 384.191406 364.6875 L 362.246094 364.6875 L 362.246094 386.136719 Z M 362.246094 364.6875 L 362.246094 343.238281 L 340.300781 343.238281 L 340.300781 364.6875 Z M 362.246094 214.550781 L 362.246094 193.101562 L 318.351562 193.101562 L 318.351562 214.550781 Z M 318.351562 429.03125 L 340.296875 429.03125 L 340.296875 386.136719 L 318.351562 386.136719 Z M 340.296875 171.652344 L 362.242188 171.652344 L 362.242188 150.207031 L 318.351562 150.207031 L 318.351562 171.652344 Z M 252.515625 429.03125 L 274.460938 429.03125 L 274.460938 407.582031 L 252.515625 407.582031 Z M 230.570312 386.136719 L 208.625 386.136719 L 208.625 407.582031 L 230.570312 407.582031 Z M 230.570312 386.136719 " fill-opacity="1" fill-rule="nonzero"/><path fill="#b3b4af" d="M 647.535156 214.550781 L 647.535156 236 L 625.589844 236 L 625.589844 214.550781 Z M 647.535156 171.652344 L 669.480469 171.652344 L 669.480469 193.101562 L 625.589844 193.101562 L 625.589844 214.550781 L 603.644531 214.550781 L 603.644531 193.101562 L 537.808594 193.101562 L 537.808594 150.207031 L 515.863281 150.207031 L 515.863281 85.859375 L 537.808594 85.859375 L 537.808594 42.964844 L 559.753906 42.964844 L 559.753906 107.308594 L 581.699219 107.308594 L 581.699219 42.964844 L 603.644531 42.964844 L 603.644531 64.414062 L 625.589844 64.414062 L 625.589844 85.859375 L 647.535156 85.859375 L 647.535156 150.207031 L 625.589844 150.207031 L 625.589844 171.65625 L 647.535156 171.65625 Z M 603.644531 128.757812 L 559.753906 128.757812 L 559.753906 171.652344 L 603.644531 171.652344 Z M 559.753906 343.238281 L 559.753906 257.445312 L 537.808594 257.445312 L 537.808594 364.6875 L 515.863281 364.6875 L 515.863281 450.484375 L 537.808594 450.484375 L 537.808594 386.136719 L 559.753906 386.136719 Z M 493.917969 64.414062 L 515.863281 64.414062 L 515.863281 42.964844 L 471.972656 42.964844 L 471.972656 64.414062 Z M 471.972656 128.757812 L 471.972656 150.207031 L 450.027344 150.207031 L 450.027344 193.101562 L 384.191406 193.101562 L 384.191406 214.550781 L 362.246094 214.550781 L 362.246094 193.101562 L 318.351562 193.101562 L 318.351562 171.652344 L 362.242188 171.652344 L 362.242188 150.207031 L 340.296875 150.207031 L 340.296875 85.859375 L 362.242188 85.859375 L 362.242188 64.414062 L 384.191406 64.414062 L 384.191406 42.964844 L 406.136719 42.964844 L 406.136719 107.308594 L 428.082031 107.308594 L 428.082031 42.964844 L 450.027344 42.964844 L 450.027344 85.859375 L 471.972656 85.859375 Z M 428.082031 128.757812 L 384.191406 128.757812 L 384.191406 171.652344 L 428.082031 171.652344 Z M 428.082031 300.34375 L 450.027344 300.34375 L 450.027344 257.445312 L 428.082031 257.445312 Z M 406.136719 321.792969 L 406.136719 343.238281 L 428.082031 343.238281 L 428.082031 364.6875 L 406.136719 364.6875 L 406.136719 386.136719 L 428.082031 386.136719 L 428.082031 450.484375 L 450.027344 450.484375 L 450.027344 321.792969 L 428.082031 321.792969 L 428.082031 300.34375 L 384.191406 300.34375 L 384.191406 321.792969 Z M 362.246094 429.03125 L 362.246094 407.582031 L 384.191406 407.582031 L 384.191406 386.136719 L 362.246094 386.136719 L 362.246094 364.6875 L 340.300781 364.6875 L 340.300781 450.484375 L 384.191406 450.484375 L 384.191406 429.03125 Z M 362.246094 364.6875 L 406.136719 364.6875 L 406.136719 343.238281 L 384.191406 343.238281 L 384.191406 321.792969 L 362.246094 321.792969 Z M 362.246094 214.550781 L 340.300781 214.550781 L 340.300781 236 L 362.246094 236 Z M 296.410156 450.480469 L 318.351562 450.480469 L 318.351562 429.03125 L 252.515625 429.03125 L 252.515625 450.480469 Z M 252.515625 407.585938 L 252.515625 386.136719 L 230.570312 386.136719 L 230.570312 429.035156 L 252.515625 429.035156 Z M 208.625 364.6875 L 208.625 386.136719 L 230.570312 386.136719 L 230.570312 364.6875 Z M 208.625 364.6875 " fill-opacity="1" fill-rule="nonzero"/><path fill="#ffffff" d="M 625.589844 42.964844 L 625.589844 21.515625 L 669.480469 21.515625 L 669.480469 85.859375 L 647.535156 85.859375 L 647.535156 64.414062 L 625.589844 64.414062 Z M 625.589844 214.550781 L 603.644531 214.550781 L 603.644531 193.101562 L 537.808594 193.101562 L 537.808594 150.207031 L 515.863281 150.207031 L 515.863281 171.652344 L 471.972656 171.652344 L 471.972656 150.207031 L 450.027344 150.207031 L 450.027344 193.101562 L 384.191406 193.101562 L 384.191406 214.550781 L 362.246094 214.550781 L 362.246094 257.449219 L 450.027344 257.449219 L 450.027344 450.484375 L 471.972656 450.484375 L 471.972656 364.6875 L 493.917969 364.6875 L 493.917969 450.484375 L 515.863281 450.484375 L 515.863281 364.6875 L 537.808594 364.6875 L 537.808594 257.445312 L 625.589844 257.445312 Z M 581.699219 150.207031 L 603.644531 150.207031 L 603.644531 128.757812 L 581.699219 128.757812 Z M 515.863281 107.308594 L 515.863281 64.414062 L 471.972656 64.414062 L 471.972656 150.207031 L 515.863281 150.207031 Z M 406.136719 150.207031 L 428.082031 150.207031 L 428.082031 128.757812 L 406.136719 128.757812 Z M 384.191406 407.585938 L 362.246094 407.585938 L 362.246094 429.035156 L 384.191406 429.035156 L 384.191406 450.484375 L 406.136719 450.484375 L 406.136719 386.136719 L 384.191406 386.136719 Z M 318.351562 21.515625 L 318.351562 85.859375 L 340.296875 85.859375 L 340.296875 64.414062 L 362.242188 64.414062 L 362.242188 21.515625 Z M 274.460938 321.792969 L 274.460938 300.34375 L 252.515625 300.34375 L 252.515625 321.792969 Z M 252.515625 343.238281 L 252.515625 321.792969 L 230.570312 321.792969 L 230.570312 343.238281 Z M 230.570312 364.6875 L 230.570312 343.238281 L 208.625 343.238281 L 208.625 364.6875 Z M 230.570312 364.6875 " fill-opacity="1" fill-rule="nonzero"/></svg>