<svg xmlns="http://www.w3.org/2000/svg" xmlns:xlink="http://www.w3.org/1999/xlink" width="1200" zoomAndPan="magnify" viewBox="0 0 900 472.499986" height="630" preserveAspectRatio="xMidYMid meet" version="1.0"><defs><clipPath id="4e982dd2e3"><path d="M 203.203125 0 L 696.929688 0 L 696.929688 472 L 203.203125 472 Z M 203.203125 0 " clip-rule="nonzero"/></clipPath></defs><g clip-path="url(#4e982dd2e3)"><path fill="#000000" d="M 558.96875 139.042969 L 541.179688 139.042969 L 541.179688 121.664062 L 558.96875 121.664062 Z M 203.238281 208.566406 L 221.023438 208.566406 L 221.023438 191.183594 L 203.238281 191.183594 Z M 203.238281 121.664062 L 203.238281 139.042969 L 221.023438 139.042969 L 221.023438 121.664062 Z M 679.296875 348.839844 L 679.296875 331.246094 L 626.503906 331.246094 L 626.503906 366.433594 L 608.90625 366.433594 L 608.90625 384.023438 L 573.710938 384.023438 L 573.710938 401.617188 L 556.113281 401.617188 L 556.113281 348.839844 L 538.515625 348.839844 L 538.515625 313.652344 L 520.917969 313.652344 L 520.917969 296.0625 L 503.320312 296.0625 L 503.320312 278.46875 L 485.722656 278.46875 L 485.722656 260.875 L 468.125 260.875 L 468.125 243.324219 L 487.820312 243.324219 L 487.820312 225.945312 L 505.605469 225.945312 L 505.605469 208.566406 L 523.394531 208.566406 L 523.394531 191.183594 L 541.179688 191.183594 L 541.179688 139.042969 L 523.394531 139.042969 L 523.394531 86.902344 L 541.179688 86.902344 L 541.179688 17.378906 L 523.394531 17.378906 L 523.394531 0 L 505.605469 0 L 505.605469 17.378906 L 487.820312 17.378906 L 487.820312 34.761719 L 274.382812 34.761719 L 274.382812 17.378906 L 256.597656 17.378906 L 256.597656 0 L 238.808594 0 L 238.808594 17.378906 L 221.023438 17.378906 L 221.023438 104.285156 L 238.808594 104.285156 L 238.808594 139.046875 L 221.023438 139.046875 L 221.023438 191.1875 L 238.808594 191.1875 L 238.808594 208.570312 L 256.597656 208.570312 L 256.597656 225.949219 L 274.382812 225.949219 L 274.382812 243.328125 L 292.152344 243.328125 L 292.152344 348.84375 L 274.554688 348.84375 L 274.554688 401.621094 L 292.152344 401.621094 L 292.152344 419.214844 L 309.75 419.214844 L 309.75 436.820312 L 327.347656 436.820312 L 327.347656 454.414062 L 344.945312 454.414062 L 344.945312 472.007812 L 591.3125 472.007812 L 591.3125 454.414062 L 626.507812 454.414062 L 626.507812 436.820312 L 661.707031 436.820312 L 661.707031 419.214844 L 679.304688 419.214844 L 679.304688 384.03125 L 696.894531 384.03125 L 696.894531 348.84375 L 679.296875 348.84375 Z M 558.96875 208.566406 L 558.96875 191.183594 L 541.179688 191.183594 L 541.179688 208.566406 Z M 558.96875 208.566406 " fill-opacity="1" fill-rule="nonzero"/></g><path fill="#7c6464" d="M 415.335938 260.875 L 415.335938 278.46875 L 380.136719 278.46875 L 380.136719 296.0625 L 362.539062 296.0625 L 362.539062 260.875 L 380.136719 260.875 L 380.136719 243.324219 L 398.886719 243.324219 L 398.886719 225.945312 L 434.460938 225.945312 L 434.460938 243.324219 L 432.933594 243.324219 L 432.933594 260.875 Z M 520.921875 331.246094 L 485.726562 331.246094 L 485.726562 384.023438 L 503.320312 384.023438 L 503.320312 401.617188 L 538.515625 401.617188 L 538.515625 348.839844 L 520.921875 348.839844 Z M 591.308594 401.617188 L 591.308594 419.210938 L 626.503906 419.210938 L 626.503906 384.023438 L 608.90625 384.023438 L 608.90625 401.617188 Z M 505.609375 121.664062 L 487.820312 121.664062 L 487.820312 104.28125 L 434.460938 104.28125 L 434.460938 121.664062 L 470.035156 121.664062 L 470.035156 156.425781 L 434.460938 156.425781 L 434.460938 121.664062 L 416.675781 121.664062 L 416.675781 191.1875 L 434.460938 191.1875 L 434.460938 208.566406 L 452.25 208.566406 L 452.25 225.945312 L 487.820312 225.945312 L 487.820312 208.566406 L 505.609375 208.566406 L 505.609375 191.1875 L 523.394531 191.1875 L 523.394531 139.042969 L 505.609375 139.042969 Z M 505.609375 121.664062 " fill-opacity="1" fill-rule="nonzero"/><path fill="#ed7793" d="M 381.101562 156.425781 L 363.316406 156.425781 L 363.316406 139.042969 L 398.886719 139.042969 L 398.886719 156.425781 Z M 381.101562 156.425781 " fill-opacity="1" fill-rule="nonzero"/><path fill="#ffffff" d="M 292.152344 366.429688 L 292.152344 348.839844 L 327.347656 348.839844 L 327.347656 366.429688 Z M 573.710938 436.816406 L 608.90625 436.816406 L 608.90625 419.207031 L 591.308594 419.207031 L 591.308594 401.617188 L 573.710938 401.617188 Z M 626.503906 401.617188 L 626.503906 419.210938 L 644.101562 419.210938 L 644.101562 401.617188 L 661.699219 401.617188 L 661.699219 384.023438 L 644.101562 384.023438 L 644.101562 366.429688 L 626.503906 366.429688 Z M 487.820312 69.523438 L 505.609375 69.523438 L 505.609375 86.902344 L 523.394531 86.902344 L 523.394531 17.378906 L 505.609375 17.378906 L 505.609375 34.761719 L 487.820312 34.761719 Z M 470.035156 139.042969 L 470.035156 121.664062 L 452.25 121.664062 L 452.25 139.042969 Z M 327.742188 139.042969 L 327.742188 121.664062 L 309.957031 121.664062 L 309.957031 139.042969 Z M 292.167969 225.945312 L 274.382812 225.945312 L 274.382812 208.566406 L 256.597656 208.566406 L 256.597656 191.183594 L 238.808594 191.183594 L 238.808594 139.042969 L 256.597656 139.042969 L 256.597656 104.28125 L 274.382812 104.28125 L 274.382812 121.664062 L 292.171875 121.664062 L 292.171875 156.425781 L 345.53125 156.425781 L 345.53125 86.902344 L 327.742188 86.902344 L 327.742188 52.140625 L 470.039062 52.140625 L 470.039062 69.523438 L 487.824219 69.523438 L 487.824219 86.902344 L 505.609375 86.902344 L 505.609375 121.664062 L 487.820312 121.664062 L 487.820312 104.285156 L 434.460938 104.285156 L 434.460938 121.664062 L 416.675781 121.664062 L 416.675781 191.1875 L 434.460938 191.1875 L 434.460938 208.566406 L 452.25 208.566406 L 452.25 225.949219 L 398.886719 225.949219 L 398.886719 243.328125 L 380.136719 243.328125 L 380.136719 260.878906 L 362.539062 260.878906 L 362.539062 296.0625 L 380.136719 296.0625 L 380.136719 278.472656 L 415.335938 278.472656 L 415.335938 296.0625 L 432.933594 296.0625 L 432.933594 313.65625 L 468.128906 313.65625 L 468.128906 296.0625 L 503.324219 296.0625 L 503.324219 313.65625 L 520.921875 313.65625 L 520.921875 331.246094 L 485.726562 331.246094 L 485.726562 401.617188 L 503.324219 401.617188 L 503.324219 436.816406 L 520.921875 436.816406 L 520.921875 454.410156 L 450.53125 454.410156 L 450.53125 436.816406 L 432.933594 436.816406 L 432.933594 454.410156 L 397.738281 454.410156 L 397.738281 419.210938 L 415.335938 419.210938 L 415.335938 384.027344 L 397.738281 384.027344 L 397.738281 348.839844 L 380.136719 348.839844 L 380.136719 331.246094 L 344.941406 331.246094 L 344.941406 348.839844 L 327.34375 348.839844 L 327.34375 331.246094 L 309.746094 331.246094 L 309.746094 243.324219 L 327.742188 243.324219 L 327.742188 225.945312 Z M 363.316406 156.425781 L 398.886719 156.425781 L 398.886719 139.042969 L 363.316406 139.042969 Z M 274.382812 69.523438 L 274.382812 52.140625 L 256.597656 52.140625 L 256.597656 34.761719 L 238.808594 34.761719 L 238.808594 86.902344 L 256.597656 86.902344 L 256.597656 69.523438 Z M 274.382812 69.523438 " fill-opacity="1" fill-rule="nonzero"/><path fill="#fea314" d="M 362.539062 454.40625 L 344.941406 454.40625 L 344.941406 436.816406 L 327.34375 436.816406 L 327.34375 419.207031 L 309.746094 419.207031 L 309.746094 401.617188 L 292.152344 401.617188 L 292.152344 366.429688 L 327.347656 366.429688 L 327.347656 348.835938 L 344.945312 348.835938 L 344.945312 331.246094 L 380.140625 331.246094 L 380.140625 348.835938 L 397.738281 348.835938 L 397.738281 384.023438 L 415.335938 384.023438 L 415.335938 419.207031 L 397.738281 419.207031 L 397.738281 454.40625 Z M 450.527344 243.328125 L 432.933594 243.328125 L 432.933594 260.875 L 415.335938 260.875 L 415.335938 296.0625 L 432.933594 296.0625 L 432.933594 313.65625 L 468.128906 313.65625 L 468.128906 296.0625 L 485.726562 296.0625 L 485.726562 278.46875 L 468.128906 278.46875 L 468.128906 260.875 L 450.53125 260.875 L 450.53125 243.328125 Z M 556.113281 419.207031 L 503.320312 419.207031 L 503.320312 436.816406 L 520.917969 436.816406 L 520.917969 454.40625 L 573.710938 454.40625 L 573.710938 419.207031 Z M 679.296875 348.839844 L 644.101562 348.839844 L 644.101562 384.023438 L 679.296875 384.023438 Z M 292.167969 52.140625 L 292.167969 69.523438 L 274.382812 69.523438 L 274.382812 86.902344 L 256.597656 86.902344 L 256.597656 104.285156 L 274.382812 104.285156 L 274.382812 121.664062 L 327.742188 121.664062 L 327.742188 156.425781 L 345.53125 156.425781 L 345.53125 86.902344 L 327.742188 86.902344 L 327.742188 52.140625 Z M 256.597656 52.140625 L 274.382812 52.140625 L 274.382812 34.761719 L 256.597656 34.761719 Z M 256.597656 34.761719 L 256.597656 17.378906 L 238.808594 17.378906 L 238.808594 34.761719 Z M 256.597656 34.761719 " fill-opacity="1" fill-rule="nonzero"/></svg>