<svg xmlns="http://www.w3.org/2000/svg" xmlns:xlink="http://www.w3.org/1999/xlink" width="1200" zoomAndPan="magnify" viewBox="0 0 900 472.499986" height="630" preserveAspectRatio="xMidYMid meet" version="1.0"><defs><clipPath id="70ca693a93"><path d="M 208.566406 0 L 691.804688 0 L 691.804688 472 L 208.566406 472 Z M 208.566406 0 " clip-rule="nonzero"/></clipPath></defs><g clip-path="url(#70ca693a93)"><path fill="#000000" d="M 208.566406 225.753906 L 229.5625 225.753906 L 229.5625 246.273438 L 208.566406 246.273438 Z M 208.566406 143.667969 L 208.566406 164.191406 L 229.5625 164.191406 L 229.5625 143.667969 Z M 628.449219 246.273438 L 628.449219 225.753906 L 607.457031 225.753906 L 607.457031 246.273438 Z M 670.4375 348.875 L 670.4375 328.355469 L 649.445312 328.355469 L 649.445312 307.835938 L 628.449219 307.835938 L 628.449219 287.3125 L 607.457031 287.3125 L 607.457031 307.835938 L 586.460938 307.835938 L 586.460938 348.875 L 628.449219 348.875 L 628.449219 389.917969 L 607.457031 389.917969 L 607.457031 410.4375 L 586.460938 410.4375 L 586.460938 369.394531 L 565.46875 369.394531 L 565.46875 348.875 L 544.472656 348.875 L 544.472656 307.835938 L 523.480469 307.835938 L 523.480469 287.3125 L 544.472656 287.3125 L 544.472656 266.792969 L 565.46875 266.792969 L 565.46875 246.273438 L 586.460938 246.273438 L 586.460938 225.75 L 607.457031 225.75 L 607.457031 164.191406 L 586.460938 164.191406 L 586.460938 123.148438 L 607.457031 123.148438 L 607.457031 20.546875 L 586.460938 20.546875 L 586.460938 0.0234375 L 565.46875 0.0234375 L 565.46875 20.546875 L 544.472656 20.546875 L 544.472656 41.066406 L 292.542969 41.066406 L 292.542969 20.546875 L 271.550781 20.546875 L 271.550781 0.0234375 L 250.554688 0.0234375 L 250.554688 20.546875 L 229.5625 20.546875 L 229.5625 123.148438 L 250.554688 123.148438 L 250.554688 164.191406 L 229.5625 164.191406 L 229.5625 225.753906 L 250.554688 225.753906 L 250.554688 246.273438 L 271.550781 246.273438 L 271.550781 266.792969 L 292.542969 266.792969 L 292.542969 287.316406 L 334.53125 287.316406 L 334.53125 307.835938 L 313.539062 307.835938 L 313.539062 348.878906 L 292.542969 348.878906 L 292.542969 369.398438 L 271.550781 369.398438 L 271.550781 472 L 628.449219 472 L 628.449219 451.480469 L 649.441406 451.480469 L 649.441406 430.960938 L 670.4375 430.960938 L 670.4375 410.441406 L 691.429688 410.441406 L 691.429688 348.875 Z M 628.449219 143.667969 L 607.457031 143.667969 L 607.457031 164.191406 L 628.449219 164.191406 Z M 628.449219 143.667969 " fill-opacity="1" fill-rule="nonzero"/></g><path fill="#f2dcb8" d="M 292.542969 410.4375 L 292.542969 430.957031 L 313.539062 430.957031 L 313.539062 410.4375 L 355.523438 410.4375 L 355.523438 389.917969 L 376.519531 389.917969 L 376.519531 410.4375 L 418.507812 410.4375 L 418.507812 369.394531 L 439.5 369.394531 L 439.5 410.4375 L 481.488281 410.4375 L 481.488281 389.917969 L 502.484375 389.917969 L 502.484375 410.4375 L 544.472656 410.4375 L 544.472656 430.957031 L 565.464844 430.957031 L 565.464844 369.394531 L 544.472656 369.394531 L 544.472656 348.875 L 523.476562 348.875 L 523.476562 307.835938 L 502.484375 307.835938 L 502.484375 287.3125 L 481.488281 287.3125 L 481.488281 266.792969 L 544.472656 266.792969 L 544.472656 246.273438 L 565.464844 246.273438 L 565.464844 225.75 L 586.457031 225.75 L 586.457031 164.191406 L 565.464844 164.191406 L 565.464844 102.628906 L 544.472656 102.628906 L 544.472656 82.109375 L 523.476562 82.109375 L 523.476562 61.585938 L 313.539062 61.585938 L 313.539062 82.109375 L 292.542969 82.109375 L 292.542969 102.628906 L 271.550781 102.628906 L 271.550781 164.191406 L 250.554688 164.191406 L 250.554688 225.753906 L 271.550781 225.753906 L 271.550781 246.273438 L 292.542969 246.273438 L 292.542969 266.792969 L 355.527344 266.792969 L 355.527344 307.835938 L 334.53125 307.835938 L 334.53125 348.878906 L 313.539062 348.878906 L 313.539062 369.398438 L 292.542969 369.398438 Z M 292.542969 143.667969 L 313.539062 143.667969 L 313.539062 123.148438 L 355.523438 123.148438 L 355.523438 102.628906 L 481.488281 102.628906 L 481.488281 123.148438 L 523.476562 123.148438 L 523.476562 143.667969 L 544.472656 143.667969 L 544.472656 184.710938 L 523.476562 184.710938 L 523.476562 205.230469 L 481.488281 205.230469 L 481.488281 225.75 L 460.496094 225.75 L 460.496094 246.273438 L 376.519531 246.273438 L 376.519531 225.75 L 355.527344 225.75 L 355.527344 205.230469 L 313.539062 205.230469 L 313.539062 184.710938 L 292.542969 184.710938 Z M 292.542969 143.667969 " fill-opacity="1" fill-rule="nonzero"/><path fill="#ffffff" d="M 313.539062 164.191406 L 313.539062 143.667969 L 334.53125 143.667969 L 334.53125 164.191406 Z M 502.484375 143.667969 L 481.492188 143.667969 L 481.492188 164.191406 L 502.484375 164.191406 Z M 502.484375 143.667969 " fill-opacity="1" fill-rule="nonzero"/><path fill="#764830" d="M 418.34375 431.121094 L 418.34375 451.644531 L 376.355469 451.644531 L 376.355469 410.601562 L 418.34375 410.601562 Z M 481.324219 410.601562 L 439.335938 410.601562 L 439.335938 451.644531 L 481.324219 451.644531 Z M 523.480469 410.4375 L 502.484375 410.4375 L 502.484375 451.480469 L 544.472656 451.480469 L 544.472656 410.4375 Z M 313.539062 410.4375 L 313.539062 451.480469 L 355.527344 451.480469 L 355.527344 410.4375 Z M 250.554688 61.585938 L 250.554688 102.628906 L 271.550781 102.628906 L 271.550781 82.109375 L 292.542969 82.109375 L 292.542969 41.066406 L 271.550781 41.066406 L 271.550781 20.546875 L 250.554688 20.546875 Z M 313.539062 184.710938 L 313.539062 143.667969 L 292.542969 143.667969 L 292.542969 184.710938 Z M 334.53125 143.667969 L 313.539062 143.667969 L 313.539062 123.148438 L 355.527344 123.148438 L 355.527344 102.628906 L 481.488281 102.628906 L 481.488281 123.148438 L 523.476562 123.148438 L 523.476562 143.667969 L 481.488281 143.667969 L 481.488281 184.710938 L 523.476562 184.710938 L 523.476562 205.230469 L 481.488281 205.230469 L 481.488281 225.75 L 460.496094 225.75 L 460.496094 246.273438 L 376.519531 246.273438 L 376.519531 225.75 L 355.527344 225.75 L 355.527344 205.230469 L 313.539062 205.230469 L 313.539062 184.710938 L 355.527344 184.710938 L 355.527344 143.667969 Z M 439.503906 164.191406 L 397.515625 164.191406 L 397.515625 184.710938 L 439.503906 184.710938 Z M 523.480469 184.710938 L 544.472656 184.710938 L 544.472656 143.667969 L 523.480469 143.667969 Z M 544.472656 82.109375 L 565.464844 82.109375 L 565.464844 102.628906 L 586.460938 102.628906 L 586.460938 20.546875 L 565.464844 20.546875 L 565.464844 41.066406 L 544.472656 41.066406 Z M 628.449219 328.355469 L 628.449219 307.835938 L 607.457031 307.835938 L 607.457031 328.355469 Z M 649.441406 328.355469 L 628.449219 328.355469 L 628.449219 348.875 L 649.441406 348.875 Z M 670.4375 369.394531 L 670.4375 348.875 L 649.445312 348.875 L 649.445312 389.917969 L 628.449219 389.917969 L 628.449219 410.4375 L 607.457031 410.4375 L 607.457031 430.957031 L 586.460938 430.957031 L 586.460938 451.480469 L 628.449219 451.480469 L 628.449219 430.957031 L 649.445312 430.957031 L 649.445312 410.4375 L 670.4375 410.4375 Z M 670.4375 369.394531 " fill-opacity="1" fill-rule="nonzero"/></svg>