<svg xmlns="http://www.w3.org/2000/svg" xmlns:xlink="http://www.w3.org/1999/xlink" width="1200" zoomAndPan="magnify" viewBox="0 0 900 472.499986" height="630" preserveAspectRatio="xMidYMid meet" version="1.0"><defs><clipPath id="0ad5340e78"><path d="M 222.851562 0 L 676.871094 0 L 676.871094 472 L 222.851562 472 Z M 222.851562 0 " clip-rule="nonzero"/></clipPath></defs><g clip-path="url(#0ad5340e78)"><path fill="#000000" d="M 676.863281 157.375 L 676.863281 209.792969 L 659.402344 209.792969 L 659.402344 227.265625 L 641.941406 227.265625 L 641.941406 244.738281 L 624.476562 244.738281 L 624.476562 262.210938 L 641.941406 262.210938 L 641.941406 349.574219 L 659.402344 349.574219 L 659.402344 471.878906 L 589.554688 471.878906 L 589.554688 401.988281 L 572.09375 401.988281 L 572.09375 384.511719 L 554.628906 384.511719 L 554.628906 419.460938 L 537.167969 419.460938 L 537.167969 436.933594 L 519.707031 436.933594 L 519.707031 454.40625 L 502.242188 454.40625 L 502.242188 471.878906 L 449.859375 471.878906 L 449.859375 436.933594 L 467.320312 436.933594 L 467.320312 419.460938 L 484.78125 419.460938 L 484.78125 401.988281 L 467.320312 401.988281 L 467.320312 384.511719 L 449.859375 384.511719 L 449.859375 401.988281 L 432.382812 401.988281 L 432.382812 471.878906 L 362.535156 471.878906 L 362.535156 419.460938 L 345.074219 419.460938 L 345.074219 471.878906 L 275.234375 471.878906 L 275.234375 314.625 L 257.773438 314.625 L 257.773438 279.679688 L 240.3125 279.679688 L 240.3125 227.261719 L 222.851562 227.261719 L 222.851562 122.429688 L 240.3125 122.429688 L 240.3125 104.957031 L 257.773438 104.957031 L 257.773438 17.59375 L 275.234375 17.59375 L 275.234375 0.121094 L 292.695312 0.121094 L 292.695312 17.59375 L 310.160156 17.59375 L 310.160156 35.066406 L 327.621094 35.066406 L 327.621094 52.539062 L 380.007812 52.539062 L 380.007812 35.066406 L 397.46875 35.066406 L 397.46875 17.59375 L 414.929688 17.59375 L 414.929688 0.121094 L 432.394531 0.121094 L 432.394531 17.59375 L 449.867188 17.59375 L 449.867188 104.957031 L 467.328125 104.957031 L 467.328125 122.429688 L 484.789062 122.429688 L 484.789062 192.320312 L 502.253906 192.320312 L 502.253906 157.375 L 519.714844 157.375 L 519.714844 139.902344 L 537.175781 139.902344 L 537.175781 122.429688 L 554.636719 122.429688 L 554.636719 104.957031 L 624.488281 104.957031 L 624.488281 122.429688 L 641.949219 122.429688 L 641.949219 139.902344 L 659.410156 139.902344 L 659.410156 157.375 Z M 676.863281 157.375 " fill-opacity="1" fill-rule="nonzero"/></g><path fill="#635555" d="M 641.941406 157.375 L 641.941406 139.902344 L 624.480469 139.902344 L 624.480469 122.429688 L 554.632812 122.429688 L 554.632812 139.902344 L 537.167969 139.902344 L 537.167969 157.375 L 519.707031 157.375 L 519.707031 209.792969 L 537.167969 209.792969 L 537.167969 227.265625 L 589.554688 227.265625 L 589.554688 209.792969 L 607.015625 209.792969 L 607.015625 174.847656 L 572.09375 174.847656 L 572.09375 209.792969 L 554.632812 209.792969 L 554.632812 174.847656 L 572.09375 174.847656 L 572.09375 157.375 L 607.015625 157.375 L 607.015625 174.847656 L 624.480469 174.847656 L 624.480469 209.792969 L 607.015625 209.792969 L 607.015625 227.265625 L 589.554688 227.265625 L 589.554688 244.738281 L 537.167969 244.738281 L 537.167969 227.265625 L 519.707031 227.265625 L 519.707031 209.792969 L 449.859375 209.792969 L 449.859375 227.265625 L 432.386719 227.265625 L 432.386719 209.792969 L 449.859375 209.792969 L 449.859375 192.320312 L 467.320312 192.320312 L 467.320312 122.429688 L 449.859375 122.429688 L 449.859375 104.957031 L 432.386719 104.957031 L 432.386719 17.59375 L 414.921875 17.59375 L 414.921875 35.066406 L 397.460938 35.066406 L 397.460938 52.539062 L 380 52.539062 L 380 70.011719 L 327.613281 70.011719 L 327.613281 52.539062 L 310.15625 52.539062 L 310.15625 35.066406 L 292.695312 35.066406 L 292.695312 17.59375 L 275.234375 17.59375 L 275.234375 104.957031 L 257.773438 104.957031 L 257.773438 122.429688 L 240.3125 122.429688 L 240.3125 227.265625 L 257.773438 227.265625 L 257.773438 279.683594 L 275.234375 279.683594 L 275.234375 314.628906 L 292.695312 314.628906 L 292.695312 454.410156 L 327.621094 454.410156 L 327.621094 401.992188 L 345.082031 401.992188 L 345.082031 367.046875 L 362.542969 367.046875 L 362.542969 349.570312 L 380.007812 349.570312 L 380.007812 454.40625 L 414.929688 454.40625 L 414.929688 401.988281 L 432.394531 401.988281 L 432.394531 384.515625 L 449.867188 384.515625 L 449.867188 332.097656 L 467.328125 332.097656 L 467.328125 314.625 L 484.789062 314.625 L 484.789062 332.097656 L 467.328125 332.097656 L 467.328125 367.042969 L 502.253906 367.042969 L 502.253906 349.570312 L 519.714844 349.570312 L 519.714844 332.097656 L 554.636719 332.097656 L 554.636719 367.042969 L 572.101562 367.042969 L 572.101562 384.515625 L 589.5625 384.515625 L 589.5625 401.988281 L 607.023438 401.988281 L 607.023438 454.40625 L 641.949219 454.40625 L 641.949219 349.570312 L 624.488281 349.570312 L 624.488281 262.207031 L 607.023438 262.207031 L 607.023438 244.734375 L 624.488281 244.734375 L 624.488281 227.261719 L 641.949219 227.261719 L 641.949219 209.789062 L 659.410156 209.789062 L 659.410156 157.371094 L 641.941406 157.371094 Z M 310.15625 139.902344 L 292.695312 139.902344 L 292.695312 122.429688 L 310.160156 122.429688 L 310.160156 139.902344 Z M 397.464844 122.429688 L 414.929688 122.429688 L 414.929688 139.902344 L 397.464844 139.902344 Z M 327.621094 139.902344 L 380.003906 139.902344 L 380.003906 157.375 L 362.542969 157.375 L 362.542969 174.847656 L 345.082031 174.847656 L 345.082031 157.375 L 327.621094 157.375 Z M 327.621094 139.902344 " fill-opacity="1" fill-rule="nonzero"/><path fill="#635555" d="M 502.246094 367.042969 L 502.246094 384.515625 L 484.785156 384.515625 L 484.785156 401.988281 L 502.246094 401.988281 L 502.246094 419.460938 L 484.785156 419.460938 L 484.785156 436.933594 L 467.324219 436.933594 L 467.324219 454.40625 L 502.246094 454.40625 L 502.246094 436.933594 L 519.710938 436.933594 L 519.710938 419.460938 L 537.171875 419.460938 L 537.171875 349.570312 L 519.710938 349.570312 L 519.710938 367.042969 Z M 502.246094 367.042969 " fill-opacity="1" fill-rule="nonzero"/><path fill="#b4b4b2" d="M 607.019531 401.988281 L 589.554688 401.988281 L 589.554688 384.515625 L 572.09375 384.515625 L 572.09375 367.042969 L 554.632812 367.042969 L 554.632812 332.097656 L 572.09375 332.097656 L 572.09375 349.570312 L 589.554688 349.570312 L 589.554688 367.042969 L 607.019531 367.042969 L 607.019531 384.515625 L 624.480469 384.515625 L 624.480469 454.40625 L 607.019531 454.40625 Z M 484.785156 349.570312 L 467.324219 349.570312 L 467.324219 367.042969 L 502.25 367.042969 L 502.25 349.570312 Z M 414.925781 87.484375 L 414.925781 104.957031 L 432.390625 104.957031 L 432.390625 87.484375 Z M 397.464844 70.011719 L 397.464844 87.484375 L 414.929688 87.484375 L 414.929688 70.011719 Z M 362.542969 192.320312 L 362.542969 209.792969 L 380.003906 209.792969 L 380.003906 192.320312 Z M 345.082031 192.320312 L 362.542969 192.320312 L 362.542969 174.847656 L 345.082031 174.847656 Z M 327.621094 349.570312 L 327.621094 384.515625 L 310.15625 384.515625 L 310.15625 454.40625 L 327.621094 454.40625 L 327.621094 401.988281 L 345.082031 401.988281 L 345.082031 349.570312 Z M 345.082031 192.320312 L 327.617188 192.320312 L 327.617188 209.792969 L 345.082031 209.792969 Z M 310.15625 314.625 L 310.15625 349.570312 L 327.621094 349.570312 L 327.621094 297.152344 L 345.082031 297.152344 L 345.082031 279.679688 L 362.542969 279.679688 L 362.542969 262.207031 L 380.003906 262.207031 L 380.003906 244.734375 L 397.46875 244.734375 L 397.46875 227.261719 L 414.929688 227.261719 L 414.929688 209.789062 L 380.003906 209.789062 L 380.003906 227.261719 L 327.621094 227.261719 L 327.621094 209.789062 L 292.695312 209.789062 L 292.695312 227.261719 L 310.160156 227.261719 L 310.160156 244.734375 L 327.621094 244.734375 L 327.621094 262.207031 L 310.15625 262.207031 L 310.15625 244.734375 L 292.695312 244.734375 L 292.695312 227.261719 L 257.773438 227.261719 L 257.773438 279.679688 L 275.234375 279.679688 L 275.234375 314.625 Z M 292.695312 87.484375 L 310.160156 87.484375 L 310.160156 70.011719 L 292.695312 70.011719 Z M 275.234375 104.957031 L 292.695312 104.957031 L 292.695312 87.484375 L 275.234375 87.484375 Z M 257.773438 209.792969 L 240.3125 209.792969 L 240.3125 227.265625 L 257.773438 227.265625 Z M 257.773438 209.792969 " fill-opacity="1" fill-rule="nonzero"/><path fill="#ffffff" d="M 659.402344 192.320312 L 659.402344 209.792969 L 641.941406 209.792969 L 641.941406 157.375 L 659.402344 157.375 Z M 624.480469 209.792969 L 624.480469 227.265625 L 641.941406 227.265625 L 641.941406 209.792969 Z M 624.480469 157.375 L 641.941406 157.375 L 641.941406 139.902344 L 624.480469 139.902344 Z M 607.019531 279.679688 L 607.019531 384.515625 L 624.480469 384.515625 L 624.480469 454.40625 L 641.941406 454.40625 L 641.941406 349.570312 L 624.480469 349.570312 L 624.480469 262.207031 L 607.019531 262.207031 Z M 607.019531 227.265625 L 607.019531 244.734375 L 624.480469 244.734375 L 624.480469 227.265625 Z M 572.09375 139.902344 L 624.480469 139.902344 L 624.480469 122.429688 L 554.632812 122.429688 L 554.632812 139.902344 Z M 554.632812 157.375 L 554.632812 139.902344 L 537.171875 139.902344 L 537.171875 157.375 Z M 519.710938 192.320312 L 537.171875 192.320312 L 537.171875 157.375 L 519.710938 157.375 Z M 484.785156 332.097656 L 467.324219 332.097656 L 467.324219 349.570312 L 519.710938 349.570312 L 519.710938 332.097656 Z M 449.863281 349.570312 L 432.390625 349.570312 L 432.390625 384.515625 L 449.863281 384.515625 Z M 414.925781 384.515625 L 414.925781 401.988281 L 432.390625 401.988281 L 432.390625 384.515625 Z M 432.390625 70.011719 L 432.390625 35.066406 L 414.925781 35.066406 L 414.925781 52.539062 L 397.464844 52.539062 L 397.464844 70.011719 L 414.925781 70.011719 L 414.925781 87.484375 L 432.390625 87.484375 Z M 397.464844 384.515625 L 397.464844 279.679688 L 414.929688 279.679688 L 414.929688 262.207031 L 432.390625 262.207031 L 432.390625 244.734375 L 449.863281 244.734375 L 449.863281 227.261719 L 414.929688 227.261719 L 414.929688 244.734375 L 397.464844 244.734375 L 397.464844 262.207031 L 362.542969 262.207031 L 362.542969 279.679688 L 345.078125 279.679688 L 345.078125 297.152344 L 327.617188 297.152344 L 327.617188 349.570312 L 345.078125 349.570312 L 345.078125 367.042969 L 362.542969 367.042969 L 362.542969 349.570312 L 380.003906 349.570312 L 380.003906 454.40625 L 414.929688 454.40625 L 414.929688 401.988281 L 397.464844 401.988281 Z M 397.464844 192.320312 L 397.464844 174.847656 L 380.003906 174.847656 L 380.003906 157.375 L 362.542969 157.375 L 362.542969 192.320312 L 380.003906 192.320312 L 380.003906 209.792969 L 414.929688 209.792969 L 414.929688 192.320312 Z M 362.542969 192.320312 L 345.082031 192.320312 L 345.082031 209.792969 L 327.617188 209.792969 L 327.617188 227.265625 L 380.003906 227.265625 L 380.003906 209.792969 L 362.542969 209.792969 Z M 362.542969 122.429688 L 362.542969 87.484375 L 345.082031 87.484375 L 345.082031 139.902344 L 362.542969 139.902344 Z M 345.082031 192.320312 L 345.082031 157.375 L 327.617188 157.375 L 327.617188 174.847656 L 310.15625 174.847656 L 310.15625 192.320312 L 292.695312 192.320312 L 292.695312 209.792969 L 327.621094 209.792969 L 327.621094 192.320312 Z M 310.15625 419.460938 L 292.695312 419.460938 L 292.695312 454.40625 L 310.160156 454.40625 L 310.160156 419.460938 Z M 292.695312 35.066406 L 275.234375 35.066406 L 275.234375 87.484375 L 292.695312 87.484375 L 292.695312 70.011719 L 310.160156 70.011719 L 310.160156 52.539062 L 292.695312 52.539062 Z M 257.773438 209.792969 L 257.773438 227.265625 L 275.234375 227.265625 L 275.234375 209.792969 Z M 240.3125 192.320312 L 240.3125 209.792969 L 257.773438 209.792969 L 257.773438 192.320312 Z M 240.3125 192.320312 " fill-opacity="1" fill-rule="nonzero"/></svg>