<svg xmlns="http://www.w3.org/2000/svg" xmlns:xlink="http://www.w3.org/1999/xlink" width="1200" zoomAndPan="magnify" viewBox="0 0 900 472.499986" height="630" preserveAspectRatio="xMidYMid meet" version="1.0"><defs><clipPath id="018b9804b3"><path d="M 190.660156 0 L 709.109375 0 L 709.109375 472 L 190.660156 472 Z M 190.660156 0 " clip-rule="nonzero"/></clipPath></defs><g clip-path="url(#018b9804b3)"><path fill="#000000" d="M 709.109375 306.742188 L 709.109375 401.058594 L 685.542969 401.058594 L 685.542969 424.636719 L 661.980469 424.636719 L 661.980469 448.210938 L 638.414062 448.210938 L 638.414062 471.785156 L 379.191406 471.785156 L 379.191406 448.210938 L 332.058594 448.210938 L 332.058594 471.785156 L 237.789062 471.785156 L 237.789062 236.015625 L 214.226562 236.015625 L 214.226562 212.4375 L 190.660156 212.4375 L 190.660156 141.710938 L 214.226562 141.710938 L 214.226562 118.136719 L 190.660156 118.136719 L 190.660156 23.835938 L 214.226562 23.835938 L 214.226562 0.261719 L 544.160156 0.261719 L 544.160156 23.835938 L 567.726562 23.835938 L 567.726562 118.140625 L 544.160156 118.140625 L 544.160156 141.714844 L 567.726562 141.714844 L 567.726562 188.867188 L 591.292969 188.867188 L 591.292969 212.441406 L 614.855469 212.441406 L 614.855469 236.019531 L 638.421875 236.019531 L 638.421875 259.59375 L 661.988281 259.59375 L 661.988281 283.167969 L 685.554688 283.167969 L 685.554688 306.746094 L 709.109375 306.746094 Z M 709.109375 306.742188 " fill-opacity="1" fill-rule="nonzero"/></g><path fill="#ef9645" d="M 355.632812 188.867188 L 355.632812 165.289062 L 402.765625 165.289062 L 402.765625 188.867188 L 426.328125 188.867188 L 426.328125 212.441406 L 449.894531 212.441406 L 449.894531 236.015625 L 520.59375 236.015625 L 520.59375 212.441406 L 544.15625 212.441406 L 544.15625 141.714844 L 520.59375 141.714844 L 520.59375 94.5625 L 544.15625 94.5625 L 544.15625 23.835938 L 214.226562 23.835938 L 214.226562 94.5625 L 237.789062 94.5625 L 237.789062 141.714844 L 214.226562 141.714844 L 214.226562 212.441406 L 237.789062 212.441406 L 237.789062 236.019531 L 308.488281 236.019531 L 308.488281 212.441406 L 332.070312 212.441406 L 332.070312 188.867188 Z M 332.066406 118.140625 L 284.917969 118.140625 L 284.917969 94.5625 L 332.066406 94.5625 Z M 379.199219 141.714844 L 355.632812 141.714844 L 355.632812 118.140625 L 402.765625 118.140625 L 402.765625 141.714844 Z M 449.894531 94.5625 L 473.457031 94.5625 L 473.457031 118.140625 L 426.328125 118.140625 L 426.328125 94.5625 Z M 449.894531 94.5625 " fill-opacity="1" fill-rule="nonzero"/><path fill="#ef9645" d="M 379.199219 259.589844 L 426.328125 259.589844 L 426.328125 212.441406 L 402.761719 212.441406 L 402.761719 188.867188 L 355.632812 188.867188 L 355.632812 212.441406 L 332.066406 212.441406 L 332.066406 259.589844 Z M 379.199219 259.589844 " fill-opacity="1" fill-rule="nonzero"/><path fill="#ef9645" d="M 661.980469 306.742188 L 661.980469 283.167969 L 638.414062 283.167969 L 638.414062 259.589844 L 614.851562 259.589844 L 614.851562 236.015625 L 591.285156 236.015625 L 591.285156 212.441406 L 544.152344 212.441406 L 544.152344 236.015625 L 520.589844 236.015625 L 520.589844 259.589844 L 426.328125 259.589844 L 426.328125 283.167969 L 332.066406 283.167969 L 332.066406 259.589844 L 261.355469 259.589844 L 261.355469 448.210938 L 332.066406 448.210938 L 332.066406 377.46875 L 379.199219 377.46875 L 379.199219 448.210938 L 449.894531 448.210938 L 449.894531 401.058594 L 473.457031 401.058594 L 473.457031 377.46875 L 497.023438 377.46875 L 497.023438 401.058594 L 473.457031 401.058594 L 473.457031 448.210938 L 520.589844 448.210938 L 520.589844 401.058594 L 567.71875 401.058594 L 567.71875 353.890625 L 591.285156 353.890625 L 591.285156 401.058594 L 567.71875 401.058594 L 567.71875 424.636719 L 544.152344 424.636719 L 544.152344 448.210938 L 638.414062 448.210938 L 638.414062 424.636719 L 661.980469 424.636719 L 661.980469 401.058594 L 685.542969 401.058594 L 685.542969 306.742188 Z M 661.980469 306.742188 " fill-opacity="1" fill-rule="nonzero"/><path fill="#deccc2" d="M 520.589844 141.714844 L 544.15625 141.714844 L 544.15625 165.289062 L 520.589844 165.289062 Z M 473.457031 118.140625 L 449.894531 118.140625 L 449.894531 141.714844 L 520.589844 141.714844 L 520.589844 118.140625 Z M 473.457031 236.015625 L 473.457031 212.441406 L 449.894531 212.441406 L 449.894531 236.015625 Z M 426.328125 259.589844 L 426.328125 283.167969 L 473.460938 283.167969 L 473.460938 259.589844 Z M 449.894531 212.441406 L 449.894531 188.863281 L 426.328125 188.863281 L 426.328125 212.441406 Z M 402.761719 306.742188 L 426.328125 306.742188 L 426.328125 283.164062 L 402.761719 283.164062 Z M 402.761719 236.015625 L 402.761719 259.589844 L 426.328125 259.589844 L 426.328125 236.015625 Z M 426.328125 188.867188 L 426.328125 165.289062 L 402.761719 165.289062 L 402.761719 188.867188 Z M 402.761719 212.441406 L 402.761719 188.863281 L 355.632812 188.863281 L 355.632812 212.441406 Z M 355.632812 141.714844 L 355.632812 165.289062 L 402.765625 165.289062 L 402.765625 141.714844 Z M 379.199219 118.140625 L 426.328125 118.140625 L 426.328125 94.5625 L 355.632812 94.5625 L 355.632812 118.140625 Z M 355.632812 236.015625 L 355.632812 212.441406 L 332.066406 212.441406 L 332.066406 259.589844 L 355.632812 259.589844 Z M 332.066406 165.289062 L 332.066406 188.867188 L 355.632812 188.867188 L 355.632812 165.289062 Z M 332.066406 118.140625 L 332.066406 141.714844 L 355.632812 141.714844 L 355.632812 118.140625 Z M 332.066406 401.058594 L 332.066406 377.46875 L 308.484375 377.46875 L 308.484375 448.210938 L 332.066406 448.210938 Z M 308.484375 188.867188 L 308.484375 212.441406 L 332.066406 212.441406 L 332.066406 188.867188 Z M 308.484375 141.714844 L 308.484375 165.289062 L 332.066406 165.289062 L 332.066406 141.714844 Z M 284.917969 306.742188 L 284.917969 330.316406 L 332.066406 330.316406 L 332.066406 306.742188 L 355.632812 306.742188 L 355.632812 283.164062 L 332.066406 283.164062 L 332.066406 259.589844 L 261.355469 259.589844 L 261.355469 283.164062 L 284.921875 283.164062 L 284.921875 306.742188 Z M 284.917969 165.289062 L 284.917969 141.714844 L 261.355469 141.714844 L 261.355469 188.867188 L 308.488281 188.867188 L 308.488281 165.289062 Z M 284.917969 165.289062 " fill-opacity="1" fill-rule="nonzero"/><path fill="#ffffff" d="M 497.023438 141.714844 L 520.589844 141.714844 L 520.589844 165.289062 L 544.15625 165.289062 L 544.15625 212.441406 L 520.589844 212.441406 L 520.589844 236.015625 L 473.457031 236.015625 L 473.457031 212.441406 L 449.890625 212.441406 L 449.890625 188.867188 L 426.328125 188.867188 L 426.328125 165.289062 L 402.761719 165.289062 L 402.761719 118.140625 L 449.890625 118.140625 L 449.890625 141.714844 Z M 426.328125 448.210938 L 449.894531 448.210938 L 449.894531 424.636719 L 379.195312 424.636719 L 379.195312 448.210938 Z M 402.761719 353.890625 L 402.761719 330.316406 L 426.328125 330.316406 L 426.328125 306.742188 L 402.761719 306.742188 L 402.761719 283.164062 L 355.632812 283.164062 L 355.632812 306.742188 L 332.066406 306.742188 L 332.066406 330.316406 L 308.484375 330.316406 L 308.484375 377.46875 L 379.195312 377.46875 L 379.195312 353.890625 Z M 426.328125 236.015625 L 426.328125 212.441406 L 355.632812 212.441406 L 355.632812 259.589844 L 402.761719 259.589844 L 402.761719 236.015625 Z M 379.199219 70.988281 L 379.199219 94.5625 L 473.460938 94.5625 L 473.460938 118.140625 L 520.59375 118.140625 L 520.59375 94.5625 L 497.027344 94.5625 L 497.027344 70.988281 L 473.460938 70.988281 L 473.460938 23.835938 L 379.199219 23.835938 Z M 355.632812 141.714844 L 332.066406 141.714844 L 332.066406 165.289062 L 355.632812 165.289062 Z M 332.066406 165.289062 L 308.484375 165.289062 L 308.484375 188.867188 L 332.066406 188.867188 Z M 284.917969 401.058594 L 284.917969 424.636719 L 261.355469 424.636719 L 261.355469 448.210938 L 308.488281 448.210938 L 308.488281 377.46875 L 284.917969 377.46875 Z M 284.917969 236.015625 L 308.484375 236.015625 L 308.484375 188.863281 L 261.355469 188.863281 L 261.355469 94.5625 L 237.789062 94.5625 L 237.789062 141.714844 L 214.226562 141.714844 L 214.226562 212.441406 L 237.789062 212.441406 L 237.789062 236.019531 L 284.917969 236.019531 Z M 284.917969 236.015625 " fill-opacity="1" fill-rule="nonzero"/></svg>