<svg xmlns="http://www.w3.org/2000/svg" xmlns:xlink="http://www.w3.org/1999/xlink" width="1200" zoomAndPan="magnify" viewBox="0 0 900 472.499986" height="630" preserveAspectRatio="xMidYMid meet" version="1.0"><path fill="#000000" d="M 686 157.328125 L 686 247.230469 L 663.523438 247.230469 L 663.523438 269.707031 L 641.050781 269.707031 L 641.050781 337.132812 L 663.523438 337.132812 L 663.523438 471.988281 L 506.195312 471.988281 L 506.195312 404.5625 L 483.71875 404.5625 L 483.71875 382.085938 L 461.242188 382.085938 L 461.242188 471.988281 L 258.949219 471.988281 L 258.949219 224.753906 L 236.476562 224.753906 L 236.476562 202.277344 L 214 202.277344 L 214 89.902344 L 236.476562 89.902344 L 236.476562 67.425781 L 258.953125 67.425781 L 258.953125 44.949219 L 281.425781 44.949219 L 281.425781 22.476562 L 303.902344 22.476562 L 303.902344 0 L 416.296875 0 L 416.296875 22.476562 L 438.773438 22.476562 L 438.773438 44.953125 L 461.246094 44.953125 L 461.246094 67.425781 L 483.722656 67.425781 L 483.722656 89.902344 L 506.199219 89.902344 L 506.199219 112.378906 L 528.675781 112.378906 L 528.675781 89.902344 L 618.578125 89.902344 L 618.578125 112.378906 L 641.054688 112.378906 L 641.054688 134.851562 L 663.527344 134.851562 L 663.527344 157.328125 Z M 686 157.328125 " fill-opacity="1" fill-rule="nonzero"/><path fill="#ffffff" d="M 641.050781 157.328125 L 641.050781 134.851562 L 618.574219 134.851562 L 618.574219 112.375 L 528.671875 112.375 L 528.671875 134.851562 L 506.195312 134.851562 L 506.195312 224.753906 L 528.671875 224.753906 L 528.671875 247.230469 L 596.097656 247.230469 L 596.097656 224.753906 L 618.574219 224.753906 L 618.574219 202.28125 L 641.050781 202.28125 L 641.050781 224.753906 L 618.574219 224.753906 L 618.574219 247.230469 L 596.097656 247.230469 L 596.097656 269.707031 L 528.671875 269.707031 L 528.671875 247.230469 L 506.195312 247.230469 L 506.195312 224.753906 L 461.242188 224.753906 L 461.242188 202.28125 L 483.71875 202.28125 L 483.71875 89.902344 L 461.242188 89.902344 L 461.242188 67.425781 L 438.769531 67.425781 L 438.769531 44.949219 L 416.292969 44.949219 L 416.292969 22.476562 L 303.902344 22.476562 L 303.902344 44.953125 L 281.425781 44.953125 L 281.425781 67.425781 L 258.949219 67.425781 L 258.949219 89.902344 L 236.476562 89.902344 L 236.476562 202.28125 L 258.953125 202.28125 L 258.953125 224.757812 L 281.425781 224.757812 L 281.425781 449.515625 L 348.855469 449.515625 L 348.855469 359.613281 L 371.328125 359.613281 L 371.328125 449.515625 L 438.773438 449.515625 L 438.773438 359.613281 L 483.722656 359.613281 L 483.722656 382.085938 L 506.199219 382.085938 L 506.199219 404.5625 L 528.675781 404.5625 L 528.675781 449.515625 L 573.625 449.515625 L 573.625 404.5625 L 596.101562 404.5625 L 596.101562 449.515625 L 641.054688 449.515625 L 641.054688 337.132812 L 618.578125 337.132812 L 618.578125 269.703125 L 641.054688 269.703125 L 641.054688 247.226562 L 663.527344 247.226562 L 663.527344 157.328125 Z M 371.328125 134.851562 L 393.820312 134.851562 L 393.820312 157.328125 L 371.328125 157.328125 Z M 326.378906 157.328125 L 348.851562 157.328125 L 348.851562 179.804688 L 326.378906 179.804688 Z M 281.425781 134.851562 L 303.902344 134.851562 L 303.902344 157.328125 L 281.425781 157.328125 Z M 281.425781 134.851562 " fill-opacity="1" fill-rule="nonzero"/><path fill="#cccccc" d="M 618.574219 224.753906 L 596.097656 224.753906 L 596.097656 179.804688 L 618.574219 179.804688 Z M 528.671875 427.03125 L 528.671875 449.507812 L 573.625 449.507812 L 573.625 382.082031 L 528.671875 382.082031 L 528.671875 359.605469 L 483.71875 359.605469 L 483.71875 382.082031 L 506.195312 382.082031 L 506.195312 404.558594 L 528.671875 404.558594 Z M 551.148438 247.230469 L 596.097656 247.230469 L 596.097656 224.753906 L 528.671875 224.753906 L 528.671875 247.230469 Z M 528.671875 224.753906 L 528.671875 202.277344 L 506.195312 202.277344 L 506.195312 224.753906 Z M 438.769531 202.277344 L 438.769531 179.804688 L 416.296875 179.804688 L 416.296875 224.753906 L 438.769531 224.753906 Z M 393.820312 157.328125 L 393.820312 179.804688 L 416.296875 179.804688 L 416.296875 157.328125 Z M 348.851562 427.03125 L 348.851562 359.605469 L 371.328125 359.605469 L 371.328125 337.132812 L 326.375 337.132812 L 326.375 449.507812 L 348.851562 449.507812 Z M 281.425781 269.703125 L 281.425781 314.65625 L 303.902344 314.65625 L 303.902344 292.179688 L 326.378906 292.179688 L 326.378906 269.703125 L 348.851562 269.703125 L 348.851562 247.230469 L 416.296875 247.230469 L 416.296875 224.753906 L 348.851562 224.753906 L 348.851562 179.804688 L 326.378906 179.804688 L 326.378906 224.753906 L 281.425781 224.753906 Z M 281.425781 157.328125 L 258.949219 157.328125 L 258.949219 179.804688 L 281.425781 179.804688 Z M 258.949219 179.804688 L 236.476562 179.804688 L 236.476562 202.28125 L 258.953125 202.28125 L 258.953125 179.804688 Z M 258.949219 179.804688 " fill-opacity="1" fill-rule="nonzero"/></svg>