<svg xmlns="http://www.w3.org/2000/svg" xmlns:xlink="http://www.w3.org/1999/xlink" width="1200" zoomAndPan="magnify" viewBox="0 0 900 472.499986" height="630" preserveAspectRatio="xMidYMid meet" version="1.0"><defs><clipPath id="d2d4acd1e4"><path d="M 253.234375 0 L 646.570312 0 L 646.570312 472 L 253.234375 472 Z M 253.234375 0 " clip-rule="nonzero"/></clipPath></defs><g clip-path="url(#d2d4acd1e4)"><path fill="#000000" d="M 646.445312 39.347656 L 646.445312 78.679688 L 626.789062 78.679688 L 626.789062 98.347656 L 607.132812 98.347656 L 607.132812 118.011719 L 626.789062 118.011719 L 626.789062 137.679688 L 646.445312 137.679688 L 646.445312 216.34375 L 626.789062 216.34375 L 626.789062 236.011719 L 607.132812 236.011719 L 607.132812 255.675781 L 587.476562 255.675781 L 587.476562 472 L 449.878906 472 L 449.878906 354.003906 L 410.566406 354.003906 L 410.566406 373.667969 L 390.910156 373.667969 L 390.910156 472 L 253.3125 472 L 253.3125 334.335938 L 272.96875 334.335938 L 272.96875 255.671875 L 292.625 255.671875 L 292.625 236.007812 L 272.96875 236.007812 L 272.96875 177.007812 L 292.625 177.007812 L 292.625 157.34375 L 331.941406 157.34375 L 331.941406 216.34375 L 449.882812 216.34375 L 449.882812 137.675781 L 469.539062 137.675781 L 469.539062 118.011719 L 489.195312 118.011719 L 489.195312 98.34375 L 469.535156 98.34375 L 469.535156 78.679688 L 449.878906 78.679688 L 449.878906 39.347656 L 469.535156 39.347656 L 469.535156 19.667969 L 489.195312 19.667969 L 489.195312 0 L 528.507812 0 L 528.507812 19.667969 L 567.820312 19.667969 L 567.820312 0 L 607.136719 0 L 607.136719 19.667969 L 626.792969 19.667969 L 626.792969 39.347656 Z M 646.445312 39.347656 " fill-opacity="1" fill-rule="nonzero"/></g><path fill="#ef9645" d="M 567.820312 236.007812 L 528.507812 236.007812 L 528.507812 216.339844 L 508.851562 216.339844 L 508.851562 236.007812 L 469.535156 236.007812 L 469.535156 216.339844 L 449.878906 216.339844 L 449.878906 236.007812 L 331.941406 236.007812 L 331.941406 216.339844 L 312.28125 216.339844 L 312.28125 177.007812 L 292.625 177.007812 L 292.625 236.007812 L 312.28125 236.007812 L 312.28125 255.671875 L 292.625 255.671875 L 292.625 334.335938 L 272.96875 334.335938 L 272.96875 452.335938 L 312.28125 452.335938 L 312.28125 354.003906 L 331.941406 354.003906 L 331.941406 334.335938 L 351.597656 334.335938 L 351.597656 314.671875 L 390.910156 314.671875 L 390.910156 334.335938 L 469.535156 334.335938 L 469.535156 452.335938 L 508.851562 452.335938 L 508.851562 334.335938 L 528.507812 334.335938 L 528.507812 452.335938 L 567.820312 452.335938 L 567.820312 255.671875 L 587.476562 255.671875 L 587.476562 216.339844 L 567.820312 216.339844 Z M 567.820312 236.007812 " fill-opacity="1" fill-rule="nonzero"/><path fill="#ef9645" d="M 331.941406 354.003906 L 331.941406 452.335938 L 371.253906 452.335938 L 371.253906 334.335938 L 351.597656 334.335938 L 351.597656 354.003906 Z M 331.941406 354.003906 " fill-opacity="1" fill-rule="nonzero"/><path fill="#ef9645" d="M 607.132812 39.347656 L 607.132812 19.667969 L 567.820312 19.667969 L 567.820312 39.347656 L 528.507812 39.347656 L 528.507812 19.667969 L 489.191406 19.667969 L 489.191406 39.347656 L 469.535156 39.347656 L 469.535156 78.679688 L 489.195312 78.679688 L 489.195312 98.347656 L 508.851562 98.347656 L 508.851562 78.679688 L 528.507812 78.679688 L 528.507812 98.34375 L 508.851562 98.34375 L 508.851562 118.011719 L 489.195312 118.011719 L 489.195312 137.679688 L 469.535156 137.679688 L 469.535156 216.34375 L 508.851562 216.34375 L 508.851562 196.675781 L 587.476562 196.675781 L 587.476562 216.34375 L 626.792969 216.34375 L 626.792969 137.675781 L 607.136719 137.675781 L 607.136719 118.011719 L 587.476562 118.011719 L 587.476562 98.34375 L 567.820312 98.34375 L 567.820312 78.679688 L 587.476562 78.679688 L 587.476562 98.34375 L 607.136719 98.34375 L 607.136719 78.679688 L 626.792969 78.679688 L 626.792969 39.347656 Z M 567.820312 177.007812 L 528.507812 177.007812 L 528.507812 157.34375 L 567.820312 157.34375 Z M 567.820312 177.007812 " fill-opacity="1" fill-rule="nonzero"/><path fill="#f29eae" d="M 548.164062 196.675781 L 528.507812 196.675781 L 528.507812 236.007812 L 567.820312 236.007812 L 567.820312 196.675781 Z M 548.164062 196.675781 " fill-opacity="1" fill-rule="nonzero"/><path fill="#6f6969" d="M 567.820312 255.671875 L 567.820312 295.007812 L 528.507812 295.007812 L 528.507812 314.671875 L 508.847656 314.671875 L 508.847656 295.007812 L 489.191406 295.007812 L 489.191406 275.339844 L 469.535156 275.339844 L 469.535156 236.007812 L 528.507812 236.007812 L 528.507812 255.671875 Z M 410.566406 236.007812 L 331.941406 236.007812 L 331.941406 255.675781 L 351.597656 255.675781 L 351.597656 295.007812 L 390.910156 295.007812 L 390.910156 314.671875 L 430.222656 314.671875 L 430.222656 295.007812 L 449.882812 295.007812 L 449.882812 236.007812 Z M 410.566406 236.007812 " fill-opacity="1" fill-rule="nonzero"/><path fill="#d3762a" d="M 390.910156 334.335938 L 371.253906 334.335938 L 371.253906 373.671875 L 390.910156 373.671875 Z M 390.910156 334.335938 " fill-opacity="1" fill-rule="nonzero"/><path fill="#b85b18" d="M 626.789062 137.675781 L 626.789062 216.34375 L 587.476562 216.34375 L 587.476562 196.675781 L 607.132812 196.675781 L 607.132812 137.675781 Z M 587.476562 118.011719 L 587.476562 137.679688 L 607.132812 137.679688 L 607.132812 118.011719 Z M 587.476562 98.34375 L 607.132812 98.34375 L 607.132812 59.011719 L 587.476562 59.011719 Z M 567.820312 236.007812 L 528.507812 236.007812 L 528.507812 255.675781 L 587.476562 255.675781 L 587.476562 216.339844 L 567.820312 216.339844 Z M 587.476562 39.347656 L 567.820312 39.347656 L 567.820312 59.011719 L 587.476562 59.011719 Z M 528.507812 196.675781 L 567.820312 196.675781 L 567.820312 177.007812 L 528.507812 177.007812 Z M 528.507812 354.003906 L 528.507812 452.335938 L 548.164062 452.335938 L 548.164062 334.335938 L 528.507812 334.335938 Z M 508.851562 314.671875 L 508.851562 334.339844 L 528.507812 334.339844 L 528.507812 314.671875 Z M 508.851562 216.339844 L 508.851562 236.007812 L 528.507812 236.007812 L 528.507812 216.339844 Z M 528.507812 39.347656 L 508.851562 39.347656 L 508.851562 59.011719 L 528.507812 59.011719 Z M 489.191406 354.003906 L 489.191406 452.335938 L 508.851562 452.335938 L 508.851562 334.335938 L 489.191406 334.335938 Z M 508.851562 118.011719 L 489.191406 118.011719 L 489.191406 137.679688 L 508.851562 137.679688 Z M 508.851562 78.679688 L 508.851562 59.011719 L 489.191406 59.011719 L 489.191406 98.34375 L 508.851562 98.34375 Z M 489.191406 196.675781 L 489.191406 137.675781 L 469.535156 137.675781 L 469.535156 216.34375 L 508.851562 216.34375 L 508.851562 196.675781 Z M 449.878906 236.007812 L 469.535156 236.007812 L 469.535156 216.339844 L 449.878906 216.339844 Z M 351.597656 354.003906 L 331.941406 354.003906 L 331.941406 452.335938 L 371.253906 452.335938 L 371.253906 334.335938 L 351.597656 334.335938 Z M 351.597656 354.003906 " fill-opacity="1" fill-rule="nonzero"/></svg>