<svg xmlns="http://www.w3.org/2000/svg" xmlns:xlink="http://www.w3.org/1999/xlink" width="1200" zoomAndPan="magnify" viewBox="0 0 900 472.499986" height="630" preserveAspectRatio="xMidYMid meet" version="1.0"><defs><clipPath id="65a82e1a7b"><path d="M 163.070312 1 L 736.960938 1 L 736.960938 470 L 163.070312 470 Z M 163.070312 1 " clip-rule="nonzero"/></clipPath></defs><g clip-path="url(#65a82e1a7b)"><path fill="#000000" d="M 539.921875 451.820312 L 575.847656 451.820312 L 575.847656 433.855469 L 611.773438 433.855469 L 611.773438 415.894531 L 629.554688 415.894531 L 629.554688 397.933594 L 647.515625 397.933594 L 647.515625 379.972656 L 665.480469 379.972656 L 665.480469 362.007812 L 683.441406 362.007812 L 683.441406 326.085938 L 701.40625 326.085938 L 701.40625 307.847656 L 719.367188 307.847656 L 719.367188 253.871094 L 737.332031 253.871094 L 737.332031 127.769531 L 719.367188 127.769531 L 719.367188 91.84375 L 701.40625 91.84375 L 701.40625 55.828125 L 683.441406 55.828125 L 683.441406 37.867188 L 647.515625 37.867188 L 647.515625 19.90625 L 629.554688 19.90625 L 629.554688 1.945312 L 521.960938 1.945312 L 521.960938 19.90625 L 486.035156 19.90625 L 486.035156 37.867188 L 414.273438 37.867188 L 414.273438 19.90625 L 378.347656 19.90625 L 378.347656 1.945312 L 271.03125 1.945312 L 271.03125 19.90625 L 253.070312 19.90625 L 253.070312 37.867188 L 217.144531 37.867188 L 217.144531 55.828125 L 199.179688 55.828125 L 199.179688 91.84375 L 181.214844 91.84375 L 181.214844 127.859375 L 163.253906 127.859375 L 163.253906 253.871094 L 181.214844 253.871094 L 181.214844 307.847656 L 199.179688 307.847656 L 199.179688 343.863281 L 217.144531 343.863281 L 217.144531 361.824219 L 235.105469 361.824219 L 235.105469 379.785156 L 253.070312 379.785156 L 253.070312 397.75 L 271.03125 397.75 L 271.03125 415.710938 L 288.996094 415.710938 L 288.996094 433.671875 L 324.921875 433.671875 L 324.921875 451.632812 L 360.847656 451.632812 L 360.847656 469.597656 L 540.199219 469.597656 L 540.199219 451.820312 Z M 306.863281 109.808594 L 360.660156 109.808594 L 360.660156 127.769531 L 378.625 127.769531 L 378.625 145.730469 L 360.660156 145.730469 L 360.660156 235.722656 L 378.625 235.722656 L 378.625 271.738281 L 360.660156 271.738281 L 360.660156 289.703125 L 342.699219 289.703125 L 342.699219 325.71875 L 324.734375 325.71875 L 324.734375 307.847656 L 306.773438 307.847656 L 306.773438 271.832031 L 288.808594 271.832031 L 288.808594 235.816406 L 270.847656 235.816406 L 270.847656 145.824219 L 288.808594 145.824219 L 288.808594 109.808594 Z M 557.886719 109.808594 L 611.683594 109.808594 L 611.683594 145.730469 L 629.644531 145.730469 L 629.644531 235.722656 L 611.683594 235.722656 L 611.683594 289.703125 L 593.71875 289.703125 L 593.71875 307.664062 L 575.757812 307.664062 L 575.757812 325.625 L 557.792969 325.625 L 557.792969 289.609375 L 539.832031 289.609375 L 539.832031 271.648438 L 521.867188 271.648438 L 521.867188 235.632812 L 539.832031 235.632812 L 539.832031 145.636719 L 521.867188 145.636719 L 521.867188 127.675781 L 539.832031 127.675781 L 539.832031 109.808594 Z M 557.886719 109.808594 " fill-opacity="1" fill-rule="evenodd"/></g><path fill="#a05f37" d="M 521.960938 451.820312 L 539.921875 451.820312 L 539.921875 433.855469 L 575.757812 433.855469 L 575.757812 415.894531 C 587.730469 415.894531 599.613281 415.894531 611.589844 415.894531 L 611.589844 397.933594 L 629.554688 397.933594 L 629.554688 379.972656 L 647.515625 379.972656 L 647.515625 362.007812 L 665.480469 362.007812 L 665.480469 325.992188 L 683.441406 325.992188 L 683.441406 307.847656 L 701.40625 307.847656 L 701.40625 253.871094 L 719.367188 253.871094 L 719.367188 127.769531 L 701.40625 127.769531 L 701.40625 91.753906 L 683.441406 91.753906 L 683.441406 55.738281 L 647.609375 55.738281 L 647.609375 37.773438 L 629.644531 37.773438 L 629.644531 19.8125 L 521.960938 19.8125 L 521.960938 37.773438 L 486.125 37.773438 L 486.125 55.738281 L 414.367188 55.738281 L 414.367188 37.773438 L 378.53125 37.773438 L 378.53125 19.8125 L 271.03125 19.8125 L 271.03125 37.773438 L 253.070312 37.773438 L 253.070312 55.738281 L 217.234375 55.738281 L 217.234375 91.753906 L 199.273438 91.753906 L 199.273438 127.769531 L 181.308594 127.769531 L 181.308594 253.777344 L 199.273438 253.777344 L 199.273438 307.753906 L 217.234375 307.753906 L 217.234375 343.769531 L 235.199219 343.769531 L 235.199219 361.734375 L 253.160156 361.734375 L 253.160156 379.695312 L 271.125 379.695312 L 271.125 397.65625 L 289.085938 397.65625 L 289.085938 415.617188 L 324.921875 415.617188 L 324.921875 433.582031 L 360.753906 433.582031 L 360.753906 451.542969 L 521.960938 451.542969 Z M 306.863281 91.84375 L 360.660156 91.84375 L 360.660156 109.808594 L 396.496094 109.808594 L 396.496094 145.824219 L 378.53125 145.824219 L 378.53125 235.816406 L 396.496094 235.816406 L 396.496094 271.832031 L 378.53125 271.832031 L 378.53125 289.792969 L 360.570312 289.792969 L 360.570312 361.824219 L 342.699219 361.824219 L 342.699219 343.863281 L 324.734375 343.863281 L 324.734375 325.902344 L 306.773438 325.902344 L 306.773438 307.847656 L 288.808594 307.847656 L 288.808594 271.832031 L 270.847656 271.832031 L 270.847656 235.816406 L 252.882812 235.816406 L 252.882812 145.824219 L 270.847656 145.824219 L 270.847656 109.808594 L 288.808594 109.808594 L 288.808594 91.84375 Z M 557.886719 91.84375 L 611.683594 91.84375 L 611.683594 109.808594 L 629.644531 109.808594 L 629.644531 145.824219 L 647.609375 145.824219 L 647.609375 235.816406 L 629.644531 235.816406 L 629.644531 289.792969 L 611.683594 289.792969 L 611.683594 307.753906 L 593.71875 307.753906 L 593.71875 325.71875 L 575.757812 325.71875 L 575.757812 343.679688 L 557.792969 343.679688 L 557.792969 361.640625 L 539.832031 361.640625 L 539.832031 289.609375 L 521.867188 289.609375 L 521.867188 271.648438 L 503.90625 271.648438 L 503.90625 235.632812 L 521.867188 235.632812 L 521.867188 145.636719 L 503.90625 145.636719 L 503.90625 109.808594 C 515.878906 109.808594 527.761719 109.808594 539.738281 109.808594 L 539.738281 91.84375 Z M 450.292969 325.808594 L 468.253906 325.808594 L 468.253906 379.785156 L 432.421875 379.785156 L 432.421875 325.808594 Z M 450.292969 325.808594 " fill-opacity="1" fill-rule="evenodd"/><path fill="#a05f37" d="M 521.960938 433.855469 L 539.921875 433.855469 L 539.921875 451.820312 L 521.960938 451.820312 Z M 521.960938 433.855469 " fill-opacity="1" fill-rule="evenodd"/><path fill="#a05f37" d="M 504.089844 433.855469 L 522.050781 433.855469 L 522.050781 451.820312 L 504.089844 451.820312 Z M 504.089844 433.855469 " fill-opacity="1" fill-rule="evenodd"/><path fill="#a05f37" d="M 486.125 433.855469 L 504.089844 433.855469 L 504.089844 451.820312 L 486.125 451.820312 Z M 486.125 433.855469 " fill-opacity="1" fill-rule="evenodd"/><path fill="#a05f37" d="M 468.253906 433.855469 L 486.21875 433.855469 L 486.21875 451.820312 L 468.253906 451.820312 Z M 468.253906 433.855469 " fill-opacity="1" fill-rule="evenodd"/><path fill="#a05f37" d="M 450.292969 433.855469 L 468.253906 433.855469 L 468.253906 451.820312 L 450.292969 451.820312 Z M 450.292969 433.855469 " fill-opacity="1" fill-rule="evenodd"/><path fill="#a05f37" d="M 432.328125 433.855469 L 450.292969 433.855469 L 450.292969 451.820312 L 432.328125 451.820312 Z M 432.328125 433.855469 " fill-opacity="1" fill-rule="evenodd"/><path fill="#a05f37" d="M 414.457031 433.855469 L 432.421875 433.855469 L 432.421875 451.820312 L 414.457031 451.820312 Z M 414.457031 433.855469 " fill-opacity="1" fill-rule="evenodd"/><path fill="#a05f37" d="M 396.496094 433.855469 L 414.457031 433.855469 L 414.457031 451.820312 L 396.496094 451.820312 Z M 396.496094 433.855469 " fill-opacity="1" fill-rule="evenodd"/><path fill="#9e5e36" d="M 378.53125 433.855469 L 396.496094 433.855469 L 396.496094 451.820312 L 378.53125 451.820312 Z M 378.53125 433.855469 " fill-opacity="1" fill-rule="evenodd"/><path fill="#a05f37" d="M 360.660156 433.855469 L 378.625 433.855469 L 378.625 451.820312 L 360.660156 451.820312 Z M 360.660156 433.855469 " fill-opacity="1" fill-rule="evenodd"/><path fill="#814a2a" d="M 557.886719 415.804688 L 575.847656 415.804688 L 575.847656 433.765625 L 557.886719 433.765625 Z M 557.886719 415.804688 " fill-opacity="1" fill-rule="evenodd"/><path fill="#a05f37" d="M 539.921875 415.804688 L 557.886719 415.804688 L 557.886719 433.765625 L 539.921875 433.765625 Z M 539.921875 415.804688 " fill-opacity="1" fill-rule="evenodd"/><path fill="#a05f37" d="M 521.960938 415.804688 L 539.921875 415.804688 L 539.921875 433.765625 L 521.960938 433.765625 Z M 521.960938 415.804688 " fill-opacity="1" fill-rule="evenodd"/><path fill="#a05f37" d="M 504.089844 415.804688 L 522.050781 415.804688 L 522.050781 433.765625 L 504.089844 433.765625 Z M 504.089844 415.804688 " fill-opacity="1" fill-rule="evenodd"/><path fill="#bd7345" d="M 486.125 415.804688 L 504.089844 415.804688 L 504.089844 433.765625 L 486.125 433.765625 Z M 486.125 415.804688 " fill-opacity="1" fill-rule="evenodd"/><path fill="#bd7345" d="M 468.253906 415.804688 L 486.21875 415.804688 L 486.21875 433.765625 L 468.253906 433.765625 Z M 468.253906 415.804688 " fill-opacity="1" fill-rule="evenodd"/><path fill="#bd7345" d="M 450.292969 415.804688 L 468.253906 415.804688 L 468.253906 433.765625 L 450.292969 433.765625 Z M 450.292969 415.804688 " fill-opacity="1" fill-rule="evenodd"/><path fill="#bd7345" d="M 432.328125 415.804688 L 450.292969 415.804688 L 450.292969 433.765625 L 432.328125 433.765625 Z M 432.328125 415.804688 " fill-opacity="1" fill-rule="evenodd"/><path fill="#bd7345" d="M 414.457031 415.804688 L 432.421875 415.804688 L 432.421875 433.765625 L 414.457031 433.765625 Z M 414.457031 415.804688 " fill-opacity="1" fill-rule="evenodd"/><path fill="#bd7345" d="M 396.496094 415.804688 L 414.457031 415.804688 L 414.457031 433.765625 L 396.496094 433.765625 Z M 396.496094 415.804688 " fill-opacity="1" fill-rule="evenodd"/><path fill="#ac673c" d="M 378.53125 415.804688 L 396.496094 415.804688 L 396.496094 433.765625 L 378.53125 433.765625 Z M 378.53125 415.804688 " fill-opacity="1" fill-rule="evenodd"/><path fill="#a05f37" d="M 360.660156 415.804688 L 378.625 415.804688 L 378.625 433.765625 L 360.660156 433.765625 Z M 360.660156 415.804688 " fill-opacity="1" fill-rule="evenodd"/><path fill="#a05f37" d="M 342.699219 415.804688 L 360.660156 415.804688 L 360.660156 433.765625 L 342.699219 433.765625 Z M 342.699219 415.804688 " fill-opacity="1" fill-rule="evenodd"/><path fill="#915530" d="M 324.828125 415.804688 L 342.792969 415.804688 L 342.792969 433.765625 L 324.828125 433.765625 Z M 324.828125 415.804688 " fill-opacity="1" fill-rule="evenodd"/><path fill="#6c3e23" d="M 593.71875 397.839844 L 611.683594 397.839844 L 611.683594 415.804688 L 593.71875 415.804688 Z M 593.71875 397.839844 " fill-opacity="1" fill-rule="evenodd"/><path fill="#a05f37" d="M 575.757812 397.839844 L 593.71875 397.839844 L 593.71875 415.804688 L 575.757812 415.804688 Z M 575.757812 397.839844 " fill-opacity="1" fill-rule="evenodd"/><path fill="#a05f37" d="M 557.886719 397.839844 L 575.847656 397.839844 L 575.847656 415.804688 L 557.886719 415.804688 Z M 557.886719 397.839844 " fill-opacity="1" fill-rule="evenodd"/><path fill="#bd7345" d="M 539.921875 397.839844 L 557.886719 397.839844 L 557.886719 415.804688 L 539.921875 415.804688 Z M 539.921875 397.839844 " fill-opacity="1" fill-rule="evenodd"/><path fill="#bd7345" d="M 521.960938 397.839844 L 539.921875 397.839844 L 539.921875 415.804688 L 521.960938 415.804688 Z M 521.960938 397.839844 " fill-opacity="1" fill-rule="evenodd"/><path fill="#6b3c20" d="M 504.089844 397.839844 L 522.050781 397.839844 L 522.050781 415.804688 L 504.089844 415.804688 Z M 504.089844 397.839844 " fill-opacity="1" fill-rule="evenodd"/><path fill="#7d4728" d="M 486.125 397.839844 L 504.089844 397.839844 L 504.089844 415.804688 L 486.125 415.804688 Z M 486.125 397.839844 " fill-opacity="1" fill-rule="evenodd"/><path fill="#bd7345" d="M 468.253906 397.839844 L 486.21875 397.839844 L 486.21875 415.804688 L 468.253906 415.804688 Z M 468.253906 397.839844 " fill-opacity="1" fill-rule="evenodd"/><path fill="#d18556" d="M 450.292969 397.839844 L 468.253906 397.839844 L 468.253906 415.804688 L 450.292969 415.804688 Z M 450.292969 397.839844 " fill-opacity="1" fill-rule="evenodd"/><path fill="#d48859" d="M 432.328125 397.839844 L 450.292969 397.839844 L 450.292969 415.804688 L 432.328125 415.804688 Z M 432.328125 397.839844 " fill-opacity="1" fill-rule="evenodd"/><path fill="#c97e4f" d="M 414.457031 397.839844 L 432.421875 397.839844 L 432.421875 415.804688 L 414.457031 415.804688 Z M 414.457031 397.839844 " fill-opacity="1" fill-rule="evenodd"/><path fill="#784426" d="M 396.496094 397.839844 L 414.457031 397.839844 L 414.457031 415.804688 L 396.496094 415.804688 Z M 396.496094 397.839844 " fill-opacity="1" fill-rule="evenodd"/><path fill="#6c3c20" d="M 378.53125 397.839844 L 396.496094 397.839844 L 396.496094 415.804688 L 378.53125 415.804688 Z M 378.53125 397.839844 " fill-opacity="1" fill-rule="evenodd"/><path fill="#b16b3f" d="M 360.660156 397.839844 L 378.625 397.839844 L 378.625 415.804688 L 360.660156 415.804688 Z M 360.660156 397.839844 " fill-opacity="1" fill-rule="evenodd"/><path fill="#bd7345" d="M 342.699219 397.839844 L 360.660156 397.839844 L 360.660156 415.804688 L 342.699219 415.804688 Z M 342.699219 397.839844 " fill-opacity="1" fill-rule="evenodd"/><path fill="#bb7244" d="M 324.828125 397.839844 L 342.792969 397.839844 L 342.792969 415.804688 L 324.828125 415.804688 Z M 324.828125 397.839844 " fill-opacity="1" fill-rule="evenodd"/><path fill="#a05f37" d="M 306.863281 397.839844 L 324.828125 397.839844 L 324.828125 415.804688 L 306.863281 415.804688 Z M 306.863281 397.839844 " fill-opacity="1" fill-rule="evenodd"/><path fill="#734124" d="M 288.902344 397.839844 L 306.863281 397.839844 L 306.863281 415.804688 L 288.902344 415.804688 Z M 288.902344 397.839844 " fill-opacity="1" fill-rule="evenodd"/><path fill="#a05f37" d="M 611.683594 379.785156 L 629.644531 379.785156 L 629.644531 397.75 L 611.683594 397.75 Z M 611.683594 379.785156 " fill-opacity="1" fill-rule="evenodd"/><path fill="#a05f37" d="M 593.71875 379.785156 L 611.683594 379.785156 L 611.683594 397.75 L 593.71875 397.75 Z M 593.71875 379.785156 " fill-opacity="1" fill-rule="evenodd"/><path fill="#bd7345" d="M 575.757812 379.785156 L 593.71875 379.785156 L 593.71875 397.75 L 575.757812 397.75 Z M 575.757812 379.785156 " fill-opacity="1" fill-rule="evenodd"/><path fill="#bd7345" d="M 557.886719 379.785156 L 575.847656 379.785156 L 575.847656 397.75 L 557.886719 397.75 Z M 557.886719 379.785156 " fill-opacity="1" fill-rule="evenodd"/><path fill="#bd7345" d="M 539.921875 379.785156 L 557.886719 379.785156 L 557.886719 397.75 L 539.921875 397.75 Z M 539.921875 379.785156 " fill-opacity="1" fill-rule="evenodd"/><path fill="#a05f37" d="M 521.960938 379.785156 L 539.921875 379.785156 L 539.921875 397.75 L 521.960938 397.75 Z M 521.960938 379.785156 " fill-opacity="1" fill-rule="evenodd"/><path fill="#a05f37" d="M 504.089844 379.785156 L 522.050781 379.785156 L 522.050781 397.75 L 504.089844 397.75 Z M 504.089844 379.785156 " fill-opacity="1" fill-rule="evenodd"/><path fill="#a05f37" d="M 486.125 379.785156 L 504.089844 379.785156 L 504.089844 397.75 L 486.125 397.75 Z M 486.125 379.785156 " fill-opacity="1" fill-rule="evenodd"/><path fill="#814a29" d="M 468.253906 379.785156 L 486.21875 379.785156 L 486.21875 397.75 L 468.253906 397.75 Z M 468.253906 379.785156 " fill-opacity="1" fill-rule="evenodd"/><path fill="#bd7345" d="M 450.292969 379.785156 L 468.253906 379.785156 L 468.253906 397.75 L 450.292969 397.75 Z M 450.292969 379.785156 " fill-opacity="1" fill-rule="evenodd"/><path fill="#d88b5c" d="M 432.328125 379.785156 L 450.292969 379.785156 L 450.292969 397.75 L 432.328125 397.75 Z M 432.328125 379.785156 " fill-opacity="1" fill-rule="evenodd"/><path fill="#955832" d="M 414.457031 379.785156 L 432.421875 379.785156 L 432.421875 397.75 L 414.457031 397.75 Z M 414.457031 379.785156 " fill-opacity="1" fill-rule="evenodd"/><path fill="#a05f37" d="M 396.496094 379.785156 L 414.457031 379.785156 L 414.457031 397.75 L 396.496094 397.75 Z M 396.496094 379.785156 " fill-opacity="1" fill-rule="evenodd"/><path fill="#a05f37" d="M 378.53125 379.785156 L 396.496094 379.785156 L 396.496094 397.75 L 378.53125 397.75 Z M 378.53125 379.785156 " fill-opacity="1" fill-rule="evenodd"/><path fill="#a05f37" d="M 360.660156 379.785156 L 378.625 379.785156 L 378.625 397.75 L 360.660156 397.75 Z M 360.660156 379.785156 " fill-opacity="1" fill-rule="evenodd"/><path fill="#b26b3f" d="M 342.699219 379.785156 L 360.660156 379.785156 L 360.660156 397.75 L 342.699219 397.75 Z M 342.699219 379.785156 " fill-opacity="1" fill-rule="evenodd"/><path fill="#bd7345" d="M 324.828125 379.785156 L 342.792969 379.785156 L 342.792969 397.75 L 324.828125 397.75 Z M 324.828125 379.785156 " fill-opacity="1" fill-rule="evenodd"/><path fill="#bd7345" d="M 306.863281 379.785156 L 324.828125 379.785156 L 324.828125 397.75 L 306.863281 397.75 Z M 306.863281 379.785156 " fill-opacity="1" fill-rule="evenodd"/><path fill="#a05f37" d="M 288.902344 379.785156 L 306.863281 379.785156 L 306.863281 397.75 L 288.902344 397.75 Z M 288.902344 379.785156 " fill-opacity="1" fill-rule="evenodd"/><path fill="#a05f37" d="M 271.03125 379.785156 L 288.996094 379.785156 L 288.996094 397.75 L 271.03125 397.75 Z M 271.03125 379.785156 " fill-opacity="1" fill-rule="evenodd"/><path fill="#a05f37" d="M 629.554688 361.824219 L 647.515625 361.824219 L 647.515625 379.785156 L 629.554688 379.785156 Z M 629.554688 361.824219 " fill-opacity="1" fill-rule="evenodd"/><path fill="#a05f37" d="M 611.683594 361.824219 L 629.644531 361.824219 L 629.644531 379.785156 L 611.683594 379.785156 Z M 611.683594 361.824219 " fill-opacity="1" fill-rule="evenodd"/><path fill="#bd7345" d="M 593.71875 361.824219 L 611.683594 361.824219 L 611.683594 379.785156 L 593.71875 379.785156 Z M 593.71875 361.824219 " fill-opacity="1" fill-rule="evenodd"/><path fill="#bd7345" d="M 575.757812 361.824219 L 593.71875 361.824219 L 593.71875 379.785156 L 575.757812 379.785156 Z M 575.757812 361.824219 " fill-opacity="1" fill-rule="evenodd"/><path fill="#df9262" d="M 557.886719 361.824219 L 575.847656 361.824219 L 575.847656 379.785156 L 557.886719 379.785156 Z M 557.886719 361.824219 " fill-opacity="1" fill-rule="evenodd"/><path fill="#a05f37" d="M 539.921875 361.824219 L 557.886719 361.824219 L 557.886719 379.785156 L 539.921875 379.785156 Z M 539.921875 361.824219 " fill-opacity="1" fill-rule="evenodd"/><path fill="#a05f37" d="M 521.960938 361.824219 L 539.921875 361.824219 L 539.921875 379.785156 L 521.960938 379.785156 Z M 521.960938 361.824219 " fill-opacity="1" fill-rule="evenodd"/><path fill="#bd7345" d="M 504.089844 361.824219 L 522.050781 361.824219 L 522.050781 379.785156 L 504.089844 379.785156 Z M 504.089844 361.824219 " fill-opacity="1" fill-rule="evenodd"/><path fill="#bd7345" d="M 486.125 361.824219 L 504.089844 361.824219 L 504.089844 379.785156 L 486.125 379.785156 Z M 486.125 361.824219 " fill-opacity="1" fill-rule="evenodd"/><path fill="#a05f37" d="M 468.253906 361.824219 L 486.21875 361.824219 L 486.21875 379.785156 L 468.253906 379.785156 Z M 468.253906 361.824219 " fill-opacity="1" fill-rule="evenodd"/><path fill="#a05f37" d="M 414.457031 361.824219 L 432.421875 361.824219 L 432.421875 379.785156 L 414.457031 379.785156 Z M 414.457031 361.824219 " fill-opacity="1" fill-rule="evenodd"/><path fill="#bd7345" d="M 396.496094 361.824219 L 414.457031 361.824219 L 414.457031 379.785156 L 396.496094 379.785156 Z M 396.496094 361.824219 " fill-opacity="1" fill-rule="evenodd"/><path fill="#bd7345" d="M 378.53125 361.824219 L 396.496094 361.824219 L 396.496094 379.785156 L 378.53125 379.785156 Z M 378.53125 361.824219 " fill-opacity="1" fill-rule="evenodd"/><path fill="#bc7244" d="M 360.660156 361.824219 L 378.625 361.824219 L 378.625 379.785156 L 360.660156 379.785156 Z M 360.660156 361.824219 " fill-opacity="1" fill-rule="evenodd"/><path fill="#a05f37" d="M 342.699219 361.824219 L 360.660156 361.824219 L 360.660156 379.785156 L 342.699219 379.785156 Z M 342.699219 361.824219 " fill-opacity="1" fill-rule="evenodd"/><path fill="#bd7345" d="M 324.828125 361.824219 L 342.792969 361.824219 L 342.792969 379.785156 L 324.828125 379.785156 Z M 324.828125 361.824219 " fill-opacity="1" fill-rule="evenodd"/><path fill="#df9262" d="M 306.863281 361.824219 L 324.828125 361.824219 L 324.828125 379.785156 L 306.863281 379.785156 Z M 306.863281 361.824219 " fill-opacity="1" fill-rule="evenodd"/><path fill="#bd7345" d="M 288.902344 361.824219 L 306.863281 361.824219 L 306.863281 379.785156 L 288.902344 379.785156 Z M 288.902344 361.824219 " fill-opacity="1" fill-rule="evenodd"/><path fill="#ba7143" d="M 271.03125 361.824219 L 288.996094 361.824219 L 288.996094 379.785156 L 271.03125 379.785156 Z M 271.03125 361.824219 " fill-opacity="1" fill-rule="evenodd"/><path fill="#a05f37" d="M 253.070312 361.824219 L 271.03125 361.824219 L 271.03125 379.785156 L 253.070312 379.785156 Z M 253.070312 361.824219 " fill-opacity="1" fill-rule="evenodd"/><path fill="#a05f37" d="M 647.515625 343.863281 L 665.480469 343.863281 L 665.480469 361.824219 L 647.515625 361.824219 Z M 647.515625 343.863281 " fill-opacity="1" fill-rule="evenodd"/><path fill="#a05f37" d="M 629.554688 343.863281 L 647.515625 343.863281 L 647.515625 361.824219 L 629.554688 361.824219 Z M 629.554688 343.863281 " fill-opacity="1" fill-rule="evenodd"/><path fill="#bd7345" d="M 611.683594 343.863281 L 629.644531 343.863281 L 629.644531 361.824219 L 611.683594 361.824219 Z M 611.683594 343.863281 " fill-opacity="1" fill-rule="evenodd"/><path fill="#bd7345" d="M 593.71875 343.863281 L 611.683594 343.863281 L 611.683594 361.824219 L 593.71875 361.824219 Z M 593.71875 343.863281 " fill-opacity="1" fill-rule="evenodd"/><path fill="#df9262" d="M 575.757812 343.863281 L 593.71875 343.863281 L 593.71875 361.824219 L 575.757812 361.824219 Z M 575.757812 343.863281 " fill-opacity="1" fill-rule="evenodd"/><path fill="#c17648" d="M 557.886719 343.863281 L 575.847656 343.863281 L 575.847656 361.824219 L 557.886719 361.824219 Z M 557.886719 343.863281 " fill-opacity="1" fill-rule="evenodd"/><path fill="#a05f37" d="M 521.960938 343.863281 L 539.921875 343.863281 L 539.921875 361.824219 L 521.960938 361.824219 Z M 521.960938 343.863281 " fill-opacity="1" fill-rule="evenodd"/><path fill="#bd7345" d="M 504.089844 343.863281 L 522.050781 343.863281 L 522.050781 361.824219 L 504.089844 361.824219 Z M 504.089844 343.863281 " fill-opacity="1" fill-rule="evenodd"/><path fill="#df9262" d="M 486.125 343.863281 L 504.089844 343.863281 L 504.089844 361.824219 L 486.125 361.824219 Z M 486.125 343.863281 " fill-opacity="1" fill-rule="evenodd"/><path fill="#a05f37" d="M 468.253906 343.863281 L 486.21875 343.863281 L 486.21875 361.824219 L 468.253906 361.824219 Z M 468.253906 343.863281 " fill-opacity="1" fill-rule="evenodd"/><path fill="#a05f37" d="M 414.457031 343.863281 L 432.421875 343.863281 L 432.421875 361.824219 L 414.457031 361.824219 Z M 414.457031 343.863281 " fill-opacity="1" fill-rule="evenodd"/><path fill="#bd7345" d="M 396.496094 343.863281 L 414.457031 343.863281 L 414.457031 361.824219 L 396.496094 361.824219 Z M 396.496094 343.863281 " fill-opacity="1" fill-rule="evenodd"/><path fill="#df9262" d="M 378.53125 343.863281 L 396.496094 343.863281 L 396.496094 361.824219 L 378.53125 361.824219 Z M 378.53125 343.863281 " fill-opacity="1" fill-rule="evenodd"/><path fill="#bd7345" d="M 360.660156 343.863281 L 378.625 343.863281 L 378.625 361.824219 L 360.660156 361.824219 Z M 360.660156 343.863281 " fill-opacity="1" fill-rule="evenodd"/><path fill="#a7643a" d="M 324.828125 343.863281 L 342.792969 343.863281 L 342.792969 361.824219 L 324.828125 361.824219 Z M 324.828125 343.863281 " fill-opacity="1" fill-rule="evenodd"/><path fill="#df9262" d="M 306.863281 343.863281 L 324.828125 343.863281 L 324.828125 361.824219 L 306.863281 361.824219 Z M 306.863281 343.863281 " fill-opacity="1" fill-rule="evenodd"/><path fill="#df9262" d="M 288.902344 343.863281 L 306.863281 343.863281 L 306.863281 361.824219 L 288.902344 361.824219 Z M 288.902344 343.863281 " fill-opacity="1" fill-rule="evenodd"/><path fill="#bd7345" d="M 271.03125 343.863281 L 288.996094 343.863281 L 288.996094 361.824219 L 271.03125 361.824219 Z M 271.03125 343.863281 " fill-opacity="1" fill-rule="evenodd"/><path fill="#bc7244" d="M 253.070312 343.863281 L 271.03125 343.863281 L 271.03125 361.824219 L 253.070312 361.824219 Z M 253.070312 343.863281 " fill-opacity="1" fill-rule="evenodd"/><path fill="#9a5b34" d="M 235.105469 343.863281 L 253.070312 343.863281 L 253.070312 361.824219 L 235.105469 361.824219 Z M 235.105469 343.863281 " fill-opacity="1" fill-rule="evenodd"/><path fill="#a05f37" d="M 647.515625 325.808594 L 665.480469 325.808594 L 665.480469 343.769531 L 647.515625 343.769531 Z M 647.515625 325.808594 " fill-opacity="1" fill-rule="evenodd"/><path fill="#bd7345" d="M 629.554688 325.808594 L 647.515625 325.808594 L 647.515625 343.769531 L 629.554688 343.769531 Z M 629.554688 325.808594 " fill-opacity="1" fill-rule="evenodd"/><path fill="#c07547" d="M 611.683594 325.808594 L 629.644531 325.808594 L 629.644531 343.769531 L 611.683594 343.769531 Z M 611.683594 325.808594 " fill-opacity="1" fill-rule="evenodd"/><path fill="#df9262" d="M 593.71875 325.808594 L 611.683594 325.808594 L 611.683594 343.769531 L 593.71875 343.769531 Z M 593.71875 325.808594 " fill-opacity="1" fill-rule="evenodd"/><path fill="#a05f37" d="M 575.757812 325.808594 L 593.71875 325.808594 L 593.71875 343.769531 L 575.757812 343.769531 Z M 575.757812 325.808594 " fill-opacity="1" fill-rule="evenodd"/><path fill="#a05f37" d="M 521.960938 325.808594 L 539.921875 325.808594 L 539.921875 343.769531 L 521.960938 343.769531 Z M 521.960938 325.808594 " fill-opacity="1" fill-rule="evenodd"/><path fill="#bd7345" d="M 504.089844 325.808594 L 522.050781 325.808594 L 522.050781 343.769531 L 504.089844 343.769531 Z M 504.089844 325.808594 " fill-opacity="1" fill-rule="evenodd"/><path fill="#df9262" d="M 486.125 325.808594 L 504.089844 325.808594 L 504.089844 343.769531 L 486.125 343.769531 Z M 486.125 325.808594 " fill-opacity="1" fill-rule="evenodd"/><path fill="#a05f37" d="M 468.253906 325.808594 L 486.21875 325.808594 L 486.21875 343.769531 L 468.253906 343.769531 Z M 468.253906 325.808594 " fill-opacity="1" fill-rule="evenodd"/><path fill="#a05f37" d="M 414.457031 325.808594 L 432.421875 325.808594 L 432.421875 343.769531 L 414.457031 343.769531 Z M 414.457031 325.808594 " fill-opacity="1" fill-rule="evenodd"/><path fill="#bd7345" d="M 396.496094 325.808594 L 414.457031 325.808594 L 414.457031 343.769531 L 396.496094 343.769531 Z M 396.496094 325.808594 " fill-opacity="1" fill-rule="evenodd"/><path fill="#df9262" d="M 378.53125 325.808594 L 396.496094 325.808594 L 396.496094 343.769531 L 378.53125 343.769531 Z M 378.53125 325.808594 " fill-opacity="1" fill-rule="evenodd"/><path fill="#bd7345" d="M 360.660156 325.808594 L 378.625 325.808594 L 378.625 343.769531 L 360.660156 343.769531 Z M 360.660156 325.808594 " fill-opacity="1" fill-rule="evenodd"/><path fill="#a05f37" d="M 306.863281 325.808594 L 324.828125 325.808594 L 324.828125 343.769531 L 306.863281 343.769531 Z M 306.863281 325.808594 " fill-opacity="1" fill-rule="evenodd"/><path fill="#bd7345" d="M 288.902344 325.808594 L 306.863281 325.808594 L 306.863281 343.769531 L 288.902344 343.769531 Z M 288.902344 325.808594 " fill-opacity="1" fill-rule="evenodd"/><path fill="#df9262" d="M 271.03125 325.808594 L 288.996094 325.808594 L 288.996094 343.769531 L 271.03125 343.769531 Z M 271.03125 325.808594 " fill-opacity="1" fill-rule="evenodd"/><path fill="#bd7345" d="M 253.070312 325.808594 L 271.03125 325.808594 L 271.03125 343.769531 L 253.070312 343.769531 Z M 253.070312 325.808594 " fill-opacity="1" fill-rule="evenodd"/><path fill="#a15f37" d="M 235.105469 325.808594 L 253.070312 325.808594 L 253.070312 343.769531 L 235.105469 343.769531 Z M 235.105469 325.808594 " fill-opacity="1" fill-rule="evenodd"/><path fill="#785643" d="M 217.234375 325.808594 L 235.199219 325.808594 L 235.199219 343.769531 L 217.234375 343.769531 Z M 217.234375 325.808594 " fill-opacity="1" fill-rule="evenodd"/><path fill="#a05f37" d="M 665.480469 307.847656 L 683.441406 307.847656 L 683.441406 325.808594 L 665.480469 325.808594 Z M 665.480469 307.847656 " fill-opacity="1" fill-rule="evenodd"/><path fill="#bd7345" d="M 647.515625 307.847656 L 665.480469 307.847656 L 665.480469 325.808594 L 647.515625 325.808594 Z M 647.515625 307.847656 " fill-opacity="1" fill-rule="evenodd"/><path fill="#bd7345" d="M 629.554688 307.847656 L 647.515625 307.847656 L 647.515625 325.808594 L 629.554688 325.808594 Z M 629.554688 307.847656 " fill-opacity="1" fill-rule="evenodd"/><path fill="#df9262" d="M 611.683594 307.847656 L 629.644531 307.847656 L 629.644531 325.808594 L 611.683594 325.808594 Z M 611.683594 307.847656 " fill-opacity="1" fill-rule="evenodd"/><path fill="#af693e" d="M 593.71875 307.847656 L 611.683594 307.847656 L 611.683594 325.808594 L 593.71875 325.808594 Z M 593.71875 307.847656 " fill-opacity="1" fill-rule="evenodd"/><path fill="#a05f37" d="M 521.960938 307.847656 L 539.921875 307.847656 L 539.921875 325.808594 L 521.960938 325.808594 Z M 521.960938 307.847656 " fill-opacity="1" fill-rule="evenodd"/><path fill="#bd7345" d="M 504.089844 307.847656 L 522.050781 307.847656 L 522.050781 325.808594 L 504.089844 325.808594 Z M 504.089844 307.847656 " fill-opacity="1" fill-rule="evenodd"/><path fill="#df9262" d="M 486.125 307.847656 L 504.089844 307.847656 L 504.089844 325.808594 L 486.125 325.808594 Z M 486.125 307.847656 " fill-opacity="1" fill-rule="evenodd"/><path fill="#bd7345" d="M 468.253906 307.847656 L 486.21875 307.847656 L 486.21875 325.808594 L 468.253906 325.808594 Z M 468.253906 307.847656 " fill-opacity="1" fill-rule="evenodd"/><path fill="#a05f37" d="M 450.292969 307.847656 L 468.253906 307.847656 L 468.253906 325.808594 L 450.292969 325.808594 Z M 450.292969 307.847656 " fill-opacity="1" fill-rule="evenodd"/><path fill="#a05f37" d="M 432.328125 307.847656 L 450.292969 307.847656 L 450.292969 325.808594 L 432.328125 325.808594 Z M 432.328125 307.847656 " fill-opacity="1" fill-rule="evenodd"/><path fill="#a15f37" d="M 414.457031 307.847656 L 432.421875 307.847656 L 432.421875 325.808594 L 414.457031 325.808594 Z M 414.457031 307.847656 " fill-opacity="1" fill-rule="evenodd"/><path fill="#bd7345" d="M 396.496094 307.847656 L 414.457031 307.847656 L 414.457031 325.808594 L 396.496094 325.808594 Z M 396.496094 307.847656 " fill-opacity="1" fill-rule="evenodd"/><path fill="#df9262" d="M 378.53125 307.847656 L 396.496094 307.847656 L 396.496094 325.808594 L 378.53125 325.808594 Z M 378.53125 307.847656 " fill-opacity="1" fill-rule="evenodd"/><path fill="#b36c40" d="M 360.660156 307.847656 L 378.625 307.847656 L 378.625 325.808594 L 360.660156 325.808594 Z M 360.660156 307.847656 " fill-opacity="1" fill-rule="evenodd"/><path fill="#a05f37" d="M 288.902344 307.847656 L 306.863281 307.847656 L 306.863281 325.808594 L 288.902344 325.808594 Z M 288.902344 307.847656 " fill-opacity="1" fill-rule="evenodd"/><path fill="#bd7345" d="M 271.03125 307.847656 L 288.996094 307.847656 L 288.996094 325.808594 L 271.03125 325.808594 Z M 271.03125 307.847656 " fill-opacity="1" fill-rule="evenodd"/><path fill="#df9262" d="M 253.070312 307.847656 L 271.03125 307.847656 L 271.03125 325.808594 L 253.070312 325.808594 Z M 253.070312 307.847656 " fill-opacity="1" fill-rule="evenodd"/><path fill="#bd7345" d="M 235.105469 307.847656 L 253.070312 307.847656 L 253.070312 325.808594 L 235.105469 325.808594 Z M 235.105469 307.847656 " fill-opacity="1" fill-rule="evenodd"/><path fill="#a05f37" d="M 217.234375 307.847656 L 235.199219 307.847656 L 235.199219 325.808594 L 217.234375 325.808594 Z M 217.234375 307.847656 " fill-opacity="1" fill-rule="evenodd"/><path fill="#774325" d="M 683.351562 289.792969 L 701.3125 289.792969 L 701.3125 307.753906 L 683.351562 307.753906 Z M 683.351562 289.792969 " fill-opacity="1" fill-rule="evenodd"/><path fill="#a05f37" d="M 665.480469 289.792969 L 683.441406 289.792969 L 683.441406 307.753906 L 665.480469 307.753906 Z M 665.480469 289.792969 " fill-opacity="1" fill-rule="evenodd"/><path fill="#bd7345" d="M 647.515625 289.792969 L 665.480469 289.792969 L 665.480469 307.753906 L 647.515625 307.753906 Z M 647.515625 289.792969 " fill-opacity="1" fill-rule="evenodd"/><path fill="#df9262" d="M 629.554688 289.792969 L 647.515625 289.792969 L 647.515625 307.753906 L 629.554688 307.753906 Z M 629.554688 289.792969 " fill-opacity="1" fill-rule="evenodd"/><path fill="#bd7345" d="M 611.683594 289.792969 L 629.644531 289.792969 L 629.644531 307.753906 L 611.683594 307.753906 Z M 611.683594 289.792969 " fill-opacity="1" fill-rule="evenodd"/><path fill="#724b34" d="M 521.960938 289.792969 L 539.921875 289.792969 L 539.921875 307.753906 L 521.960938 307.753906 Z M 521.960938 289.792969 " fill-opacity="1" fill-rule="evenodd"/><path fill="#bd7345" d="M 504.089844 289.792969 L 522.050781 289.792969 L 522.050781 307.753906 L 504.089844 307.753906 Z M 504.089844 289.792969 " fill-opacity="1" fill-rule="evenodd"/><path fill="#df9262" d="M 486.125 289.792969 L 504.089844 289.792969 L 504.089844 307.753906 L 486.125 307.753906 Z M 486.125 289.792969 " fill-opacity="1" fill-rule="evenodd"/><path fill="#bd7345" d="M 468.253906 289.792969 L 486.21875 289.792969 L 486.21875 307.753906 L 468.253906 307.753906 Z M 468.253906 289.792969 " fill-opacity="1" fill-rule="evenodd"/><path fill="#854d2b" d="M 450.292969 289.792969 L 468.253906 289.792969 L 468.253906 307.753906 L 450.292969 307.753906 Z M 450.292969 289.792969 " fill-opacity="1" fill-rule="evenodd"/><path fill="#a05f37" d="M 432.328125 289.792969 L 450.292969 289.792969 L 450.292969 307.753906 L 432.328125 307.753906 Z M 432.328125 289.792969 " fill-opacity="1" fill-rule="evenodd"/><path fill="#bd7345" d="M 414.457031 289.792969 L 432.421875 289.792969 L 432.421875 307.753906 L 414.457031 307.753906 Z M 414.457031 289.792969 " fill-opacity="1" fill-rule="evenodd"/><path fill="#df9262" d="M 396.496094 289.792969 L 414.457031 289.792969 L 414.457031 307.753906 L 396.496094 307.753906 Z M 396.496094 289.792969 " fill-opacity="1" fill-rule="evenodd"/><path fill="#df9262" d="M 378.53125 289.792969 L 396.496094 289.792969 L 396.496094 307.753906 L 378.53125 307.753906 Z M 378.53125 289.792969 " fill-opacity="1" fill-rule="evenodd"/><path fill="#724b34" d="M 360.660156 289.792969 L 378.625 289.792969 L 378.625 307.753906 L 360.660156 307.753906 Z M 360.660156 289.792969 " fill-opacity="1" fill-rule="evenodd"/><path fill="#a05f37" d="M 271.03125 289.792969 L 288.996094 289.792969 L 288.996094 307.753906 L 271.03125 307.753906 Z M 271.03125 289.792969 " fill-opacity="1" fill-rule="evenodd"/><path fill="#c67b4c" d="M 253.070312 289.792969 L 271.03125 289.792969 L 271.03125 307.753906 L 253.070312 307.753906 Z M 253.070312 289.792969 " fill-opacity="1" fill-rule="evenodd"/><path fill="#df9262" d="M 235.105469 289.792969 L 253.070312 289.792969 L 253.070312 307.753906 L 235.105469 307.753906 Z M 235.105469 289.792969 " fill-opacity="1" fill-rule="evenodd"/><path fill="#bd7345" d="M 217.234375 289.792969 L 235.199219 289.792969 L 235.199219 307.753906 L 217.234375 307.753906 Z M 217.234375 289.792969 " fill-opacity="1" fill-rule="evenodd"/><path fill="#6e4025" d="M 199.273438 289.792969 L 217.234375 289.792969 L 217.234375 307.753906 L 199.273438 307.753906 Z M 199.273438 289.792969 " fill-opacity="1" fill-rule="evenodd"/><path fill="#a05f37" d="M 683.351562 271.832031 L 701.3125 271.832031 L 701.3125 289.792969 L 683.351562 289.792969 Z M 683.351562 271.832031 " fill-opacity="1" fill-rule="evenodd"/><path fill="#bd7345" d="M 665.480469 271.832031 L 683.441406 271.832031 L 683.441406 289.792969 L 665.480469 289.792969 Z M 665.480469 271.832031 " fill-opacity="1" fill-rule="evenodd"/><path fill="#cf8454" d="M 647.515625 271.832031 L 665.480469 271.832031 L 665.480469 289.792969 L 647.515625 289.792969 Z M 647.515625 271.832031 " fill-opacity="1" fill-rule="evenodd"/><path fill="#df9262" d="M 629.554688 271.832031 L 647.515625 271.832031 L 647.515625 289.792969 L 629.554688 289.792969 Z M 629.554688 271.832031 " fill-opacity="1" fill-rule="evenodd"/><path fill="#a05f37" d="M 504.089844 271.832031 L 522.050781 271.832031 L 522.050781 289.792969 L 504.089844 289.792969 Z M 504.089844 271.832031 " fill-opacity="1" fill-rule="evenodd"/><path fill="#bd7345" d="M 486.125 271.832031 L 504.089844 271.832031 L 504.089844 289.792969 L 486.125 289.792969 Z M 486.125 271.832031 " fill-opacity="1" fill-rule="evenodd"/><path fill="#764325" d="M 468.253906 271.832031 L 486.21875 271.832031 L 486.21875 289.792969 L 468.253906 289.792969 Z M 468.253906 271.832031 " fill-opacity="1" fill-rule="evenodd"/><path fill="#a05f37" d="M 450.292969 271.832031 L 468.253906 271.832031 L 468.253906 289.792969 L 450.292969 289.792969 Z M 450.292969 271.832031 " fill-opacity="1" fill-rule="evenodd"/><path fill="#bd7345" d="M 432.328125 271.832031 L 450.292969 271.832031 L 450.292969 289.792969 L 432.328125 289.792969 Z M 432.328125 271.832031 " fill-opacity="1" fill-rule="evenodd"/><path fill="#bd7345" d="M 414.457031 271.832031 L 432.421875 271.832031 L 432.421875 289.792969 L 414.457031 289.792969 Z M 414.457031 271.832031 " fill-opacity="1" fill-rule="evenodd"/><path fill="#df9262" d="M 396.496094 271.832031 L 414.457031 271.832031 L 414.457031 289.792969 L 396.496094 289.792969 Z M 396.496094 271.832031 " fill-opacity="1" fill-rule="evenodd"/><path fill="#a7633a" d="M 378.53125 271.832031 L 396.496094 271.832031 L 396.496094 289.792969 L 378.53125 289.792969 Z M 378.53125 271.832031 " fill-opacity="1" fill-rule="evenodd"/><path fill="#754f3a" d="M 271.03125 271.832031 L 288.996094 271.832031 L 288.996094 289.792969 L 271.03125 289.792969 Z M 271.03125 271.832031 " fill-opacity="1" fill-rule="evenodd"/><path fill="#bd7345" d="M 253.070312 271.832031 L 271.03125 271.832031 L 271.03125 289.792969 L 253.070312 289.792969 Z M 253.070312 271.832031 " fill-opacity="1" fill-rule="evenodd"/><path fill="#df9262" d="M 235.105469 271.832031 L 253.070312 271.832031 L 253.070312 289.792969 L 235.105469 289.792969 Z M 235.105469 271.832031 " fill-opacity="1" fill-rule="evenodd"/><path fill="#bd7345" d="M 217.234375 271.832031 L 235.199219 271.832031 L 235.199219 289.792969 L 217.234375 289.792969 Z M 217.234375 271.832031 " fill-opacity="1" fill-rule="evenodd"/><path fill="#a05f37" d="M 199.273438 271.832031 L 217.234375 271.832031 L 217.234375 289.792969 L 199.273438 289.792969 Z M 199.273438 271.832031 " fill-opacity="1" fill-rule="evenodd"/><path fill="#a05f37" d="M 683.351562 253.777344 L 701.3125 253.777344 L 701.3125 271.738281 L 683.351562 271.738281 Z M 683.351562 253.777344 " fill-opacity="1" fill-rule="evenodd"/><path fill="#bd7345" d="M 665.480469 253.777344 L 683.441406 253.777344 L 683.441406 271.738281 L 665.480469 271.738281 Z M 665.480469 253.777344 " fill-opacity="1" fill-rule="evenodd"/><path fill="#df9262" d="M 647.515625 253.777344 L 665.480469 253.777344 L 665.480469 271.738281 L 647.515625 271.738281 Z M 647.515625 253.777344 " fill-opacity="1" fill-rule="evenodd"/><path fill="#bd7345" d="M 629.554688 253.777344 L 647.515625 253.777344 L 647.515625 271.738281 L 629.554688 271.738281 Z M 629.554688 253.777344 " fill-opacity="1" fill-rule="evenodd"/><path fill="#784426" d="M 486.125 253.777344 L 504.089844 253.777344 L 504.089844 271.738281 L 486.125 271.738281 Z M 486.125 253.777344 " fill-opacity="1" fill-rule="evenodd"/><path fill="#a05f37" d="M 468.253906 253.777344 L 486.21875 253.777344 L 486.21875 271.738281 L 468.253906 271.738281 Z M 468.253906 253.777344 " fill-opacity="1" fill-rule="evenodd"/><path fill="#bd7345" d="M 450.292969 253.777344 L 468.253906 253.777344 L 468.253906 271.738281 L 450.292969 271.738281 Z M 450.292969 253.777344 " fill-opacity="1" fill-rule="evenodd"/><path fill="#bd7345" d="M 432.328125 253.777344 L 450.292969 253.777344 L 450.292969 271.738281 L 432.328125 271.738281 Z M 432.328125 253.777344 " fill-opacity="1" fill-rule="evenodd"/><path fill="#df9262" d="M 414.457031 253.777344 L 432.421875 253.777344 L 432.421875 271.738281 L 414.457031 271.738281 Z M 414.457031 253.777344 " fill-opacity="1" fill-rule="evenodd"/><path fill="#b86f42" d="M 396.496094 253.777344 L 414.457031 253.777344 L 414.457031 271.738281 L 396.496094 271.738281 Z M 396.496094 253.777344 " fill-opacity="1" fill-rule="evenodd"/><path fill="#a05f37" d="M 253.070312 253.777344 L 271.03125 253.777344 L 271.03125 271.738281 L 253.070312 271.738281 Z M 253.070312 253.777344 " fill-opacity="1" fill-rule="evenodd"/><path fill="#bd7345" d="M 235.105469 253.777344 L 253.070312 253.777344 L 253.070312 271.738281 L 235.105469 271.738281 Z M 235.105469 253.777344 " fill-opacity="1" fill-rule="evenodd"/><path fill="#df9262" d="M 217.234375 253.777344 L 235.199219 253.777344 L 235.199219 271.738281 L 217.234375 271.738281 Z M 217.234375 253.777344 " fill-opacity="1" fill-rule="evenodd"/><path fill="#bc7244" d="M 199.273438 253.777344 L 217.234375 253.777344 L 217.234375 271.738281 L 199.273438 271.738281 Z M 199.273438 253.777344 " fill-opacity="1" fill-rule="evenodd"/><path fill="#6f4127" d="M 701.3125 235.816406 L 719.277344 235.816406 L 719.277344 253.777344 L 701.3125 253.777344 Z M 701.3125 235.816406 " fill-opacity="1" fill-rule="evenodd"/><path fill="#bd7345" d="M 683.351562 235.816406 L 701.3125 235.816406 L 701.3125 253.777344 L 683.351562 253.777344 Z M 683.351562 235.816406 " fill-opacity="1" fill-rule="evenodd"/><path fill="#bd7345" d="M 665.480469 235.816406 L 683.441406 235.816406 L 683.441406 253.777344 L 665.480469 253.777344 Z M 665.480469 235.816406 " fill-opacity="1" fill-rule="evenodd"/><path fill="#df9262" d="M 647.515625 235.816406 L 665.480469 235.816406 L 665.480469 253.777344 L 647.515625 253.777344 Z M 647.515625 235.816406 " fill-opacity="1" fill-rule="evenodd"/><path fill="#9e5d36" d="M 629.554688 235.816406 L 647.515625 235.816406 L 647.515625 253.777344 L 629.554688 253.777344 Z M 629.554688 235.816406 " fill-opacity="1" fill-rule="evenodd"/><path fill="#a05f37" d="M 486.125 235.816406 L 504.089844 235.816406 L 504.089844 253.777344 L 486.125 253.777344 Z M 486.125 235.816406 " fill-opacity="1" fill-rule="evenodd"/><path fill="#bd7345" d="M 468.253906 235.816406 L 486.21875 235.816406 L 486.21875 253.777344 L 468.253906 253.777344 Z M 468.253906 235.816406 " fill-opacity="1" fill-rule="evenodd"/><path fill="#bd7345" d="M 450.292969 235.816406 L 468.253906 235.816406 L 468.253906 253.777344 L 450.292969 253.777344 Z M 450.292969 235.816406 " fill-opacity="1" fill-rule="evenodd"/><path fill="#df9262" d="M 432.328125 235.816406 L 450.292969 235.816406 L 450.292969 253.777344 L 432.328125 253.777344 Z M 432.328125 235.816406 " fill-opacity="1" fill-rule="evenodd"/><path fill="#bd7345" d="M 414.457031 235.816406 L 432.421875 235.816406 L 432.421875 253.777344 L 414.457031 253.777344 Z M 414.457031 235.816406 " fill-opacity="1" fill-rule="evenodd"/><path fill="#a05f37" d="M 396.496094 235.816406 L 414.457031 235.816406 L 414.457031 253.777344 L 396.496094 253.777344 Z M 396.496094 235.816406 " fill-opacity="1" fill-rule="evenodd"/><path fill="#7f4928" d="M 253.070312 235.816406 L 271.03125 235.816406 L 271.03125 253.777344 L 253.070312 253.777344 Z M 253.070312 235.816406 " fill-opacity="1" fill-rule="evenodd"/><path fill="#bd7345" d="M 235.105469 235.816406 L 253.070312 235.816406 L 253.070312 253.777344 L 235.105469 253.777344 Z M 235.105469 235.816406 " fill-opacity="1" fill-rule="evenodd"/><path fill="#df9262" d="M 217.234375 235.816406 L 235.199219 235.816406 L 235.199219 253.777344 L 217.234375 253.777344 Z M 217.234375 235.816406 " fill-opacity="1" fill-rule="evenodd"/><path fill="#bd7345" d="M 199.273438 235.816406 L 217.234375 235.816406 L 217.234375 253.777344 L 199.273438 253.777344 Z M 199.273438 235.816406 " fill-opacity="1" fill-rule="evenodd"/><path fill="#7f4928" d="M 181.402344 235.816406 L 199.363281 235.816406 L 199.363281 253.777344 L 181.402344 253.777344 Z M 181.402344 235.816406 " fill-opacity="1" fill-rule="evenodd"/><path fill="#a05f37" d="M 701.3125 217.855469 L 719.277344 217.855469 L 719.277344 235.816406 L 701.3125 235.816406 Z M 701.3125 217.855469 " fill-opacity="1" fill-rule="evenodd"/><path fill="#bd7345" d="M 683.351562 217.855469 L 701.3125 217.855469 L 701.3125 235.816406 L 683.351562 235.816406 Z M 683.351562 217.855469 " fill-opacity="1" fill-rule="evenodd"/><path fill="#df9262" d="M 665.480469 217.855469 L 683.441406 217.855469 L 683.441406 235.816406 L 665.480469 235.816406 Z M 665.480469 217.855469 " fill-opacity="1" fill-rule="evenodd"/><path fill="#bd7345" d="M 647.515625 217.855469 L 665.480469 217.855469 L 665.480469 235.816406 L 647.515625 235.816406 Z M 647.515625 217.855469 " fill-opacity="1" fill-rule="evenodd"/><path fill="#a05f37" d="M 504.089844 217.855469 L 522.050781 217.855469 L 522.050781 235.816406 L 504.089844 235.816406 Z M 504.089844 217.855469 " fill-opacity="1" fill-rule="evenodd"/><path fill="#b56d41" d="M 486.125 217.855469 L 504.089844 217.855469 L 504.089844 235.816406 L 486.125 235.816406 Z M 486.125 217.855469 " fill-opacity="1" fill-rule="evenodd"/><path fill="#bd7345" d="M 468.253906 217.855469 L 486.21875 217.855469 L 486.21875 235.816406 L 468.253906 235.816406 Z M 468.253906 217.855469 " fill-opacity="1" fill-rule="evenodd"/><path fill="#df9262" d="M 450.292969 217.855469 L 468.253906 217.855469 L 468.253906 235.816406 L 450.292969 235.816406 Z M 450.292969 217.855469 " fill-opacity="1" fill-rule="evenodd"/><path fill="#bd7345" d="M 432.328125 217.855469 L 450.292969 217.855469 L 450.292969 235.816406 L 432.328125 235.816406 Z M 432.328125 217.855469 " fill-opacity="1" fill-rule="evenodd"/><path fill="#a05f37" d="M 414.457031 217.855469 L 432.421875 217.855469 L 432.421875 235.816406 L 414.457031 235.816406 Z M 414.457031 217.855469 " fill-opacity="1" fill-rule="evenodd"/><path fill="#a05f37" d="M 396.496094 217.855469 L 414.457031 217.855469 L 414.457031 235.816406 L 396.496094 235.816406 Z M 396.496094 217.855469 " fill-opacity="1" fill-rule="evenodd"/><path fill="#a05f37" d="M 378.53125 217.855469 L 396.496094 217.855469 L 396.496094 235.816406 L 378.53125 235.816406 Z M 378.53125 217.855469 " fill-opacity="1" fill-rule="evenodd"/><path fill="#bd7345" d="M 235.105469 217.855469 L 253.070312 217.855469 L 253.070312 235.816406 L 235.105469 235.816406 Z M 235.105469 217.855469 " fill-opacity="1" fill-rule="evenodd"/><path fill="#df9262" d="M 217.234375 217.855469 L 235.199219 217.855469 L 235.199219 235.816406 L 217.234375 235.816406 Z M 217.234375 217.855469 " fill-opacity="1" fill-rule="evenodd"/><path fill="#bd7345" d="M 199.273438 217.855469 L 217.234375 217.855469 L 217.234375 235.816406 L 199.273438 235.816406 Z M 199.273438 217.855469 " fill-opacity="1" fill-rule="evenodd"/><path fill="#a05f37" d="M 181.402344 217.855469 L 199.363281 217.855469 L 199.363281 235.816406 L 181.402344 235.816406 Z M 181.402344 217.855469 " fill-opacity="1" fill-rule="evenodd"/><path fill="#a05f37" d="M 701.3125 199.800781 L 719.277344 199.800781 L 719.277344 217.761719 L 701.3125 217.761719 Z M 701.3125 199.800781 " fill-opacity="1" fill-rule="evenodd"/><path fill="#bd7345" d="M 683.351562 199.800781 L 701.3125 199.800781 L 701.3125 217.761719 L 683.351562 217.761719 Z M 683.351562 199.800781 " fill-opacity="1" fill-rule="evenodd"/><path fill="#df9262" d="M 665.480469 199.800781 L 683.441406 199.800781 L 683.441406 217.761719 L 665.480469 217.761719 Z M 665.480469 199.800781 " fill-opacity="1" fill-rule="evenodd"/><path fill="#bd7345" d="M 647.515625 199.800781 L 665.480469 199.800781 L 665.480469 217.761719 L 647.515625 217.761719 Z M 647.515625 199.800781 " fill-opacity="1" fill-rule="evenodd"/><path fill="#a05f37" d="M 504.089844 199.800781 L 522.050781 199.800781 L 522.050781 217.761719 L 504.089844 217.761719 Z M 504.089844 199.800781 " fill-opacity="1" fill-rule="evenodd"/><path fill="#bd7345" d="M 486.125 199.800781 L 504.089844 199.800781 L 504.089844 217.761719 L 486.125 217.761719 Z M 486.125 199.800781 " fill-opacity="1" fill-rule="evenodd"/><path fill="#df9262" d="M 468.253906 199.800781 L 486.21875 199.800781 L 486.21875 217.761719 L 468.253906 217.761719 Z M 468.253906 199.800781 " fill-opacity="1" fill-rule="evenodd"/><path fill="#de9161" d="M 450.292969 199.800781 L 468.253906 199.800781 L 468.253906 217.761719 L 450.292969 217.761719 Z M 450.292969 199.800781 " fill-opacity="1" fill-rule="evenodd"/><path fill="#a05f37" d="M 432.328125 199.800781 L 450.292969 199.800781 L 450.292969 217.761719 L 432.328125 217.761719 Z M 432.328125 199.800781 " fill-opacity="1" fill-rule="evenodd"/><path fill="#a05f37" d="M 414.457031 199.800781 L 432.421875 199.800781 L 432.421875 217.761719 L 414.457031 217.761719 Z M 414.457031 199.800781 " fill-opacity="1" fill-rule="evenodd"/><path fill="#ae683d" d="M 396.496094 199.800781 L 414.457031 199.800781 L 414.457031 217.761719 L 396.496094 217.761719 Z M 396.496094 199.800781 " fill-opacity="1" fill-rule="evenodd"/><path fill="#a05f37" d="M 378.53125 199.800781 L 396.496094 199.800781 L 396.496094 217.761719 L 378.53125 217.761719 Z M 378.53125 199.800781 " fill-opacity="1" fill-rule="evenodd"/><path fill="#a05f37" d="M 235.105469 199.800781 L 253.070312 199.800781 L 253.070312 217.761719 L 235.105469 217.761719 Z M 235.105469 199.800781 " fill-opacity="1" fill-rule="evenodd"/><path fill="#bd7345" d="M 217.234375 199.800781 L 235.199219 199.800781 L 235.199219 217.761719 L 217.234375 217.761719 Z M 217.234375 199.800781 " fill-opacity="1" fill-rule="evenodd"/><path fill="#df9262" d="M 199.273438 199.800781 L 217.234375 199.800781 L 217.234375 217.761719 L 199.273438 217.761719 Z M 199.273438 199.800781 " fill-opacity="1" fill-rule="evenodd"/><path fill="#a05f37" d="M 181.402344 199.800781 L 199.363281 199.800781 L 199.363281 217.761719 L 181.402344 217.761719 Z M 181.402344 199.800781 " fill-opacity="1" fill-rule="evenodd"/><path fill="#a05f37" d="M 701.3125 181.839844 L 719.277344 181.839844 L 719.277344 199.800781 L 701.3125 199.800781 Z M 701.3125 181.839844 " fill-opacity="1" fill-rule="evenodd"/><path fill="#bd7345" d="M 683.351562 181.839844 L 701.3125 181.839844 L 701.3125 199.800781 L 683.351562 199.800781 Z M 683.351562 181.839844 " fill-opacity="1" fill-rule="evenodd"/><path fill="#df9262" d="M 665.480469 181.839844 L 683.441406 181.839844 L 683.441406 199.800781 L 665.480469 199.800781 Z M 665.480469 181.839844 " fill-opacity="1" fill-rule="evenodd"/><path fill="#b97043" d="M 647.515625 181.839844 L 665.480469 181.839844 L 665.480469 199.800781 L 647.515625 199.800781 Z M 647.515625 181.839844 " fill-opacity="1" fill-rule="evenodd"/><path fill="#a05f37" d="M 504.089844 181.839844 L 522.050781 181.839844 L 522.050781 199.800781 L 504.089844 199.800781 Z M 504.089844 181.839844 " fill-opacity="1" fill-rule="evenodd"/><path fill="#bd7345" d="M 486.125 181.839844 L 504.089844 181.839844 L 504.089844 199.800781 L 486.125 199.800781 Z M 486.125 181.839844 " fill-opacity="1" fill-rule="evenodd"/><path fill="#df9262" d="M 468.253906 181.839844 L 486.21875 181.839844 L 486.21875 199.800781 L 468.253906 199.800781 Z M 468.253906 181.839844 " fill-opacity="1" fill-rule="evenodd"/><path fill="#b97043" d="M 450.292969 181.839844 L 468.253906 181.839844 L 468.253906 199.800781 L 450.292969 199.800781 Z M 450.292969 181.839844 " fill-opacity="1" fill-rule="evenodd"/><path fill="#a05f37" d="M 432.328125 181.839844 L 450.292969 181.839844 L 450.292969 199.800781 L 432.328125 199.800781 Z M 432.328125 181.839844 " fill-opacity="1" fill-rule="evenodd"/><path fill="#bd7345" d="M 414.457031 181.839844 L 432.421875 181.839844 L 432.421875 199.800781 L 414.457031 199.800781 Z M 414.457031 181.839844 " fill-opacity="1" fill-rule="evenodd"/><path fill="#bd7345" d="M 396.496094 181.839844 L 414.457031 181.839844 L 414.457031 199.800781 L 396.496094 199.800781 Z M 396.496094 181.839844 " fill-opacity="1" fill-rule="evenodd"/><path fill="#b06a3e" d="M 378.53125 181.839844 L 396.496094 181.839844 L 396.496094 199.800781 L 378.53125 199.800781 Z M 378.53125 181.839844 " fill-opacity="1" fill-rule="evenodd"/><path fill="#a05f37" d="M 235.105469 181.839844 L 253.070312 181.839844 L 253.070312 199.800781 L 235.105469 199.800781 Z M 235.105469 181.839844 " fill-opacity="1" fill-rule="evenodd"/><path fill="#bd7345" d="M 217.234375 181.839844 L 235.199219 181.839844 L 235.199219 199.800781 L 217.234375 199.800781 Z M 217.234375 181.839844 " fill-opacity="1" fill-rule="evenodd"/><path fill="#df9262" d="M 199.273438 181.839844 L 217.234375 181.839844 L 217.234375 199.800781 L 199.273438 199.800781 Z M 199.273438 181.839844 " fill-opacity="1" fill-rule="evenodd"/><path fill="#a05f37" d="M 181.402344 181.839844 L 199.363281 181.839844 L 199.363281 199.800781 L 181.402344 199.800781 Z M 181.402344 181.839844 " fill-opacity="1" fill-rule="evenodd"/><path fill="#a05f37" d="M 701.3125 163.785156 L 719.277344 163.785156 L 719.277344 181.746094 L 701.3125 181.746094 Z M 701.3125 163.785156 " fill-opacity="1" fill-rule="evenodd"/><path fill="#bd7345" d="M 683.351562 163.785156 L 701.3125 163.785156 L 701.3125 181.746094 L 683.351562 181.746094 Z M 683.351562 163.785156 " fill-opacity="1" fill-rule="evenodd"/><path fill="#df9262" d="M 665.480469 163.785156 L 683.441406 163.785156 L 683.441406 181.746094 L 665.480469 181.746094 Z M 665.480469 163.785156 " fill-opacity="1" fill-rule="evenodd"/><path fill="#b56e41" d="M 647.515625 163.785156 L 665.480469 163.785156 L 665.480469 181.746094 L 647.515625 181.746094 Z M 647.515625 163.785156 " fill-opacity="1" fill-rule="evenodd"/><path fill="#a05f37" d="M 504.089844 163.785156 L 522.050781 163.785156 L 522.050781 181.746094 L 504.089844 181.746094 Z M 504.089844 163.785156 " fill-opacity="1" fill-rule="evenodd"/><path fill="#bd7345" d="M 486.125 163.785156 L 504.089844 163.785156 L 504.089844 181.746094 L 486.125 181.746094 Z M 486.125 163.785156 " fill-opacity="1" fill-rule="evenodd"/><path fill="#df9262" d="M 468.253906 163.785156 L 486.21875 163.785156 L 486.21875 181.746094 L 468.253906 181.746094 Z M 468.253906 163.785156 " fill-opacity="1" fill-rule="evenodd"/><path fill="#a05f37" d="M 450.292969 163.785156 L 468.253906 163.785156 L 468.253906 181.746094 L 450.292969 181.746094 Z M 450.292969 163.785156 " fill-opacity="1" fill-rule="evenodd"/><path fill="#a05f37" d="M 432.328125 163.785156 L 450.292969 163.785156 L 450.292969 181.746094 L 432.328125 181.746094 Z M 432.328125 163.785156 " fill-opacity="1" fill-rule="evenodd"/><path fill="#bd7345" d="M 414.457031 163.785156 L 432.421875 163.785156 L 432.421875 181.746094 L 414.457031 181.746094 Z M 414.457031 163.785156 " fill-opacity="1" fill-rule="evenodd"/><path fill="#df9262" d="M 396.496094 163.785156 L 414.457031 163.785156 L 414.457031 181.746094 L 396.496094 181.746094 Z M 396.496094 163.785156 " fill-opacity="1" fill-rule="evenodd"/><path fill="#a8643a" d="M 378.53125 163.785156 L 396.496094 163.785156 L 396.496094 181.746094 L 378.53125 181.746094 Z M 378.53125 163.785156 " fill-opacity="1" fill-rule="evenodd"/><path fill="#a05f37" d="M 235.105469 163.785156 L 253.070312 163.785156 L 253.070312 181.746094 L 235.105469 181.746094 Z M 235.105469 163.785156 " fill-opacity="1" fill-rule="evenodd"/><path fill="#bd7345" d="M 217.234375 163.785156 L 235.199219 163.785156 L 235.199219 181.746094 L 217.234375 181.746094 Z M 217.234375 163.785156 " fill-opacity="1" fill-rule="evenodd"/><path fill="#df9262" d="M 199.273438 163.785156 L 217.234375 163.785156 L 217.234375 181.746094 L 199.273438 181.746094 Z M 199.273438 163.785156 " fill-opacity="1" fill-rule="evenodd"/><path fill="#a05f37" d="M 181.402344 163.785156 L 199.363281 163.785156 L 199.363281 181.746094 L 181.402344 181.746094 Z M 181.402344 163.785156 " fill-opacity="1" fill-rule="evenodd"/><path fill="#a05f37" d="M 701.3125 145.824219 L 719.277344 145.824219 L 719.277344 163.785156 L 701.3125 163.785156 Z M 701.3125 145.824219 " fill-opacity="1" fill-rule="evenodd"/><path fill="#bd7345" d="M 683.351562 145.824219 L 701.3125 145.824219 L 701.3125 163.785156 L 683.351562 163.785156 Z M 683.351562 145.824219 " fill-opacity="1" fill-rule="evenodd"/><path fill="#df9262" d="M 665.480469 145.824219 L 683.441406 145.824219 L 683.441406 163.785156 L 665.480469 163.785156 Z M 665.480469 145.824219 " fill-opacity="1" fill-rule="evenodd"/><path fill="#bd7345" d="M 647.515625 145.824219 L 665.480469 145.824219 L 665.480469 163.785156 L 647.515625 163.785156 Z M 647.515625 145.824219 " fill-opacity="1" fill-rule="evenodd"/><path fill="#975933" d="M 504.089844 145.824219 L 522.050781 145.824219 L 522.050781 163.785156 L 504.089844 163.785156 Z M 504.089844 145.824219 " fill-opacity="1" fill-rule="evenodd"/><path fill="#bd7345" d="M 486.125 145.824219 L 504.089844 145.824219 L 504.089844 163.785156 L 486.125 163.785156 Z M 486.125 145.824219 " fill-opacity="1" fill-rule="evenodd"/><path fill="#bd7345" d="M 468.253906 145.824219 L 486.21875 145.824219 L 486.21875 163.785156 L 468.253906 163.785156 Z M 468.253906 145.824219 " fill-opacity="1" fill-rule="evenodd"/><path fill="#a05f37" d="M 450.292969 145.824219 L 468.253906 145.824219 L 468.253906 163.785156 L 450.292969 163.785156 Z M 450.292969 145.824219 " fill-opacity="1" fill-rule="evenodd"/><path fill="#bd7345" d="M 432.328125 145.824219 L 450.292969 145.824219 L 450.292969 163.785156 L 432.328125 163.785156 Z M 432.328125 145.824219 " fill-opacity="1" fill-rule="evenodd"/><path fill="#bd7345" d="M 414.457031 145.824219 L 432.421875 145.824219 L 432.421875 163.785156 L 414.457031 163.785156 Z M 414.457031 145.824219 " fill-opacity="1" fill-rule="evenodd"/><path fill="#df9262" d="M 396.496094 145.824219 L 414.457031 145.824219 L 414.457031 163.785156 L 396.496094 163.785156 Z M 396.496094 145.824219 " fill-opacity="1" fill-rule="evenodd"/><path fill="#9d5d35" d="M 378.53125 145.824219 L 396.496094 145.824219 L 396.496094 163.785156 L 378.53125 163.785156 Z M 378.53125 145.824219 " fill-opacity="1" fill-rule="evenodd"/><path fill="#a05f37" d="M 235.105469 145.824219 L 253.070312 145.824219 L 253.070312 163.785156 L 235.105469 163.785156 Z M 235.105469 145.824219 " fill-opacity="1" fill-rule="evenodd"/><path fill="#bd7345" d="M 217.234375 145.824219 L 235.199219 145.824219 L 235.199219 163.785156 L 217.234375 163.785156 Z M 217.234375 145.824219 " fill-opacity="1" fill-rule="evenodd"/><path fill="#df9262" d="M 199.273438 145.824219 L 217.234375 145.824219 L 217.234375 163.785156 L 199.273438 163.785156 Z M 199.273438 145.824219 " fill-opacity="1" fill-rule="evenodd"/><path fill="#a05f37" d="M 181.402344 145.824219 L 199.363281 145.824219 L 199.363281 163.785156 L 181.402344 163.785156 Z M 181.402344 145.824219 " fill-opacity="1" fill-rule="evenodd"/><path fill="#7e4828" d="M 701.3125 127.769531 L 719.277344 127.769531 L 719.277344 145.730469 L 701.3125 145.730469 Z M 701.3125 127.769531 " fill-opacity="1" fill-rule="evenodd"/><path fill="#bd7345" d="M 683.351562 127.769531 L 701.3125 127.769531 L 701.3125 145.730469 L 683.351562 145.730469 Z M 683.351562 127.769531 " fill-opacity="1" fill-rule="evenodd"/><path fill="#df9262" d="M 665.480469 127.769531 L 683.441406 127.769531 L 683.441406 145.730469 L 665.480469 145.730469 Z M 665.480469 127.769531 " fill-opacity="1" fill-rule="evenodd"/><path fill="#bd7345" d="M 647.515625 127.769531 L 665.480469 127.769531 L 665.480469 145.730469 L 647.515625 145.730469 Z M 647.515625 127.769531 " fill-opacity="1" fill-rule="evenodd"/><path fill="#985933" d="M 629.554688 127.769531 L 647.515625 127.769531 L 647.515625 145.730469 L 629.554688 145.730469 Z M 629.554688 127.769531 " fill-opacity="1" fill-rule="evenodd"/><path fill="#a26038" d="M 486.125 127.769531 L 504.089844 127.769531 L 504.089844 145.730469 L 486.125 145.730469 Z M 486.125 127.769531 " fill-opacity="1" fill-rule="evenodd"/><path fill="#a05f37" d="M 468.253906 127.769531 L 486.21875 127.769531 L 486.21875 145.730469 L 468.253906 145.730469 Z M 468.253906 127.769531 " fill-opacity="1" fill-rule="evenodd"/><path fill="#a05f37" d="M 450.292969 127.769531 L 468.253906 127.769531 L 468.253906 145.730469 L 450.292969 145.730469 Z M 450.292969 127.769531 " fill-opacity="1" fill-rule="evenodd"/><path fill="#bd7345" d="M 432.328125 127.769531 L 450.292969 127.769531 L 450.292969 145.730469 L 432.328125 145.730469 Z M 432.328125 127.769531 " fill-opacity="1" fill-rule="evenodd"/><path fill="#df9262" d="M 414.457031 127.769531 L 432.421875 127.769531 L 432.421875 145.730469 L 414.457031 145.730469 Z M 414.457031 127.769531 " fill-opacity="1" fill-rule="evenodd"/><path fill="#bd7345" d="M 396.496094 127.769531 L 414.457031 127.769531 L 414.457031 145.730469 L 396.496094 145.730469 Z M 396.496094 127.769531 " fill-opacity="1" fill-rule="evenodd"/><path fill="#774325" d="M 253.070312 127.769531 L 271.03125 127.769531 L 271.03125 145.730469 L 253.070312 145.730469 Z M 253.070312 127.769531 " fill-opacity="1" fill-rule="evenodd"/><path fill="#bd7345" d="M 235.105469 127.769531 L 253.070312 127.769531 L 253.070312 145.730469 L 235.105469 145.730469 Z M 235.105469 127.769531 " fill-opacity="1" fill-rule="evenodd"/><path fill="#bd7345" d="M 217.234375 127.769531 L 235.199219 127.769531 L 235.199219 145.730469 L 217.234375 145.730469 Z M 217.234375 127.769531 " fill-opacity="1" fill-rule="evenodd"/><path fill="#df9262" d="M 199.273438 127.769531 L 217.234375 127.769531 L 217.234375 145.730469 L 199.273438 145.730469 Z M 199.273438 127.769531 " fill-opacity="1" fill-rule="evenodd"/><path fill="#9c5c35" d="M 181.402344 127.769531 L 199.363281 127.769531 L 199.363281 145.730469 L 181.402344 145.730469 Z M 181.402344 127.769531 " fill-opacity="1" fill-rule="evenodd"/><path fill="#bb7143" d="M 683.351562 109.808594 L 701.3125 109.808594 L 701.3125 127.769531 L 683.351562 127.769531 Z M 683.351562 109.808594 " fill-opacity="1" fill-rule="evenodd"/><path fill="#df9262" d="M 665.480469 109.808594 L 683.441406 109.808594 L 683.441406 127.769531 L 665.480469 127.769531 Z M 665.480469 109.808594 " fill-opacity="1" fill-rule="evenodd"/><path fill="#bd7345" d="M 647.515625 109.808594 L 665.480469 109.808594 L 665.480469 127.769531 L 647.515625 127.769531 Z M 647.515625 109.808594 " fill-opacity="1" fill-rule="evenodd"/><path fill="#a05f37" d="M 629.554688 109.808594 L 647.515625 109.808594 L 647.515625 127.769531 L 629.554688 127.769531 Z M 629.554688 109.808594 " fill-opacity="1" fill-rule="evenodd"/><path fill="#a05f37" d="M 486.125 109.808594 L 504.089844 109.808594 L 504.089844 127.769531 L 486.125 127.769531 Z M 486.125 109.808594 " fill-opacity="1" fill-rule="evenodd"/><path fill="#a05f37" d="M 468.253906 109.808594 L 486.21875 109.808594 L 486.21875 127.769531 L 468.253906 127.769531 Z M 468.253906 109.808594 " fill-opacity="1" fill-rule="evenodd"/><path fill="#bd7345" d="M 450.292969 109.808594 L 468.253906 109.808594 L 468.253906 127.769531 L 450.292969 127.769531 Z M 450.292969 109.808594 " fill-opacity="1" fill-rule="evenodd"/><path fill="#d78b5b" d="M 432.328125 109.808594 L 450.292969 109.808594 L 450.292969 127.769531 L 432.328125 127.769531 Z M 432.328125 109.808594 " fill-opacity="1" fill-rule="evenodd"/><path fill="#df9262" d="M 414.457031 109.808594 L 432.421875 109.808594 L 432.421875 127.769531 L 414.457031 127.769531 Z M 414.457031 109.808594 " fill-opacity="1" fill-rule="evenodd"/><path fill="#6b3c20" d="M 396.496094 109.808594 L 414.457031 109.808594 L 414.457031 127.769531 L 396.496094 127.769531 Z M 396.496094 109.808594 " fill-opacity="1" fill-rule="evenodd"/><path fill="#a05f37" d="M 253.070312 109.808594 L 271.03125 109.808594 L 271.03125 127.769531 L 253.070312 127.769531 Z M 253.070312 109.808594 " fill-opacity="1" fill-rule="evenodd"/><path fill="#bd7345" d="M 235.105469 109.808594 L 253.070312 109.808594 L 253.070312 127.769531 L 235.105469 127.769531 Z M 235.105469 109.808594 " fill-opacity="1" fill-rule="evenodd"/><path fill="#df9262" d="M 217.234375 109.808594 L 235.199219 109.808594 L 235.199219 127.769531 L 217.234375 127.769531 Z M 217.234375 109.808594 " fill-opacity="1" fill-rule="evenodd"/><path fill="#bd7345" d="M 199.273438 109.808594 L 217.234375 109.808594 L 217.234375 127.769531 L 199.273438 127.769531 Z M 199.273438 109.808594 " fill-opacity="1" fill-rule="evenodd"/><path fill="#a05f37" d="M 683.351562 91.84375 L 701.3125 91.84375 L 701.3125 109.808594 L 683.351562 109.808594 Z M 683.351562 91.84375 " fill-opacity="1" fill-rule="evenodd"/><path fill="#bd7345" d="M 665.480469 91.84375 L 683.441406 91.84375 L 683.441406 109.808594 L 665.480469 109.808594 Z M 665.480469 91.84375 " fill-opacity="1" fill-rule="evenodd"/><path fill="#df9262" d="M 647.515625 91.84375 L 665.480469 91.84375 L 665.480469 109.808594 L 647.515625 109.808594 Z M 647.515625 91.84375 " fill-opacity="1" fill-rule="evenodd"/><path fill="#bd7345" d="M 629.554688 91.84375 L 647.515625 91.84375 L 647.515625 109.808594 L 629.554688 109.808594 Z M 629.554688 91.84375 " fill-opacity="1" fill-rule="evenodd"/><path fill="#a05f37" d="M 611.683594 91.84375 L 629.644531 91.84375 L 629.644531 109.808594 L 611.683594 109.808594 Z M 611.683594 91.84375 " fill-opacity="1" fill-rule="evenodd"/><path fill="#804a29" d="M 521.960938 91.84375 L 539.921875 91.84375 L 539.921875 109.808594 L 521.960938 109.808594 Z M 521.960938 91.84375 " fill-opacity="1" fill-rule="evenodd"/><path fill="#a05f37" d="M 504.089844 91.84375 L 522.050781 91.84375 L 522.050781 109.808594 L 504.089844 109.808594 Z M 504.089844 91.84375 " fill-opacity="1" fill-rule="evenodd"/><path fill="#a7633a" d="M 486.125 91.84375 L 504.089844 91.84375 L 504.089844 109.808594 L 486.125 109.808594 Z M 486.125 91.84375 " fill-opacity="1" fill-rule="evenodd"/><path fill="#bd7345" d="M 468.253906 91.84375 L 486.21875 91.84375 L 486.21875 109.808594 L 468.253906 109.808594 Z M 468.253906 91.84375 " fill-opacity="1" fill-rule="evenodd"/><path fill="#bd7345" d="M 450.292969 91.84375 L 468.253906 91.84375 L 468.253906 109.808594 L 450.292969 109.808594 Z M 450.292969 91.84375 " fill-opacity="1" fill-rule="evenodd"/><path fill="#df9262" d="M 432.328125 91.84375 L 450.292969 91.84375 L 450.292969 109.808594 L 432.328125 109.808594 Z M 432.328125 91.84375 " fill-opacity="1" fill-rule="evenodd"/><path fill="#a15f37" d="M 414.457031 91.84375 L 432.421875 91.84375 L 432.421875 109.808594 L 414.457031 109.808594 Z M 414.457031 91.84375 " fill-opacity="1" fill-rule="evenodd"/><path fill="#a05f37" d="M 396.496094 91.84375 L 414.457031 91.84375 L 414.457031 109.808594 L 396.496094 109.808594 Z M 396.496094 91.84375 " fill-opacity="1" fill-rule="evenodd"/><path fill="#a05f37" d="M 378.53125 91.84375 L 396.496094 91.84375 L 396.496094 109.808594 L 378.53125 109.808594 Z M 378.53125 91.84375 " fill-opacity="1" fill-rule="evenodd"/><path fill="#905430" d="M 360.660156 91.84375 L 378.625 91.84375 L 378.625 109.808594 L 360.660156 109.808594 Z M 360.660156 91.84375 " fill-opacity="1" fill-rule="evenodd"/><path fill="#a05f37" d="M 271.03125 91.84375 L 288.996094 91.84375 L 288.996094 109.808594 L 271.03125 109.808594 Z M 271.03125 91.84375 " fill-opacity="1" fill-rule="evenodd"/><path fill="#ba7143" d="M 253.070312 91.84375 L 271.03125 91.84375 L 271.03125 109.808594 L 253.070312 109.808594 Z M 253.070312 91.84375 " fill-opacity="1" fill-rule="evenodd"/><path fill="#bd7345" d="M 235.105469 91.84375 L 253.070312 91.84375 L 253.070312 109.808594 L 235.105469 109.808594 Z M 235.105469 91.84375 " fill-opacity="1" fill-rule="evenodd"/><path fill="#df9262" d="M 217.234375 91.84375 L 235.199219 91.84375 L 235.199219 109.808594 L 217.234375 109.808594 Z M 217.234375 91.84375 " fill-opacity="1" fill-rule="evenodd"/><path fill="#a66339" d="M 199.273438 91.84375 L 217.234375 91.84375 L 217.234375 109.808594 L 199.273438 109.808594 Z M 199.273438 91.84375 " fill-opacity="1" fill-rule="evenodd"/><path fill="#ba7143" d="M 665.480469 73.792969 L 683.441406 73.792969 L 683.441406 91.753906 L 665.480469 91.753906 Z M 665.480469 73.792969 " fill-opacity="1" fill-rule="evenodd"/><path fill="#df9262" d="M 647.515625 73.792969 L 665.480469 73.792969 L 665.480469 91.753906 L 647.515625 91.753906 Z M 647.515625 73.792969 " fill-opacity="1" fill-rule="evenodd"/><path fill="#da8d5d" d="M 629.554688 73.792969 L 647.515625 73.792969 L 647.515625 91.753906 L 629.554688 91.753906 Z M 629.554688 73.792969 " fill-opacity="1" fill-rule="evenodd"/><path fill="#bd7345" d="M 611.683594 73.792969 L 629.644531 73.792969 L 629.644531 91.753906 L 611.683594 91.753906 Z M 611.683594 73.792969 " fill-opacity="1" fill-rule="evenodd"/><path fill="#a05f37" d="M 593.71875 73.792969 L 611.683594 73.792969 L 611.683594 91.753906 L 593.71875 91.753906 Z M 593.71875 73.792969 " fill-opacity="1" fill-rule="evenodd"/><path fill="#a05f37" d="M 575.757812 73.792969 L 593.71875 73.792969 L 593.71875 91.753906 L 575.757812 91.753906 Z M 575.757812 73.792969 " fill-opacity="1" fill-rule="evenodd"/><path fill="#a05f37" d="M 557.886719 73.792969 L 575.847656 73.792969 L 575.847656 91.753906 L 557.886719 91.753906 Z M 557.886719 73.792969 " fill-opacity="1" fill-rule="evenodd"/><path fill="#a05f37" d="M 539.921875 73.792969 L 557.886719 73.792969 L 557.886719 91.753906 L 539.921875 91.753906 Z M 539.921875 73.792969 " fill-opacity="1" fill-rule="evenodd"/><path fill="#a05f37" d="M 521.960938 73.792969 L 539.921875 73.792969 L 539.921875 91.753906 L 521.960938 91.753906 Z M 521.960938 73.792969 " fill-opacity="1" fill-rule="evenodd"/><path fill="#bd7345" d="M 504.089844 73.792969 L 522.050781 73.792969 L 522.050781 91.753906 L 504.089844 91.753906 Z M 504.089844 73.792969 " fill-opacity="1" fill-rule="evenodd"/><path fill="#bd7345" d="M 486.125 73.792969 L 504.089844 73.792969 L 504.089844 91.753906 L 486.125 91.753906 Z M 486.125 73.792969 " fill-opacity="1" fill-rule="evenodd"/><path fill="#df9262" d="M 468.253906 73.792969 L 486.21875 73.792969 L 486.21875 91.753906 L 468.253906 91.753906 Z M 468.253906 73.792969 " fill-opacity="1" fill-rule="evenodd"/><path fill="#df9262" d="M 450.292969 73.792969 L 468.253906 73.792969 L 468.253906 91.753906 L 450.292969 91.753906 Z M 450.292969 73.792969 " fill-opacity="1" fill-rule="evenodd"/><path fill="#9d5d35" d="M 432.328125 73.792969 L 450.292969 73.792969 L 450.292969 91.753906 L 432.328125 91.753906 Z M 432.328125 73.792969 " fill-opacity="1" fill-rule="evenodd"/><path fill="#a05f37" d="M 414.457031 73.792969 L 432.421875 73.792969 L 432.421875 91.753906 L 414.457031 91.753906 Z M 414.457031 73.792969 " fill-opacity="1" fill-rule="evenodd"/><path fill="#bd7345" d="M 396.496094 73.792969 L 414.457031 73.792969 L 414.457031 91.753906 L 396.496094 91.753906 Z M 396.496094 73.792969 " fill-opacity="1" fill-rule="evenodd"/><path fill="#bd7345" d="M 378.53125 73.792969 L 396.496094 73.792969 L 396.496094 91.753906 L 378.53125 91.753906 Z M 378.53125 73.792969 " fill-opacity="1" fill-rule="evenodd"/><path fill="#bc7244" d="M 360.660156 73.792969 L 378.625 73.792969 L 378.625 91.753906 L 360.660156 91.753906 Z M 360.660156 73.792969 " fill-opacity="1" fill-rule="evenodd"/><path fill="#a05f37" d="M 342.699219 73.792969 L 360.660156 73.792969 L 360.660156 91.753906 L 342.699219 91.753906 Z M 342.699219 73.792969 " fill-opacity="1" fill-rule="evenodd"/><path fill="#a05f37" d="M 324.828125 73.792969 L 342.792969 73.792969 L 342.792969 91.753906 L 324.828125 91.753906 Z M 324.828125 73.792969 " fill-opacity="1" fill-rule="evenodd"/><path fill="#a05f37" d="M 306.863281 73.792969 L 324.828125 73.792969 L 324.828125 91.753906 L 306.863281 91.753906 Z M 306.863281 73.792969 " fill-opacity="1" fill-rule="evenodd"/><path fill="#a05f37" d="M 288.902344 73.792969 L 306.863281 73.792969 L 306.863281 91.753906 L 288.902344 91.753906 Z M 288.902344 73.792969 " fill-opacity="1" fill-rule="evenodd"/><path fill="#bd7345" d="M 271.03125 73.792969 L 288.996094 73.792969 L 288.996094 91.753906 L 271.03125 91.753906 Z M 271.03125 73.792969 " fill-opacity="1" fill-rule="evenodd"/><path fill="#bd7345" d="M 253.070312 73.792969 L 271.03125 73.792969 L 271.03125 91.753906 L 253.070312 91.753906 Z M 253.070312 73.792969 " fill-opacity="1" fill-rule="evenodd"/><path fill="#df9262" d="M 235.105469 73.792969 L 253.070312 73.792969 L 253.070312 91.753906 L 235.105469 91.753906 Z M 235.105469 73.792969 " fill-opacity="1" fill-rule="evenodd"/><path fill="#d98d5d" d="M 217.234375 73.792969 L 235.199219 73.792969 L 235.199219 91.753906 L 217.234375 91.753906 Z M 217.234375 73.792969 " fill-opacity="1" fill-rule="evenodd"/><path fill="#734b33" d="M 665.480469 55.828125 L 683.441406 55.828125 L 683.441406 73.792969 L 665.480469 73.792969 Z M 665.480469 55.828125 " fill-opacity="1" fill-rule="evenodd"/><path fill="#bd7345" d="M 647.515625 55.828125 L 665.480469 55.828125 L 665.480469 73.792969 L 647.515625 73.792969 Z M 647.515625 55.828125 " fill-opacity="1" fill-rule="evenodd"/><path fill="#df9262" d="M 629.554688 55.828125 L 647.515625 55.828125 L 647.515625 73.792969 L 629.554688 73.792969 Z M 629.554688 55.828125 " fill-opacity="1" fill-rule="evenodd"/><path fill="#cf8354" d="M 611.683594 55.828125 L 629.644531 55.828125 L 629.644531 73.792969 L 611.683594 73.792969 Z M 611.683594 55.828125 " fill-opacity="1" fill-rule="evenodd"/><path fill="#bd7345" d="M 593.71875 55.828125 L 611.683594 55.828125 L 611.683594 73.792969 L 593.71875 73.792969 Z M 593.71875 55.828125 " fill-opacity="1" fill-rule="evenodd"/><path fill="#bd7345" d="M 575.757812 55.828125 L 593.71875 55.828125 L 593.71875 73.792969 L 575.757812 73.792969 Z M 575.757812 55.828125 " fill-opacity="1" fill-rule="evenodd"/><path fill="#bd7345" d="M 557.886719 55.828125 L 575.847656 55.828125 L 575.847656 73.792969 L 557.886719 73.792969 Z M 557.886719 55.828125 " fill-opacity="1" fill-rule="evenodd"/><path fill="#bd7345" d="M 539.921875 55.828125 L 557.886719 55.828125 L 557.886719 73.792969 L 539.921875 73.792969 Z M 539.921875 55.828125 " fill-opacity="1" fill-rule="evenodd"/><path fill="#bd7345" d="M 521.960938 55.828125 L 539.921875 55.828125 L 539.921875 73.792969 L 521.960938 73.792969 Z M 521.960938 55.828125 " fill-opacity="1" fill-rule="evenodd"/><path fill="#bd7345" d="M 504.089844 55.828125 L 522.050781 55.828125 L 522.050781 73.792969 L 504.089844 73.792969 Z M 504.089844 55.828125 " fill-opacity="1" fill-rule="evenodd"/><path fill="#df9262" d="M 486.125 55.828125 L 504.089844 55.828125 L 504.089844 73.792969 L 486.125 73.792969 Z M 486.125 55.828125 " fill-opacity="1" fill-rule="evenodd"/><path fill="#df9262" d="M 468.253906 55.828125 L 486.21875 55.828125 L 486.21875 73.792969 L 468.253906 73.792969 Z M 468.253906 55.828125 " fill-opacity="1" fill-rule="evenodd"/><path fill="#955732" d="M 450.292969 55.828125 L 468.253906 55.828125 L 468.253906 73.792969 L 450.292969 73.792969 Z M 450.292969 55.828125 " fill-opacity="1" fill-rule="evenodd"/><path fill="#9c5c35" d="M 432.328125 55.828125 L 450.292969 55.828125 L 450.292969 73.792969 L 432.328125 73.792969 Z M 432.328125 55.828125 " fill-opacity="1" fill-rule="evenodd"/><path fill="#a05f37" d="M 414.457031 55.828125 L 432.421875 55.828125 L 432.421875 73.792969 L 414.457031 73.792969 Z M 414.457031 55.828125 " fill-opacity="1" fill-rule="evenodd"/><path fill="#bd7345" d="M 396.496094 55.828125 L 414.457031 55.828125 L 414.457031 73.792969 L 396.496094 73.792969 Z M 396.496094 55.828125 " fill-opacity="1" fill-rule="evenodd"/><path fill="#df9262" d="M 378.53125 55.828125 L 396.496094 55.828125 L 396.496094 73.792969 L 378.53125 73.792969 Z M 378.53125 55.828125 " fill-opacity="1" fill-rule="evenodd"/><path fill="#bd7345" d="M 360.660156 55.828125 L 378.625 55.828125 L 378.625 73.792969 L 360.660156 73.792969 Z M 360.660156 55.828125 " fill-opacity="1" fill-rule="evenodd"/><path fill="#bd7345" d="M 342.699219 55.828125 L 360.660156 55.828125 L 360.660156 73.792969 L 342.699219 73.792969 Z M 342.699219 55.828125 " fill-opacity="1" fill-rule="evenodd"/><path fill="#bd7345" d="M 324.828125 55.828125 L 342.792969 55.828125 L 342.792969 73.792969 L 324.828125 73.792969 Z M 324.828125 55.828125 " fill-opacity="1" fill-rule="evenodd"/><path fill="#bd7345" d="M 306.863281 55.828125 L 324.828125 55.828125 L 324.828125 73.792969 L 306.863281 73.792969 Z M 306.863281 55.828125 " fill-opacity="1" fill-rule="evenodd"/><path fill="#bd7345" d="M 288.902344 55.828125 L 306.863281 55.828125 L 306.863281 73.792969 L 288.902344 73.792969 Z M 288.902344 55.828125 " fill-opacity="1" fill-rule="evenodd"/><path fill="#bd7345" d="M 271.03125 55.828125 L 288.996094 55.828125 L 288.996094 73.792969 L 271.03125 73.792969 Z M 271.03125 55.828125 " fill-opacity="1" fill-rule="evenodd"/><path fill="#df9262" d="M 253.070312 55.828125 L 271.03125 55.828125 L 271.03125 73.792969 L 253.070312 73.792969 Z M 253.070312 55.828125 " fill-opacity="1" fill-rule="evenodd"/><path fill="#df9262" d="M 235.105469 55.828125 L 253.070312 55.828125 L 253.070312 73.792969 L 235.105469 73.792969 Z M 235.105469 55.828125 " fill-opacity="1" fill-rule="evenodd"/><path fill="#724023" d="M 217.234375 55.828125 L 235.199219 55.828125 L 235.199219 73.792969 L 217.234375 73.792969 Z M 217.234375 55.828125 " fill-opacity="1" fill-rule="evenodd"/><path fill="#b66e41" d="M 629.554688 37.773438 L 647.515625 37.773438 L 647.515625 55.738281 L 629.554688 55.738281 Z M 629.554688 37.773438 " fill-opacity="1" fill-rule="evenodd"/><path fill="#df9262" d="M 611.683594 37.773438 L 629.644531 37.773438 L 629.644531 55.738281 L 611.683594 55.738281 Z M 611.683594 37.773438 " fill-opacity="1" fill-rule="evenodd"/><path fill="#df9262" d="M 593.71875 37.773438 L 611.683594 37.773438 L 611.683594 55.738281 L 593.71875 55.738281 Z M 593.71875 37.773438 " fill-opacity="1" fill-rule="evenodd"/><path fill="#df9262" d="M 575.757812 37.773438 L 593.71875 37.773438 L 593.71875 55.738281 L 575.757812 55.738281 Z M 575.757812 37.773438 " fill-opacity="1" fill-rule="evenodd"/><path fill="#df9262" d="M 557.886719 37.773438 L 575.847656 37.773438 L 575.847656 55.738281 L 557.886719 55.738281 Z M 557.886719 37.773438 " fill-opacity="1" fill-rule="evenodd"/><path fill="#df9262" d="M 539.921875 37.773438 L 557.886719 37.773438 L 557.886719 55.738281 L 539.921875 55.738281 Z M 539.921875 37.773438 " fill-opacity="1" fill-rule="evenodd"/><path fill="#df9262" d="M 521.960938 37.773438 L 539.921875 37.773438 L 539.921875 55.738281 L 521.960938 55.738281 Z M 521.960938 37.773438 " fill-opacity="1" fill-rule="evenodd"/><path fill="#df9262" d="M 504.089844 37.773438 L 522.050781 37.773438 L 522.050781 55.738281 L 504.089844 55.738281 Z M 504.089844 37.773438 " fill-opacity="1" fill-rule="evenodd"/><path fill="#bb7244" d="M 486.125 37.773438 L 504.089844 37.773438 L 504.089844 55.738281 L 486.125 55.738281 Z M 486.125 37.773438 " fill-opacity="1" fill-rule="evenodd"/><path fill="#a05f37" d="M 396.496094 37.773438 L 414.457031 37.773438 L 414.457031 55.738281 L 396.496094 55.738281 Z M 396.496094 37.773438 " fill-opacity="1" fill-rule="evenodd"/><path fill="#bd7345" d="M 378.53125 37.773438 L 396.496094 37.773438 L 396.496094 55.738281 L 378.53125 55.738281 Z M 378.53125 37.773438 " fill-opacity="1" fill-rule="evenodd"/><path fill="#df9262" d="M 360.660156 37.773438 L 378.625 37.773438 L 378.625 55.738281 L 360.660156 55.738281 Z M 360.660156 37.773438 " fill-opacity="1" fill-rule="evenodd"/><path fill="#df9262" d="M 342.699219 37.773438 L 360.660156 37.773438 L 360.660156 55.738281 L 342.699219 55.738281 Z M 342.699219 37.773438 " fill-opacity="1" fill-rule="evenodd"/><path fill="#df9262" d="M 324.828125 37.773438 L 342.792969 37.773438 L 342.792969 55.738281 L 324.828125 55.738281 Z M 324.828125 37.773438 " fill-opacity="1" fill-rule="evenodd"/><path fill="#df9262" d="M 306.863281 37.773438 L 324.828125 37.773438 L 324.828125 55.738281 L 306.863281 55.738281 Z M 306.863281 37.773438 " fill-opacity="1" fill-rule="evenodd"/><path fill="#df9262" d="M 288.902344 37.773438 L 306.863281 37.773438 L 306.863281 55.738281 L 288.902344 55.738281 Z M 288.902344 37.773438 " fill-opacity="1" fill-rule="evenodd"/><path fill="#df9262" d="M 271.03125 37.773438 L 288.996094 37.773438 L 288.996094 55.738281 L 271.03125 55.738281 Z M 271.03125 37.773438 " fill-opacity="1" fill-rule="evenodd"/><path fill="#d18556" d="M 253.070312 37.773438 L 271.03125 37.773438 L 271.03125 55.738281 L 253.070312 55.738281 Z M 253.070312 37.773438 " fill-opacity="1" fill-rule="evenodd"/><path fill="#6b3c21" d="M 611.683594 19.8125 L 629.644531 19.8125 L 629.644531 37.773438 L 611.683594 37.773438 Z M 611.683594 19.8125 " fill-opacity="1" fill-rule="evenodd"/><path fill="#a16037" d="M 593.71875 19.8125 L 611.683594 19.8125 L 611.683594 37.773438 L 593.71875 37.773438 Z M 593.71875 19.8125 " fill-opacity="1" fill-rule="evenodd"/><path fill="#bd7345" d="M 575.757812 19.8125 L 593.71875 19.8125 L 593.71875 37.773438 L 575.757812 37.773438 Z M 575.757812 19.8125 " fill-opacity="1" fill-rule="evenodd"/><path fill="#bd7345" d="M 557.886719 19.8125 L 575.847656 19.8125 L 575.847656 37.773438 L 557.886719 37.773438 Z M 557.886719 19.8125 " fill-opacity="1" fill-rule="evenodd"/><path fill="#bd7345" d="M 539.921875 19.8125 L 557.886719 19.8125 L 557.886719 37.773438 L 539.921875 37.773438 Z M 539.921875 19.8125 " fill-opacity="1" fill-rule="evenodd"/><path fill="#9f5e36" d="M 521.960938 19.8125 L 539.921875 19.8125 L 539.921875 37.773438 L 521.960938 37.773438 Z M 521.960938 19.8125 " fill-opacity="1" fill-rule="evenodd"/><path fill="#9a5b34" d="M 360.660156 19.8125 L 378.625 19.8125 L 378.625 37.773438 L 360.660156 37.773438 Z M 360.660156 19.8125 " fill-opacity="1" fill-rule="evenodd"/><path fill="#ba7143" d="M 342.699219 19.8125 L 360.660156 19.8125 L 360.660156 37.773438 L 342.699219 37.773438 Z M 342.699219 19.8125 " fill-opacity="1" fill-rule="evenodd"/><path fill="#bd7345" d="M 324.828125 19.8125 L 342.792969 19.8125 L 342.792969 37.773438 L 324.828125 37.773438 Z M 324.828125 19.8125 " fill-opacity="1" fill-rule="evenodd"/><path fill="#bd7345" d="M 306.863281 19.8125 L 324.828125 19.8125 L 324.828125 37.773438 L 306.863281 37.773438 Z M 306.863281 19.8125 " fill-opacity="1" fill-rule="evenodd"/><path fill="#bb7143" d="M 288.902344 19.8125 L 306.863281 19.8125 L 306.863281 37.773438 L 288.902344 37.773438 Z M 288.902344 19.8125 " fill-opacity="1" fill-rule="evenodd"/><path fill="#6f432a" d="M 271.03125 19.8125 L 288.996094 19.8125 L 288.996094 37.773438 L 271.03125 37.773438 Z M 271.03125 19.8125 " fill-opacity="1" fill-rule="evenodd"/></svg>