<svg xmlns="http://www.w3.org/2000/svg" xmlns:xlink="http://www.w3.org/1999/xlink" width="1200" zoomAndPan="magnify" viewBox="0 0 900 472.499986" height="630" preserveAspectRatio="xMidYMid meet" version="1.0"><defs><clipPath id="d868efeaff"><path d="M 191.605469 0 L 708.558594 0 L 708.558594 472 L 191.605469 472 Z M 191.605469 0 " clip-rule="nonzero"/></clipPath></defs><path fill="#f7c92e" d="M 472.484375 33.769531 L 450.082031 11.375 L 427.679688 33.769531 L 427.679688 56.335938 L 405.105469 78.726562 L 405.105469 101.121094 L 382.707031 123.6875 L 382.707031 146.082031 L 360.132812 168.648438 L 225.378906 168.648438 L 202.804688 191.039062 L 247.78125 236 L 270.355469 236 L 337.730469 303.355469 L 315.15625 325.917969 L 315.15625 348.3125 L 292.757812 370.878906 L 292.757812 393.273438 L 270.355469 415.667969 L 270.355469 460.625 L 292.757812 460.625 L 315.15625 438.234375 L 337.730469 438.234375 L 360.132812 415.667969 L 382.707031 415.667969 L 405.105469 393.273438 L 427.679688 393.273438 L 450.082031 370.878906 L 472.484375 393.273438 L 495.058594 393.273438 L 517.457031 415.667969 L 540.03125 415.667969 L 562.433594 438.234375 L 585.007812 438.234375 L 607.40625 460.625 L 629.808594 460.625 L 629.808594 415.667969 L 607.40625 393.273438 L 607.40625 370.878906 L 585.007812 348.3125 L 585.007812 325.917969 L 562.433594 303.355469 L 629.808594 236 L 652.382812 236 L 697.359375 191.039062 L 674.785156 168.648438 L 540.03125 168.648438 L 517.457031 146.082031 L 517.457031 123.6875 L 495.058594 101.121094 L 495.058594 78.726562 L 472.484375 56.335938 Z M 472.484375 33.769531 " fill-opacity="1" fill-rule="evenodd"/><g clip-path="url(#d868efeaff)"><path fill="#1e1a3f" d="M 461.28125 22.570312 L 461.28125 0.00390625 L 438.882812 0.00390625 L 438.882812 22.570312 L 416.308594 22.570312 L 416.308594 67.53125 L 393.90625 67.53125 L 393.90625 112.492188 L 371.332031 112.492188 L 371.332031 157.277344 L 214.007812 157.277344 L 214.007812 179.84375 L 191.605469 179.84375 L 191.605469 202.238281 L 214.007812 202.238281 L 214.007812 224.804688 L 236.582031 224.804688 L 236.582031 247.195312 L 281.554688 247.195312 L 281.554688 269.761719 L 303.957031 269.761719 L 303.957031 292.15625 L 326.53125 292.15625 L 326.53125 314.722656 L 303.957031 314.722656 L 303.957031 359.511719 L 281.554688 359.511719 L 281.554688 404.46875 L 258.980469 404.46875 L 258.980469 471.996094 L 303.957031 471.996094 L 303.957031 449.429688 L 348.929688 449.429688 L 348.929688 427.035156 L 393.90625 427.035156 L 393.90625 404.46875 L 438.882812 404.46875 L 438.882812 382.074219 L 506.257812 382.074219 L 506.257812 404.46875 L 551.234375 404.46875 L 551.234375 427.035156 L 596.207031 427.035156 L 596.207031 449.429688 L 618.609375 449.429688 L 618.609375 404.46875 L 596.207031 404.46875 L 596.207031 359.511719 L 573.632812 359.511719 L 573.632812 314.722656 L 551.234375 314.722656 L 551.234375 292.15625 L 596.207031 292.15625 L 596.207031 269.761719 L 618.609375 269.761719 L 618.609375 247.195312 L 663.582031 247.195312 L 663.582031 224.804688 L 686.15625 224.804688 L 686.15625 202.238281 L 708.558594 202.238281 L 708.558594 179.84375 L 686.15625 179.84375 L 686.15625 157.277344 L 528.832031 157.277344 L 528.832031 112.492188 L 506.257812 112.492188 L 506.257812 67.53125 L 483.855469 67.53125 L 483.855469 22.570312 Z M 641.183594 449.429688 L 641.183594 471.996094 L 596.207031 471.996094 L 596.207031 449.429688 L 551.234375 449.429688 L 551.234375 427.035156 L 506.257812 427.035156 L 506.257812 404.46875 L 461.28125 404.46875 L 461.28125 359.511719 L 438.882812 359.511719 L 438.882812 382.074219 L 393.90625 382.074219 L 393.90625 404.46875 L 348.929688 404.46875 L 348.929688 427.035156 L 303.957031 427.035156 L 303.957031 449.429688 L 281.554688 449.429688 L 281.554688 404.46875 L 303.957031 404.46875 L 303.957031 359.511719 L 326.53125 359.511719 L 326.53125 314.722656 L 348.929688 314.722656 L 348.929688 292.15625 L 326.53125 292.15625 L 326.53125 269.761719 L 303.957031 269.761719 L 303.957031 247.195312 L 281.554688 247.195312 L 281.554688 224.804688 L 236.582031 224.804688 L 236.582031 202.238281 L 214.007812 202.238281 L 214.007812 179.84375 L 371.332031 179.84375 L 371.332031 157.277344 L 393.90625 157.277344 L 393.90625 112.492188 L 416.308594 112.492188 L 416.308594 67.53125 L 438.882812 67.53125 L 438.882812 22.570312 L 461.28125 22.570312 L 461.28125 67.53125 L 483.855469 67.53125 L 483.855469 112.492188 L 506.257812 112.492188 L 506.257812 157.277344 L 528.832031 157.277344 L 528.832031 179.84375 L 686.15625 179.84375 L 686.15625 202.238281 L 663.582031 202.238281 L 663.582031 224.804688 L 618.609375 224.804688 L 618.609375 247.195312 L 596.207031 247.195312 L 596.207031 269.761719 L 573.632812 269.761719 L 573.632812 314.722656 L 596.207031 314.722656 L 596.207031 359.511719 L 618.609375 359.511719 L 618.609375 404.46875 L 641.183594 404.46875 Z M 641.183594 449.429688 " fill-opacity="1" fill-rule="evenodd"/></g><path fill="#ea9b22" d="M 236.582031 202.238281 L 236.582031 179.84375 L 214.007812 179.84375 L 214.007812 202.238281 L 236.582031 202.238281 L 236.582031 224.804688 L 281.554688 224.804688 L 281.554688 247.195312 L 303.957031 247.195312 L 303.957031 269.761719 L 326.53125 269.761719 L 326.53125 292.15625 L 348.929688 292.15625 L 348.929688 314.722656 L 326.53125 314.722656 L 326.53125 359.511719 L 303.957031 359.511719 L 303.957031 404.46875 L 281.554688 404.46875 L 281.554688 449.429688 L 303.957031 449.429688 L 303.957031 404.46875 L 326.53125 404.46875 L 326.53125 359.511719 L 348.929688 359.511719 L 348.929688 314.722656 L 371.332031 314.722656 L 371.332031 292.15625 L 348.929688 292.15625 L 348.929688 269.761719 L 326.53125 269.761719 L 326.53125 247.195312 L 303.957031 247.195312 L 303.957031 224.804688 L 281.554688 224.804688 L 281.554688 202.238281 Z M 461.28125 359.511719 L 461.28125 382.074219 L 506.257812 382.074219 L 506.257812 404.46875 L 551.234375 404.46875 L 551.234375 427.035156 L 596.207031 427.035156 L 596.207031 449.429688 L 618.609375 449.429688 L 618.609375 427.035156 L 596.207031 427.035156 L 596.207031 404.46875 L 551.234375 404.46875 L 551.234375 382.074219 L 506.257812 382.074219 L 506.257812 359.511719 Z M 371.332031 179.84375 L 393.90625 179.84375 L 393.90625 157.277344 L 416.308594 157.277344 L 416.308594 112.492188 L 438.882812 112.492188 L 438.882812 67.53125 L 461.28125 67.53125 L 461.28125 22.570312 L 438.882812 22.570312 L 438.882812 67.53125 L 416.308594 67.53125 L 416.308594 112.492188 L 393.90625 112.492188 L 393.90625 157.277344 L 371.332031 157.277344 Z M 371.332031 179.84375 " fill-opacity="1" fill-rule="evenodd"/><path fill="#ffffc8" d="M 483.855469 67.53125 L 461.28125 67.53125 L 461.28125 112.492188 L 483.855469 112.492188 L 483.855469 157.277344 L 506.257812 157.277344 L 506.257812 179.84375 L 528.832031 179.84375 L 528.832031 157.277344 L 506.257812 157.277344 L 506.257812 112.492188 L 483.855469 112.492188 Z M 326.53125 404.46875 L 303.957031 404.46875 L 303.957031 427.035156 L 348.929688 427.035156 L 348.929688 404.46875 L 393.90625 404.46875 L 393.90625 382.074219 L 438.882812 382.074219 L 438.882812 359.511719 L 393.90625 359.511719 L 393.90625 382.074219 L 348.929688 382.074219 L 348.929688 404.46875 Z M 618.609375 404.46875 L 596.207031 404.46875 L 596.207031 359.511719 L 573.632812 359.511719 L 573.632812 314.722656 L 551.234375 314.722656 L 551.234375 292.15625 L 573.632812 292.15625 L 573.632812 269.761719 L 596.207031 269.761719 L 596.207031 247.195312 L 618.609375 247.195312 L 618.609375 224.804688 L 663.582031 224.804688 L 663.582031 202.238281 L 686.15625 202.238281 L 686.15625 179.84375 L 663.582031 179.84375 L 663.582031 202.238281 L 618.609375 202.238281 L 618.609375 224.804688 L 596.207031 224.804688 L 596.207031 247.195312 L 573.632812 247.195312 L 573.632812 269.761719 L 551.234375 269.761719 L 551.234375 292.15625 L 528.832031 292.15625 L 528.832031 314.722656 L 551.234375 314.722656 L 551.234375 359.511719 L 573.632812 359.511719 L 573.632812 404.46875 L 596.207031 404.46875 L 596.207031 427.035156 L 618.609375 427.035156 Z M 618.609375 404.46875 " fill-opacity="1" fill-rule="evenodd"/></svg>