<svg xmlns="http://www.w3.org/2000/svg" xmlns:xlink="http://www.w3.org/1999/xlink" width="1200" zoomAndPan="magnify" viewBox="0 0 900 472.499986" height="630" preserveAspectRatio="xMidYMid meet" version="1.0"><defs><clipPath id="fa5bf223cc"><path d="M 252.351562 170 L 308 170 L 308 302 L 252.351562 302 Z M 252.351562 170 " clip-rule="nonzero"/></clipPath><clipPath id="858b575398"><path d="M 601 86 L 647.929688 86 L 647.929688 165 L 601 165 Z M 601 86 " clip-rule="nonzero"/></clipPath><clipPath id="bdbc8748e4"><path d="M 601 307 L 647.929688 307 L 647.929688 386 L 601 386 Z M 601 307 " clip-rule="nonzero"/></clipPath></defs><path fill="#ffbc45" d="M 526.664062 235.992188 L 639.292969 349.78125 C 603.492188 400.519531 544.414062 433.640625 477.566406 433.640625 C 368.335938 433.640625 279.777344 345.148438 279.777344 235.992188 C 279.777344 126.835938 368.335938 38.351562 477.566406 38.351562 C 549.449219 38.351562 612.351562 76.652344 646.980469 133.972656 L 565.6875 191.105469 Z M 526.664062 235.992188 " fill-opacity="1" fill-rule="nonzero"/><g clip-path="url(#fa5bf223cc)"><path fill="#2b2b2b" d="M 252.351562 301.625 L 252.351562 170.371094 L 307.222656 170.371094 L 307.222656 301.625 Z M 252.351562 301.625 " fill-opacity="1" fill-rule="nonzero"/></g><path fill="#2b2b2b" d="M 372.070312 397.585938 L 430.25 397.585938 L 430.25 440.976562 L 372.070312 440.976562 Z M 372.070312 397.585938 " fill-opacity="1" fill-rule="nonzero"/><path fill="#2b2b2b" d="M 283.679688 349.273438 L 283.679688 291.136719 L 327.101562 291.136719 L 327.101562 349.273438 Z M 283.679688 349.273438 " fill-opacity="1" fill-rule="nonzero"/><path fill="#2b2b2b" d="M 342.964844 369.722656 L 389.453125 369.722656 L 389.453125 413.117188 L 342.964844 413.117188 Z M 342.964844 369.722656 " fill-opacity="1" fill-rule="nonzero"/><path fill="#2b2b2b" d="M 307.222656 342.382812 L 353.714844 342.382812 L 353.714844 385.773438 L 307.222656 385.773438 Z M 307.222656 342.382812 " fill-opacity="1" fill-rule="nonzero"/><path fill="#2b2b2b" d="M 411.898438 0.0859375 L 543.25 0.0859375 L 543.25 54.921875 L 411.898438 54.921875 Z M 411.898438 0.0859375 " fill-opacity="1" fill-rule="nonzero"/><path fill="#2b2b2b" d="M 372.070312 31.019531 L 430.25 31.019531 L 430.25 74.410156 L 372.070312 74.410156 Z M 372.070312 31.019531 " fill-opacity="1" fill-rule="nonzero"/><path fill="#2b2b2b" d="M 327.101562 122.722656 L 327.101562 180.863281 L 283.679688 180.863281 L 283.679688 122.722656 Z M 327.101562 122.722656 " fill-opacity="1" fill-rule="nonzero"/><path fill="#2b2b2b" d="M 342.964844 58.882812 L 389.453125 58.882812 L 389.453125 102.273438 L 342.964844 102.273438 Z M 342.964844 58.882812 " fill-opacity="1" fill-rule="nonzero"/><path fill="#2b2b2b" d="M 307.222656 86.222656 L 353.714844 86.222656 L 353.714844 129.613281 L 307.222656 129.613281 Z M 307.222656 86.222656 " fill-opacity="1" fill-rule="nonzero"/><path fill="#2b2b2b" d="M 583.074219 74.410156 L 524.898438 74.410156 L 524.898438 31.019531 L 583.074219 31.019531 Z M 583.074219 74.410156 " fill-opacity="1" fill-rule="nonzero"/><path fill="#2b2b2b" d="M 612.183594 102.273438 L 565.695312 102.273438 L 565.695312 58.882812 L 612.183594 58.882812 Z M 612.183594 102.273438 " fill-opacity="1" fill-rule="nonzero"/><path fill="#2b2b2b" d="M 612.183594 191.113281 L 565.695312 191.113281 L 565.695312 147.722656 L 612.183594 147.722656 Z M 612.183594 191.113281 " fill-opacity="1" fill-rule="nonzero"/><path fill="#2b2b2b" d="M 583.074219 217.863281 L 536.582031 217.863281 L 536.582031 174.472656 L 583.074219 174.472656 Z M 583.074219 217.863281 " fill-opacity="1" fill-rule="nonzero"/><path fill="#2b2b2b" d="M 549.902344 265.84375 L 503.414062 265.84375 L 503.414062 206.15625 L 549.902344 206.15625 Z M 549.902344 265.84375 " fill-opacity="1" fill-rule="nonzero"/><g clip-path="url(#858b575398)"><path fill="#2b2b2b" d="M 647.925781 164.859375 L 601.433594 164.859375 L 601.433594 86.222656 L 647.925781 86.222656 Z M 647.925781 164.859375 " fill-opacity="1" fill-rule="nonzero"/></g><path fill="#2b2b2b" d="M 411.898438 417.078125 L 543.25 417.078125 L 543.25 471.914062 L 411.898438 471.914062 Z M 411.898438 417.078125 " fill-opacity="1" fill-rule="nonzero"/><path fill="#2b2b2b" d="M 583.074219 440.976562 L 524.898438 440.976562 L 524.898438 397.585938 L 583.074219 397.585938 Z M 583.074219 440.976562 " fill-opacity="1" fill-rule="nonzero"/><path fill="#2b2b2b" d="M 612.183594 413.117188 L 565.695312 413.117188 L 565.695312 369.722656 L 612.183594 369.722656 Z M 612.183594 413.117188 " fill-opacity="1" fill-rule="nonzero"/><path fill="#2b2b2b" d="M 612.183594 324.277344 L 565.695312 324.277344 L 565.695312 280.886719 L 612.183594 280.886719 Z M 612.183594 324.277344 " fill-opacity="1" fill-rule="nonzero"/><path fill="#2b2b2b" d="M 583.074219 297.527344 L 536.582031 297.527344 L 536.582031 254.136719 L 583.074219 254.136719 Z M 583.074219 297.527344 " fill-opacity="1" fill-rule="nonzero"/><path fill="#2b2b2b" d="M 549.902344 265.84375 L 503.414062 265.84375 L 503.414062 206.15625 L 549.902344 206.15625 Z M 549.902344 265.84375 " fill-opacity="1" fill-rule="nonzero"/><g clip-path="url(#bdbc8748e4)"><path fill="#2b2b2b" d="M 647.925781 385.773438 L 601.433594 385.773438 L 601.433594 307.140625 L 647.925781 307.140625 Z M 647.925781 385.773438 " fill-opacity="1" fill-rule="nonzero"/></g><path fill="#2b2b2b" d="M 397.703125 129.613281 L 444.191406 129.613281 L 444.191406 224.289062 L 397.703125 224.289062 Z M 397.703125 129.613281 " fill-opacity="1" fill-rule="nonzero"/><path fill="#2b2b2b" d="M 373.578125 200.179688 L 373.578125 153.726562 L 468.316406 153.726562 L 468.316406 200.179688 Z M 373.578125 200.179688 " fill-opacity="1" fill-rule="nonzero"/></svg>