<svg xmlns="http://www.w3.org/2000/svg" xmlns:xlink="http://www.w3.org/1999/xlink" width="1200" zoomAndPan="magnify" viewBox="0 0 900 472.499986" height="630" preserveAspectRatio="xMidYMid meet" version="1.0"><path fill="#ffffff" d="M 665.515625 81.9375 L 665.515625 40.96875 L 604.0625 40.96875 L 604.0625 0 L 500.503906 0 L 500.503906 40.96875 L 459.628906 40.96875 L 459.628906 81.84375 L 440.371094 81.84375 L 440.371094 40.96875 L 399.402344 40.96875 L 399.402344 0 L 295.84375 0 L 295.84375 40.96875 L 234.484375 40.96875 L 234.484375 81.9375 L 214 81.9375 L 214 267.339844 L 234.484375 267.339844 L 234.484375 308.214844 L 254.96875 308.214844 L 254.96875 349.1875 L 275.359375 349.1875 L 275.359375 368.445312 L 254.96875 368.445312 L 254.96875 431.03125 L 275.359375 431.03125 L 275.359375 472 L 378.917969 472 L 378.917969 431.03125 L 419.886719 431.03125 L 419.886719 390.0625 L 480.113281 390.0625 L 480.113281 431.03125 L 520.988281 431.03125 L 520.988281 472 L 624.546875 472 L 624.546875 431.03125 L 645.03125 431.03125 L 645.03125 368.445312 L 624.546875 368.445312 L 624.546875 349.1875 L 645.03125 349.1875 L 645.03125 308.214844 L 665.515625 308.214844 L 665.515625 267.339844 L 686 267.339844 L 686 81.9375 Z M 665.515625 81.9375 " fill-opacity="1" fill-rule="nonzero"/><path fill="#000000" d="M 654.660156 92.699219 L 654.660156 51.824219 L 593.300781 51.824219 L 593.300781 10.855469 L 511.359375 10.855469 L 511.359375 51.824219 L 470.484375 51.824219 L 470.484375 92.699219 L 429.515625 92.699219 L 429.515625 51.824219 L 388.546875 51.824219 L 388.546875 10.855469 L 306.699219 10.855469 L 306.699219 51.824219 L 245.339844 51.824219 L 245.339844 92.699219 L 224.855469 92.699219 L 224.855469 256.484375 L 245.339844 256.484375 L 245.339844 297.359375 L 265.824219 297.359375 L 265.824219 338.328125 L 286.214844 338.328125 L 286.214844 379.300781 L 265.824219 379.300781 L 265.824219 420.175781 L 286.214844 420.175781 L 286.214844 461.144531 L 368.15625 461.144531 L 368.15625 420.175781 L 409.03125 420.175781 L 409.03125 379.300781 L 490.96875 379.300781 L 490.96875 420.175781 L 531.84375 420.175781 L 531.84375 461.144531 L 613.691406 461.144531 L 613.691406 420.175781 L 634.175781 420.175781 L 634.175781 379.300781 L 613.691406 379.300781 L 613.691406 338.328125 L 634.175781 338.328125 L 634.175781 297.359375 L 654.660156 297.359375 L 654.660156 256.484375 L 675.144531 256.484375 L 675.144531 92.699219 Z M 654.660156 92.699219 " fill-opacity="1" fill-rule="nonzero"/><path fill="#13babf" d="M 572.816406 420.175781 L 593.300781 420.175781 L 593.300781 379.300781 L 552.328125 379.300781 L 552.328125 420.175781 Z M 572.816406 420.175781 " fill-opacity="1" fill-rule="nonzero"/><path fill="#13babf" d="M 572.816406 92.699219 L 572.816406 51.824219 L 531.84375 51.824219 L 531.84375 92.699219 Z M 572.816406 92.699219 " fill-opacity="1" fill-rule="nonzero"/><path fill="#13babf" d="M 613.691406 92.699219 L 593.300781 92.699219 L 593.300781 174.640625 L 552.328125 174.640625 L 552.328125 133.671875 L 531.84375 133.671875 L 531.84375 92.699219 L 490.96875 92.699219 L 490.96875 133.671875 L 409.03125 133.671875 L 409.03125 92.699219 L 368.15625 92.699219 L 368.15625 133.671875 L 347.671875 133.671875 L 347.671875 174.640625 L 306.699219 174.640625 L 306.699219 92.699219 L 265.824219 92.699219 L 265.824219 256.484375 L 306.699219 256.484375 L 306.699219 338.328125 L 347.671875 338.328125 L 347.671875 379.300781 L 388.546875 379.300781 L 388.546875 338.328125 L 511.359375 338.328125 L 511.359375 379.300781 L 552.328125 379.300781 L 552.328125 338.328125 L 593.300781 338.328125 L 593.300781 256.484375 L 634.175781 256.484375 L 634.175781 92.699219 Z M 613.691406 92.699219 " fill-opacity="1" fill-rule="nonzero"/><path fill="#13babf" d="M 347.671875 51.824219 L 327.183594 51.824219 L 327.183594 92.699219 L 368.15625 92.699219 L 368.15625 51.824219 Z M 347.671875 51.824219 " fill-opacity="1" fill-rule="nonzero"/><path fill="#13babf" d="M 306.699219 379.300781 L 306.699219 420.175781 L 347.671875 420.175781 L 347.671875 379.300781 Z M 306.699219 379.300781 " fill-opacity="1" fill-rule="nonzero"/><path fill="#7304d7" d="M 511.359375 174.640625 L 490.96875 174.640625 L 490.96875 215.515625 L 531.84375 215.515625 L 531.84375 174.640625 Z M 511.359375 174.640625 " fill-opacity="1" fill-rule="nonzero"/><path fill="#7304d7" d="M 368.15625 174.640625 L 368.15625 215.515625 L 409.03125 215.515625 L 409.03125 174.640625 Z M 368.15625 174.640625 " fill-opacity="1" fill-rule="nonzero"/></svg>