<svg version="1.1" id="Layer_1" xmlns="http://www.w3.org/2000/svg" xmlns:xlink="http://www.w3.org/1999/xlink" x="0px" y="0px"
	 width="100%" viewBox="0 0 498 387" enable-background="new 0 0 498 387" xml:space="preserve">
<path fill="#FEFEFE" opacity="1.000000" stroke="none" 
	d="
M499.000000,352.000000 
	C499.000000,355.692902 499.000000,359.385834 498.656982,363.505066 
	C497.096741,363.404297 495.879456,362.877228 495.029236,362.509094 
	C494.495514,364.427307 494.064667,365.975830 493.633820,367.524353 
	C492.245941,366.847839 490.775360,366.298370 489.491333,365.462372 
	C487.913208,364.434967 486.490784,363.168396 485.001221,361.629425 
	C485.002991,360.502472 485.004608,359.751251 485.338501,359.000061 
	C486.113861,359.000061 486.556946,359.000031 487.307739,359.130310 
	C489.212524,358.801636 490.809570,358.342682 492.406616,357.883728 
	C491.937744,356.589142 491.468903,355.294556 491.153625,353.647583 
	C491.835358,351.434143 492.777283,349.570343 492.764801,347.712982 
	C492.754211,346.137421 491.641144,344.569275 491.007141,342.623413 
	C490.999115,341.499390 490.999908,340.749786 491.390747,339.946808 
	C492.513000,338.911469 493.729156,338.002411 493.890045,336.934357 
	C494.455048,333.183838 494.880524,329.383240 494.959351,325.593384 
	C495.373688,305.667816 496.008179,285.737640 495.886658,265.813202 
	C495.796844,251.084473 494.228333,236.366196 494.090454,221.636047 
	C493.795258,190.097656 494.000000,158.554596 494.000000,127.013443 
	C494.000000,110.871071 494.027863,94.728600 493.973297,78.586411 
	C493.963898,75.807129 493.015045,72.915184 493.525726,70.273560 
	C494.666504,64.372581 494.359589,59.075031 489.838074,54.628460 
	C489.047424,56.748035 488.256683,58.867840 487.550568,60.519943 
	C487.672241,56.824162 487.709259,53.596081 488.044128,50.405243 
	C488.821136,48.674587 489.300323,46.906689 489.859802,44.735863 
	C489.938507,43.249630 489.936951,42.166321 489.955261,40.653114 
	C491.589722,33.892578 486.302399,29.824146 483.996887,25.209972 
	C481.541687,20.296217 475.337738,17.387407 469.008881,16.606506 
	C466.098450,14.086088 463.200775,11.937518 460.303101,9.788948 
	C460.211975,10.468238 460.120850,11.147528 460.029724,11.826818 
	C451.479126,12.409665 442.928528,12.992512 434.377930,13.575358 
	C434.397919,13.986483 434.417938,14.397606 434.437927,14.808730 
	C435.656067,14.889683 436.874176,14.970636 437.864075,15.385215 
	C424.728394,15.819632 411.820526,15.883592 398.913696,16.037064 
	C392.651428,16.111528 386.391205,16.353662 379.859802,16.224995 
	C376.989685,16.144793 374.389771,16.359480 371.455475,16.359816 
	C368.413696,16.296219 365.706329,16.446976 362.609253,16.382175 
	C360.479370,16.315598 358.739166,16.464573 356.650879,16.371231 
	C352.224030,15.701860 348.145264,15.274811 344.030396,14.534177 
	C341.328278,13.480649 338.662323,12.740705 335.581818,11.998707 
	C331.096008,11.997343 327.024750,11.998942 322.953461,11.998546 
	C312.722778,11.997546 302.492126,11.994971 292.261444,11.994223 
	C246.178299,11.990849 200.095139,11.987890 153.931107,11.615849 
	C151.280609,9.562388 148.798492,8.199628 147.558624,12.881702 
	C145.439606,13.427488 143.713745,13.942467 141.568024,14.676548 
	C120.038338,14.958540 98.928383,14.999810 77.818871,15.120713 
	C75.894928,15.131733 73.973907,15.653556 71.681747,15.629029 
	C68.527046,15.029091 65.742119,14.738298 62.869076,14.132254 
	C60.885113,12.650617 59.097549,10.812016 57.066525,10.484865 
	C54.417835,10.058221 51.022663,8.101626 48.634171,11.971224 
	C47.182285,12.291249 46.091499,12.601126 44.601402,12.937735 
	C43.135532,12.981497 42.068974,12.998525 40.779045,12.758045 
	C37.860245,13.345714 35.078651,13.989563 32.494827,15.095486 
	C30.143475,16.101908 27.982527,17.570370 25.786816,18.915426 
	C24.805407,19.516623 23.944326,20.314240 23.020088,21.017654 
	C23.011539,21.012594 23.020987,21.026384 22.679834,21.064354 
	C21.571526,22.415468 20.804369,23.728615 20.030434,25.411781 
	C20.001177,26.521679 19.978701,27.261555 19.614384,28.030186 
	C18.184341,28.375385 17.096138,28.691833 15.646637,29.042088 
	C13.224873,31.457733 9.908241,33.578915 9.349353,36.272331 
	C7.913589,43.191628 7.100964,50.363895 7.090621,57.436588 
	C6.954171,150.740784 6.986689,244.045258 7.043766,337.349609 
	C7.046185,341.304565 7.426658,345.314545 8.214861,349.179840 
	C8.449427,350.330109 10.678043,351.073730 12.256531,352.203796 
	C12.689195,353.256683 12.858319,354.109528 13.042320,355.288361 
	C13.709212,356.406525 14.361226,357.198669 15.007821,357.995056 
	C15.002403,357.999298 15.013628,357.986481 15.047544,358.352295 
	C15.582434,360.121155 15.665943,362.108368 16.661240,362.819641 
	C19.879930,365.119690 21.247299,368.081146 21.647991,371.882446 
	C21.713060,372.499756 24.444637,373.635376 24.830120,373.289642 
	C27.319214,371.057556 29.087463,372.688232 31.005453,374.382141 
	C31.596165,379.055939 35.224339,378.325836 38.446369,378.998718 
	C41.259987,378.999542 43.629612,379.000366 46.066422,379.374390 
	C50.473747,380.830078 54.786781,382.716553 59.158459,382.864014 
	C86.653709,383.791199 114.161995,384.332001 141.666031,384.997986 
	C142.332092,385.014099 143.034775,385.138519 143.659225,384.976562 
	C146.770706,384.169800 149.833084,383.154236 152.968033,382.462921 
	C156.046585,381.784058 160.757263,379.868103 162.032791,381.166321 
	C167.192459,386.417847 173.211227,383.425446 178.543793,383.636292 
	C187.748932,384.000214 197.041122,381.900116 206.263657,382.134949 
	C236.985321,382.917206 267.715881,380.322174 298.470306,383.679871 
	C312.551971,385.217285 327.005981,383.283417 341.292877,383.016632 
	C361.822815,382.633301 382.353943,382.105042 402.885284,382.072601 
	C419.336304,382.046631 435.789429,382.622711 452.239288,383.027252 
	C457.051117,383.145569 461.413483,382.608765 464.996613,378.789917 
	C466.075104,377.640411 468.300171,377.566589 469.964539,377.348267 
	C466.555023,381.518799 470.948212,384.533783 471.000000,388.000000 
	C442.979095,388.000000 414.958221,388.000000 386.377502,387.603516 
	C384.817413,386.805542 383.819275,386.060760 382.816559,386.054565 
	C370.000793,385.975464 357.183868,385.952087 344.369049,386.088715 
	C343.239380,386.100769 342.122711,387.333984 341.000000,388.000000 
	C325.979095,388.000000 310.958221,388.000000 295.423706,387.628052 
	C292.700256,386.170959 290.486847,384.134460 288.281158,384.142761 
	C253.270920,384.274261 218.261215,384.632904 183.254013,385.126526 
	C181.822784,385.146729 180.417419,387.000488 179.000000,388.000000 
	C119.685234,388.000000 60.370476,388.000000 1.027856,388.000000 
	C1.027856,259.058960 1.027856,130.117889 1.027856,1.088418 
	C166.889053,1.088418 332.778168,1.088418 499.000000,1.088418 
	C499.000000,111.687340 499.000000,222.375015 498.620483,333.580444 
	C497.493347,335.214417 496.325439,336.245911 496.079803,337.463409 
	C495.438965,340.639801 495.512482,343.975677 494.726776,347.103668 
	C493.707520,351.161530 495.509613,352.174011 499.000000,352.000000 
z"/>
<path fill="#FFFFFF" opacity="1.000000" stroke="none" 
	d="
M471.468658,388.000000 
	C470.948212,384.533783 466.555023,381.518799 470.253326,377.207184 
	C471.052155,375.813141 471.526703,374.908417 472.299774,373.858032 
	C473.733643,372.143219 474.868927,370.574066 476.288391,368.868896 
	C477.716644,367.823181 478.860779,366.913422 480.344543,365.968781 
	C481.457062,364.957153 482.229889,363.980408 483.001343,363.001831 
	C483.000000,363.000000 483.003662,363.003204 483.265015,362.901611 
	C484.017914,362.535065 484.509460,362.270111 485.001038,362.005188 
	C486.490784,363.168396 487.913208,364.434967 489.491333,365.462372 
	C490.775360,366.298370 492.245941,366.847839 493.633820,367.524353 
	C494.064667,365.975830 494.495514,364.427307 495.029236,362.509094 
	C495.879456,362.877228 497.096741,363.404297 498.656982,363.965698 
	C499.000000,371.932068 499.000000,379.864136 499.000000,388.000000 
	C489.980133,388.000000 480.958710,388.000000 471.468658,388.000000 
z"/>
<path fill="#FFFFFF" opacity="1.000000" stroke="none" 
	d="
M179.468658,388.000000 
	C180.417419,387.000488 181.822784,385.146729 183.254013,385.126526 
	C218.261215,384.632904 253.270920,384.274261 288.281158,384.142761 
	C290.486847,384.134460 292.700256,386.170959 294.955017,387.628052 
	C256.645782,388.000000 218.291550,388.000000 179.468658,388.000000 
z"/>
<path fill="#FFFFFF" opacity="1.000000" stroke="none" 
	d="
M341.468658,388.000000 
	C342.122711,387.333984 343.239380,386.100769 344.369049,386.088715 
	C357.183868,385.952087 370.000793,385.975464 382.816559,386.054565 
	C383.819275,386.060760 384.817413,386.805542 385.908844,387.603516 
	C371.312439,388.000000 356.624878,388.000000 341.468658,388.000000 
z"/>
<path fill="#FFFFFF" opacity="1.000000" stroke="none" 
	d="
M499.000000,351.532043 
	C495.509613,352.174011 493.707520,351.161530 494.726776,347.103668 
	C495.512482,343.975677 495.438965,340.639801 496.079803,337.463409 
	C496.325439,336.245911 497.493347,335.214417 498.620483,334.049072 
	C499.000000,339.688049 499.000000,345.376068 499.000000,351.532043 
z"/>
<path fill="#61A527" opacity="1.000000" stroke="none" 
	d="
M72.051529,15.938175 
	C73.973907,15.653556 75.894928,15.131733 77.818871,15.120713 
	C98.928383,14.999810 120.038338,14.958540 141.962921,14.936977 
	C144.833694,15.363962 146.889725,15.749619 148.995972,16.402460 
	C151.589554,19.186804 154.132889,21.703964 157.046051,24.587149 
	C157.885391,22.025072 158.375305,20.529612 159.159729,19.051434 
	C160.160034,18.848770 160.865829,18.628826 161.638626,18.844540 
	C161.743668,21.444136 161.815048,23.608078 161.814941,25.772015 
	C161.810059,125.851021 161.797073,225.930023 161.801926,326.009033 
	C161.802032,327.996490 162.002594,329.983948 161.937500,332.234070 
	C161.963135,333.033783 162.160934,333.570831 162.293488,334.502686 
	C162.090729,338.008667 161.939896,341.119354 161.818680,344.231171 
	C161.602844,349.772583 161.404907,355.314758 160.982086,360.859985 
	C160.471222,360.892975 160.183609,360.951477 159.653183,361.133301 
	C158.939072,361.489532 158.473648,361.751282 158.004974,361.601776 
	C159.125244,356.437195 155.051132,354.579224 152.635468,351.927948 
	C150.590881,349.683990 149.484421,348.085388 151.973038,345.231598 
	C153.325455,343.680725 153.994980,340.952820 153.879578,338.814819 
	C153.559845,332.891083 152.093231,326.999023 152.085663,321.093170 
	C151.964279,226.319412 151.999496,131.545441 152.004440,36.771526 
	C152.004517,35.274063 151.856812,33.734287 152.142654,32.286228 
	C153.639191,24.704973 153.691711,24.663342 145.773376,22.815506 
	C143.699203,22.331474 141.529129,22.039145 139.402222,22.034098 
	C116.416756,21.979555 93.430702,21.929867 70.445908,22.065172 
	C66.343048,22.089327 62.247013,22.981110 58.144535,23.443031 
	C53.389042,23.978477 48.638248,24.644449 43.866726,24.888754 
	C42.613415,24.952923 41.290989,23.667334 40.381203,22.834791 
	C44.055923,22.444679 47.348923,22.063381 50.643818,22.046225 
	C53.464527,22.031536 55.176834,21.185316 55.466957,18.061237 
	C57.576130,18.045687 59.264252,18.051884 61.216743,18.322109 
	C64.251488,18.392139 67.044388,18.342920 69.778763,17.917503 
	C70.618675,17.786827 71.298439,16.626833 72.051529,15.938175 
z"/>
<path fill="#FCFCFD" opacity="1.000000" stroke="none" 
	d="
M472.001221,374.003662 
	C471.526703,374.908417 471.052155,375.813141 470.288818,376.858948 
	C468.300171,377.566589 466.075104,377.640411 464.996613,378.789917 
	C461.413483,382.608765 457.051117,383.145569 452.239288,383.027252 
	C435.789429,382.622711 419.336304,382.046631 402.885284,382.072601 
	C382.353943,382.105042 361.822815,382.633301 341.292877,383.016632 
	C327.005981,383.283417 312.551971,385.217285 298.470306,383.679871 
	C267.715881,380.322174 236.985321,382.917206 206.263657,382.134949 
	C197.041122,381.900116 187.748932,384.000214 178.543793,383.636292 
	C173.211227,383.425446 167.192459,386.417847 162.032791,381.166321 
	C160.757263,379.868103 156.046585,381.784058 152.968033,382.462921 
	C149.833084,383.154236 146.770706,384.169800 143.659225,384.976562 
	C143.034775,385.138519 142.332092,385.014099 141.666031,384.997986 
	C114.161995,384.332001 86.653709,383.791199 59.158459,382.864014 
	C54.786781,382.716553 50.473747,380.830078 46.401421,379.373352 
	C47.115887,378.996582 47.562534,378.994019 48.476799,378.992676 
	C83.132729,378.995056 117.321266,379.053436 151.508972,378.910675 
	C155.014313,378.896057 158.514618,377.677429 162.484833,377.014038 
	C219.967850,377.007080 276.983307,377.003540 334.279755,377.290466 
	C338.152557,378.052460 341.743256,378.923798 345.336365,378.933716 
	C382.092773,379.035370 418.850220,379.084015 455.605103,378.825745 
	C458.413635,378.806000 461.204987,376.339142 464.156860,374.701874 
	C465.869965,373.602844 467.430481,372.811707 469.048096,372.362549 
	C470.070526,373.137573 471.035858,373.570618 472.001221,374.003662 
z"/>
<path fill="#FEFAFC" opacity="1.000000" stroke="none" 
	d="
M487.465942,60.987648 
	C488.256683,58.867840 489.047424,56.748035 489.838074,54.628460 
	C494.359589,59.075031 494.666504,64.372581 493.525726,70.273560 
	C493.015045,72.915184 493.963898,75.807129 493.973297,78.586411 
	C494.027863,94.728600 494.000000,110.871071 494.000000,127.013443 
	C494.000000,158.554596 493.795258,190.097656 494.090454,221.636047 
	C494.228333,236.366196 495.796844,251.084473 495.886658,265.813202 
	C496.008179,285.737640 495.373688,305.667816 494.959351,325.593384 
	C494.880524,329.383240 494.455048,333.183838 493.890045,336.934357 
	C493.729156,338.002411 492.513000,338.911469 491.390381,339.571747 
	C490.994690,338.497375 490.989410,337.744720 490.979462,336.570251 
	C490.674408,333.195923 490.327423,330.247223 490.083282,327.290009 
	C489.555328,320.894653 489.080078,314.494934 488.281128,307.726624 
	C487.885498,305.698547 487.710876,304.040894 487.710327,302.383148 
	C487.695984,259.568604 487.730164,216.754044 487.691162,173.939560 
	C487.656860,136.288879 487.544098,98.638283 487.465942,60.987648 
z"/>
<path fill="#F8FEF7" opacity="1.000000" stroke="none" 
	d="
M11.992989,352.003693 
	C10.678043,351.073730 8.449427,350.330109 8.214861,349.179840 
	C7.426658,345.314545 7.046185,341.304565 7.043766,337.349609 
	C6.986689,244.045258 6.954171,150.740784 7.090621,57.436588 
	C7.100964,50.363895 7.913589,43.191628 9.349353,36.272331 
	C9.908241,33.578915 13.224873,31.457733 15.607203,29.394539 
	C14.285970,33.152519 11.924519,36.446262 11.190136,40.069775 
	C10.359810,44.166672 10.888908,48.563686 11.056590,52.821148 
	C11.099110,53.900700 12.013945,54.945896 12.718325,56.430271 
	C13.311545,59.281521 13.714393,61.709373 13.822552,64.497696 
	C13.403858,66.677994 13.171759,68.497795 13.171380,70.317650 
	C13.154142,153.248627 13.152570,236.179596 13.192150,319.110535 
	C13.192914,320.710449 13.706549,322.310059 13.673016,324.300140 
	C13.223603,329.621918 13.082073,334.553375 12.807410,339.809143 
	C12.447182,344.090210 12.220085,348.046936 11.992989,352.003693 
z"/>
<path fill="#8A0000" opacity="1.000000" stroke="none" 
	d="
M487.550598,60.519943 
	C487.544098,98.638283 487.656860,136.288879 487.691162,173.939560 
	C487.730164,216.754044 487.695984,259.568604 487.710327,302.383148 
	C487.710876,304.040894 487.885498,305.698547 487.904480,308.031433 
	C487.736359,319.139130 487.642822,329.571625 487.146271,339.915436 
	C486.472534,339.875549 486.201813,339.924316 485.689087,339.977356 
	C485.447021,339.981598 484.962799,340.001160 484.688538,339.746643 
	C484.566162,337.927429 484.668091,336.355896 484.881836,334.799744 
	C485.188873,332.564056 484.936737,330.811249 482.039459,330.600586 
	C482.035675,329.499634 482.042419,328.765564 482.423523,328.012543 
	C483.498871,327.286591 484.199921,326.579620 484.900940,325.872620 
	C483.950470,325.238586 483.000031,324.604553 482.037872,323.503876 
	C482.033203,233.034439 482.040283,143.031647 482.379211,53.018661 
	C483.764954,52.348534 484.818878,51.688606 486.385681,50.989719 
	C487.181122,50.756512 487.463715,50.562260 487.746277,50.368004 
	C487.709259,53.596081 487.672241,56.824162 487.550598,60.519943 
z"/>
<path fill="#F1F1F1" opacity="1.000000" stroke="none" 
	d="
M148.945740,16.135277 
	C146.889725,15.749619 144.833694,15.363962 142.382782,14.717875 
	C143.713745,13.942467 145.439606,13.427488 147.946487,12.922750 
	C150.488998,12.616920 152.250504,12.300852 154.011993,11.984783 
	C200.095139,11.987890 246.178299,11.990849 292.261444,11.994223 
	C302.492126,11.994971 312.722778,11.997546 322.953461,11.998546 
	C327.024750,11.998942 331.096008,11.997343 335.582825,12.399176 
	C335.997650,13.869706 335.997009,14.937715 335.528137,16.006426 
	C280.649384,16.006502 226.238907,15.993670 171.828491,16.048180 
	C169.563354,16.050449 167.298828,16.681858 164.721405,17.015785 
	C163.783539,17.004843 163.158295,16.998280 162.203491,16.806402 
	C160.803818,16.249884 159.733704,15.878682 158.238815,15.411491 
	C154.857956,15.588762 151.901840,15.862020 148.945740,16.135277 
z"/>
<path fill="#9A0202" opacity="1.000000" stroke="none" 
	d="
M380.130005,16.519886 
	C386.391205,16.353662 392.651428,16.111528 398.913696,16.037064 
	C411.820526,15.883592 424.728394,15.819632 438.341492,15.704390 
	C444.107452,15.986341 449.167755,16.282742 454.153809,16.957943 
	C454.795441,17.783268 455.511353,18.229792 456.538086,18.733009 
	C457.350525,19.152113 457.852112,19.514523 458.055359,20.027018 
	C457.499481,20.767988 457.241974,21.358877 456.516937,21.961864 
	C430.704346,21.961645 405.359283,21.949326 380.011200,21.488073 
	C380.048798,19.532721 380.089417,18.026304 380.130005,16.519886 
z"/>
<path fill="#F8FEF7" opacity="1.000000" stroke="none" 
	d="
M48.009178,378.991455 
	C47.562534,378.994019 47.115887,378.996582 46.334240,379.000183 
	C43.629612,379.000366 41.259987,378.999542 38.391365,378.657288 
	C35.594666,376.877716 33.296967,375.439545 30.999266,374.001373 
	C29.087463,372.688232 27.319214,371.057556 24.830120,373.289642 
	C24.444637,373.635376 21.713060,372.499756 21.647991,371.882446 
	C21.247299,368.081146 19.879930,365.119690 16.661240,362.819641 
	C15.665943,362.108368 15.582434,360.121155 15.378983,358.382019 
	C16.726904,358.383148 17.777304,358.720398 19.002552,359.327057 
	C20.112602,360.737396 21.047800,361.878326 21.986717,363.368713 
	C22.994322,364.484039 23.998203,365.249878 25.347675,366.053833 
	C28.815174,368.355713 31.937080,370.619507 35.090527,373.253784 
	C36.998146,376.274902 39.256489,376.929871 42.367638,374.956238 
	C43.547825,374.389069 44.380741,373.811340 45.465588,373.131378 
	C46.380650,372.769623 47.043789,372.510162 47.941418,372.408081 
	C48.443314,372.823639 48.710720,373.081818 48.896759,373.638733 
	C48.546654,375.622131 48.277916,377.306793 48.009178,378.991455 
z"/>
<path fill="#FFEBEA" opacity="1.000000" stroke="none" 
	d="
M454.228058,16.579144 
	C449.167755,16.282742 444.107452,15.986341 438.569702,15.370764 
	C436.874176,14.970636 435.656067,14.889683 434.437927,14.808730 
	C434.417938,14.397606 434.397919,13.986483 434.377930,13.575358 
	C442.928528,12.992512 451.479126,12.409665 460.029724,11.826818 
	C460.120850,11.147528 460.211975,10.468238 460.303101,9.788948 
	C463.200775,11.937518 466.098450,14.086088 468.997742,16.617552 
	C468.999390,17.000446 468.977783,17.021196 468.648743,16.871391 
	C465.868347,15.688937 463.458252,13.322944 460.849304,16.727253 
	C460.821930,16.963505 460.924286,17.428032 460.739746,17.286369 
	C460.555237,17.144709 460.090057,17.137243 459.754425,16.926216 
	C458.379761,16.673340 457.340759,16.631489 455.961365,16.456524 
	C455.156677,16.408655 454.692352,16.493898 454.228058,16.579144 
z"/>
<path fill="#FFEBEA" opacity="1.000000" stroke="none" 
	d="
M469.010498,16.989401 
	C475.337738,17.387407 481.541687,20.296217 483.996887,25.209972 
	C486.302399,29.824146 491.589722,33.892578 489.625610,40.634087 
	C488.834412,41.041008 488.392761,41.037056 487.777588,40.755856 
	C486.990234,40.396698 486.376404,40.314793 485.448425,40.249603 
	C485.016663,40.439941 484.899048,40.613556 484.745789,40.399204 
	C484.321167,38.776825 483.932190,37.542419 483.726318,35.948750 
	C483.432709,35.078751 482.955994,34.568012 482.429474,33.956722 
	C482.379700,33.856174 482.322876,33.639103 482.533508,33.342617 
	C482.582855,32.355751 482.421600,31.665367 482.466949,30.732761 
	C481.745728,29.350529 480.817902,28.210518 479.610413,26.906195 
	C477.544617,25.185843 475.758514,23.629803 473.937500,21.730974 
	C473.196747,20.972681 472.490875,20.557177 471.449402,20.113655 
	C470.443420,20.028286 469.773010,19.970934 469.030060,19.699093 
	C468.957489,19.484602 468.804382,19.058413 469.025208,18.952244 
	C469.156616,18.237782 469.067200,17.629490 468.977783,17.021198 
	C468.977783,17.021196 468.999390,17.000446 469.010498,16.989401 
z"/>
<path fill="#F1FCEA" opacity="1.000000" stroke="none" 
	d="
M12.527951,56.006878 
	C12.013945,54.945896 11.099110,53.900700 11.056590,52.821148 
	C10.888908,48.563686 10.359810,44.166672 11.190136,40.069775 
	C11.924519,36.446262 14.285970,33.152519 15.968502,29.360729 
	C17.096138,28.691833 18.184341,28.375385 19.990728,28.029812 
	C21.459173,28.004770 22.209433,28.008858 22.892662,28.337032 
	C21.873491,30.092331 20.921354,31.523546 19.607590,32.976967 
	C16.089371,34.252743 14.566137,36.534008 14.554646,40.150536 
	C13.950098,41.927776 13.656061,43.516296 13.231643,45.351486 
	C13.386534,46.055489 13.671805,46.512821 13.788037,47.290833 
	C13.653979,48.086700 13.688962,48.561890 13.554611,49.269341 
	C13.492501,49.660408 13.599727,49.819221 13.564009,50.392921 
	C13.123362,52.540829 12.825657,54.273853 12.527951,56.006878 
z"/>
<path fill="#E9FEDE" opacity="1.000000" stroke="none" 
	d="
M18.827702,359.057617 
	C17.777304,358.720398 16.726904,358.383148 15.345066,358.016205 
	C15.013628,357.986481 15.002403,357.999298 15.001249,357.642822 
	C14.342543,356.511688 13.684991,355.737000 13.027441,354.962341 
	C12.858319,354.109528 12.689195,353.256683 12.256530,352.203796 
	C12.220085,348.046936 12.447182,344.090210 13.089330,339.841278 
	C13.913194,339.944214 14.322005,340.339294 14.613995,341.093872 
	C15.086297,342.812317 15.675421,344.171265 16.239502,345.943085 
	C16.253807,346.903534 16.293154,347.451111 16.203077,348.326050 
	C16.810406,349.418121 17.547159,350.182922 18.246902,351.196259 
	C18.483206,351.608063 18.756521,351.771301 19.016335,351.964935 
	C19.002832,351.995300 19.062853,351.966705 19.036407,352.342102 
	C19.372223,354.119781 19.734488,355.522064 19.957531,357.200623 
	C19.488106,358.003815 19.157906,358.530731 18.827702,359.057617 
z"/>
<path fill="#9A0202" opacity="1.000000" stroke="none" 
	d="
M362.998901,16.597733 
	C365.706329,16.446976 368.413696,16.296219 371.692200,16.705124 
	C374.225891,18.753408 379.064941,16.716671 377.521088,21.954418 
	C372.376312,21.958786 367.695801,21.942385 363.011719,21.485416 
	C363.005066,19.562479 363.001984,18.080105 362.998901,16.597733 
z"/>
<path fill="#9A0202" opacity="1.000000" stroke="none" 
	d="
M344.066528,14.847761 
	C348.145264,15.274811 352.224030,15.701860 356.651123,16.818836 
	C356.994629,18.981478 356.989838,20.454195 356.537231,21.948776 
	C353.394165,21.975088 350.698975,21.979538 347.937866,21.631012 
	C346.246460,20.516308 344.620911,19.754585 343.005005,18.671429 
	C343.010132,17.711964 343.005615,17.073935 343.296661,16.058460 
	C343.750336,15.403265 343.908417,15.125513 344.066528,14.847761 
z"/>
<path fill="#FFEBEA" opacity="1.000000" stroke="none" 
	d="
M490.984131,336.992035 
	C490.989410,337.744720 490.994690,338.497375 491.000305,339.625122 
	C490.999908,340.749786 490.999115,341.499390 491.001282,343.033875 
	C490.006317,347.213715 489.008392,350.608704 487.789948,354.112244 
	C487.294281,354.421234 487.105682,354.683777 486.674774,355.032654 
	C485.305450,355.383514 484.264984,355.710266 482.759521,355.954529 
	C481.984619,355.825684 481.674744,355.779358 481.406982,355.393494 
	C482.175507,353.930481 482.901978,352.806946 483.990295,351.712524 
	C488.399384,348.787262 488.912079,344.434387 489.034851,339.578796 
	C489.689270,338.486115 490.336700,337.739075 490.984131,336.992035 
z"/>
<path fill="#F8FEF7" opacity="1.000000" stroke="none" 
	d="
M48.995270,11.961075 
	C51.022663,8.101626 54.417835,10.058221 57.066525,10.484865 
	C59.097549,10.812016 60.885113,12.650617 62.896225,14.498037 
	C63.046856,15.420650 63.082218,15.662226 62.719540,15.613148 
	C57.883148,15.064898 53.444805,14.807305 48.875942,14.353041 
	C48.828709,13.424605 48.911991,12.692841 48.995270,11.961075 
z"/>
<path fill="#F1FCEA" opacity="1.000000" stroke="none" 
	d="
M23.028637,21.022717 
	C23.944326,20.314240 24.805407,19.516623 25.786816,18.915426 
	C27.982527,17.570370 30.143475,16.101908 32.494827,15.095486 
	C35.078651,13.989563 37.860245,13.345714 40.776253,13.076820 
	C40.979973,14.078296 40.963108,14.503489 40.593113,14.991201 
	C37.483932,16.360918 34.727886,17.668114 31.585278,18.988649 
	C28.475357,19.675564 25.751997,20.349140 23.028637,21.022717 
z"/>
<path fill="#DBF7CA" opacity="1.000000" stroke="none" 
	d="
M23.020088,21.017654 
	C25.751997,20.349140 28.475357,19.675564 31.588556,19.381792 
	C32.009159,20.546303 32.039925,21.331009 31.971849,22.346603 
	C31.581039,22.715431 31.289070,22.853371 30.749805,22.890713 
	C30.335976,22.852915 30.169441,22.915714 29.748877,23.033428 
	C29.158964,23.440042 28.823082,23.791740 28.136950,24.120369 
	C27.201471,24.408520 26.616240,24.719740 25.749310,25.125778 
	C24.991785,25.827145 24.515957,26.433695 23.822939,27.156307 
	C23.351011,27.484867 23.135658,27.731724 22.959694,28.012945 
	C22.209433,28.008858 21.459173,28.004770 20.332567,28.001059 
	C19.978701,27.261555 20.001177,26.521679 20.363281,25.352577 
	C21.475601,23.624363 22.248295,22.325375 23.020987,21.026384 
	C23.020987,21.026384 23.011539,21.012594 23.020088,21.017654 
z"/>
<path fill="#64A433" opacity="1.000000" stroke="none" 
	d="
M71.681747,15.629030 
	C71.298439,16.626833 70.618675,17.786827 69.778763,17.917503 
	C67.044388,18.342920 64.251488,18.392139 61.357006,18.092741 
	C61.861130,17.034163 62.489357,16.468983 63.117584,15.903802 
	C63.082218,15.662226 63.046856,15.420650 62.984341,14.813290 
	C65.742119,14.738298 68.527046,15.029091 71.681747,15.629030 
z"/>
<path fill="#A20100" opacity="1.000000" stroke="none" 
	d="
M356.985046,21.926910 
	C356.989838,20.454195 356.994629,18.981478 356.999207,17.061155 
	C358.739166,16.464573 360.479370,16.315598 362.609222,16.382175 
	C363.001984,18.080105 363.005066,19.562479 362.581299,21.511063 
	C360.431305,21.960485 358.708191,21.943699 356.985046,21.926910 
z"/>
<path fill="#FFFFFF" opacity="1.000000" stroke="none" 
	d="
M487.003662,355.008545 
	C487.105682,354.683777 487.294281,354.421234 488.163391,354.111481 
	C489.504913,354.001404 490.252472,354.000702 491.000000,354.000000 
	C491.468903,355.294556 491.937744,356.589142 492.406616,357.883728 
	C490.809570,358.342682 489.212524,358.801636 487.307770,358.731018 
	C487.001251,357.137115 487.002472,356.072845 487.003662,355.008545 
z"/>
<path fill="#FEFAFC" opacity="1.000000" stroke="none" 
	d="
M491.153625,353.647583 
	C490.252472,354.000702 489.504913,354.001404 488.383911,354.002869 
	C489.008392,350.608704 490.006317,347.213715 491.010071,343.408295 
	C491.641144,344.569275 492.754211,346.137421 492.764801,347.712982 
	C492.777283,349.570343 491.835358,351.434143 491.153625,353.647583 
z"/>
<path fill="#FFEBEA" opacity="1.000000" stroke="none" 
	d="
M344.030396,14.534177 
	C343.908417,15.125513 343.750336,15.403265 343.152954,15.682344 
	C342.586609,15.447664 342.459564,15.211657 342.232117,15.074567 
	C341.769623,15.299721 341.407593,15.425958 341.037140,15.752329 
	C341.028748,15.952463 340.629822,15.989358 340.245148,16.024586 
	C338.572418,16.041784 337.284393,16.023754 335.996338,16.005722 
	C335.997009,14.937715 335.997650,13.869706 335.997314,12.401230 
	C338.662323,12.740705 341.328278,13.480649 344.030396,14.534177 
z"/>
<path fill="#A20100" opacity="1.000000" stroke="none" 
	d="
M377.985352,21.933649 
	C379.064941,16.716671 374.225891,18.753408 372.026611,16.919476 
	C374.389771,16.359480 376.989685,16.144793 379.859802,16.224995 
	C380.089417,18.026304 380.048798,19.532721 379.673096,21.508680 
	C378.887146,21.963364 378.436249,21.948507 377.985352,21.933649 
z"/>
<path fill="#D49A9D" opacity="1.000000" stroke="none" 
	d="
M488.044128,50.405247 
	C487.463715,50.562260 487.181122,50.756512 486.398010,50.545128 
	C486.077026,48.391609 486.256592,46.643726 486.774811,44.882328 
	C488.002167,44.958801 488.890839,45.048794 489.779510,45.138786 
	C489.300323,46.906689 488.821136,48.674587 488.044128,50.405247 
z"/>
<path fill="#FCFCFD" opacity="1.000000" stroke="none" 
	d="
M31.005457,374.382141 
	C33.296967,375.439545 35.594666,376.877716 37.947372,378.657349 
	C35.224339,378.325836 31.596165,379.055939 31.005457,374.382141 
z"/>
<path fill="#F8FEF7" opacity="1.000000" stroke="none" 
	d="
M153.931107,11.615848 
	C152.250504,12.300852 150.488998,12.616920 148.339661,12.891943 
	C148.798492,8.199628 151.280609,9.562388 153.931107,11.615848 
z"/>
<path fill="#E8C2C7" opacity="1.000000" stroke="none" 
	d="
M489.859802,44.735863 
	C488.890839,45.048794 488.002167,44.958801 486.593323,44.937241 
	C486.073181,45.005665 485.751282,45.201374 485.917664,44.829792 
	C486.084167,43.650196 486.084259,42.842178 486.368591,42.031235 
	C487.085571,41.696568 487.518341,41.364834 487.951111,41.033104 
	C488.392761,41.037056 488.834412,41.041008 489.605713,41.063984 
	C489.936951,42.166321 489.938507,43.249630 489.859802,44.735863 
z"/>
<path fill="#FEFAFC" opacity="1.000000" stroke="none" 
	d="
M486.674805,355.032654 
	C487.002472,356.072845 487.001251,357.137115 487.000000,358.600708 
	C486.556946,359.000031 486.113861,359.000061 485.012329,358.998871 
	C483.919098,358.996765 483.484344,358.995850 483.036011,358.994385 
	C483.022430,358.993835 483.002441,359.000000 483.012421,358.628235 
	C483.089783,357.516663 483.157166,356.776855 483.224548,356.037048 
	C484.264984,355.710266 485.305450,355.383514 486.674805,355.032654 
z"/>
<path fill="#F1FCEA" opacity="1.000000" stroke="none" 
	d="
M48.634171,11.971224 
	C48.911991,12.692841 48.828709,13.424605 48.605698,14.574085 
	C47.780056,15.070398 47.094135,15.148995 46.098858,15.076975 
	C45.571938,14.853645 45.354378,14.780934 45.107292,14.409887 
	C45.052078,13.711369 45.026394,13.311185 45.000713,12.911001 
	C46.091499,12.601126 47.182285,12.291249 48.634171,11.971224 
z"/>
<path fill="#D8F1C7" opacity="1.000000" stroke="none" 
	d="
M44.601402,12.937735 
	C45.026394,13.311185 45.052078,13.711369 44.694523,14.505704 
	C43.189606,14.909466 42.067928,14.919074 40.946247,14.928682 
	C40.963108,14.503489 40.979973,14.078296 40.999626,13.334328 
	C42.068974,12.998525 43.135532,12.981497 44.601402,12.937735 
z"/>
<path fill="#F1FCEA" opacity="1.000000" stroke="none" 
	d="
M22.679834,21.064354 
	C22.248295,22.325375 21.475601,23.624363 20.370060,24.982555 
	C20.804369,23.728615 21.571526,22.415468 22.679834,21.064354 
z"/>
<path fill="#FEF5F6" opacity="1.000000" stroke="none" 
	d="
M483.049622,358.994934 
	C483.484344,358.995850 483.919098,358.996765 484.680023,358.998871 
	C485.004608,359.751251 485.002991,360.502472 485.001221,361.629425 
	C484.509460,362.270111 484.017914,362.535065 483.263733,362.500732 
	C483.017303,361.132629 483.033447,360.063782 483.049622,358.994934 
z"/>
<path fill="#F8FEF7" opacity="1.000000" stroke="none" 
	d="
M13.042318,355.288361 
	C13.684991,355.737000 14.342543,356.511688 15.006666,357.638580 
	C14.361226,357.198669 13.709212,356.406525 13.042318,355.288361 
z"/>
<path fill="#FFEBEA" opacity="1.000000" stroke="none" 
	d="
M483.036011,358.994385 
	C483.033447,360.063782 483.017303,361.132629 483.002380,362.602356 
	C483.003662,363.003204 483.000000,363.000000 482.660767,363.034668 
	C481.549316,364.047455 480.777069,365.025543 480.004883,366.003662 
	C478.860779,366.913422 477.716644,367.823181 475.916443,368.868744 
	C473.170563,370.009888 471.080780,371.015228 468.990967,372.020569 
	C467.430481,372.811707 465.869965,373.602844 463.739319,374.699036 
	C461.777802,375.001770 460.386475,374.999512 458.994751,374.564758 
	C458.958130,373.265991 458.921875,372.399750 459.023010,371.336304 
	C459.406586,370.734863 459.652802,370.330627 460.356140,370.031372 
	C462.763397,369.640717 464.713501,369.145081 467.009949,368.796448 
	C468.630310,368.037964 469.904297,367.132477 471.433594,366.011902 
	C471.966522,365.211578 472.244171,364.626282 472.736816,364.158020 
	C473.548370,364.811401 474.144897,365.347809 474.741455,365.884186 
	C475.190918,364.671326 475.640381,363.458496 476.090881,361.898041 
	C477.109833,360.718933 478.127747,359.887451 479.530701,359.075867 
	C480.944672,359.063843 481.973572,359.031921 483.002441,359.000000 
	C483.002441,359.000000 483.022430,358.993835 483.036011,358.994385 
z"/>
<path fill="#FEF5F6" opacity="1.000000" stroke="none" 
	d="
M469.048096,372.362549 
	C471.080780,371.015228 473.170563,370.009888 475.632294,369.004700 
	C474.868927,370.574066 473.733643,372.143219 472.299774,373.858032 
	C471.035858,373.570618 470.070526,373.137573 469.048096,372.362549 
z"/>
<path fill="#FEF5F6" opacity="1.000000" stroke="none" 
	d="
M480.344543,365.968750 
	C480.777069,365.025543 481.549316,364.047455 482.662109,363.036499 
	C482.229889,363.980408 481.457062,364.957153 480.344543,365.968750 
z"/>
<path fill="#5EAA23" opacity="1.000000" stroke="none" 
	d="
M40.000305,23.001593 
	C41.290989,23.667334 42.613415,24.952923 43.866726,24.888754 
	C48.638248,24.644449 53.389042,23.978477 58.144535,23.443031 
	C62.247013,22.981110 66.343048,22.089327 70.445908,22.065172 
	C93.430702,21.929867 116.416756,21.979555 139.402222,22.034098 
	C141.529129,22.039145 143.699203,22.331474 145.773376,22.815506 
	C153.691711,24.663342 153.639191,24.704973 152.142654,32.286228 
	C151.856812,33.734287 152.004517,35.274063 152.004440,36.771526 
	C151.999496,131.545441 151.964279,226.319412 152.085663,321.093170 
	C152.093231,326.999023 153.559845,332.891083 153.879578,338.814819 
	C153.994980,340.952820 153.325455,343.680725 151.973038,345.231598 
	C149.484421,348.085388 150.590881,349.683990 152.635468,351.927948 
	C155.051132,354.579224 159.125244,356.437195 158.004318,361.848145 
	C158.006912,362.505829 158.000885,362.998779 157.615372,363.042603 
	C152.072250,364.056183 146.903824,365.913452 141.758804,365.850739 
	C109.724556,365.460449 77.637863,367.668304 45.651657,364.194916 
	C44.513268,364.071320 43.220490,365.369446 41.583336,366.004333 
	C39.779716,365.999207 38.392422,365.994720 36.968391,365.644043 
	C31.287645,359.531921 25.643637,353.765961 19.999866,347.625427 
	C20.000809,346.501770 20.001511,345.752716 20.001106,345.001831 
	C20.000000,345.000000 20.003336,345.002411 20.352613,344.963867 
	C21.360228,344.118866 22.551229,343.337769 22.591017,342.501862 
	C22.862576,336.796814 22.984327,331.080231 22.985868,325.367340 
	C23.006704,248.119720 22.999144,170.872086 23.006426,93.624466 
	C23.006565,92.129051 23.110577,90.633896 23.150255,89.138199 
	C23.403761,79.582092 23.868557,70.025032 23.831606,60.469959 
	C23.804520,53.465313 21.307142,45.894798 30.504738,41.764469 
	C25.717020,38.169262 26.664923,35.166218 30.369585,31.917566 
	C31.489426,30.935572 31.486805,28.673553 32.156513,26.689564 
	C34.876564,25.254709 37.438435,24.128151 40.000305,23.001593 
z"/>
<path fill="#F4FEF0" opacity="1.000000" stroke="none" 
	d="
M162.533051,16.991716 
	C163.158295,16.998280 163.783539,17.004843 164.715515,17.419781 
	C165.681702,24.136005 166.908768,30.443207 166.915955,36.751797 
	C167.034622,140.789627 167.049759,244.827713 166.889389,348.865417 
	C166.878433,355.966919 171.401657,362.776703 167.626236,369.998199 
	C165.831207,369.769897 164.409943,369.540985 162.978470,369.071716 
	C162.912186,368.485718 162.719040,368.255798 162.301025,367.728577 
	C162.035492,366.211060 161.857742,365.106567 161.799713,363.595276 
	C161.679428,362.411194 161.439453,361.633881 161.199478,360.856598 
	C161.404907,355.314758 161.602844,349.772583 161.818680,344.231171 
	C161.939896,341.119354 162.090729,338.008667 162.630737,334.424286 
	C162.725388,333.291199 162.417526,332.631287 162.109650,331.971405 
	C162.002594,329.983948 161.802032,327.996490 161.801926,326.009033 
	C161.797073,225.930023 161.810059,125.851021 161.814941,25.772015 
	C161.815048,23.608078 161.743668,21.444136 161.913391,18.511154 
	C162.258453,17.491978 162.395752,17.241848 162.533051,16.991716 
z"/>
<path fill="#64A433" opacity="1.000000" stroke="none" 
	d="
M40.381203,22.834791 
	C37.438435,24.128151 34.876564,25.254709 31.815809,26.740524 
	C28.195763,30.399406 25.074600,33.699032 21.948605,36.624825 
	C23.241678,33.451832 24.539585,30.652679 26.074471,27.760994 
	C26.491154,27.390644 26.670858,27.112827 27.133032,26.772898 
	C27.772734,25.855003 28.129967,24.999222 28.487198,24.143438 
	C28.823082,23.791740 29.158964,23.440042 29.802998,23.233421 
	C30.406464,23.249435 30.701782,23.120373 30.997101,22.991310 
	C31.289070,22.853371 31.581039,22.715431 32.338543,22.277710 
	C36.538864,20.665779 40.273655,19.353624 44.266533,18.325850 
	C46.350071,18.743336 48.175518,18.876444 50.201405,19.243551 
	C51.949860,19.012697 53.497883,18.547840 55.045902,18.082985 
	C55.176834,21.185316 53.464527,22.031536 50.643818,22.046225 
	C47.348923,22.063381 44.055923,22.444679 40.381203,22.834791 
z"/>
<path fill="#65A42F" opacity="1.000000" stroke="none" 
	d="
M148.995972,16.402460 
	C151.901840,15.862020 154.857956,15.588762 158.243423,15.758377 
	C158.736938,17.145550 158.801071,18.089849 158.865219,19.034149 
	C158.375305,20.529612 157.885391,22.025072 157.046051,24.587149 
	C154.132889,21.703964 151.589554,19.186804 148.995972,16.402460 
z"/>
<path fill="#69A635" opacity="1.000000" stroke="none" 
	d="
M55.466957,18.061237 
	C53.497883,18.547840 51.949860,19.012697 50.169502,18.932329 
	C48.972797,17.581247 48.008430,16.775389 46.912601,15.760479 
	C46.781139,15.551428 46.408218,15.227593 46.408218,15.227592 
	C47.094135,15.148995 47.780056,15.070398 48.736214,14.770756 
	C53.444805,14.807305 57.883148,15.064898 62.719540,15.613148 
	C62.489357,16.468983 61.861130,17.034163 61.092636,17.828712 
	C59.264252,18.051884 57.576130,18.045687 55.466957,18.061237 
z"/>
<path fill="#A9D489" opacity="1.000000" stroke="none" 
	d="
M159.159729,19.051434 
	C158.801071,18.089849 158.736938,17.145550 158.668182,15.854364 
	C159.733704,15.878682 160.803818,16.249884 162.203491,16.806402 
	C162.395752,17.241848 162.258453,17.491978 161.846375,18.075495 
	C160.865829,18.628826 160.160034,18.848770 159.159729,19.051434 
z"/>
<path fill="#79B04B" opacity="1.000000" stroke="none" 
	d="
M160.982086,360.859985 
	C161.439453,361.633881 161.679428,362.411194 161.579865,363.699951 
	C160.802353,364.432953 160.364380,364.654510 159.902084,364.679352 
	C159.877762,364.482605 159.796753,364.094543 159.845169,363.713928 
	C159.896347,362.568512 159.899109,361.803680 159.901871,361.038849 
	C160.183609,360.951477 160.471222,360.892975 160.982086,360.859985 
z"/>
<path fill="#6CA146" opacity="1.000000" stroke="none" 
	d="
M159.653183,361.133301 
	C159.899109,361.803680 159.896347,362.568512 159.576736,363.658966 
	C158.840225,363.655975 158.420547,363.327393 158.000885,362.998779 
	C158.000885,362.998779 158.006912,362.505829 158.007568,362.259460 
	C158.473648,361.751282 158.939072,361.489532 159.653183,361.133301 
z"/>
<path fill="#D8F1C7" opacity="1.000000" stroke="none" 
	d="
M161.937500,332.234070 
	C162.417526,332.631287 162.725388,333.291199 162.695984,334.029480 
	C162.160934,333.570831 161.963135,333.033783 161.937500,332.234070 
z"/>
<path fill="#FEF5F6" opacity="1.000000" stroke="none" 
	d="
M458.995117,374.997253 
	C460.386475,374.999512 461.777802,375.001770 463.586731,375.006897 
	C461.204987,376.339142 458.413635,378.806000 455.605103,378.825745 
	C418.850220,379.084015 382.092773,379.035370 345.336365,378.933716 
	C341.743256,378.923798 338.152557,378.052460 334.280334,376.862640 
	C333.996735,374.432648 333.993469,372.720917 334.390839,371.005798 
	C335.859100,371.001709 336.926788,371.001099 338.220581,371.002625 
	C338.446716,371.004791 338.898438,371.016205 338.922852,371.362091 
	C339.274506,372.668396 339.601776,373.628784 339.929016,374.589203 
	C340.303955,374.167511 340.678864,373.745850 341.296051,373.171570 
	C341.773346,372.580902 342.008362,372.142792 342.692444,371.709290 
	C375.622528,371.725769 408.103485,371.732086 440.584473,371.763123 
	C442.571564,371.765015 444.558472,371.962616 446.576691,372.402710 
	C448.067017,373.127747 449.526123,373.519257 451.244080,374.220398 
	C454.000305,374.685791 456.497711,374.841522 458.995117,374.997253 
z"/>
<path fill="#F2F2F2" opacity="1.000000" stroke="none" 
	d="
M333.990234,371.009216 
	C333.993469,372.720917 333.996735,374.432648 333.999390,376.572174 
	C276.983307,377.003540 219.967850,377.007080 162.312683,376.754333 
	C161.148499,375.480682 160.624023,374.463257 160.021179,373.328796 
	C159.942810,373.211731 159.931763,372.933838 160.257111,373.000244 
	C160.997696,371.993042 161.412918,370.919434 161.848953,369.630127 
	C161.869766,369.414459 162.066010,369.028076 162.298706,369.092438 
	C162.531418,369.156799 162.988693,369.312042 162.988693,369.312073 
	C164.409943,369.540985 165.831207,369.769897 168.051178,369.999878 
	C177.237625,370.667358 185.626846,371.919464 194.012817,371.898132 
	C228.706360,371.809875 263.398651,371.307037 298.091949,371.020142 
	C310.057251,370.921204 322.024109,371.007538 333.990234,371.009216 
z"/>
<path fill="#F1FCEA" opacity="1.000000" stroke="none" 
	d="
M160.099564,373.445801 
	C160.624023,374.463257 161.148499,375.480682 161.845108,376.757782 
	C158.514618,377.677429 155.014313,378.896057 151.508972,378.910675 
	C117.321266,379.053436 83.132729,378.995056 48.476799,378.992676 
	C48.277916,377.306793 48.546654,375.622131 49.326725,373.419891 
	C80.775871,372.871765 111.713745,372.862854 142.651367,372.768982 
	C145.098022,372.761566 147.542892,372.163971 150.396118,372.024719 
	C152.566010,372.137878 154.328369,372.066956 156.097839,372.177734 
	C156.104950,372.359436 156.418839,372.530365 156.418839,372.530365 
	C156.418839,372.530365 156.611755,372.230286 157.013092,372.466522 
	C158.309464,372.950439 159.204514,373.198120 160.099564,373.445801 
z"/>
<path fill="#F9E1E6" opacity="1.000000" stroke="none" 
	d="
M490.979462,336.570251 
	C490.336700,337.739075 489.689270,338.486115 488.779053,339.520691 
	C488.193939,339.873535 487.871613,339.938843 487.549255,340.004150 
	C487.642822,329.571625 487.736359,319.139130 488.206604,308.401825 
	C489.080078,314.494934 489.555328,320.894653 490.083282,327.290009 
	C490.327423,330.247223 490.674408,333.195923 490.979462,336.570251 
z"/>
<path fill="#64A433" opacity="1.000000" stroke="none" 
	d="
M16.264549,345.530243 
	C15.675421,344.171265 15.086297,342.812317 14.775091,340.837463 
	C19.842249,336.355621 19.294500,328.021851 13.980898,323.909821 
	C13.706549,322.310059 13.192914,320.710449 13.192150,319.110535 
	C13.152570,236.179596 13.154142,153.248627 13.171380,70.317650 
	C13.171759,68.497795 13.403858,66.677994 14.108025,64.526062 
	C15.411086,65.941338 16.133989,67.688705 16.856890,69.436073 
	C17.408907,69.351967 17.960922,69.267860 18.512939,69.183762 
	C17.814980,64.574150 17.171379,59.955311 16.391474,55.359604 
	C16.092613,53.598534 15.099317,52.495506 17.028273,50.336239 
	C18.860029,48.285774 18.403887,44.191437 18.951250,40.630501 
	C18.860779,39.785927 18.772839,39.306694 18.746077,38.589996 
	C18.807253,38.352531 18.907885,37.872528 19.284622,37.903728 
	C20.417009,37.912746 21.172659,37.890568 21.954735,38.333481 
	C21.321030,52.114044 20.114548,65.428474 20.089117,78.745163 
	C19.919640,167.497314 20.002478,256.249939 20.003336,345.002411 
	C20.003336,345.002411 20.000000,345.000000 19.672123,345.000916 
	C18.317682,345.177979 17.291117,345.354095 16.264549,345.530243 
z"/>
<path fill="#6CA146" opacity="1.000000" stroke="none" 
	d="
M18.953785,40.995838 
	C18.403887,44.191437 18.860029,48.285774 17.028273,50.336239 
	C15.099317,52.495506 16.092613,53.598534 16.391474,55.359604 
	C17.171379,59.955311 17.814980,64.574150 18.512939,69.183762 
	C17.960922,69.267860 17.408907,69.351967 16.856890,69.436073 
	C16.133989,67.688705 15.411086,65.941338 14.402712,64.165604 
	C13.714393,61.709373 13.311545,59.281521 12.718325,56.430271 
	C12.825657,54.273853 13.123362,52.540829 13.641949,50.290276 
	C13.962872,49.501060 13.916576,49.255840 13.723945,49.037083 
	C13.688962,48.561890 13.653979,48.086700 14.010004,47.254364 
	C14.641346,46.333698 14.881682,45.770176 15.154444,45.187969 
	C15.186869,45.169281 15.229447,45.107723 15.533642,45.025005 
	C16.876486,43.626804 17.915136,42.311321 18.953785,40.995838 
z"/>
<path fill="#6CA146" opacity="1.000000" stroke="none" 
	d="
M13.673016,324.300140 
	C19.294500,328.021851 19.842249,336.355621 14.891914,340.478027 
	C14.322005,340.339294 13.913194,339.944214 13.222462,339.516968 
	C13.082073,334.553375 13.223603,329.621918 13.673016,324.300140 
z"/>
<path fill="#C51817" opacity="1.000000" stroke="none" 
	d="
M377.521088,21.954418 
	C378.436249,21.948507 378.887146,21.963364 379.676147,21.957615 
	C405.359283,21.949326 430.704346,21.961645 456.671631,22.283447 
	C461.196289,24.394670 465.098755,26.196409 469.302979,28.147209 
	C472.048981,30.543297 474.493225,32.790325 477.111969,35.380150 
	C478.218719,39.421631 478.023163,43.815300 482.852783,45.379715 
	C482.478119,48.173126 482.262726,50.600994 482.047363,53.028862 
	C482.040283,143.031647 482.033203,233.034439 482.013977,323.909912 
	C482.017609,325.865570 482.033386,326.948547 482.049164,328.031525 
	C482.042419,328.765564 482.035675,329.499634 482.015381,331.057739 
	C482.002472,334.919739 482.003082,337.957611 481.702332,341.146912 
	C480.610809,342.876251 479.820618,344.454193 479.016907,346.410339 
	C478.578949,351.501678 475.599915,354.485962 471.966156,356.706238 
	C468.406799,356.602905 463.883270,355.619507 461.687988,357.441437 
	C458.651978,359.961121 455.895905,359.983093 452.661255,359.936371 
	C432.107758,359.639526 411.547913,358.893158 391.003082,359.190399 
	C376.351562,359.402435 361.720306,361.015625 347.059723,361.535095 
	C347.032867,249.605072 347.022247,138.143494 347.060608,26.681929 
	C347.061157,25.115841 347.675751,23.549967 348.003784,21.983990 
	C350.698975,21.979538 353.394165,21.975088 356.537231,21.948774 
	C358.708191,21.943699 360.431305,21.960485 362.584869,21.951628 
	C367.695801,21.942385 372.376312,21.958786 377.521088,21.954418 
z"/>
<path fill="#D49A9D" opacity="1.000000" stroke="none" 
	d="
M487.146271,339.915466 
	C487.871613,339.938843 488.193939,339.873535 488.772095,339.866333 
	C488.912079,344.434387 488.399384,348.787262 483.899872,351.347717 
	C483.682159,349.983917 483.916718,349.014008 484.430237,347.982056 
	C484.706604,347.274078 484.703949,346.628235 484.785034,345.750031 
	C484.868744,345.517700 484.807495,345.027588 484.839966,344.754944 
	C484.940643,343.683990 485.008911,342.885712 485.068542,342.081848 
	C485.059937,342.076263 485.062500,342.065491 485.346741,341.928223 
	C485.731049,341.184967 485.831085,340.579041 485.931122,339.973083 
	C486.201813,339.924316 486.472534,339.875549 487.146271,339.915466 
z"/>
<path fill="#A20100" opacity="1.000000" stroke="none" 
	d="
M482.379211,53.018661 
	C482.262726,50.600994 482.478119,48.173126 482.844666,45.366146 
	C482.995789,44.987030 482.984711,44.958080 483.221100,45.051579 
	C484.222076,45.163841 484.986694,45.182610 485.751282,45.201374 
	C485.751282,45.201374 486.073181,45.005665 486.254639,44.950752 
	C486.256592,46.643726 486.077026,48.391609 485.885132,50.584084 
	C484.818878,51.688606 483.764954,52.348534 482.379211,53.018661 
z"/>
<path fill="#A20100" opacity="1.000000" stroke="none" 
	d="
M482.003693,340.995483 
	C482.003082,337.957611 482.002472,334.919739 482.025909,331.424683 
	C484.936737,330.811249 485.188873,332.564056 484.881836,334.799744 
	C484.668091,336.355896 484.566162,337.927429 484.701111,340.090759 
	C485.012787,341.148102 485.037659,341.606781 485.062500,342.065491 
	C485.062500,342.065491 485.059937,342.076263 484.742889,342.030762 
	C483.618469,341.655334 482.811096,341.325409 482.003693,340.995483 
z"/>
<path fill="#A20100" opacity="1.000000" stroke="none" 
	d="
M482.423523,328.012543 
	C482.033386,326.948547 482.017609,325.865570 482.025696,324.376556 
	C483.000031,324.604553 483.950470,325.238586 484.900940,325.872620 
	C484.199921,326.579620 483.498871,327.286591 482.423523,328.012543 
z"/>
<path fill="#840E12" opacity="1.000000" stroke="none" 
	d="
M485.346741,341.928223 
	C485.037659,341.606781 485.012787,341.148102 484.975372,340.345276 
	C484.962799,340.001160 485.447021,339.981598 485.689087,339.977356 
	C485.831085,340.579041 485.731049,341.184967 485.346741,341.928223 
z"/>
<path fill="#FFFFFF" opacity="1.000000" stroke="none" 
	d="
M334.390839,371.005798 
	C322.024109,371.007538 310.057251,370.921204 298.091949,371.020142 
	C263.398651,371.307037 228.706360,371.809875 194.012817,371.898132 
	C185.626846,371.919464 177.237625,370.667358 168.424957,369.999207 
	C171.401657,362.776703 166.878433,355.966919 166.889389,348.865417 
	C167.049759,244.827713 167.034622,140.789627 166.915955,36.751797 
	C166.908768,30.443207 165.681702,24.136005 165.028137,17.424160 
	C167.298828,16.681858 169.563354,16.050449 171.828491,16.048180 
	C226.238907,15.993670 280.649384,16.006502 335.528107,16.006426 
	C337.284393,16.023754 338.572418,16.041784 340.335327,16.234440 
	C340.810181,16.409065 340.726593,16.857840 340.448486,17.035458 
	C340.270874,18.203150 340.371368,19.193228 340.542236,20.635967 
	C340.720947,26.831671 340.966858,32.576393 340.896851,38.317261 
	C340.833618,43.505989 340.425110,48.690506 339.901489,53.729164 
	C338.926514,51.518925 338.218903,49.456402 337.511322,47.393879 
	C337.169739,47.463650 336.828156,47.533424 336.486572,47.603199 
	C336.486572,61.570328 336.486572,75.537460 336.486572,90.002586 
	C338.029633,88.361519 339.095428,87.228035 340.449524,86.467255 
	C340.790833,105.421608 340.852631,124.003250 340.865082,142.584930 
	C340.865601,143.346161 340.402283,144.107681 339.865631,144.688599 
	C339.397675,142.557129 339.288727,140.596497 339.020355,138.657944 
	C338.770294,136.851288 338.350647,135.068115 338.005615,133.274612 
	C337.526642,133.387619 337.047638,133.500626 336.568634,133.613617 
	C336.568634,198.231491 336.568634,262.849365 336.568634,327.467255 
	C336.904449,327.523102 337.240295,327.578949 337.576111,327.634827 
	C338.435303,325.465759 339.294495,323.296722 340.438843,321.499329 
	C340.798462,332.984619 340.922791,344.098267 340.905609,355.211700 
	C340.902161,357.460510 340.363708,359.708527 339.760315,361.971802 
	C338.267700,362.607849 337.086670,363.228973 336.098724,363.748566 
	C336.867279,365.872192 337.433014,367.435486 337.999695,369.332367 
	C337.998535,370.110779 337.996490,370.555603 337.994446,371.000427 
	C336.926788,371.001099 335.859100,371.001709 334.390839,371.005798 
M336.163391,93.190422 
	C336.163391,94.976547 336.163391,96.762665 336.163391,98.548790 
	C336.739807,98.510147 337.316223,98.471504 337.892639,98.432861 
	C338.696289,96.388718 341.207367,94.220627 336.163391,93.190422 
M336.077209,356.306366 
	C336.593536,356.570099 337.109863,356.833801 337.626190,357.097534 
	C337.622375,356.348206 337.618591,355.598907 337.614807,354.849579 
	C337.100952,355.118134 336.587128,355.386719 336.077209,356.306366 
z"/>
<path fill="#BA0F0E" opacity="1.000000" stroke="none" 
	d="
M469.001221,27.998142 
	C465.098755,26.196409 461.196289,24.394670 457.139160,22.271349 
	C457.241974,21.358877 457.499481,20.767988 458.317261,19.988441 
	C459.237823,19.784006 459.598114,19.768232 460.194031,20.087536 
	C462.056641,20.510382 463.683655,20.598145 465.495850,20.717218 
	C465.681030,20.748529 465.990234,20.961805 465.997314,21.330166 
	C467.003357,23.798395 468.002289,25.898266 469.001221,27.998142 
z"/>
<path fill="#BE6260" opacity="1.000000" stroke="none" 
	d="
M459.958405,19.752457 
	C459.598114,19.768232 459.237823,19.784006 458.615601,19.838356 
	C457.852112,19.514523 457.350525,19.152113 456.495483,18.388710 
	C456.195282,17.521692 456.248505,17.055668 456.301727,16.589642 
	C457.340759,16.631489 458.379761,16.673340 459.843506,17.005287 
	C460.268219,17.295387 460.565765,17.445656 460.565765,17.445656 
	C460.565765,17.445656 460.924286,17.428032 460.924286,17.428032 
	C460.924286,17.428032 460.821930,16.963505 461.134796,16.952427 
	C462.671417,17.576702 463.895172,18.212055 465.069092,19.133093 
	C465.007263,19.610897 464.995239,19.803017 464.644653,20.012474 
	C462.856812,19.937361 461.407623,19.844908 459.958405,19.752457 
z"/>
<path fill="#9B3639" opacity="1.000000" stroke="none" 
	d="
M455.961365,16.456526 
	C456.248505,17.055668 456.195282,17.521692 456.184631,18.332016 
	C455.511353,18.229792 454.795441,17.783268 454.153809,16.957943 
	C454.692352,16.493898 455.156677,16.408655 455.961365,16.456526 
z"/>
<path fill="#65A42F" opacity="1.000000" stroke="none" 
	d="
M149.988586,371.840637 
	C147.542892,372.163971 145.098022,372.761566 142.651367,372.768982 
	C111.713745,372.862854 80.775871,372.871765 49.408092,373.121155 
	C48.710720,373.081818 48.443314,372.823639 48.125671,372.119873 
	C48.118073,371.452209 48.160713,371.230103 48.584095,371.028442 
	C50.588356,370.657318 52.211880,370.265808 53.835400,369.874298 
	C53.770031,369.282654 53.704662,368.690979 53.639297,368.099335 
	C51.803394,367.734589 49.972382,367.342560 48.130283,367.012390 
	C46.092033,366.647064 44.043633,366.338348 41.999660,366.004944 
	C43.220490,365.369446 44.513268,364.071320 45.651657,364.194916 
	C77.637863,367.668304 109.724556,365.460449 141.758804,365.850739 
	C146.903824,365.913452 152.072250,364.056183 157.615372,363.042603 
	C158.420547,363.327393 158.840225,363.655975 159.528320,364.039551 
	C159.796753,364.094543 159.877762,364.482605 159.879410,365.030365 
	C159.814102,366.039032 159.747147,366.499908 159.278961,366.968140 
	C155.045837,367.009735 150.681870,366.071838 149.988586,371.840637 
z"/>
<path fill="#C3DBB8" opacity="1.000000" stroke="none" 
	d="
M19.002554,359.327057 
	C19.157906,358.530731 19.488106,358.003815 20.221561,357.400635 
	C24.145969,360.115173 27.667128,362.905945 31.502674,365.817078 
	C32.838032,366.395142 33.858997,366.852844 34.989639,367.534058 
	C35.364559,367.959137 35.629807,368.160645 35.998734,368.691162 
	C39.139500,370.424652 42.176586,371.829132 45.213669,373.233643 
	C44.380741,373.811340 43.547825,374.389069 42.137863,374.676697 
	C39.393536,373.885498 37.226261,373.384399 35.058983,372.883270 
	C31.937080,370.619507 28.815174,368.355713 25.222372,365.768127 
	C23.828650,364.635956 22.905823,363.827606 21.982996,363.019226 
	C21.047800,361.878326 20.112602,360.737396 19.002554,359.327057 
z"/>
<path fill="#A9D489" opacity="1.000000" stroke="none" 
	d="
M45.465591,373.131348 
	C42.176586,371.829132 39.139500,370.424652 36.403149,368.578796 
	C40.537041,369.094330 44.370197,370.051178 48.203354,371.008057 
	C48.160713,371.230103 48.118073,371.452209 47.891174,371.962524 
	C47.043789,372.510162 46.380650,372.769623 45.465591,373.131348 
z"/>
<path fill="#F1FCEA" opacity="1.000000" stroke="none" 
	d="
M35.090523,373.253784 
	C37.226261,373.384399 39.393536,373.885498 41.790592,374.666138 
	C39.256489,376.929871 36.998146,376.274902 35.090523,373.253784 
z"/>
<path fill="#E9FEDE" opacity="1.000000" stroke="none" 
	d="
M21.986717,363.368713 
	C22.905823,363.827606 23.828650,364.635956 24.876781,365.730011 
	C23.998203,365.249878 22.994322,364.484039 21.986717,363.368713 
z"/>
<path fill="#FED2D4" opacity="1.000000" stroke="none" 
	d="
M465.118927,18.847404 
	C463.895172,18.212055 462.671417,17.576702 461.162170,16.716175 
	C463.458252,13.322944 465.868347,15.688937 468.648743,16.871391 
	C469.067200,17.629490 469.156616,18.237782 468.658447,18.972004 
	C467.086853,19.014421 466.102905,18.930912 465.118927,18.847404 
z"/>
<path fill="#9B3639" opacity="1.000000" stroke="none" 
	d="
M460.739746,17.286369 
	C460.924286,17.428032 460.565765,17.445656 460.565765,17.445656 
	C460.565765,17.445656 460.268219,17.295387 460.179138,17.216316 
	C460.090057,17.137243 460.555237,17.144709 460.739746,17.286369 
z"/>
<path fill="#840E12" opacity="1.000000" stroke="none" 
	d="
M483.003906,45.000603 
	C478.023163,43.815300 478.218719,39.421631 477.257507,35.100426 
	C477.823090,33.628304 478.417633,32.778713 479.319061,32.052780 
	C480.524933,32.663994 481.423889,33.151550 482.322876,33.639107 
	C482.322876,33.639103 482.379700,33.856174 482.268188,34.148872 
	C482.618835,35.063717 483.081024,35.685867 483.543213,36.308014 
	C483.932190,37.542419 484.321167,38.776825 484.595886,40.622746 
	C483.982666,42.475529 483.483673,43.716805 482.984711,44.958080 
	C482.984711,44.958080 482.995789,44.987030 483.003906,45.000603 
z"/>
<path fill="#D49A9D" opacity="1.000000" stroke="none" 
	d="
M482.533508,33.342621 
	C481.423889,33.151550 480.524933,32.663994 479.179169,31.748093 
	C475.817352,28.527254 472.902313,25.734758 469.870880,22.735828 
	C469.554962,22.267357 469.295776,22.094957 468.885803,21.879246 
	C468.794678,21.746288 468.719360,21.432819 468.820496,21.054344 
	C468.981934,20.421774 469.042297,20.167677 469.102631,19.913582 
	C469.773010,19.970934 470.443420,20.028286 471.544250,20.420002 
	C472.640625,21.194168 473.306519,21.633972 473.972412,22.073769 
	C475.758514,23.629803 477.544617,25.185843 479.648743,27.235714 
	C480.731323,28.811354 481.495850,29.893162 482.260376,30.974977 
	C482.421600,31.665367 482.582855,32.355751 482.533508,33.342621 
z"/>
<path fill="#9B3639" opacity="1.000000" stroke="none" 
	d="
M483.221100,45.051579 
	C483.483673,43.716805 483.982666,42.475529 484.631531,41.010715 
	C484.899048,40.613556 485.016663,40.439941 485.394409,40.560619 
	C485.797791,41.248001 485.941071,41.641087 486.084351,42.034168 
	C486.084259,42.842178 486.084167,43.650196 485.917664,44.829792 
	C484.986694,45.182610 484.222076,45.163841 483.221100,45.051579 
z"/>
<path fill="#E28586" opacity="1.000000" stroke="none" 
	d="
M469.030060,19.699093 
	C469.042297,20.167677 468.981934,20.421774 468.485352,20.965162 
	C467.362793,21.156904 466.676514,21.059355 465.990234,20.961805 
	C465.990234,20.961805 465.681030,20.748529 465.419281,20.542620 
	C465.157532,20.336710 464.983246,19.995134 464.983246,19.995134 
	C464.995239,19.803017 465.007263,19.610897 465.069092,19.133091 
	C466.102905,18.930912 467.086853,19.014421 468.437622,19.078173 
	C468.804382,19.058413 468.957489,19.484602 469.030060,19.699093 
z"/>
<path fill="#FED2D4" opacity="1.000000" stroke="none" 
	d="
M482.466980,30.732754 
	C481.495850,29.893162 480.731323,28.811354 479.928436,27.400026 
	C480.817902,28.210518 481.745728,29.350529 482.466980,30.732754 
z"/>
<path fill="#E28586" opacity="1.000000" stroke="none" 
	d="
M483.726318,35.948753 
	C483.081024,35.685867 482.618835,35.063717 482.317932,34.249420 
	C482.955994,34.568012 483.432709,35.078751 483.726318,35.948753 
z"/>
<path fill="#D49A9D" opacity="1.000000" stroke="none" 
	d="
M486.368591,42.031235 
	C485.941071,41.641087 485.797791,41.248001 485.708527,40.543900 
	C486.376404,40.314793 486.990234,40.396698 487.777588,40.755852 
	C487.518341,41.364834 487.085571,41.696568 486.368591,42.031235 
z"/>
<path fill="#FED2D4" opacity="1.000000" stroke="none" 
	d="
M473.937500,21.730980 
	C473.306519,21.633972 472.640625,21.194168 471.879883,20.448017 
	C472.490875,20.557177 473.196747,20.972681 473.937500,21.730980 
z"/>
<path fill="#8DB76A" opacity="1.000000" stroke="none" 
	d="
M21.928308,37.868389 
	C21.172659,37.890568 20.417009,37.912746 19.298618,37.544907 
	C19.280325,35.754845 19.624771,34.354805 19.969217,32.954762 
	C20.921354,31.523546 21.873491,30.092331 22.892662,28.337032 
	C23.135658,27.731724 23.351011,27.484867 24.053875,27.247631 
	C24.947163,27.433102 25.392326,27.643312 25.837490,27.853523 
	C24.539585,30.652679 23.241678,33.451832 21.938234,36.842110 
	C21.932695,37.433231 21.928308,37.868389 21.928308,37.868389 
z"/>
<path fill="#A9D489" opacity="1.000000" stroke="none" 
	d="
M19.607590,32.976967 
	C19.624771,34.354805 19.280325,35.754845 18.921881,37.513710 
	C18.907885,37.872528 18.807253,38.352531 18.468391,38.658386 
	C17.429129,39.310917 16.728729,39.657593 15.737446,39.996117 
	C15.252761,39.979248 15.058959,39.970528 14.865157,39.961807 
	C14.566137,36.534008 16.089371,34.252743 19.607590,32.976967 
z"/>
<path fill="#A6C595" opacity="1.000000" stroke="none" 
	d="
M14.554646,40.150536 
	C15.058959,39.970528 15.252761,39.979248 15.736519,40.369888 
	C15.760798,42.203785 15.495122,43.655754 15.229446,45.107723 
	C15.229447,45.107723 15.186869,45.169281 14.860973,45.140923 
	C14.144061,45.109978 13.753042,45.107395 13.362024,45.104813 
	C13.656061,43.516296 13.950098,41.927776 14.554646,40.150536 
z"/>
<path fill="#8DB376" opacity="1.000000" stroke="none" 
	d="
M13.231644,45.351482 
	C13.753042,45.107395 14.144061,45.109978 14.828548,45.159607 
	C14.881682,45.770176 14.641346,46.333698 14.179045,46.933685 
	C13.671805,46.512821 13.386534,46.055489 13.231644,45.351482 
z"/>
<path fill="#8DB376" opacity="1.000000" stroke="none" 
	d="
M13.554611,49.269341 
	C13.916576,49.255840 13.962872,49.501060 13.784891,49.875389 
	C13.599727,49.819221 13.492501,49.660408 13.554611,49.269341 
z"/>
<path fill="#65A42F" opacity="1.000000" stroke="none" 
	d="
M34.879971,367.310516 
	C33.858997,366.852844 32.838032,366.395142 31.442390,365.497437 
	C29.719429,363.363556 28.371141,361.669678 27.017115,359.612671 
	C25.352802,357.489868 23.694227,355.730255 21.883572,353.691956 
	C20.841948,352.931122 19.952406,352.448914 19.062859,351.966675 
	C19.062853,351.966705 19.002832,351.995300 18.963135,351.754028 
	C18.784649,351.240204 18.571474,351.051849 18.283915,350.947693 
	C17.547159,350.182922 16.810406,349.418121 16.569447,348.324799 
	C18.043367,347.997498 19.021494,347.998749 19.999622,348.000000 
	C25.643637,353.765961 31.287645,359.531921 36.634617,365.681824 
	C35.851707,366.480713 35.365841,366.895630 34.879971,367.310516 
z"/>
<path fill="#8DB376" opacity="1.000000" stroke="none" 
	d="
M27.022854,359.975800 
	C28.371141,361.669678 29.719429,363.363556 31.128000,365.377075 
	C27.667128,362.905945 24.145969,360.115173 20.360783,357.124359 
	C19.734488,355.522064 19.372223,354.119781 19.036411,352.342102 
	C19.952406,352.448914 20.841948,352.931122 21.897295,354.035431 
	C23.716351,356.430298 25.369602,358.203033 27.022854,359.975800 
z"/>
<path fill="#62A829" opacity="1.000000" stroke="none" 
	d="
M19.999863,347.625427 
	C19.021494,347.998749 18.043367,347.997498 16.698872,347.997498 
	C16.293154,347.451111 16.253807,346.903534 16.239506,345.943085 
	C17.291117,345.354095 18.317682,345.177979 19.673229,345.002747 
	C20.001511,345.752716 20.000809,346.501770 19.999863,347.625427 
z"/>
<path fill="#8DB376" opacity="1.000000" stroke="none" 
	d="
M18.246902,351.196259 
	C18.571474,351.051849 18.784649,351.240204 18.976639,351.723663 
	C18.756521,351.771301 18.483206,351.608063 18.246902,351.196259 
z"/>
<path fill="#A20100" opacity="1.000000" stroke="none" 
	d="
M340.071899,361.956909 
	C340.363708,359.708527 340.902161,357.460510 340.905609,355.211700 
	C340.922791,344.098267 340.798462,332.984619 340.739929,321.103577 
	C340.829407,319.509735 340.967133,318.683350 340.967316,317.856964 
	C340.978821,261.618927 340.985321,205.380890 340.946106,149.142883 
	C340.945099,147.718094 340.430267,146.293671 340.155090,144.869080 
	C340.402283,144.107681 340.865601,143.346161 340.865082,142.584930 
	C340.852631,124.003250 340.790833,105.421608 340.757141,86.079407 
	C340.854858,79.218521 341.058807,73.116341 340.969543,67.018463 
	C340.905396,62.634964 340.449829,58.257198 340.168884,53.876877 
	C340.425110,48.690506 340.833618,43.505989 340.896851,38.317261 
	C340.966858,32.576393 340.720947,26.831671 340.754028,20.378231 
	C340.976624,19.461342 341.057800,19.254848 341.448395,19.037800 
	C342.170319,19.015785 342.582825,19.004324 342.995361,18.992863 
	C344.620911,19.754585 346.246460,20.516308 347.937897,21.631012 
	C347.675751,23.549967 347.061157,25.115841 347.060608,26.681929 
	C347.022247,138.143494 347.032867,249.605072 347.034119,361.931763 
	C347.024170,363.855347 347.019592,364.913849 346.803497,366.239197 
	C344.906097,366.329468 343.220276,366.152832 341.360535,366.089539 
	C341.186646,366.202911 340.783661,366.103271 340.979462,365.779114 
	C341.057068,365.231873 340.938904,365.008759 340.869446,364.393463 
	C340.636108,363.319855 340.354004,362.638367 340.071899,361.956909 
z"/>
<path fill="#AA2526" opacity="1.000000" stroke="none" 
	d="
M343.005005,18.671429 
	C342.582825,19.004324 342.170319,19.015785 341.377502,18.670830 
	C340.907013,17.828890 340.816803,17.343363 340.726624,16.857838 
	C340.726593,16.857840 340.810181,16.409065 340.720001,16.199211 
	C340.629822,15.989358 341.028748,15.952463 341.313934,15.814782 
	C341.843597,15.443285 342.088074,15.209469 342.332550,14.975652 
	C342.459564,15.211657 342.586609,15.447664 342.857391,16.059788 
	C343.005615,17.073935 343.010132,17.711964 343.005005,18.671429 
z"/>
<path fill="#9A0202" opacity="1.000000" stroke="none" 
	d="
M484.151306,348.044128 
	C483.916718,349.014008 483.682159,349.983917 483.538025,351.318604 
	C482.901978,352.806946 482.175507,353.930481 481.078186,355.355591 
	C480.186768,356.790070 479.666199,357.923035 479.145630,359.055969 
	C478.127747,359.887451 477.109833,360.718933 475.798645,361.780884 
	C474.375549,362.606720 473.245667,363.202087 471.597321,363.843872 
	C470.737030,363.950439 470.395203,364.010529 469.651672,364.030396 
	C468.178101,363.979004 467.106262,363.967804 466.035828,363.587830 
	C468.038208,361.171783 470.039246,359.124512 472.040283,357.077271 
	C475.599915,354.485962 478.578949,351.501678 479.383240,346.362854 
	C481.444550,345.633972 483.126038,345.330780 484.807495,345.027588 
	C484.807495,345.027588 484.868744,345.517700 484.525330,345.907227 
	C484.171692,346.879242 484.161499,347.461670 484.151306,348.044128 
z"/>
<path fill="#FED2D4" opacity="1.000000" stroke="none" 
	d="
M479.530701,359.075867 
	C479.666199,357.923035 480.186768,356.790070 481.036133,355.695068 
	C481.674744,355.779358 481.984619,355.825684 482.759521,355.954529 
	C483.157166,356.776855 483.089783,357.516663 483.012421,358.628235 
	C481.973572,359.031921 480.944672,359.063843 479.530701,359.075867 
z"/>
<path fill="#BFDEAA" opacity="1.000000" stroke="none" 
	d="
M46.098858,15.076975 
	C46.408218,15.227593 46.781139,15.551428 46.542938,15.923023 
	C45.539303,16.876904 44.773872,17.459188 44.008442,18.041470 
	C40.273655,19.353624 36.538864,20.665779 32.437386,22.046825 
	C32.039925,21.331009 32.009159,20.546303 31.975117,19.368452 
	C34.727886,17.668114 37.483932,16.360918 40.593113,14.991201 
	C42.067928,14.919074 43.189606,14.909466 44.724052,14.804041 
	C45.354378,14.780934 45.571938,14.853645 46.098858,15.076975 
z"/>
<path fill="#8DB76A" opacity="1.000000" stroke="none" 
	d="
M28.136950,24.120369 
	C28.129967,24.999222 27.772734,25.855003 27.043991,26.544958 
	C26.458656,25.929741 26.244833,25.480350 26.031010,25.030960 
	C26.616240,24.719740 27.201471,24.408520 28.136950,24.120369 
z"/>
<path fill="#A9D489" opacity="1.000000" stroke="none" 
	d="
M25.749310,25.125778 
	C26.244833,25.480350 26.458656,25.929741 26.761520,26.607071 
	C26.670858,27.112827 26.491154,27.390644 26.074471,27.760994 
	C25.392326,27.643312 24.947163,27.433102 24.271065,27.131569 
	C24.515957,26.433695 24.991785,25.827145 25.749310,25.125778 
z"/>
<path fill="#8DB76A" opacity="1.000000" stroke="none" 
	d="
M30.749805,22.890713 
	C30.701782,23.120373 30.406464,23.249435 30.057026,23.178505 
	C30.169441,22.915714 30.335976,22.852915 30.749805,22.890713 
z"/>
<path fill="#FEFEFE" opacity="1.000000" stroke="none" 
	d="
M342.232117,15.074569 
	C342.088074,15.209469 341.843597,15.443285 341.322327,15.614648 
	C341.407593,15.425958 341.769623,15.299721 342.232117,15.074569 
z"/>
<path fill="#8A0000" opacity="1.000000" stroke="none" 
	d="
M341.534424,365.976196 
	C343.220276,366.152832 344.906097,366.329468 347.270264,366.254639 
	C383.177307,366.012726 418.406128,365.993286 453.634430,366.115967 
	C455.434692,366.122223 457.230713,367.349182 459.021240,368.267090 
	C459.308868,368.993042 459.603943,369.459717 459.899017,369.926392 
	C459.652802,370.330627 459.406586,370.734863 458.619537,371.196075 
	C456.104614,371.291260 454.130493,371.329437 452.024353,371.177979 
	C451.591431,370.830017 451.292358,370.833313 450.517883,370.982422 
	C448.875641,371.334137 447.710541,371.701660 446.545471,372.069183 
	C444.558472,371.962616 442.571564,371.765015 440.584473,371.763123 
	C408.103485,371.732086 375.622528,371.725769 342.643341,371.341675 
	C341.787872,370.653656 341.430603,370.337891 341.037842,369.597900 
	C340.761749,368.683319 340.521118,368.192963 340.544098,367.455933 
	C341.049957,366.798218 341.292206,366.387207 341.534424,365.976196 
z"/>
<path fill="#FED2D4" opacity="1.000000" stroke="none" 
	d="
M452.156403,371.367676 
	C454.130493,371.329437 456.104614,371.291260 458.482178,371.393250 
	C458.921875,372.399750 458.958130,373.265991 458.994751,374.564758 
	C456.497711,374.841522 454.000305,374.685791 451.244568,373.972046 
	C451.055847,373.086121 451.074646,372.755341 451.370361,372.210297 
	C451.850861,371.788452 452.003632,371.578064 452.156403,371.367676 
z"/>
<path fill="#AA2526" opacity="1.000000" stroke="none" 
	d="
M460.356140,370.031372 
	C459.603943,369.459717 459.308868,368.993042 459.376404,368.104187 
	C461.850739,367.426727 463.962463,367.171417 466.265686,367.066589 
	C466.525970,367.694519 466.594788,368.171997 466.663605,368.649475 
	C464.713501,369.145081 462.763397,369.640717 460.356140,370.031372 
z"/>
<path fill="#D49A9D" opacity="1.000000" stroke="none" 
	d="
M467.009949,368.796448 
	C466.594788,368.171997 466.525970,367.694519 466.335266,366.987915 
	C466.213379,366.758759 466.146454,366.556213 466.485229,366.496704 
	C467.272430,366.339539 467.720825,366.241882 468.546814,366.148254 
	C469.675720,366.177185 470.427032,366.202087 471.178314,366.226990 
	C469.904297,367.132477 468.630310,368.037964 467.009949,368.796448 
z"/>
<path fill="#FED2D4" opacity="1.000000" stroke="none" 
	d="
M472.115814,363.797424 
	C473.245667,363.202087 474.375549,362.606720 475.797607,362.128510 
	C475.640381,363.458496 475.190918,364.671326 474.741455,365.884186 
	C474.144897,365.347809 473.548370,364.811401 472.685486,364.013428 
	C472.419128,363.751801 472.115814,363.797424 472.115814,363.797424 
z"/>
<path fill="#BE6260" opacity="1.000000" stroke="none" 
	d="
M471.597321,363.843872 
	C472.115814,363.797424 472.419128,363.751801 472.470459,363.896393 
	C472.244171,364.626282 471.966522,365.211578 471.433594,366.011932 
	C470.427032,366.202087 469.675720,366.177185 468.632477,365.871338 
	C468.911469,365.083801 469.482422,364.577209 470.053406,364.070618 
	C470.395203,364.010529 470.737030,363.950439 471.597321,363.843872 
z"/>
<path fill="#62A829" opacity="1.000000" stroke="none" 
	d="
M21.954735,38.333481 
	C21.928308,37.868389 21.932695,37.433231 21.943066,37.215942 
	C25.074600,33.699032 28.195763,30.399406 31.657631,27.048820 
	C31.486805,28.673553 31.489426,30.935572 30.369585,31.917566 
	C26.664923,35.166218 25.717020,38.169262 30.504738,41.764469 
	C21.307142,45.894798 23.804520,53.465313 23.831606,60.469959 
	C23.868557,70.025032 23.403761,79.582092 23.150255,89.138199 
	C23.110577,90.633896 23.006565,92.129051 23.006426,93.624466 
	C22.999144,170.872086 23.006704,248.119720 22.985868,325.367340 
	C22.984327,331.080231 22.862576,336.796814 22.591017,342.501862 
	C22.551229,343.337769 21.360228,344.118866 20.352613,344.963867 
	C20.002478,256.249939 19.919640,167.497314 20.089117,78.745163 
	C20.114548,65.428474 21.321030,52.114044 21.954735,38.333481 
z"/>
<path fill="#6CA146" opacity="1.000000" stroke="none" 
	d="
M34.989643,367.534058 
	C35.365841,366.895630 35.851707,366.480713 36.671356,366.028015 
	C38.392422,365.994720 39.779716,365.999207 41.583332,366.004333 
	C44.043633,366.338348 46.092033,366.647064 48.130283,367.012390 
	C49.972382,367.342560 51.803394,367.734589 53.639297,368.099335 
	C53.704662,368.690979 53.770031,369.282654 53.835400,369.874298 
	C52.211880,370.265808 50.588356,370.657318 48.584091,371.028442 
	C44.370197,370.051178 40.537041,369.094330 36.299473,368.249817 
	C35.629807,368.160645 35.364559,367.959137 34.989643,367.534058 
z"/>
<path fill="#8EC066" opacity="1.000000" stroke="none" 
	d="
M159.680191,366.960815 
	C159.747147,366.499908 159.814102,366.039032 159.903732,365.227112 
	C160.364380,364.654510 160.802353,364.432953 161.460175,364.106750 
	C161.857742,365.106567 162.035492,366.211060 161.993256,367.623444 
	C161.567444,367.868958 161.361603,367.806580 160.974609,367.656189 
	C160.422363,367.365723 160.051270,367.163269 159.680191,366.960815 
z"/>
<path fill="#D8F1C7" opacity="1.000000" stroke="none" 
	d="
M162.978470,369.071686 
	C162.988693,369.312042 162.531418,369.156799 162.060425,368.778809 
	C161.444870,368.181946 161.300308,367.963074 161.155762,367.744202 
	C161.361603,367.806580 161.567444,367.868958 162.081055,368.036499 
	C162.719040,368.255798 162.912186,368.485718 162.978470,369.071686 
z"/>
<path fill="#72AA4F" opacity="1.000000" stroke="none" 
	d="
M44.266533,18.325851 
	C44.773872,17.459188 45.539303,16.876904 46.674400,16.132074 
	C48.008430,16.775389 48.972797,17.581247 49.969067,18.698328 
	C48.175518,18.876444 46.350071,18.743336 44.266533,18.325851 
z"/>
<path fill="#E28586" opacity="1.000000" stroke="none" 
	d="
M451.042633,372.421722 
	C451.074646,372.755341 451.055847,373.086121 450.985748,373.662384 
	C449.526123,373.519257 448.067017,373.127747 446.576691,372.402710 
	C447.710541,371.701660 448.875641,371.334137 450.521606,371.338562 
	C451.015869,371.947571 451.029236,372.184631 451.042633,372.421722 
z"/>
<path fill="#FFE2E5" opacity="1.000000" stroke="none" 
	d="
M340.280487,367.702637 
	C340.521118,368.192963 340.761749,368.683319 340.750977,369.612732 
	C340.268951,370.355682 340.038300,370.659546 339.580017,370.971558 
	C339.352448,370.979675 338.898438,371.016205 338.898438,371.016205 
	C338.898438,371.016205 338.446716,371.004791 338.220581,371.002625 
	C337.996490,370.555603 337.998535,370.110779 338.201385,369.218567 
	C339.028290,368.415009 339.654388,368.058807 340.280487,367.702637 
z"/>
<path fill="#FED2D4" opacity="1.000000" stroke="none" 
	d="
M338.922852,371.362091 
	C338.898438,371.016205 339.352448,370.979675 339.690491,371.291443 
	C340.370300,372.176849 340.712036,372.750488 341.053802,373.324158 
	C340.678864,373.745850 340.303955,374.167511 339.929016,374.589203 
	C339.601776,373.628784 339.274506,372.668396 338.922852,371.362091 
z"/>
<path fill="#E28586" opacity="1.000000" stroke="none" 
	d="
M341.296051,373.171570 
	C340.712036,372.750488 340.370300,372.176849 339.918091,371.283325 
	C340.038300,370.659546 340.268951,370.355682 340.786499,370.036957 
	C341.430603,370.337891 341.787872,370.653656 342.194275,371.337036 
	C342.008362,372.142792 341.773346,372.580902 341.296051,373.171570 
z"/>
<path fill="#6CA146" opacity="1.000000" stroke="none" 
	d="
M160.974609,367.656189 
	C161.300308,367.963074 161.444870,368.181946 161.827713,368.714447 
	C162.066010,369.028076 161.869766,369.414459 161.508636,369.688934 
	C160.742249,370.953552 160.337006,371.943695 159.931763,372.933838 
	C159.931763,372.933838 159.942810,373.211731 160.021179,373.328766 
	C159.204514,373.198120 158.309464,372.950439 156.924026,372.448181 
	C156.433640,372.193573 156.090714,371.996063 156.090714,371.996033 
	C154.328369,372.066956 152.566010,372.137878 150.396118,372.024719 
	C150.681870,366.071838 155.045837,367.009735 159.278961,366.968140 
	C160.051270,367.163269 160.422363,367.365723 160.974609,367.656189 
z"/>
<path fill="#BFDEAA" opacity="1.000000" stroke="none" 
	d="
M160.257111,373.000244 
	C160.337006,371.943695 160.742249,370.953552 161.487823,369.904602 
	C161.412918,370.919434 160.997696,371.993042 160.257111,373.000244 
z"/>
<path fill="#65A42F" opacity="1.000000" stroke="none" 
	d="
M156.097839,372.177734 
	C156.090714,371.996063 156.433640,372.193573 156.522705,372.211914 
	C156.611755,372.230286 156.418839,372.530365 156.418839,372.530365 
	C156.418839,372.530365 156.104950,372.359436 156.097839,372.177734 
z"/>
<path fill="#8DB76A" opacity="1.000000" stroke="none" 
	d="
M15.533642,45.025005 
	C15.495122,43.655754 15.760798,42.203785 16.027401,40.378044 
	C16.728729,39.657593 17.429129,39.310917 18.407215,38.895851 
	C18.772839,39.306694 18.860779,39.785927 18.951252,40.630501 
	C17.915136,42.311321 16.876486,43.626804 15.533642,45.025005 
z"/>
<path fill="#CB1418" opacity="1.000000" stroke="none" 
	d="
M466.146454,366.556213 
	C466.146454,366.556213 466.213379,366.758759 466.143799,366.837433 
	C463.962463,367.171417 461.850739,367.426727 459.383850,367.844910 
	C457.230713,367.349182 455.434692,366.122223 453.634430,366.115967 
	C418.406128,365.993286 383.177307,366.012726 347.481812,365.987732 
	C347.019592,364.913849 347.024170,363.855347 347.054382,362.400208 
	C361.720306,361.015625 376.351562,359.402435 391.003082,359.190399 
	C411.547913,358.893158 432.107758,359.639526 452.661255,359.936371 
	C455.895905,359.983093 458.651978,359.961121 461.687988,357.441437 
	C463.883270,355.619507 468.406799,356.602905 471.966156,356.706238 
	C470.039246,359.124512 468.038208,361.171783 466.031647,364.021240 
	C466.066223,365.401031 466.106323,365.978638 466.146454,366.556213 
z"/>
<path fill="#B40D0E" opacity="1.000000" stroke="none" 
	d="
M465.997314,21.330166 
	C466.676514,21.059355 467.362793,21.156904 468.384216,21.343637 
	C468.719360,21.432819 468.794678,21.746288 468.935333,22.140026 
	C469.379761,22.669933 469.683502,22.806103 469.987274,22.942268 
	C472.902313,25.734758 475.817352,28.527254 478.872284,31.624434 
	C478.417633,32.778713 477.823090,33.628304 477.083008,34.757626 
	C474.493225,32.790325 472.048981,30.543297 469.302979,28.147202 
	C468.002289,25.898266 467.003357,23.798395 465.997314,21.330166 
z"/>
<path fill="#B40D0E" opacity="1.000000" stroke="none" 
	d="
M484.839966,344.754913 
	C483.126038,345.330780 481.444550,345.633972 479.396759,345.984650 
	C479.820618,344.454193 480.610809,342.876251 481.702332,341.146912 
	C482.811096,341.325409 483.618469,341.655334 484.751526,342.036316 
	C485.008911,342.885712 484.940643,343.683990 484.839966,344.754913 
z"/>
<path fill="#B5696D" opacity="1.000000" stroke="none" 
	d="
M484.430267,347.982056 
	C484.161499,347.461670 484.171692,346.879242 484.441589,346.139587 
	C484.703949,346.628235 484.706604,347.274078 484.430267,347.982056 
z"/>
<path fill="#FEF5F6" opacity="1.000000" stroke="none" 
	d="
M339.865631,144.688599 
	C340.430267,146.293671 340.945099,147.718094 340.946106,149.142883 
	C340.985321,205.380890 340.978821,261.618927 340.967316,317.856964 
	C340.967133,318.683350 340.829407,319.509735 340.454773,320.731873 
	C339.294495,323.296722 338.435303,325.465759 337.576111,327.634827 
	C337.240295,327.578949 336.904449,327.523102 336.568634,327.467255 
	C336.568634,262.849365 336.568634,198.231491 336.568634,133.613617 
	C337.047638,133.500626 337.526642,133.387619 338.005615,133.274612 
	C338.350647,135.068115 338.770294,136.851288 339.020355,138.657944 
	C339.288727,140.596497 339.397675,142.557129 339.865631,144.688599 
z"/>
<path fill="#FEF5F6" opacity="1.000000" stroke="none" 
	d="
M339.901489,53.729164 
	C340.449829,58.257198 340.905396,62.634964 340.969543,67.018463 
	C341.058807,73.116341 340.854858,79.218521 340.468811,85.706703 
	C339.095428,87.228035 338.029633,88.361519 336.486572,90.002586 
	C336.486572,75.537460 336.486572,61.570328 336.486572,47.603199 
	C336.828156,47.533424 337.169739,47.463650 337.511322,47.393879 
	C338.218903,49.456402 338.926514,51.518925 339.901489,53.729164 
z"/>
<path fill="#FEF5F6" opacity="1.000000" stroke="none" 
	d="
M340.544098,367.455933 
	C339.654388,368.058807 339.028290,368.415009 338.200500,368.884979 
	C337.433014,367.435486 336.867279,365.872192 336.098724,363.748566 
	C337.086670,363.228973 338.267700,362.607849 339.760315,361.971802 
	C340.354004,362.638367 340.636108,363.319855 340.612732,364.480652 
	C340.466034,365.341095 340.624847,365.722198 340.783661,366.103271 
	C340.783661,366.103271 341.186646,366.202911 341.360535,366.089539 
	C341.292206,366.387207 341.049957,366.798218 340.544098,367.455933 
z"/>
<path fill="#FEF5F6" opacity="1.000000" stroke="none" 
	d="
M336.378967,92.880035 
	C341.207367,94.220627 338.696289,96.388718 337.892639,98.432861 
	C337.316223,98.471504 336.739807,98.510147 336.163391,98.548790 
	C336.163391,96.762665 336.163391,94.976547 336.378967,92.880035 
z"/>
<path fill="#FEF5F6" opacity="1.000000" stroke="none" 
	d="
M336.075256,355.980835 
	C336.587128,355.386719 337.100952,355.118134 337.614807,354.849579 
	C337.618591,355.598907 337.622375,356.348206 337.626190,357.097534 
	C337.109863,356.833801 336.593536,356.570099 336.075256,355.980835 
z"/>
<path fill="#FE908E" opacity="1.000000" stroke="none" 
	d="
M340.448486,17.035454 
	C340.816803,17.343363 340.907013,17.828890 341.068115,18.681385 
	C341.057800,19.254848 340.976624,19.461342 340.683655,19.925570 
	C340.371368,19.193228 340.270874,18.203150 340.448486,17.035454 
z"/>
<path fill="#9B3639" opacity="1.000000" stroke="none" 
	d="
M464.644653,20.012474 
	C464.983246,19.995134 465.157532,20.336710 465.234100,20.511309 
	C463.683655,20.598145 462.056641,20.510382 460.194031,20.087536 
	C461.407623,19.844908 462.856812,19.937361 464.644653,20.012474 
z"/>
<path fill="#E28586" opacity="1.000000" stroke="none" 
	d="
M469.870880,22.735834 
	C469.683502,22.806103 469.379761,22.669933 469.026489,22.272984 
	C469.295776,22.094957 469.554962,22.267357 469.870880,22.735834 
z"/>
<path fill="#79B04B" opacity="1.000000" stroke="none" 
	d="
M27.017117,359.612671 
	C25.369602,358.203033 23.716351,356.430298 22.049374,354.314087 
	C23.694227,355.730255 25.352802,357.489868 27.017117,359.612671 
z"/>
<path fill="#FE908E" opacity="1.000000" stroke="none" 
	d="
M340.979462,365.779114 
	C340.624847,365.722198 340.466034,365.341095 340.563965,364.872803 
	C340.938904,365.008759 341.057068,365.231873 340.979462,365.779114 
z"/>
<path fill="#AA2526" opacity="1.000000" stroke="none" 
	d="
M466.485229,366.496704 
	C466.106323,365.978638 466.066223,365.401031 466.030273,364.390015 
	C467.106262,363.967804 468.178101,363.979004 469.651642,364.030396 
	C469.482422,364.577209 468.911469,365.083801 468.254883,365.867310 
	C467.720825,366.241882 467.272430,366.339539 466.485229,366.496704 
z"/>
<path fill="#BE6260" opacity="1.000000" stroke="none" 
	d="
M451.370361,372.210297 
	C451.029236,372.184631 451.015869,371.947571 450.998779,371.354370 
	C451.292358,370.833313 451.591431,370.830017 452.024353,371.178009 
	C452.003632,371.578064 451.850861,371.788452 451.370361,372.210297 
z"/>
</svg>