<svg xmlns="http://www.w3.org/2000/svg" width="236" height="368" viewBox="0 0 236 368">
<g>
<path d="M 168.20 342.31 C165.41,344.98 165.29,345.00 150.62,345.00 L 135.85 345.00 L 132.92 342.08 C128.98,338.13 128.94,333.39 132.80,329.69 C135.60,327.01 135.67,327.00 150.85,327.00 C165.70,327.00 166.15,327.06 168.55,329.45 C172.09,333.00 171.94,338.73 168.20,342.31 ZM 107.20 341.95 L 104.15 345.00 L 74.85 345.00 L 71.92 342.08 C68.42,338.58 68.00,333.46 70.91,329.86 C72.78,327.55 73.19,327.50 89.38,327.50 C108.10,327.50 108.75,327.73 109.70,334.81 C110.18,338.41 109.88,339.27 107.20,341.95 Z" fill="rgb(42,185,241)"/>
<path d="M 141.88 315.55 C130.36,319.29 113.92,319.91 103.00,317.02 C87.43,312.89 72.41,303.18 62.59,290.88 C53.90,280.00 47.86,264.65 47.92,253.60 C47.93,253.38 47.93,253.16 47.93,252.95 C47.95,248.66 47.96,246.43 49.08,245.26 C50.35,243.93 53.05,243.96 58.82,243.90 C73.34,243.75 73.44,243.70 73.80,236.00 C74.11,229.49 75.16,227.00 77.58,227.00 C79.22,227.00 81.36,234.43 80.60,237.47 C80.29,238.68 80.67,240.54 81.44,241.59 C82.76,243.40 84.73,243.52 118.52,243.80 C120.31,243.81 122.02,243.83 123.66,243.84 C149.24,244.07 156.34,244.13 158.29,240.99 C159.04,239.79 159.03,238.10 159.01,235.78 C159.00,235.39 159.00,234.98 159.00,234.56 C159.00,227.87 159.94,226.47 163.25,228.17 C164.62,228.87 165.00,230.36 165.00,234.96 C165.00,243.38 165.89,244.00 177.99,244.00 C189.42,244.00 191.00,244.42 191.00,247.44 C191.00,248.66 191.31,249.98 191.70,250.37 C192.78,251.45 192.03,259.90 190.32,266.00 C189.47,269.02 186.76,275.42 184.31,280.20 C176.03,296.35 160.08,309.64 141.88,315.55 Z" fill="rgb(60,254,157)"/>
<path d="M 59.04 107.39 C56.34,108.28 53.90,109.00 53.62,109.00 C52.35,109.00 52.08,106.93 53.01,104.46 C53.75,102.52 53.71,101.36 52.88,100.35 C52.24,99.58 51.48,99.18 51.20,99.47 C50.91,99.75 50.02,99.05 49.22,97.90 C48.04,96.22 46.92,95.88 43.38,96.17 C39.30,96.49 38.89,96.29 37.50,93.36 C36.56,91.37 36.00,87.24 36.00,82.26 C36.00,75.40 36.42,73.48 39.06,68.19 C42.55,61.20 48.97,55.03 55.55,52.33 L 59.99 50.50 L 60.00 45.34 C60.00,34.80 65.92,21.92 74.20,14.44 C79.44,9.70 89.04,5.25 97.03,3.84 C109.21,1.69 122.98,6.08 132.60,15.18 C138.82,21.06 141.82,25.68 145.03,34.31 C148.87,44.63 155.48,49.00 167.26,49.00 C170.30,49.00 175.74,49.91 179.34,51.02 C195.66,56.07 206.03,74.27 201.80,90.50 L 200.50 95.50 L 195.52 96.00 C191.48,96.41 190.31,96.97 189.29,99.00 C188.60,100.38 188.02,102.51 188.01,103.75 C187.98,109.08 178.68,105.42 174.67,98.50 C174.03,97.40 173.28,91.19 173.00,84.71 L 172.50 72.92 L 168.50 69.49 C163.07,64.83 146.95,56.63 139.00,54.48 C130.12,52.08 109.40,52.32 100.09,54.93 C85.37,59.07 78.41,62.64 71.95,69.38 L 68.22 73.25 L 67.76 86.38 C67.19,102.59 66.16,105.06 59.04,107.39 ZM 104.40 158.86 C99.81,161.90 97.06,162.40 91.14,161.28 C89.85,161.03 86.36,158.48 83.39,155.61 C78.36,150.74 78.00,150.07 78.00,145.65 C78.00,137.59 81.68,132.55 92.25,126.12 C94.31,124.86 96.00,123.44 96.00,122.96 C96.00,122.48 97.61,121.79 99.57,121.42 C101.53,121.05 103.67,119.91 104.31,118.88 C105.59,116.82 107.00,116.39 107.00,118.05 C107.00,119.59 111.95,123.63 116.25,125.59 C119.80,127.21 120.21,127.21 123.89,125.55 C126.03,124.59 129.20,122.49 130.95,120.90 C132.70,119.30 134.43,118.02 134.81,118.03 C135.19,118.05 138.20,120.07 141.50,122.52 C144.80,124.96 148.85,127.69 150.50,128.58 C153.59,130.24 162.00,139.90 162.00,141.78 C162.00,142.36 162.56,143.06 163.25,143.34 C164.25,143.74 164.25,143.86 163.25,143.92 C162.56,143.96 162.00,144.59 162.00,145.31 C162.00,147.55 157.83,155.41 155.61,157.34 C149.39,162.76 140.73,163.02 133.53,158.00 C129.67,155.30 129.07,155.19 119.32,155.45 C109.80,155.70 108.83,155.93 104.40,158.86 ZM 138.80 106.97 C137.60,108.09 135.87,109.00 134.96,109.00 C132.55,109.00 128.00,104.45 128.00,102.05 C128.00,100.74 127.35,100.00 126.20,100.00 C125.05,100.00 123.59,98.33 122.15,95.38 C120.14,91.23 120.06,90.59 121.42,89.08 C123.37,86.93 136.69,84.54 142.26,85.34 C150.64,86.55 153.95,87.95 154.60,90.54 C154.94,91.89 154.87,93.78 154.44,94.75 C154.02,95.71 153.63,96.85 153.59,97.29 C153.41,98.85 150.42,99.97 146.36,99.98 C142.79,100.00 142.13,100.34 141.60,102.47 C141.26,103.83 140.00,105.86 138.80,106.97 ZM 113.91 81.37 C110.33,82.08 92.54,82.02 89.50,81.28 C86.93,80.65 84.00,78.06 84.00,76.40 C84.00,75.69 85.06,73.88 86.35,72.38 C88.70,69.65 88.73,69.65 100.94,69.86 C110.04,70.02 113.79,70.47 115.55,71.63 C120.40,74.80 119.48,80.25 113.91,81.37 ZM 110.55 106.55 C109.20,107.90 107.46,109.00 106.68,109.00 C104.42,109.00 100.00,105.02 100.00,102.99 C100.00,100.52 100.71,100.17 107.36,99.39 C112.98,98.73 113.00,98.74 113.00,101.41 C113.00,102.92 111.93,105.16 110.55,106.55 Z" fill="rgb(61,60,60)"/>
<path d="M 59.04 107.39 C66.16,105.06 67.19,102.59 67.76,86.38 L 68.22 73.25 L 71.95 69.38 C78.41,62.64 85.37,59.07 100.09,54.93 C109.40,52.32 130.12,52.08 139.00,54.48 C146.95,56.63 163.07,64.83 168.50,69.49 L 172.50 72.92 L 173.00 84.71 C173.28,91.19 174.03,97.40 174.67,98.50 C178.68,105.42 187.98,109.08 188.01,103.75 C188.02,102.51 188.60,100.38 189.29,99.00 C190.31,96.97 191.48,96.41 195.52,96.00 L 200.15 95.54 C199.05,97.73 198.23,98.00 195.30,98.02 C189.31,98.04 188.40,99.05 189.90,104.04 C191.47,109.30 190.50,110.43 185.19,109.53 C180.36,108.72 173.32,103.02 171.37,98.34 C170.50,96.27 170.00,91.19 170.00,84.53 L 170.00 74.00 L 163.83 69.45 C138.97,51.15 106.79,50.13 80.00,66.80 C75.20,69.79 72.70,71.25 71.40,73.42 C69.99,75.78 70.00,78.98 70.00,85.88 C70.00,86.28 70.00,86.68 70.00,87.10 L 70.00 99.84 L 66.75 104.07 C64.96,106.39 61.93,109.13 60.02,110.15 C56.05,112.26 48.00,112.68 48.00,110.78 C48.00,110.11 48.75,107.60 49.67,105.20 C51.67,99.97 50.86,99.04 44.27,99.02 C40.25,99.00 39.95,98.79 38.02,94.55 C37.88,94.25 37.75,93.94 37.63,93.63 C38.92,96.31 39.43,96.48 43.38,96.17 C46.92,95.88 48.04,96.22 49.22,97.90 C50.02,99.05 50.91,99.75 51.20,99.47 C51.48,99.18 52.24,99.58 52.88,100.35 C53.71,101.36 53.75,102.52 53.01,104.46 C52.08,106.93 52.35,109.00 53.62,109.00 C53.90,109.00 56.34,108.28 59.04,107.39 ZM 104.40 158.86 C108.83,155.93 109.80,155.70 119.32,155.45 C129.07,155.19 129.67,155.30 133.53,158.00 C140.73,163.02 149.39,162.76 155.61,157.34 C157.83,155.41 162.00,147.55 162.00,145.31 C162.00,144.59 162.56,143.96 163.25,143.92 C163.53,143.90 163.73,143.88 163.86,143.85 C164.08,148.84 162.22,153.75 158.37,158.01 C151.39,165.74 141.22,166.98 132.45,161.17 C124.32,155.79 116.48,155.76 106.50,161.09 C99.14,165.01 92.81,165.70 87.50,163.16 C76.95,158.12 72.30,146.44 76.89,136.50 C79.06,131.80 81.37,129.66 89.50,124.82 C103.36,116.56 109.41,114.56 110.47,117.90 C111.38,120.78 116.74,125.00 119.50,125.00 C122.26,125.00 127.62,120.78 128.53,117.90 C129.42,115.09 133.35,116.06 143.60,121.61 C155.36,127.98 159.47,131.26 161.87,136.23 C163.04,138.66 163.70,141.14 163.84,143.61 C163.72,143.54 163.52,143.45 163.25,143.34 C162.56,143.06 162.00,142.36 162.00,141.78 C162.00,139.90 153.59,130.24 150.50,128.58 C148.85,127.69 144.80,124.96 141.50,122.52 C138.20,120.07 135.19,118.05 134.81,118.03 C134.43,118.02 132.70,119.30 130.95,120.90 C129.20,122.49 126.03,124.59 123.89,125.55 C120.21,127.21 119.80,127.21 116.25,125.59 C111.95,123.63 107.00,119.59 107.00,118.05 C107.00,116.39 105.59,116.82 104.31,118.88 C103.67,119.91 101.53,121.05 99.57,121.42 C97.61,121.79 96.00,122.48 96.00,122.96 C96.00,123.44 94.31,124.86 92.25,126.12 C81.68,132.55 78.00,137.59 78.00,145.65 C78.00,150.07 78.36,150.74 83.39,155.61 C86.36,158.48 89.85,161.03 91.14,161.28 C97.06,162.40 99.81,161.90 104.40,158.86 ZM 113.33 84.01 C111.77,84.01 107.57,84.20 104.00,84.42 C93.53,85.07 86.11,83.85 83.90,81.12 C81.43,78.08 81.48,73.52 84.00,71.00 C85.83,69.17 87.33,69.00 101.55,69.00 C116.72,69.00 117.15,69.06 119.55,71.45 C120.90,72.80 122.00,74.86 122.00,76.03 C122.00,79.15 116.72,84.00 113.33,84.01 ZM 113.91 81.37 C119.48,80.25 120.40,74.80 115.55,71.63 C113.79,70.47 110.04,70.02 100.94,69.86 C88.73,69.65 88.70,69.65 86.35,72.38 C85.06,73.88 84.00,75.69 84.00,76.40 C84.00,78.06 86.93,80.65 89.50,81.28 C92.54,82.02 110.33,82.08 113.91,81.37 ZM 153.31 97.98 C153.46,97.76 153.56,97.53 153.59,97.29 C153.63,96.85 154.02,95.71 154.44,94.75 C154.87,93.78 154.94,91.89 154.60,90.54 C153.95,87.95 150.64,86.55 142.26,85.34 C136.69,84.54 123.37,86.93 121.42,89.08 C120.06,90.59 120.14,91.23 122.15,95.38 C123.59,98.33 125.05,100.00 126.20,100.00 C126.75,100.00 127.18,100.17 127.49,100.49 C127.14,100.16 126.62,100.00 125.90,100.00 C124.75,100.00 122.50,99.07 120.90,97.93 C116.90,95.08 116.76,89.12 120.63,86.07 C123.03,84.19 124.61,84.00 137.96,84.00 C152.02,84.00 152.74,84.10 154.83,86.31 C158.45,90.18 157.25,95.22 153.31,97.98 ZM 100.03 102.27 C100.01,102.00 100.00,101.72 100.00,101.43 L 100.00 98.00 L 113.00 98.00 L 113.00 101.05 C113.00,101.07 113.00,101.09 113.00,101.11 C112.99,98.74 112.76,98.75 107.36,99.39 C101.42,100.09 100.22,100.44 100.03,102.27 ZM 201.81 75.39 C200.52,70.16 197.97,65.23 194.44,61.10 C198.49,65.52 200.81,69.98 201.81,75.39 ZM 180.15 51.29 C179.88,51.19 179.61,51.11 179.34,51.02 C175.74,49.91 170.30,49.00 167.26,49.00 C171.73,49.00 176.10,49.79 180.15,51.29 ZM 103.35 107.47 C103.12,107.30 102.88,107.12 102.63,106.93 C101.73,106.21 101.09,105.51 100.67,104.70 C101.30,105.65 102.29,106.66 103.35,107.47 ZM 200.99 93.64 L 201.76 90.66 C201.55,91.80 201.29,92.80 200.99,93.64 ZM 110.55 106.55 C109.50,107.59 108.64,108.28 107.82,108.62 C108.65,108.18 109.68,107.41 110.55,106.55 C111.39,105.70 112.12,104.54 112.56,103.42 C112.14,104.55 111.45,105.64 110.55,106.55 ZM 142.58 100.60 C143.24,100.11 144.33,99.99 146.36,99.98 C147.00,99.98 147.61,99.95 148.18,99.90 C147.65,99.97 147.10,100.00 146.53,100.00 C144.38,100.00 143.25,100.10 142.58,100.60 ZM 36.44 89.25 C36.14,87.38 36.01,85.23 36.00,82.51 C36.01,85.04 36.16,87.35 36.44,89.25 Z" fill="rgb(74,58,53)"/>
<path d="M 192.20 253.12 C192.19,251.70 192.03,250.69 191.70,250.37 C191.31,249.98 191.00,248.66 191.00,247.44 C191.00,244.42 189.42,244.00 177.99,244.00 C165.89,244.00 165.00,243.38 165.00,234.96 C165.00,230.36 164.62,228.87 163.25,228.17 C159.94,226.47 159.00,227.87 159.00,234.56 C159.00,234.98 159.00,235.39 159.01,235.78 C159.03,238.10 159.04,239.79 158.29,240.99 C156.34,244.13 149.24,244.07 123.66,243.84 C122.02,243.83 120.31,243.81 118.52,243.80 C84.73,243.52 82.76,243.40 81.44,241.59 C80.67,240.54 80.29,238.68 80.60,237.47 C81.36,234.43 79.22,227.00 77.58,227.00 C75.16,227.00 74.11,229.49 73.80,236.00 C73.44,243.70 73.34,243.75 58.82,243.90 C53.05,243.96 50.35,243.93 49.08,245.26 C47.96,246.43 47.95,248.66 47.93,252.95 C47.93,253.16 47.93,253.38 47.92,253.60 C47.91,255.83 48.15,258.23 48.60,260.73 C47.08,254.96 46.00,249.50 46.00,246.72 C46.00,244.45 46.56,243.00 47.58,242.61 C48.45,242.27 54.30,242.00 60.58,242.00 L 72.00 242.00 L 72.00 234.02 C72.00,226.43 72.12,226.01 74.40,225.44 C75.72,225.11 77.85,224.98 79.15,225.17 C81.37,225.48 81.52,225.95 81.79,233.75 L 82.08 242.00 L 156.00 242.00 L 156.00 235.07 C156.00,226.75 157.40,224.74 162.87,225.20 L 166.50 225.50 L 166.79 233.75 L 167.08 242.00 L 179.46 242.00 C188.46,242.00 191.95,242.34 192.26,243.25 C192.67,244.43 192.58,248.56 192.20,253.12 ZM 74.57 302.68 C82.96,309.28 92.86,314.33 103.00,317.02 C92.58,314.26 82.86,309.28 74.57,302.68 ZM 54.62 278.34 C54.31,277.73 54.00,277.04 53.67,276.28 C54.88,278.88 56.24,281.45 57.74,283.91 C56.61,282.10 55.57,280.24 54.62,278.34 Z" fill="rgb(90,234,151)"/>
<path d="M 159.09 225.51 C156.71,226.42 156.00,229.15 156.00,235.07 L 156.00 242.00 L 82.08 242.00 L 81.79 233.75 C81.56,227.14 81.42,225.80 80.03,225.35 C80.09,225.36 80.15,225.37 80.21,225.38 C83.73,226.04 83.73,226.04 84.24,232.42 C84.52,235.92 85.06,239.29 85.44,239.90 C86.45,241.53 152.16,241.44 153.80,239.80 C154.48,239.12 155.00,235.88 155.00,232.36 L 155.00 226.12 ZM 192.53 246.46 C192.53,244.94 192.45,243.79 192.26,243.25 C191.95,242.34 188.46,242.00 179.46,242.00 L 167.08 242.00 L 166.79 233.75 L 166.51 225.78 C167.67,226.61 168.00,228.25 168.00,231.00 C168.00,233.68 168.44,237.02 168.98,238.43 C169.95,240.99 169.98,241.00 182.23,241.02 C188.98,241.02 194.05,241.36 193.50,241.77 C193.15,242.02 192.79,243.87 192.53,246.46 ZM 72.68 226.33 C72.05,227.24 72.00,229.16 72.00,234.02 L 72.00 242.00 L 60.58 242.00 C54.30,242.00 48.45,242.27 47.58,242.61 C46.59,242.99 46.04,244.36 46.00,246.51 C46.03,241.10 46.68,241.00 58.14,241.00 C65.96,241.00 69.20,240.64 69.54,239.75 C69.80,239.06 70.35,235.81 70.76,232.52 C71.24,228.64 71.60,227.16 72.68,226.33 ZM 165.93 225.45 L 162.87 225.20 C162.57,225.17 162.27,225.15 161.99,225.14 C163.76,224.99 165.03,225.07 165.93,225.45 ZM 46.00 246.81 C46.02,249.62 47.10,255.02 48.60,260.73 L 48.61 260.80 C47.09,255.11 46.00,249.76 46.00,247.20 C46.00,247.07 46.00,246.94 46.00,246.81 ZM 189.04 269.66 C187.89,272.85 186.35,276.22 184.31,280.20 C186.00,276.91 187.80,272.86 189.04,269.66 Z" fill="rgb(115,117,89)"/>
<path d="M 192.20 253.12 C192.41,250.63 192.53,248.28 192.53,246.46 C192.79,243.87 193.15,242.02 193.50,241.77 C194.05,241.36 188.98,241.02 182.23,241.02 C177.47,241.01 174.56,241.00 172.72,240.85 C174.53,241.00 177.37,241.00 181.98,241.00 L 194.00 241.00 L 194.00 245.25 C194.00,248.87 192.81,255.90 190.97,263.34 C191.77,259.68 192.23,255.71 192.20,253.12 ZM 184.33 280.20 C181.84,285.03 178.67,289.61 174.97,293.80 C178.67,289.60 181.83,285.03 184.31,280.20 C186.00,276.91 187.80,272.86 189.04,269.66 C189.49,268.51 189.86,267.48 190.13,266.62 C190.10,266.75 190.06,266.87 190.03,267.00 C189.36,269.48 186.79,275.42 184.33,280.20 Z" fill="rgb(134,235,184)"/>
<path d="M 155.77 226.01 L 155.00 226.12 L 155.00 232.36 C155.00,235.88 154.48,239.12 153.80,239.80 C152.16,241.44 86.45,241.53 85.44,239.90 C85.06,239.29 84.52,235.92 84.24,232.42 C83.86,227.72 83.76,226.48 82.33,225.89 C107.86,225.86 134.85,225.90 155.77,226.01 ZM 193.91 241.00 L 181.98 241.00 C177.37,241.00 174.53,241.00 172.72,240.85 C170.65,240.68 169.93,240.32 169.47,239.56 C169.42,239.47 169.37,239.38 169.32,239.28 C169.20,239.03 169.10,238.75 168.98,238.43 C168.44,237.02 168.00,233.68 168.00,231.00 C168.00,228.54 167.73,226.97 166.85,226.07 C182.46,226.17 192.69,226.31 192.94,226.46 C193.40,226.75 193.83,232.05 193.91,238.24 C193.92,239.17 193.92,240.09 193.91,241.00 ZM 72.68 226.33 C71.60,227.16 71.24,228.64 70.76,232.52 C70.35,235.81 69.80,239.06 69.54,239.75 C69.20,240.64 65.96,241.00 58.14,241.00 C48.85,241.00 46.67,241.06 46.16,243.97 C46.05,242.04 46.00,240.09 46.00,238.11 L 46.00 226.00 L 60.25 225.95 C64.44,225.93 68.75,225.92 73.12,225.91 C72.95,226.02 72.81,226.16 72.68,226.33 ZM 74.57 302.68 C78.09,305.48 81.87,308.00 85.86,310.17 C77.75,305.87 70.77,300.35 65.03,293.76 C67.89,296.96 71.10,299.95 74.57,302.68 ZM 141.88 315.55 C137.16,317.09 133.69,317.85 128.80,318.27 C133.45,317.74 137.95,316.83 141.88,315.55 C149.37,313.12 156.48,309.44 162.83,304.82 C156.47,309.56 149.66,313.03 141.88,315.55 ZM 184.33 280.20 C186.03,276.90 187.78,273.05 188.92,270.17 C187.12,275.12 184.85,279.79 182.10,284.16 C182.89,282.86 183.64,281.54 184.33,280.20 ZM 190.60 264.93 C190.73,264.41 190.86,263.88 190.97,263.34 C191.60,260.82 192.14,258.35 192.59,256.04 C192.08,259.09 191.42,262.06 190.60,264.93 ZM 94.20 314.10 C97.07,315.25 100.00,316.23 103.00,317.02 C103.23,317.08 103.46,317.14 103.69,317.20 C100.56,316.47 97.48,315.46 94.20,314.10 ZM 47.96 258.28 C48.17,259.11 48.39,259.95 48.61,260.80 C48.76,261.57 48.92,262.35 49.10,263.14 C48.68,261.55 48.30,259.92 47.96,258.28 Z" fill="rgb(154,99,74)"/>
<path d="M 113.33 84.01 C116.07,84.00 120.03,80.84 121.46,77.99 C120.57,82.87 121.75,83.00 136.53,83.00 C149.13,83.00 150.71,83.06 153.11,84.93 C151.34,84.05 148.16,84.00 137.96,84.00 C124.61,84.00 123.03,84.19 120.63,86.07 C119.54,86.93 118.76,88.03 118.31,89.22 C118.57,85.25 118.29,84.86 116.22,84.34 C114.90,84.01 111.15,84.01 107.89,84.35 C105.92,84.56 102.90,84.64 99.88,84.58 C101.19,84.56 102.57,84.51 104.00,84.42 C107.57,84.20 111.77,84.01 113.33,84.01 ZM 200.28 95.52 C200.00,96.61 199.82,97.43 199.79,97.75 C199.71,98.51 198.17,99.00 195.85,99.00 C191.79,99.00 191.41,99.56 190.77,106.50 C190.71,107.20 190.65,107.73 190.54,108.14 C190.69,107.22 190.45,105.88 189.90,104.04 C188.40,99.05 189.31,98.04 195.30,98.02 C198.23,98.00 199.05,97.73 200.15,95.54 ZM 132.23 116.54 C135.91,116.53 141.50,117.66 141.50,118.96 C141.50,119.69 143.74,121.55 146.63,123.28 C145.68,122.75 144.67,122.19 143.60,121.61 C138.23,118.70 134.60,117.06 132.23,116.54 ZM 92.11 123.28 C95.05,121.39 97.31,119.58 97.53,118.87 C97.96,117.54 103.09,116.50 106.62,116.52 C103.68,117.09 98.98,119.30 92.11,123.28 ZM 182.52 108.70 C181.00,108.22 179.62,107.43 178.15,106.24 C174.81,103.53 172.92,101.78 171.82,99.28 C173.80,102.92 178.43,106.93 182.52,108.70 ZM 148.88 124.57 C156.54,128.96 159.48,131.55 161.64,135.77 C159.62,131.87 156.40,128.96 148.88,124.57 ZM 119.50 125.00 C121.38,125.00 125.15,122.39 127.40,119.88 C125.44,122.40 121.67,125.00 119.50,125.00 ZM 111.65 119.95 C113.92,122.44 117.64,125.00 119.50,125.00 C117.35,125.00 113.63,122.45 111.65,119.95 ZM 118.09 93.92 C118.51,95.46 119.44,96.88 120.86,97.90 C120.85,97.89 120.83,97.88 120.81,97.87 C118.88,96.49 118.20,95.84 118.09,93.92 ZM 76.89 136.50 C74.28,142.15 74.66,148.36 77.40,153.60 C74.76,148.58 74.28,142.66 76.55,137.23 C77.76,134.34 79.04,132.35 81.43,130.29 C79.28,132.17 78.06,133.96 76.89,136.50 ZM 170.00 79.97 L 169.83 73.87 L 170.00 74.00 ZM 153.31 97.98 C156.96,95.42 158.26,90.91 155.55,87.19 C156.61,88.47 157.00,89.73 157.00,91.50 C157.00,94.15 155.56,96.49 153.26,98.04 C153.28,98.02 153.29,98.00 153.31,97.98 ZM 195.16 61.91 C194.93,61.64 194.69,61.37 194.44,61.10 C190.67,56.69 185.78,53.20 180.15,51.29 C186.17,53.33 191.32,57.12 195.16,61.91 ZM 121.73 74.80 C121.33,73.72 120.51,72.43 119.57,71.48 C119.60,71.51 119.63,71.54 119.66,71.57 C120.89,72.80 121.53,73.73 121.73,74.80 ZM 82.39 78.18 C81.63,75.67 82.15,72.85 84.00,71.00 C82.21,72.79 81.67,75.61 82.39,78.18 ZM 88.87 83.64 C87.52,83.36 86.55,83.01 85.73,82.53 C86.58,82.96 87.64,83.34 88.87,83.64 ZM 117.78 70.02 C115.92,69.03 112.76,69.00 101.55,69.00 C112.77,69.00 115.91,69.02 117.78,70.02 ZM 163.85 143.61 L 163.84 143.61 C163.70,141.16 163.06,138.70 161.90,136.29 C163.06,138.69 163.71,141.16 163.85,143.61 ZM 163.78 146.49 C163.87,145.61 163.90,144.73 163.86,143.85 L 163.86 143.85 C163.90,144.73 163.87,145.61 163.78,146.49 ZM 201.81 75.39 L 201.80 75.35 C201.83,75.46 201.85,75.57 201.88,75.67 C201.85,75.58 201.83,75.48 201.81,75.39 Z" fill="rgb(180,133,123)"/>
<path d="M 182.52 108.70 C183.45,109.10 184.36,109.39 185.19,109.53 C188.64,110.12 190.26,109.84 190.54,108.14 C190.65,107.73 190.71,107.20 190.77,106.50 C191.41,99.56 191.79,99.00 195.85,99.00 C197.56,99.00 198.85,98.73 199.44,98.29 L 202.81 101.46 C206.10,104.57 206.50,105.49 206.50,109.92 C206.50,114.22 206.04,115.36 203.10,118.39 C200.95,120.62 198.58,122.01 196.60,122.20 L 193.50 122.50 L 192.50 181.50 L 139.60 182.50 L 130.38 192.97 C125.31,198.73 120.76,203.58 120.25,203.75 C119.75,203.92 115.08,199.20 109.88,193.28 L 100.42 182.50 L 74.17 182.23 C54.47,182.03 47.81,181.66 47.48,180.73 C47.23,180.05 46.91,166.68 46.77,151.02 L 46.50 122.53 L 42.56 121.89 C33.34,120.40 29.62,108.92 36.00,101.65 C38.50,98.81 39.23,97.78 38.67,95.95 C40.08,98.84 40.75,99.00 44.27,99.02 C50.86,99.04 51.67,99.97 49.67,105.20 C48.75,107.60 48.00,110.11 48.00,110.78 C48.00,112.68 56.05,112.26 60.02,110.15 C61.93,109.13 64.96,106.39 66.75,104.07 L 70.00 99.84 L 70.00 87.10 C70.00,86.68 70.00,86.28 70.00,85.88 C70.00,78.98 69.99,75.78 71.40,73.42 C72.70,71.25 75.20,69.79 80.00,66.80 L 80.00 66.80 C95.65,57.06 113.18,53.36 129.99,55.63 L 129.99 55.63 C141.93,57.24 153.51,61.86 163.83,69.45 L 169.83 73.87 L 170.00 79.97 L 170.00 84.53 C170.00,91.19 170.50,96.27 171.37,98.34 C171.50,98.65 171.65,98.97 171.82,99.28 C172.92,101.78 174.81,103.53 178.15,106.24 C179.62,107.43 181.00,108.22 182.52,108.70 ZM 92.11 123.28 C91.28,123.77 90.40,124.28 89.50,124.82 C85.76,127.04 83.26,128.70 81.43,130.29 C79.04,132.35 77.76,134.34 76.55,137.23 C74.28,142.66 74.76,148.58 77.40,153.59 L 77.40 153.60 C79.49,157.57 82.95,160.99 87.50,163.16 C92.81,165.70 99.14,165.01 106.50,161.09 C116.48,155.76 124.32,155.79 132.45,161.17 C141.22,166.98 151.39,165.74 158.37,158.01 C161.54,154.50 163.36,150.56 163.78,146.49 L 163.78 146.49 C163.87,145.61 163.90,144.73 163.86,143.85 C164.05,143.80 164.05,143.73 163.85,143.61 C163.71,141.16 163.06,138.69 161.90,136.29 C161.89,136.27 161.88,136.25 161.87,136.23 C161.79,136.07 161.72,135.92 161.64,135.77 L 161.64 135.77 C159.48,131.55 156.54,128.96 148.88,124.57 C148.17,124.15 147.42,123.72 146.63,123.28 C143.74,121.55 141.50,119.69 141.50,118.96 C141.50,118.05 138.75,117.22 135.83,116.81 C139.61,116.64 144.57,115.68 146.43,114.45 C149.77,112.27 153.00,106.11 153.00,101.93 C153.00,99.47 152.65,98.92 151.42,99.39 C150.76,99.65 149.23,99.86 147.64,99.95 C147.82,99.94 148.00,99.92 148.18,99.90 C150.66,99.67 152.54,98.98 153.26,98.04 C155.56,96.49 157.00,94.15 157.00,91.50 C157.00,89.73 156.61,88.47 155.55,87.19 C155.33,86.89 155.09,86.60 154.83,86.31 C154.25,85.71 153.78,85.26 153.11,84.93 C150.71,83.06 149.13,83.00 136.53,83.00 C121.75,83.00 120.57,82.87 121.46,77.99 C121.80,77.30 122.00,76.63 122.00,76.03 C122.00,75.69 121.90,75.26 121.73,74.80 C121.53,73.73 120.89,72.80 119.66,71.57 C119.63,71.54 119.60,71.51 119.57,71.48 L 119.57 71.48 C119.56,71.47 119.55,71.46 119.55,71.45 C118.92,70.83 118.43,70.36 117.78,70.02 C115.91,69.02 112.77,69.00 101.55,69.00 C87.33,69.00 85.83,69.17 84.00,71.00 C82.21,72.79 81.67,75.61 82.39,78.18 C82.68,79.23 83.18,80.24 83.90,81.12 C84.32,81.64 84.94,82.11 85.73,82.53 C86.55,83.01 87.52,83.36 88.87,83.64 C91.67,84.33 95.41,84.65 99.88,84.58 C102.90,84.64 105.92,84.56 107.89,84.35 C111.15,84.01 114.90,84.01 116.22,84.34 C118.29,84.86 118.57,85.25 118.31,89.22 C117.73,90.73 117.66,92.38 118.09,93.92 C118.20,95.84 118.88,96.49 120.81,97.87 C120.83,97.88 120.85,97.89 120.86,97.90 C120.88,97.91 120.89,97.92 120.90,97.93 C122.50,99.07 124.75,100.00 125.90,100.00 C126.62,100.00 127.14,100.16 127.49,100.49 C127.75,100.77 127.92,101.16 127.98,101.65 C127.36,100.46 126.56,100.00 125.29,100.00 C123.44,100.00 123.00,100.55 123.00,102.85 C123.00,104.47 123.90,106.51 125.10,107.59 C126.26,108.64 127.90,110.85 128.74,112.50 C129.59,114.15 130.78,115.86 131.39,116.30 C131.46,116.35 131.53,116.39 131.62,116.44 C129.86,116.18 128.92,116.69 128.53,117.90 C128.34,118.51 127.94,119.19 127.40,119.88 C125.15,122.39 121.38,125.00 119.50,125.00 C117.64,125.00 113.92,122.44 111.65,119.95 C111.09,119.24 110.67,118.54 110.47,117.90 C110.10,116.73 109.12,116.22 107.42,116.39 C107.43,116.39 107.45,116.38 107.46,116.38 C108.35,116.03 109.93,114.12 110.96,112.13 C111.99,110.13 113.77,107.72 114.92,106.76 C117.81,104.34 117.87,98.00 115.00,98.00 C113.44,98.00 113.00,98.67 113.00,101.05 L 113.00 98.00 L 87.00 98.00 L 87.00 101.55 C87.00,107.44 91.31,113.61 97.00,115.88 C98.43,116.45 100.42,116.79 102.36,116.89 C99.93,117.31 97.80,118.03 97.53,118.87 C97.31,119.58 95.05,121.39 92.11,123.28 ZM 110.50 106.59 C109.29,107.99 107.86,109.00 106.68,109.00 C106.96,109.00 107.36,108.86 107.82,108.62 C108.63,108.28 109.48,107.61 110.50,106.59 ZM 142.58 100.60 C142.96,100.32 143.48,100.17 144.25,100.08 C142.92,100.25 142.31,100.74 141.72,102.02 C141.92,101.36 142.17,100.90 142.58,100.60 ZM 36.44 89.25 C36.69,90.96 37.04,92.35 37.46,93.28 C36.82,91.99 36.37,89.76 36.16,86.81 C36.23,87.69 36.32,88.49 36.44,89.25 ZM 138.80 106.97 C138.84,106.93 138.88,106.89 138.92,106.85 C138.43,107.36 137.92,107.78 137.44,108.03 C137.38,108.06 137.32,108.09 137.27,108.12 C137.80,107.80 138.34,107.40 138.80,106.97 ZM 132.02 107.68 C131.55,107.37 131.06,106.95 130.61,106.46 C131.06,106.90 131.54,107.32 132.02,107.68 ZM 36.47 74.98 C36.89,72.84 37.66,70.99 39.06,68.19 C37.67,70.99 36.89,72.84 36.47,74.98 ZM 200.99 93.64 C201.25,92.92 201.48,92.08 201.67,91.13 C201.48,92.08 201.25,92.92 200.98,93.64 Z" fill="rgb(208,136,120)"/>
<path d="M 193.91 241.00 C193.92,240.09 193.92,239.17 193.91,238.24 C193.85,232.94 193.52,228.30 193.14,226.89 C193.48,227.96 193.78,230.68 193.86,233.71 C194.10,242.72 195.02,249.00 196.11,249.00 C197.79,249.00 197.00,250.77 195.11,251.26 C194.13,251.52 193.46,252.35 192.98,254.00 C193.63,250.36 194.00,247.27 194.00,245.25 L 194.00 241.00 ZM 166.85 226.07 L 166.84 226.06 C182.41,226.16 192.66,226.29 192.90,226.44 C192.91,226.44 192.92,226.45 192.92,226.46 C192.38,226.31 182.23,226.17 166.85,226.07 ZM 165.67 302.65 C164.27,303.78 162.83,304.86 161.36,305.89 C161.85,305.54 162.34,305.18 162.83,304.82 L 162.83 304.82 C163.79,304.12 164.74,303.40 165.67,302.65 ZM 155.77 226.01 C148.83,225.97 141.23,225.94 133.23,225.92 C141.22,225.94 148.84,225.97 155.80,226.00 Z" fill="rgb(214,213,214)"/>
<path d="M 165.93 225.45 C165.03,225.07 163.76,224.99 161.99,225.14 C160.82,225.11 159.87,225.21 159.09,225.51 L 155.80 226.00 C148.85,225.97 141.23,225.94 133.24,225.92 L 133.23 225.92 C117.11,225.88 99.39,225.87 82.33,225.89 C81.82,225.68 81.14,225.55 80.21,225.38 C80.15,225.37 80.09,225.36 80.03,225.35 C79.78,225.27 79.49,225.22 79.15,225.17 C77.85,224.98 75.72,225.11 74.40,225.44 C73.86,225.57 73.45,225.70 73.12,225.91 C68.75,225.92 64.44,225.93 60.25,225.95 L 46.00 226.00 L 46.00 238.11 C46.00,240.09 46.05,242.04 46.16,243.97 C46.04,244.65 46.01,245.48 46.00,246.51 C46.00,246.58 46.00,246.65 46.00,246.72 C46.00,246.75 46.00,246.78 46.00,246.81 C46.00,246.94 46.00,247.07 46.00,247.20 C46.00,248.83 46.45,251.60 47.16,254.86 C46.77,253.31 46.48,252.17 46.36,251.75 C46.07,250.73 44.90,250.00 43.56,250.00 C42.30,250.00 38.39,249.08 34.89,247.97 C28.19,245.83 23.02,241.76 20.45,236.60 C18.72,233.14 18.54,223.76 20.14,220.68 C21.59,217.91 43.02,186.93 44.68,185.22 C46.48,183.36 46.97,179.71 46.90,161.93 C47.07,172.46 47.29,180.22 47.48,180.73 C47.81,181.66 54.47,182.03 74.17,182.23 L 100.42 182.50 L 109.88 193.28 C115.08,199.20 119.75,203.92 120.25,203.75 C120.76,203.58 125.31,198.73 130.38,192.97 L 139.60 182.50 L 192.50 181.50 L 193.50 122.50 L 193.00 181.50 L 205.41 199.30 C219.72,219.83 221.00,222.20 221.00,228.28 C221.00,234.24 218.87,239.03 214.51,242.85 C212.54,244.58 210.83,246.01 210.72,246.03 C210.60,246.04 206.68,247.31 202.02,248.85 C193.63,251.61 193.53,251.68 192.72,255.57 C192.64,255.95 192.56,256.33 192.48,256.71 C192.52,256.49 192.56,256.26 192.59,256.04 C192.73,255.34 192.86,254.66 192.98,254.00 C193.46,252.35 194.13,251.52 195.11,251.26 C197.00,250.77 197.79,249.00 196.11,249.00 C195.02,249.00 194.10,242.72 193.86,233.71 C193.78,230.68 193.48,227.96 193.14,226.89 C193.07,226.65 193.01,226.51 192.94,226.46 C192.94,226.46 192.93,226.46 192.92,226.46 C192.92,226.45 192.91,226.44 192.90,226.44 C192.66,226.29 182.41,226.16 166.84,226.06 C166.74,225.96 166.63,225.86 166.51,225.78 L 166.50 225.50 ZM 94.20 314.10 C94.82,314.36 95.43,314.60 96.03,314.83 C89.45,312.42 83.35,309.20 77.85,305.28 C80.38,307.05 83.05,308.68 85.86,310.17 L 85.86 310.17 C88.55,311.64 91.34,312.96 94.20,314.10 ZM 180.02 287.36 C180.75,286.31 181.44,285.25 182.10,284.16 C182.83,283.00 183.53,281.82 184.19,280.62 C182.93,282.97 181.54,285.21 180.02,287.36 Z" fill="rgb(247,159,218)"/>
<path d="M 0.00 184.00 L 0.00 0.00 L 118.00 0.00 L 236.00 0.00 L 236.00 184.00 L 236.00 368.00 L 118.00 368.00 L 0.00 368.00 L 0.00 184.00 ZM 107.20 341.95 C109.88,339.27 110.18,338.41 109.70,334.81 C108.75,327.73 108.10,327.50 89.38,327.50 C73.19,327.50 72.78,327.55 70.91,329.86 C68.00,333.46 68.42,338.58 71.92,342.08 L 74.85 345.00 L 89.50 345.00 L 104.15 345.00 L 107.20 341.95 ZM 168.20 342.31 C171.94,338.73 172.09,333.00 168.55,329.45 C166.15,327.06 165.70,327.00 150.85,327.00 C135.67,327.00 135.60,327.01 132.80,329.69 C128.94,333.39 128.98,338.13 132.92,342.08 L 135.85 345.00 L 150.62 345.00 C165.29,345.00 165.41,344.98 168.20,342.31 ZM 141.88 315.55 C153.56,311.76 163.06,305.84 172.12,296.70 C183.03,285.69 188.86,274.05 192.72,255.57 C193.53,251.68 193.63,251.61 202.02,248.85 C206.68,247.31 210.60,246.04 210.72,246.03 C210.83,246.01 212.54,244.58 214.51,242.85 C218.87,239.03 221.00,234.24 221.00,228.28 C221.00,222.20 219.72,219.83 205.41,199.30 L 193.00 181.50 L 193.25 152.00 L 193.50 122.50 L 196.60 122.20 C198.58,122.01 200.95,120.62 203.10,118.39 C206.04,115.36 206.50,114.22 206.50,109.92 C206.50,105.49 206.10,104.57 202.81,101.46 L 199.11 97.98 L 200.74 94.24 C201.80,91.82 202.38,87.68 202.39,82.50 C202.41,72.17 199.33,65.33 191.40,58.08 C185.04,52.27 176.35,49.00 167.26,49.00 C155.48,49.00 148.87,44.63 145.03,34.31 C141.82,25.68 138.82,21.06 132.60,15.18 C122.98,6.08 109.21,1.69 97.03,3.84 C89.04,5.25 79.44,9.70 74.20,14.44 C65.92,21.92 60.00,34.80 60.00,45.34 L 59.99 50.50 L 55.55 52.33 C48.97,55.03 42.55,61.20 39.06,68.19 C36.40,73.52 36.00,75.38 36.01,82.41 C36.01,87.63 36.54,91.52 37.51,93.36 C39.53,97.25 39.45,97.73 36.00,101.65 C29.62,108.92 33.34,120.40 42.56,121.89 L 46.50 122.53 L 46.80 150.02 C47.11,178.25 46.83,183.00 44.68,185.22 C43.02,186.93 21.59,217.91 20.14,220.68 C18.54,223.76 18.72,233.14 20.45,236.60 C23.02,241.76 28.19,245.83 34.89,247.97 C38.39,249.08 42.30,250.00 43.56,250.00 C44.90,250.00 46.07,250.73 46.36,251.75 C46.64,252.71 47.84,257.55 49.04,262.50 C55.53,289.32 75.82,309.82 103.00,317.02 C113.92,319.91 130.36,319.29 141.88,315.55 ZM 97.00 115.88 C91.31,113.61 87.00,107.44 87.00,101.55 L 87.00 98.00 L 93.50 98.00 L 100.00 98.00 L 100.00 101.43 C100.00,103.94 100.70,105.41 102.63,106.93 C104.08,108.07 105.90,109.00 106.68,109.00 C109.24,109.00 113.00,104.26 113.00,101.05 C113.00,98.67 113.44,98.00 115.00,98.00 C117.87,98.00 117.81,104.34 114.92,106.76 C113.77,107.72 111.99,110.13 110.96,112.13 C109.93,114.12 108.35,116.03 107.46,116.38 C105.11,117.28 99.89,117.03 97.00,115.88 ZM 131.39 116.30 C130.78,115.86 129.59,114.15 128.74,112.50 C127.90,110.85 126.26,108.64 125.10,107.59 C123.90,106.51 123.00,104.47 123.00,102.85 C123.00,100.55 123.44,100.00 125.29,100.00 C126.98,100.00 127.84,100.81 128.54,103.09 C129.07,104.80 130.71,106.91 132.20,107.79 C134.52,109.18 135.24,109.21 137.44,108.03 C138.84,107.28 140.53,105.17 141.20,103.33 C142.27,100.37 142.81,100.00 146.12,100.00 C148.16,100.00 150.55,99.73 151.42,99.39 C152.65,98.92 153.00,99.47 153.00,101.93 C153.00,106.11 149.77,112.27 146.43,114.45 C143.54,116.35 133.21,117.62 131.39,116.30 Z" fill="rgb(254,254,254)"/>
</g>
</svg>