<svg version="1.1" id="Layer_1" xmlns="http://www.w3.org/2000/svg" xmlns:xlink="http://www.w3.org/1999/xlink" x="0px" y="0px"
	 width="100%" viewBox="0 0 372 362" enable-background="new 0 0 372 362" xml:space="preserve">
<path fill="#FFFFFE" opacity="1.000000" stroke="none" 
	d="
M226.000000,363.000000 
	C150.692154,363.000000 75.884300,363.000000 1.038224,363.000000 
	C1.038224,242.399918 1.038224,121.799812 1.038224,1.099858 
	C124.891136,1.099858 248.782379,1.099858 372.836792,1.099858 
	C372.836792,121.666489 372.836792,242.333221 372.836792,363.000000 
	C324.133209,363.000000 275.316620,363.000000 226.000000,363.000000 
M197.860718,31.356213 
	C192.061813,35.835686 186.291153,40.352303 180.458176,44.786968 
	C167.958511,54.290173 154.099899,59.344418 138.145187,58.195160 
	C126.191055,57.334076 114.174980,57.279926 102.236023,56.276840 
	C91.594604,55.382774 82.001167,57.537628 73.621277,64.135750 
	C61.439503,73.727379 57.061054,88.757256 61.860786,104.636719 
	C66.187599,118.951576 70.799927,133.180130 75.373489,147.723923 
	C73.819695,147.910553 72.702293,148.101135 71.577377,148.171402 
	C55.118645,149.199615 38.655388,150.158478 22.200539,151.244858 
	C9.458478,152.086121 4.147288,160.367233 9.512794,171.795364 
	C27.096691,209.247803 56.978115,228.609116 98.085274,230.299713 
	C103.486290,230.521835 105.124756,233.091476 107.270599,236.629684 
	C130.436874,274.827484 178.822739,295.007935 222.254150,284.635132 
	C274.499207,272.157349 309.221619,225.915298 306.113647,172.563461 
	C305.823883,167.589569 307.352081,164.851898 311.299835,162.026550 
	C341.439484,140.455780 356.812439,98.858849 348.272552,62.809135 
	C345.865417,52.647694 337.097198,48.767380 328.021179,54.006535 
	C322.688538,57.084846 317.536743,60.475658 312.289917,63.703667 
	C302.274506,69.865417 292.249298,76.011230 281.861572,82.388733 
	C281.118286,80.164734 280.543640,78.479660 279.991333,76.787285 
	C275.297150,62.403419 271.577515,47.606358 265.688171,33.730019 
	C256.862946,12.936209 229.639511,6.589693 211.590271,20.183477 
	C207.069656,23.588182 202.798798,27.324505 197.860718,31.356213 
M155.617844,305.915924 
	C149.148682,302.860199 142.790009,299.536346 136.183334,296.814392 
	C127.269234,293.141815 117.340790,297.125275 113.373138,305.526703 
	C109.102676,314.569336 112.027916,324.408386 120.912003,329.053711 
	C129.753296,333.676697 138.769058,338.011658 147.922165,341.979553 
	C156.603302,345.742767 165.736145,342.282074 170.204697,334.182312 
	C174.539108,326.325653 172.433640,316.374634 165.023560,311.026154 
	C162.350922,309.097076 159.219925,307.802979 155.617844,305.915924 
M334.927826,231.155991 
	C326.409363,230.409485 320.084930,233.738617 315.910675,241.243073 
	C311.621094,248.954834 307.075867,256.528473 302.938232,264.319611 
	C298.016479,273.587250 301.008636,284.085449 309.671326,289.032806 
	C318.309814,293.966370 328.760651,291.014801 334.170197,281.887939 
	C338.583801,274.441315 342.822693,266.886963 346.976105,259.291290 
	C353.701385,246.992203 349.069275,235.645126 334.927826,231.155991 
z"/>
<path fill="#72CC01" opacity="1.000000" stroke="none" 
	d="
M198.136932,31.132317 
	C202.798798,27.324505 207.069656,23.588182 211.590271,20.183477 
	C229.639511,6.589693 256.862946,12.936209 265.688171,33.730019 
	C271.577515,47.606358 275.297150,62.403419 279.991333,76.787285 
	C280.543640,78.479660 281.118286,80.164734 281.861572,82.388733 
	C292.249298,76.011230 302.274506,69.865417 312.289917,63.703667 
	C317.536743,60.475658 322.688538,57.084846 328.021179,54.006535 
	C337.097198,48.767380 345.865417,52.647694 348.272552,62.809135 
	C356.812439,98.858849 341.439484,140.455780 311.299835,162.026550 
	C307.352081,164.851898 305.823883,167.589569 306.113647,172.563461 
	C309.221619,225.915298 274.499207,272.157349 222.254150,284.635132 
	C178.822739,295.007935 130.436874,274.827484 107.270599,236.629684 
	C105.124756,233.091476 103.486290,230.521835 98.085274,230.299713 
	C56.978115,228.609116 27.096691,209.247803 9.512794,171.795364 
	C4.147288,160.367233 9.458478,152.086121 22.200539,151.244858 
	C38.655388,150.158478 55.118645,149.199615 71.577377,148.171402 
	C72.702293,148.101135 73.819695,147.910553 75.373489,147.723923 
	C70.799927,133.180130 66.187599,118.951576 61.860786,104.636719 
	C57.061054,88.757256 61.439503,73.727379 73.621277,64.135750 
	C82.001167,57.537628 91.594604,55.382774 102.236023,56.276840 
	C114.174980,57.279926 126.191055,57.334076 138.145187,58.195160 
	C154.099899,59.344418 167.958511,54.290173 180.458176,44.786968 
	C186.291153,40.352303 192.061813,35.835686 198.136932,31.132317 
z"/>
<path fill="#74CD03" opacity="1.000000" stroke="none" 
	d="
M155.957977,306.067535 
	C159.219925,307.802979 162.350922,309.097076 165.023560,311.026154 
	C172.433640,316.374634 174.539108,326.325653 170.204697,334.182312 
	C165.736145,342.282074 156.603302,345.742767 147.922165,341.979553 
	C138.769058,338.011658 129.753296,333.676697 120.912003,329.053711 
	C112.027916,324.408386 109.102676,314.569336 113.373138,305.526703 
	C117.340790,297.125275 127.269234,293.141815 136.183334,296.814392 
	C142.790009,299.536346 149.148682,302.860199 155.957977,306.067535 
z"/>
<path fill="#74CD03" opacity="1.000000" stroke="none" 
	d="
M335.321472,231.278656 
	C349.069275,235.645126 353.701385,246.992203 346.976105,259.291290 
	C342.822693,266.886963 338.583801,274.441315 334.170197,281.887939 
	C328.760651,291.014801 318.309814,293.966370 309.671326,289.032806 
	C301.008636,284.085449 298.016479,273.587250 302.938232,264.319611 
	C307.075867,256.528473 311.621094,248.954834 315.910675,241.243073 
	C320.084930,233.738617 326.409363,230.409485 335.321472,231.278656 
z"/>
</svg>