<?xml version="1.0" encoding="UTF-8"?>
<svg id="Layer_1" xmlns="http://www.w3.org/2000/svg" version="1.1" viewBox="0 0 1920 375">
  <!-- Generator: Adobe Illustrator 29.1.0, SVG Export Plug-In . SVG Version: 2.1.0 Build 142)  -->
  <defs>
    <style>
      .st0 {
        fill: #f8fbf4;
      }

      .st1 {
        fill: #e2c028;
      }

      .st2 {
        fill: #52c70a;
      }

      .st3 {
        fill: #51c704;
      }

      .st4 {
        fill: #f3a9c9;
      }

      .st5 {
        fill: #fff;
      }

      .st6 {
        fill: #64dd05;
      }

      .st7 {
        fill: #68a321;
      }

      .st8 {
        fill: #e88d0a;
      }

      .st9 {
        fill: #57b917;
      }

      .st10 {
        fill: #91490f;
      }

      .st11 {
        fill: #80dc26;
      }

      .st12 {
        fill: #414141;
      }

      .st13 {
        fill: #9dd45c;
      }
    </style>
  </defs>
  <path class="st7" d="M1087.2,220.4c.2.5.5,1.1.7,1.6-.2-.5-.5-1.1-.7-1.6Z"/>
  <path class="st7" d="M1087.2,220.3c-1-2.4-2-4.9-3-7.5,0,.1.1.2.2.3,1,2.5,1.9,4.9,2.9,7.2Z"/>
  <path class="st9" d="M1080.9,210.2c.4.3.7.8,1,1.5-.3-.2-.5-.5-.7-.8,0,0-.1-.2-.1-.2,0,0,0,0,0,0,0-.2-.2-.3-.2-.5Z"/>
  <path class="st9" d="M1081.2,210.9c.2.3.4.5.7.8,0,0,0,0,0,0-.2-.2-.5-.4-.7-.8Z"/>
  <path class="st9" d="M1081.1,210.7c0,0,0,.2.1.2,0,0-.1-.1-.1-.2Z"/>
  <path class="st7" d="M1082.3,211.7c-.7-.8-1-1.3-1.2-1.8-.2-.7-.4-1.4-.7-2.3,0-.1,0-.3-.1-.4-.2-.7-.2-1.2-.2-2,1.3,1.8,2.6,3.9,4,6.4-.4.3-.9.3-1.7,0Z"/>
  <path class="st9" d="M1080.9,210.2c0,.2.1.4.2.5,0-.2-.1-.3-.2-.5Z"/>
  <path class="st9" d="M1071.4,193.7c.7,1.4,1.4,2.7,2.1,4.1-.7-1.3-1.4-2.7-2.1-4.1Z"/>
  <path class="st9" d="M1069.1,189.3c.8,1.5,1.5,2.9,2.2,4.3-.7-1.4-1.5-2.8-2.2-4.3h0Z"/>
  <path class="st2" d="M1068.8,188.7h0c-.2-.4-.5-.7-.7-1,.2.3.5.7.7,1Z"/>
  <path class="st2" d="M1063.9,188.4c.4-.9,1.6-1.5,2.8-2.3.6.5,1,1,1.4,1.5,0,0,0,0,0,0,.2.3.4.7.7,1.1-.6.6-1.3,1.1-2,1.5,0,0-.2.1-.3.2-1.1.6-2.2,1.2-3.3,1.8.2-1.3.1-2.7.7-3.9Z"/>
  <path class="st2" d="M1051.3,170.1c1.3-1,2.7-2,4.3-3,2.3,3,4.2,6.2,6.2,9.6-1-.4-2.2-1-3.3-1.7-.2,0-.3-.2-.5-.3-1-.7-1.8-1.8-2.8-2.5-1.2-.8-2.6-1.4-4-2.1Z"/>
  <path class="st2" d="M1055,107.5c-1.4-1.8-2.1-3.6-2.2-5.5,0-.6,0-1.2,0-1.8.2-2.3.9-4.6,1.9-7,.3,4.1.4,8.4.4,13v1.4Z"/>
  <path class="st2" d="M1055,112.2v.4c0-.3-.2-.7-.2-1.1,0,0,0-.2,0-.3,0-.1,0-.2,0-.3,0,0,0-.2,0-.3,0-.1,0-.3,0-.5.2.6.3,1.2.3,2.1Z"/>
  <path class="st2" d="M1049.3,119.4c2.1-1.8,3.9-3.1,5.6-4.4,0,9,0,18,0,27.5-1.3-1.1-2.6-2.5-4-4-.2-.2-.5-.5-.7-.8,0,0,0,0,0,0-.2-.2-.5-.5-.8-.8-.4-5.7-.4-11.4-.1-17.6Z"/>
  <path class="st2" d="M1054.7,83.6c0,.3.2.7.2,1-.2-.4-.4-.9-.6-1.4-.1-.5-.3-1.1-.4-1.7.3.6.5,1.3.8,2.1Z"/>
  <path class="st2" d="M1054.7,110.8c0,.1,0,.2,0,.3,0-.1,0-.2,0-.3Z"/>
  <path class="st2" d="M1054,81.5c.1.7.2,1.2.4,1.7-.2-.6-.4-1.2-.5-1.9,0,0,0,.1.1.2Z"/>
  <path class="st3" d="M998.1,54.4c1.6-1,3.4-1.6,5.8-2.2,1.1.4,2,.6,2.6.4.1,0,.3,0,.4-.1,0,0,.1,0,.2-.1.6-.4.8-1.2.9-2.4,3.7-2.2,7.5-3.4,11.4-3.7,5.3-.5,10.6.5,15.8,2.3,4.7,1.7,10,4.9,12.5,8.9.9,1.4,1.8,2.9,2.6,4.4,3,5.5,4.9,11.7,3.5,19,0,.2,0,.4,0,.6,0,0,0-.1-.1-.2.1.7.3,1.4.5,1.9.2.6.4,1.2.6,1.8,0,2.4,0,4.7-.3,7.7-.9,2.6-1.7,5.1-1.9,7.5,0,.6,0,1.2,0,1.8.1,2.1.8,4.1,2.2,6,0,.4,0,.9-.3,1.8,0,.3,0,.5,0,.8,0,0,0,.2,0,.3,0,.1,0,.2,0,.3,0,.1,0,.2,0,.3,0,.5.2,1,.2,1.5v1.7c-1.8,1.7-3.5,3-5.6,4.3-2.4-8.3-4.9-16.4-9.6-23.6-.2-.3-.4-.6-.6-.9-.4-.6-.9-1.2-1.3-1.8-1.4-1.8-2.9-3.6-4.6-5.2-.4-2.9-.3-5.9-.8-8.6-.2-.9-.4-1.8-.8-2.7-2.2-4.8-5.2-9.5-8.8-13.4-1.8-2-5.3-2.7-8.2-3.6-2-.6-4.1-1.2-6.1-1.7-3.4-.9-6.9-1.9-10.3-3Z"/>
  <path class="st13" d="M1033.6,150.1c2-2.6,3.5-5.8,4.3-9-.8,3.2-2.3,6.3-4.3,9Z"/>
  <path class="st13" d="M1038.4,127.6c-2.2-7.7-4.3-15.8-6.3-24.3,1.1,2.2,2.5,4.5,3.6,6.9h0c.2.6.5,1.1.7,1.6.6,1.4,1.2,2.8,1.6,4.2,1,3.5.4,7.5.3,11.6Z"/>
  <path class="st13" d="M1031,152.9c.4-.3.7-.6,1-1-.3.3-.7.7-1,1Z"/>
  <path class="st13" d="M1026.8,97.6c.1-.4.3-.5.9-.7,1.2,1.2,2.2,2.4,3.1,3.8.3.5.6,1,.9,1.5-1.2-.9-2.4-2-3.7-3.2s-.8-.9-1.2-1.3Z"/>
  <path class="st2" d="M938.4,81.8c3.2,0,6.4-1.1,9.3-1.1,0,.3-.1.5-.2.8,0,0,0,0,0,.1-.1.3-.2.6-.3.9,0,.1,0,.2,0,.3,0,.3,0,.5,0,.7.6,1.5,1.6,2.8,2.5,4.2,1.3-1,3.3-1.8,3.8-3.2.4-1.1.5-1.9.4-2.5,0,0,0-.1,0-.2h0c0-.1,0-.2,0-.3-.6-2.1-3.5-1.7-5.7-2.4,0-1,.2-1.9.3-2.8,0-.3,0-.5,0-.8,0-.8.2-1.6.3-2.5-4.3.9-8,1.3-11.4,2.4-1.8.6-3.2,2.3-4.8,3.6,1.9.9,3.8,2.7,5.8,2.7ZM1010.4,74.1c-2.2-4.4-3.7-8.1-5.8-11.6-2.8-4.8-6.6-4.9-9.7-.4-6.9,10-13.7,20-20.4,30.1-7.6,11.6-26.4,20-41.3,7.8-9.6-7.9-19.4-15.6-29.1-23.6-4.8-3.9-8.9-3-10.3,3-1,4.3-.9,8.8-1.4,14-2.3-1.7-4.1-3.1-5.9-4.4-3.2-2.4-6.6-2.7-8,1.6-1.4,4.5-1.7,9.3-2.7,14,0,.3-.1.5-.2.8s-.1.5-.2.8c-.5,1.5-1.2,3.1-2,4.7-1.3-4.2-2.5-8.5-3.4-12.9-.1-.6-.2-1.2-.4-1.9-.3-1.5-.1-3.6.8-4.6,4.1-4.8,9-9,12.6-14.2,3.5-5.1,6.5-10.8,8.2-16.7,1.2-3.9,3.5-3.9,6.1-4.4,10.5-2,17.6,4.4,24.6,10.6.7.6,1.6,1.8,2.3,1.6,6.2-1,12.3-2.1,18.4-3.3.5,0,.8-1,1.2-1.9,3.1-.3,6-.4,8.7.8,0,0,.1,0,.2,0,.1,0,.3.1.4.2.2.1.4.2.6.4.2.1.4.3.6.4.2.1.3.2.5.4.2.2.4.4.7.6,1.2,1.2,4.8.6,7-.1,2.9-.9,5.8-1.9,8.7-2.9,8.7-2.9,17.4-5.9,26.4-8.7,3.7,1.1,7.2,2,10.7,2.9,2,.6,4.1,1.1,6.1,1.7,2.9.9,6.4,1.6,8.2,3.6,3.5,4,6.6,8.6,8.8,13.4.4.8.6,1.7.8,2.7.5,2.7.3,5.6.6,8.3-.7-.8-1.4-1.6-2.1-2.4-.7-.8-1.4-1.7-1.8-2.7-2-4.1-3-8.9-5.5-12.6-3.9-5.5-7-5-10.4.8-.7,1.2-1.6,2.3-2.7,3.9Z"/>
  <path class="st12" d="M1016.6,122c.4-.6.8-1.1,1.1-1.6-.3.5-.7,1-1.1,1.7,0,0,0,0,0,0Z"/>
  <path class="st7" d="M1026.4,251c-5.8,4.8-11.9,9.3-18,14,.7-1.1,1.5-2.4,2.6-3.5s.3-.3.5-.4c6-5.2,12.2-10.2,17.9-15.6,3.4-3.2,6.3-4.7,11.4-2.9,13.4,4.8,27.3,7,41.6,4.3,11.5-2.1,14.3-10.1,7.5-21.2-.7-1.2-1.4-2.5-2-3.8-.2-.5-.5-1.1-.7-1.6h0c-1-2.3-1.9-4.7-2.9-7.2,2.8,4.6,5.8,9.2,8.5,14.1.9,1.7,1.7,3.4,2.5,5.1,3.6,8.3-2.5,15.1-13.3,16.7-14.9,2.2-29.2.1-43.2-4.8-2.9-1-4.3-.1-6.6,1.9-1.9,1.7-3.8,3.3-5.7,4.9Z"/>
  <path class="st8" d="M1004.8,268.9c3.5,4.1,4.3,9,3.5,13,0,.2-.1.5-.2.7,0,.2-.1.5-.2.7-.8,2.3-2.1,4.2-3.7,5.4-2,1.4-4.8,2.5-7.2,2.6-8.1.2-16.2,0-24.3-.2-.6,0-1.2,0-1.8-.2-.9-.2-1.6-.5-2.4-.8,0,0,0,0,0,0-2.6-1.4-4.4-4-5.6-7.5.9-1.3,1.8-2.5,2.8-3.2.2-.1.5-.3.7-.4.7-.2,1.4-.5,2-.6,2-.6,4.2-.9,6.2-1.4,1.2,0,2.4-.1,4.3-.2.2,0,.3,0,.4-.1,5.6-1.6,10.7-3.2,15.9-4.8s1.6-.5,2.3-.7c2.3-.7,4.7-1.4,7-2Z"/>
  <path class="st7" d="M1008.4,265h0s0,0,0,0Z"/>
  <path class="st3" d="M1008,265s0,0,0,0c0,0,0,0,0,0,0,0,0,0,0,0h0Z"/>
  <path class="st2" d="M1006.6,50.5c.3-.2.7-.3,1-.5.1,1.1,0,1.9-.5,2.4,0,0-.1,0-.2.1-.1,0-.2.1-.4.1-.5,0-1.3,0-2.2-.5.6-.6,1.3-1.1,2.3-1.6Z"/>
  <path class="st7" d="M1005,268.3c.4-.5.8-.9,1.2-1.4-.4.4-.8.9-1.2,1.4,0,0,0,0,0,0Z"/>
  <path class="st13" d="M994.2,158.9c6.7,1.2,13.4,2,20.1.4,0,0,.1,0,.2,0,.2,0,.5-.1.8-.2.5-.1,1-.3,1.5-.5.3,0,.6-.2.9-.3.5-.2,1-.3,1.4-.5,2.1-.9,4.1-1.9,5.9-3,7.7-4.9,12.2-12,12.9-22.4.8,2.3.8,5,.3,7.7,0,.2,0,.4-.1.6v.4c-.9,3.2-2.4,6.4-4.4,9-.5.6-1,1.2-1.6,1.8-.3.3-.7.7-1,1-1.3,1.2-2.7,2.1-4.2,2.8-6.2,2.8-12.8,4.6-19.6,7.1-.7.2-1.2.2-2,0-.7-.3-1-.2-1.3,0-3.3-1.2-6.4-2.3-9.8-3.9Z"/>
  <path class="st11" d="M1005,162.8c0,0-.1,0-.2,0s-.3,0-.5,0c0-.3.3-.3.7,0Z"/>
  <path class="st9" d="M993.7,158.6c.2,0,.3.1.5.2,0,0-.1,0-.2,0,3.4,1.5,6.7,2.7,10,3.9,0,0,0,0,0,0,0,0,.2,0,.3,0,.2,0,.4,0,.5,0,.2,0,.4,0,.7,0,.7,0,1.2,0,1.6,0,2.1.6,4.2,1.1,6.2,1.7l2.1.6c.1.6.2,1.1.3,1.7-2,.6-4.2,2.1-6.1,1.8-5.6-1.1-11.1-2.9-16.6-4.5-1.2-.4-2.5-.9-4-1.5-.9-1.2-1.5-2.4-1.8-4,1.6-.8,3-1.1,4.3-1.4.6.3,1.2.6,2.2,1.3Z"/>
  <path class="st13" d="M1004,162.7s0,0,0,0c-3.3-1.2-6.5-2.4-10-3.9,0,0,.1,0,.2,0,3.4,1.5,6.5,2.7,9.8,3.9Z"/>
  <path class="st13" d="M995.5,91.7c0,0,0,.3,0,.4h0s-.3.1-.4,0c0-.2,0-.3,0-.3,0,0,0,0,0,0,0,0,.1,0,.3,0Z"/>
  <path class="st0" d="M989.1,94.7c2.2-1,4.1-1.9,6.1-2.7,0,.1.4,0,.4,0h0c0-.1.1-.3.4-.4,11.5-3.6,21.4-.6,30.8,5.9.4.5.8.9,1.2,1.3,1.2,1.3,2.4,2.4,3.6,3.6,0,0,.1.3.3.8,2.2,8.5,4.2,16.6,6.2,24.7,0,1.1,0,2.2-.3,4-.6,10.7-5.1,17.9-12.9,22.8-1.8,1.1-3.7,2.1-5.9,3-.5.2-.9.4-1.4.5-.3.1-.6.2-.9.3-.5.2-1,.3-1.5.5-.2,0-.5.1-.8.2,0,0-.1,0-.2,0-6.8,1.6-13.7.6-20.8-.9-.9-.5-1.5-.8-2.2-1.3-.8-.6-1.5-1.1-2.3-1.7-2.3-1.7-4.5-3.2-6.7-4.7,0,0,0,0,0-.2,0-.1-.2-.2-.2-.2,0,0-.1-.1-.2-.2,0,0,0,0,0,0-.2-.1-.3-.2-.5-.3,0,0,0,0,0,0,0,0,0,0,0,0,0,0,0-.1,0-.3-5.2-7.4-7.5-15.3-8-24.1-.3-5.4.9-10.3,2.8-14.9.2-.5.4-.9.6-1.4.3-.7.6-1.4,1-2,.2-.4.5-.9.7-1.3l.4-.7c.2-.4.5-.9.7-1.3t0,0c.5-.9,1-1.7,1.6-2.6h0s.1,0,.3,0c.2-.2.4-.3.5-.5.5-.5.9-1,1.5-1.7,1.7-1.4,3.1-2.5,4.7-3.6.2,0,.3,0,.4,0,.2,0,.4-.2.6-.5ZM986.4,119.3c1.6,3.5,4.7,6.3,7.3,9.5-5.3,9.2-5.3,10.1-.5,13.6,5.8,4.1,6.1,4,14.3-5.1,1.3.8,2.5,1.5,3.8,2.3,5.1,3.3,7,2.9,10.5-2.4,3.2-4.7,2.7-7.2-1.7-10.6-.4-.3-.7-.6-1-.9-1-1-1.8-2.2-2.5-3.7.5-.7.8-1.2,1.1-1.7,3.9-6.2,3.6-8.3-1.4-11.6-5.5-3.6-7.6-3-11.6,3.1-.6.9-1.1,2-1.4,2.6-5.4-2.2-9.3-8.1-14-1.5-1.4,1.9-3.6,5-2.9,6.4Z"/>
  <path class="st12" d="M989.3,112.9c4.7-6.5,8.6-.7,14,1.5.3-.6.8-1.7,1.4-2.6,3.9-6.1,6.1-6.6,11.6-3.1,5,3.3,5.3,5.4,1.4,11.6-.4.6-.8,1.1-1.1,1.6,0,0,0,0,0,0,0,0-.1.2-.2.3.9,1.3,1.7,2.4,2.7,3.4.3.3.7.6,1,.9,4.4,3.3,4.9,5.8,1.7,10.6-3.6,5.3-5.4,5.7-10.5,2.4-1.3-.8-2.5-1.6-3.8-2.3-8.2,9.1-8.5,9.2-14.3,5.1-4.8-3.4-4.8-4.4.5-13.6-2.6-3.2-5.7-6-7.3-9.5-.7-1.4,1.5-4.5,2.9-6.4Z"/>
  <path class="st6" d="M993.8,209.1c-.2,1.7-.7,3.2-1.3,4.5-1.2,2.4-3,4.1-5.5,5.4-.2,0-.3.1-.5.2-6.5,2.2-11.5,2-15.2-.2-.2-.1-.5-.3-.7-.5-1.6-1.2-3-2.8-4.1-4.9-1.1-2-1.7-4.3,1.3-4.4,8.5-.3,17.1-.1,26-.1Z"/>
  <path class="st9" d="M991.4,89c1-.5,2.1-.9,3.3-1.3-1.1.4-2.2.8-3.3,1.3Z"/>
  <path class="st13" d="M988.5,94.8c.1.2.1.4,0,.5,0,0-.2,0-.4,0,0-.2,0-.4,0-.4,0,0,0,0,.1,0,0,0,.2,0,.3,0Z"/>
  <path class="st6" d="M986.5,219.2h-.3c-6.2,2.2-11.2,2.1-14.9-.2,3.7,2.3,8.8,2.4,15.2.2Z"/>
  <path class="st9" d="M966.2,181c9-2.6,15-8.1,19.9-15.1.2,0,.3.2.7.4.2,1.4.3,2.6.4,4.1,0,.3,0,.7,0,1.1-5.2,7.6-13.1,11.2-20.4,15.5-1.7,1-3.4,2-4.9,3.2-.2.1-.4.2-.6.3,0,0-.2,0-.3,0-.3,0-.7,0-1.1,0-1.4-.1-3-.7-4.2-1.1,1.9-1,3.7-1.6,5.4-2.2.1-.1.2-.2.9-.5,0,0,.1-.1.2-.2,0,0,0,0,0,0,.3-.2.6-.5.8-.8,0,0,0,0,0,0,.4-.5.8-.9,1.1-1.4,0,0,0-.2.4-.4h0c.1-.3.2-.5.3-.6.2-.5.4-.9.5-1.4.1-.2.2-.4.9-.9Z"/>
  <path class="st8" d="M985.2,164.9c.2.2.5.5.7.8-4.7,7.3-10.7,12.8-19.5,15.1-1.1-4.9,1.1-8.7,3.6-12.5.7-1.1,1.5-2.3,2.2-3.4,3.5-.8,6.9-1.3,10.7-1.8,1,.6,1.7,1.2,2.4,1.9Z"/>
  <path class="st13" d="M989,155.4c.8.5,1.5,1.1,2.3,1.7-1.2.6-2.5.9-4.3,1.3-1.9-2.3-3.3-4.6-4.8-7.4,2.2,1.3,4.4,2.7,6.7,4.4Z"/>
  <path class="st13" d="M982.7,99c0,.5-.4,1-.8,1.5-.2.2-.3.3-.5.5-.3-.3-.4-.7-.4-1.1,0-.2,0-.4,0-.6.5-.4,1-.4,1.8-.3Z"/>
  <path class="st13" d="M981.3,150c.1,0,.3,0,.5.1,0,0,0,0,0,0,0,0,.1,0,.2.2,0,0,.2.1.2.2-.2.1-.5,0-1-.5t0,0Z"/>
  <path class="st1" d="M981.3,149.7s0,0,0,0c0,0,0,0,0,0,0,0,0,0,0,0,0,0,0,0,0,0Z"/>
  <path class="st9" d="M1026.7,97.3c-9.3-6.2-19.2-9.2-30.8-5.6-.4,0-.6,0-.7,0,0,0,0,0,0,0,0,0,0,.1,0,.2-1.9.9-3.8,1.8-6.2,2.7-.3,0-.5,0-.6.1,0,0-.1,0-.1,0-.2,0-.2.2-.2.4-1.4,1.2-2.8,2.3-4.9,3.6-1.1.1-1.6.2-2,.2.6-1.2,1.4-2.4,2.1-3.4,2.2-2.9,5-5.1,8.2-6.6,1-.5,2.1-.9,3.3-1.3.8-.3,1.7-.5,2.6-.7,9.7-2.1,19.2-1.5,27.4,5,.2.1.3.3.5.4,1.1,1.1,1.8,2.5,2.5,4.1-.5.5-.7.6-.9.7Z"/>
  <path class="st13" d="M981.3,150s0,0,0,0c0,0,0,0,0,0h0Z"/>
  <path class="st1" d="M981.3,149.8s0,0,0,0c0,0,0,0,0,0Z"/>
  <path class="st7" d="M995.4,271.7c-5.2,1.6-10.4,3.2-15.9,4.8.2-.5.6-1.3,1.1-1.6,0,0,.2,0,.2-.1,8-3.2,16-6.3,24-9.4.4-.1.8-.2,1.2-.2.2,0,.5,0,.7,0h0c.3,0,.5,0,.9,0-.4.6-.8,1.3-1.4,2-.4.5-.8.9-1.2,1.4,0,0,0,0,0,0,0,0-.1.1-.2.2-2.4.9-4.8,1.6-7.1,2.3-.8.2-1.6.5-2.3.7Z"/>
  <rect class="st9" x="981.1" y="101.1" width="0" height="0"/>
  <polygon class="st0" points="981.1 101.1 981.1 101.1 981 101.1 981.1 101.1"/>
  <path class="st9" d="M981,99s0,0,0,0h0s0,0,0,0Z"/>
  <path class="st9" d="M980.8,99.2c.2-.2.2-.2.1.1,0,.2,0,.4,0,.6,0,.5,0,.8,0,1.2h0s0,0,0,0c-.1,0-.3-.1-.6-.2,0-.4,0-.8.3-1.2,0-.1.1-.2.2-.4Z"/>
  <path class="st13" d="M979.5,103.7c.5-.9,1-1.8,1.6-2.6h0c-.5.9-1.1,1.8-1.6,2.6Z"/>
  <path class="st13" d="M971.8,126.7c-.1-.8-.2-1.7-.3-2.5,0-.4,0-.8,0-1.2,0-.9,0-1.8,0-2.6,0-1.4.2-2.8.5-4.2t0,0c1.1-5.5,3.8-10.5,8.1-15.2.5,0,.8,0,.9,0,0,0,0,0,0,0-.5.9-1.1,1.8-1.6,2.6t0,0c-.3.4-.5.9-.7,1.3l-.4.7c-.2.4-.5.9-.7,1.3-.3.7-.7,1.3-1,2-.2.5-.4.9-.6,1.4-1.9,4.6-3.1,9.4-2.8,14.9.5,8.8,2.8,16.7,8,24.1-1.6-.6-3.2-1.6-5-2.8-1.5-5.9-3.1-11.6-4.1-17.4-.2-.8-.3-1.7-.4-2.5Z"/>
  <path class="st13" d="M979.5,103.7c-.2.4-.5.9-.7,1.3.2-.4.5-.9.7-1.3Z"/>
  <path class="st13" d="M978.4,105.7c-.2.4-.5.9-.7,1.3.2-.4.5-.9.7-1.3Z"/>
  <path class="st13" d="M976.7,109c-.2.5-.4.9-.6,1.4.2-.5.4-.9.6-1.4Z"/>
  <path class="st4" d="M954.3,164c4.8-.3,9.3-.7,13.8-.8.2,0,.4,0,.6,0,1.2.2,2.4.9,3.5,1.5-.7,1.2-1.5,2.3-2.2,3.4-2.5,3.8-4.8,7.7-4.1,12.8-.3.5-.4.7-.7,1-.1.2-.2.3-.3.5-.3.5-.5,1-.7,1.6,0,0-.1.3-.4.4-.1,0-.2.2-.3.3l-.3.3s0,0,0,0c-.5.5-1,1-1.5,1.6-.3.3-.5.4-.9.5-.8,0-1.5.1-2.2.2-6.3.4-7.8-1-10.4-7.3,0-1.1,0-2.1,0-3.9,0-2,0-3.3.4-4.7.1-.2.3-.5.4-.7.9-1.6,1.6-3.1,2.2-4.6,0,0,0,0,.4,0,1-.7,1.8-1.3,2.9-2Z"/>
  <path class="st13" d="M971.4,123c0,.4,0,.8,0,1.2,0-.4,0-.8,0-1.2Z"/>
  <path class="st6" d="M970.5,218.5c.2.2.5.3.7.5-.2-.1-.5-.3-.7-.5Z"/>
  <path class="st6" d="M968.9,230.1c2.7,0,3.8,1.5,2.4,3.9l-.8,1.3c-.3.4-.5.9-.8,1.2-1.4,2-3.1,3.8-5.8,4.5-.4,0-.9.2-1.4.2-6.8,1.4-11.9.4-15.3-2.6-1.1-1-2-2.2-2.7-3.6-1.5-3-1.2-4.9,2.5-4.9,7.3,0,14.6,0,21.9,0Z"/>
  <path class="st13" d="M965.1,182c0,.4,0,.8-.3,1.3,0,.2-.2.4-.3.5,0-.4,0-.9.3-1.4,0-.1.2-.3.3-.5Z"/>
  <path class="st13" d="M963.4,184.6c.1,0,.2-.2.3-.3-.2.4-.5.9-.8,1.3,0,0,0,0,0,0-.2.2-.5.5-.8.7.2-.5.5-1,1-1.5,0,0,0,0,0,0l.3-.3Z"/>
  <path class="st13" d="M963.4,184.6l-.3.3.3-.3Z"/>
  <path class="st13" d="M962.9,185.7c-.2.3-.5.5-.8.8,0,0,0,0,0,0,.3-.2.6-.5.8-.7Z"/>
  <path class="st6" d="M962,241.2c-6.4,1.3-11.5.3-14.9-2.7,3.4,3,8.5,4,15.3,2.6.5,0,1,0,1.4-.2-.6.1-1.2.2-1.9.3Z"/>
  <path class="st7" d="M953.7,281c1.5-1.3,2.8-2,4.1-2.1-1.2.2-2.6.9-4.1,2.3,0,0,0-.1,0-.2Z"/>
  <path class="st9" d="M1019.4,46.3c-3.9.3-7.9,1.5-11.8,3.7-.4.2-.7.3-1,.5-1,.5-1.9,1-3,1.5-2.1.7-3.9,1.3-6,2-8.9,3-17.6,6.1-26.3,9.1-2.9,1-5.8,1.9-8.7,2.9-2.2.7-5.8,1.3-7,.1-.2-.2-.4-.4-.7-.6-.2-.1-.3-.3-.5-.4-.2-.1-.4-.3-.6-.4-.2-.1-.4-.2-.6-.4-.1,0-.3-.1-.4-.2,0,0-.1,0-.2,0-1-.5-2-.8-3-.9l.3-2c12.3,1.9,24.2-1.2,35.8-5.9,8.6-3.5,17-7.2,25.8-9.9,13.1-4.1,25.3-2.5,35.6,7.6,6.2,6.1,9.5,13.5,9.6,22.2.3,26.9.2,53.9.7,80.8,0,4.7,1.7,9.8,3.9,14,1.4,2.9,2.9,5.8,4.5,8.6,4.6,8.6,9.4,17.2,14.1,26.2,0,1.1,0,1.6,0,2.1-.4-.1-.9-.1-1.3-.2-.2,0-.4-.1-.5-.3-.8-1.4-1.5-2.8-2.2-4.2-.7-1.4-1.5-2.8-2.2-4.2,0,0,0-.1-.1-.2-.7-1.4-1.4-2.7-2.1-4.1,0,0,0,0,0-.1-.7-1.4-1.5-2.9-2.2-4.3h0c0,0,0-.2-.1-.3,0-.1-.1-.2-.2-.3h0c-.2-.4-.5-.8-.7-1.1,0,0,0,0,0,0-.4-.6-.7-1.1-1.1-1.6-1.5-2.8-3-5.6-4.9-9.1-2.3-3.7-4.2-6.8-6.1-9.9-.4-7.7-.7-15.4-1-24,0-10,0-19,0-28.3v-2.5c0-.9,0-1.6,0-2.5s0-1.2,0-2.1v-15c0-2.8,0-5.2,0-7.9,0-.4-.2-.7-.2-1-.2-1-.5-1.9-.7-3,1.3-7-.7-13.2-3.7-18.7-.8-1.5-1.7-3-2.6-4.4-2.6-4.1-7.8-7.3-12.5-8.9-5.2-1.8-10.5-2.8-15.8-2.3Z"/>
  <path class="st10" d="M954.3,164c.9-4.6,3.3-7.6,6.9-9.3,1.6-.8,3.4-1.2,5.5-1.4,2.5-.2,4.7,0,6.8.7,3.9,1.3,7.1,4.3,9.3,8.7-3.7.8-7.1,1.3-10.5,1.8-1.2-.4-2.4-1-3.6-1.2-.2,0-.4,0-.6,0-4.5,0-9,.5-13.8.8Z"/>
  <path class="st2" d="M954.9,65.6c-.2-.1-.3-.3-.5-.4.2.1.3.2.5.4Z"/>
  <path class="st2" d="M954.4,65.2c-.2-.1-.4-.3-.6-.4.2.1.4.2.6.4Z"/>
  <path class="st2" d="M953.9,64.8c-.2-.1-.4-.2-.6-.4.2.1.4.2.6.4Z"/>
  <path class="st9" d="M953.8,82.1c0,0,0-.1,0-.2,0,0,0,.1,0,.2Z"/>
  <path class="st7" d="M953.6,281.2c-2.9-.9-5.7-2.1-8.7-3.5,7-.4,14.2-.7,21.5-.9,2.7,0,5.4-.1,8.1-.1-1.9.6-3.9,1.1-6,1.6-.7.2-1.4.4-2,.6-.3,0-.5.2-.7.4-1,.7-1.9,1.8-3,2.9-1.2-2.5-2.8-3.6-4.9-3.3-1.2.1-2.6.8-4.1,2.1,0,0,0,.1,0,.2,0,0,0,0,0,0Z"/>
  <path class="st2" d="M952.9,64.2c.1,0,.3.1.4.2-.1,0-.3-.1-.4-.2Z"/>
  <path class="st1" d="M953.9,164.1c-.8.6-1.5,1.2-2.6,1.5.6-4.6,1.5-8.9,2.4-13.2,5.6-7.5,12.8-9.7,22.2-5.8,2.2,1.2,3.8,2.2,5.4,3.2,0,0,0,0,0,0,0,0,0,0,0,0,0,0,0,0,0,0,0,0,0,0,0,0,0,0,0,0,0,.2h0s0,0,0,0c0,0,0,0,0,0,.4.4.7.6,1,.8,0,0,0,0,0,.3,1.5,2.7,2.9,5.1,4.5,7.8.7,1.6,1.3,2.7,1.9,3.9-.4,1-.9,2-1.7,3.2-.6.1-.7,0-1-.3-.2-.3-.5-.5-.7-.8-.7-.7-1.4-1.4-2.1-2.2-2.5-4.3-5.8-7.3-9.7-8.6-2.1-.7-4.3-.9-6.8-.7-2,.2-3.8.7-5.5,1.4-3.6,1.7-6.1,4.8-7.2,9.4Z"/>
  <path class="st13" d="M950.9,134.9c.2.6.3,1.2.4,1.8-.1-.6-.3-1.2-.4-1.8Z"/>
  <path class="st13" d="M950.9,134.9c.2.6.3,1.2.4,1.8-.9-2.1-1.6-4.5-2.3-7.3.4,1,.8,2.2,1.2,3.4.2.7.4,1.4.6,2.2Z"/>
  <path class="st1" d="M950.7,166.1s0,0,0,0c-.3.4-.5.9-.7,1.3.2-.4.5-.9.8-1.4Z"/>
  <path class="st1" d="M949.9,167.5c.2-.4.5-.9.7-1.3-.4,1.5-1,2.9-1.9,4.5-.1.2-.3.5-.4.7.3-1,.7-2.1,1.2-3.2.1-.2.2-.4.4-.7Z"/>
  <path class="st9" d="M947.9,80.4v-.4c2.4.1,5.3-.4,5.9,1.6,0,0,0,.1,0,.2h0c0,0,0,.2,0,.2,0,.6,0,1.4-.4,2.5-.4,1.3-2.5,2.1-3.8,3.2-.9-1.4-1.9-2.7-2.5-4.2,0-.2,0-.5,0-.7,0-.1,0-.2,0-.3,0-.3.2-.6.3-.9,0,0,0,0,0-.1.1-.4.3-.8.4-1.2Z"/>
  <path class="st9" d="M948.4,75.6c0,.3,0,.5,0,.8,0-.3,0-.5,0-.8Z"/>
  <path class="st13" d="M947.7,125.5c.3.5.6,1.1.9,1.7-.9-.9-1.7-2.3-2.4-3.9.5.6,1.1,1.3,1.6,2.2Z"/>
  <path class="st9" d="M948,79.2c.1-.9.2-1.8.3-2.8-.1.9-.2,1.8-.3,2.8t0,0Z"/>
  <path class="st13" d="M948,175.7c-.9-.5-1.7-1.4-2.5-2.9-.3-2.8-.5-5-.6-7.2,4.6-8,7.3-16.4,6.3-26.2.5,1.4,1,2.9,1.4,4.6.1.6.2,1.1.4,1.7.3,1.9.4,3.9.7,6.3-.8,4.7-1.7,8.9-2.5,13.6,0,.4,0,.4-.3.5,0,0,0,0,0,0,0,0,0,0,0,0-.3.5-.5.9-.8,1.4-.1.2-.2.5-.4.7-.6,1.1-1.1,2.2-1.5,3.4,0,1.3,0,2.6-.1,4.2Z"/>
  <path class="st13" d="M947.7,180.4v-.2c2.8,6.2,4.4,7.6,10.7,7.2.7,0,1.4-.1,2.2-.2-1.4.7-3.1,1.3-5.3,2-4.7-.3-7.6-2.1-8.1-7.1,0-.7.2-1.1.5-1.6Z"/>
  <path class="st2" d="M987.2,171.9c2.6.8,5.2,1.6,7.8,2.3s1.8.5,2.6.7c3.5.8,7,1.1,10.4,1,7.7-.3,15.1-2.7,22.6-5.8.2,6.6.3,13.2.2,19.9,0,2-.1,4.1-.3,6.1-.2,4.1-4.1,5.7-7.7,5.7-9.1,0-18.2-.7-27.3-.9-9.7-.2-19.4-.2-29.2-.3-5.3,0-10.5.2-15.8.1-18-.2-36.1-.4-54.1-1-1.9,0-4.5-2.1-5.4-3.9-1.3-2.7-1.4-6-2-9.5.9,0,1.9.2,2.8.5.3.1.6.2.9.4,17.1,9.8,33.4,6.6,49.4-2.9.4-.2.7-.4,1.1-.6,1.1-.6,2.2-1.2,3.6-1.6.9,4.9,3.8,6.7,8.3,7.3,1.5.3,3.2.9,4.6,1,.4,0,.7,0,1.1,0,.1,0,.2,0,.3,0,.2,0,.5-.1.6-.3,1.6-1.1,3.3-2.2,4.9-3.2,7.4-4.3,15.3-7.9,20.5-15.1Z"/>
  <path class="st6" d="M945.9,209c4,0,5.3,2.2,2.7,5.2-.8.9-1.8,1.8-2.8,2.5-1.7,1.2-3.7,2.3-5.6,3.6-5.1,1.1-9.4.4-12.8-1.9-1.4-1-2.8-2.2-4-3.8-.8-1-1.4-3-1-4,.4-.9,2.3-1.6,3.6-1.6,6.6-.2,13.2-.2,19.8,0Z"/>
  <path class="st9" d="M943.4,167c.4-.4.8-.8,1.2-1.2.5,2,.6,4.2.7,6.8-1.4,1.4-2.8,2.6-4.1,3.7-.2.2-.4.3-.6.5-2.1,1.6-3.7,1.4-4.7-1.6,2.4-2.9,4.9-5.5,7.5-8.2Z"/>
  <path class="st8" d="M951.3,285.6c-2.2,3.3-5.2,5.2-9.1,6,3.8-.7,6.8-2.6,9.1-6Z"/>
  <path class="st8" d="M941.9,277.2c.7,0,1.4.2,2.7.5,3.3,1.4,6.1,2.6,8.8,3.8-.5,1.4-1.1,2.6-1.8,3.7-.1.2-.2.3-.3.5-2.3,3.3-5.3,5.2-9.1,6-.2,0-.4,0-.6.1-.4,0-.8.1-1.3.1-1.1.1-2.2.1-3.4,0-4.8-.3-9.6,0-14.5,0-.3,0-.7,0-1,0-.6,0-1.1,0-1.6-.1-.3,0-.6,0-.8-.1-.5,0-1-.2-1.5-.3,0,0,0,0,0,0-.5-.1-1-.2-1.5-.4l-.6-.2c-.1,0-.2,0-.3-.1-.1,0-.3-.1-.4-.2-.2,0-.4-.1-.5-.2-7.2-3.4-9.1-11.5-3.5-20.9,1.7,0,3.1.3,4.4.6.4.1.9.2,1.3.4,1.7.5,3.4,1,5.1,1.5,5.2,1.6,10.3,3.1,15.4,4.7.8.2,1.6.3,3,.7.3,0,.5,0,.7,0s.2,0,.3,0c.4,0,.7,0,1,0Z"/>
  <path class="st7" d="M941.8,277c-.1,0-.2,0-.4,0,.1,0,.2,0,.4,0Z"/>
  <path class="st7" d="M941.4,277c.1,0,.2,0,.4,0-.2.1-.5.2-.9.2s-.2,0-.3,0c-.1,0-.2,0-.3,0,.2-.1.5-.2.9-.2s.1,0,.2,0Z"/>
  <path class="st8" d="M941.6,291.7c-.4,0-.8.1-1.3.1.4,0,.9,0,1.3-.1Z"/>
  <path class="st6" d="M940.2,220.4s0,0-.1,0c-5,1-9.2.4-12.7-2,3.5,2.3,7.7,3,12.8,1.9Z"/>
  <path class="st13" d="M938,114.2c.7.4,1.3.9,2,1.4-1.6-.7-3.2-1.8-5.1-3.1,1,.5,2,1,3.1,1.7Z"/>
  <path class="st9" d="M938.4,81.8c-1.9,0-3.8-1.7-5.8-2.7,1.6-1.2,3-3,4.8-3.6,3.4-1.1,7-1.6,11.4-2.4,0,.9-.2,1.7-.3,2.5,0,.3,0,.5,0,.8-.1,1-.2,1.9-.3,2.8t0,0c0,.1,0,.2,0,.4v.4c-3.2.7-6.4,1.8-9.7,1.8Z"/>
  <path class="st12" d="M933.4,141.5c4.9,3.7,6.1,5.8,4.6,9.1,1.5-3.3.2-5.3-4.8-9.2,0,0,.2,0,.2.1Z"/>
  <path class="st13" d="M932.9,111.1c0,0,0,.2-.1.2,0,0,0,0,0,0,0,0,0,0-.2-.1,0,0-.1-.2-.1-.2.1-.1.2-.2.3,0s.1,0,.2.2Z"/>
  <path class="st13" d="M931.4,110.2c.2,0,.4.1.6.2-.8.1-1.6,0-2.8-.3.4,0,.9,0,1.5,0,0,0,.1,0,.2,0,.1,0,.3,0,.4,0Z"/>
  <path class="st12" d="M932.2,136.3c-1.1,1.5-2.1,3.2.8,4.9-3-1.6-1.9-3.4-.8-4.9Z"/>
  <path class="st0" d="M933.2,134.9c1.8-2.8,2.9-5.4.6-8.2-4.7-5.9-10.4-5.5-14.5.8-.5.8-1.1,1.6-1.7,2.4-11.2-4.9-11-4.8-14.8.2-6.1,8,2.2,9.9,5.8,13.7-5.4,10.8-5.4,11.1-1,14.2,1.9,1.3,4.8,3.2,6.1,2.6,3.3-1.6,6-4.5,9.2-7,.7.4,1.8,1.1,2.9,1.8,4.9,3.2,7.1,2.8,10.3-1.8.8-1.1,1.4-2.1,1.8-2.9,1.5-3.3.3-5.3-4.6-9.1,0,0-.2,0-.2-.1,0,0,0,0,0,0,0,0-.1,0-.2,0-2.8-1.7-1.9-3.4-.8-4.9.4-.5.8-1,1-1.4ZM951,139.1c1.1,10.1-1.6,18.6-6.5,26.8-.4.4-.8.8-1.2,1.2-2.7,2.7-5.1,5.3-7.6,7.9-6.4,4.2-13.1,6.4-20.4,5.9-1,0-2-.2-3.1-.4-.3,0-.7-.1-1-.2-.7-.1-1.4-.3-2.1-.5-7.6-2.1-13.4-6.4-16.9-13.6-5.2-10.7-8.2-21.8-5.3-33.7.2-.6.3-1.2.5-1.8,0-.3.2-.6.3-.9.6-1.8,1.3-3.5,2.1-5.1.4-.8.9-1.6,1.3-2.3.5-.7,1-1.5,1.5-2.2.8-1,1.6-2,2.5-2.9,8.2-8.3,20.7-11.5,33.6-7.2,1.5.4,2.4.5,3.3.7,0,0,0,.2.2.3,0,0,.1.2.2.2,0,0,.2.1.2.1,0,0,0,0,0,0h.2c.4.1.7.4,1.6,1,2.2,1.4,3.8,2.5,5.4,3.6,1.9,2.2,3.7,4.4,5.8,7.1,1,1.9,1.8,3.2,2.5,4.5,0,.3.2.7.5,1.6.9,3,1.5,5.4,2.2,7.8,0,.4,0,.9,0,2.1Z"/>
  <path class="st8" d="M919.9,291.7c.5,0,1.1.1,1.6.1-.6,0-1.1,0-1.6-.1Z"/>
  <path class="st2" d="M920,56.6c.5,1.1,1.1,1.9,1.9,2.2-.8-.3-1.4-1.1-1.9-2.2Z"/>
  <path class="st2" d="M920,56.6c-.3-.7-.6-1.4-.9-2.2,2.1.5,4.3,1.3,6.7,2.4-1.6,1.9-2.8,2.4-3.8,2.1,0,0,0,0-.1,0-.8-.4-1.4-1.2-1.9-2.2Z"/>
  <path class="st3" d="M1008,265h0s-.1,0-.3,0c-.3,0-.6,0-.8,0h0c-.3,0-.5,0-.7,0-.5,0-.9,0-1.2.2-8,3.1-16,6.2-24,9.4,0,0-.2,0-.2.1-.6.4-1,1.1-1.9,1.7-1.6.2-2.8.2-4.2.1-2.7,0-5.4,0-8.1.1-7.3.2-14.6.4-22.1.7-1.1,0-1.8-.2-2.6-.4-.1,0-.3,0-.4,0,0,0-.1,0-.2,0-.4,0-.8,0-1.4,0-1.2-.2-2.1-.3-3-.8-1.2-.8-2.1-1.5-3.2-1.8-12-3.3-23.1-8.1-33-15.9-.4-.4-.9-.7-1.4-1-3.2-2.3-6.8-4.3-10.2-6.4,0,0,0,0,0,0,0,0,0,0,0,0,0,0,0-.1,0-.3-.9-1.9-1.7-3.4-2.6-4.6h0c-.2-.2-.4-.5-.5-.7,0,0,0,0,0,0-.2-.2-.4-.4-.6-.6-2.7-2.8-5.9-3.1-11.2-1.7-4.8,1.2-9.8,1.8-14.4,3.3-10.1,3.3-20,1.5-30-.4-5.6-1.1-9.3-9.2-6.6-14.3,4.5-8.4,9.2-16.8,13.7-25.2.5-1,1.1-2,1.6-3,3.7-7,7.3-14.2,11.2-21.4,1.8-2.5,3-5.4,4.6-7.6.7-1,1.6-1.9,2.5-2.6,6.8-4.7,4.5-10.9,4.5-16.9,0-23.6,0-47.2,0-70.8,0-2-.1-4-.2-6-.1-1.4-.1-2.7,0-4,.4-4.7,2.4-9,5.6-13,4.4-1.6,8.5-3.1,12.6-4.7-.2-.5-.3-.9-.5-1.4-.4,0-.7.1-1.1.1-2.5.3-4.9.6-7.4.7,1.2-1.4,2.4-2.6,3.7-3.7.4-.4.8-.7,1.3-1.1,5.5-4.2,25.2-5.5,31-2.1.4.2.9.5,1.2.9.2.2.4.5.5.7.2.3.4.5.7.8.1.1.2.3.4.4,0,0,0,0,.1.1.1.1.3.2.4.3.1,0,.2.2.3.2,0,0,0,0,.1,0,.2.1.3.2.5.3,2.5,1.6,5.6,1.8,8.9,1.8.3.8.6,1.6.9,2.2.5,1.1,1.1,1.9,1.9,2.2,0,0,0,0,.1,0,1.1.4,2.5,0,4.4-1.8,6.1,2,11.9,4,17.6,6.3-.5.9-.8,1.8-1.2,1.9-6.1,1.2-12.3,2.4-18.4,3.3-.7.1-1.6-1-2.3-1.6-7-6.2-14.1-12.6-24.6-10.6-2.6.5-4.9.5-6.1,4.4-1.8,5.9-4.7,11.6-8.2,16.7-3.6,5.2-8.5,9.3-12.6,14.2-.9,1.1-1,3.2-.8,4.6.1.6.2,1.2.4,1.9.9,4.4,2,8.7,2.9,13.3-4.3,9.9-6.4,19.8-5.6,29.9.1,1.7.3,3.4.7,5.1,0,.2,0,.4.1.6.4,2.3,1,4.5,1.7,6.8,1.5,4.8,3.2,9.5,5.2,13.9,2.7,5.7,6.1,10.9,10.9,15.6.3.3.5.5.8.8.8.7,1.5,1.3,2.2,1.8,0,0,0,0,0,.4.6,3.5.7,6.8,2,9.5.9,1.8,3.5,3.9,5.4,3.9,18,.6,36.1.7,54.1,1,5.3,0,10.5-.1,15.8-.1,9.7,0,19.5,0,29.2.3,9.1.2,18.2.8,27.3.9,3.6,0,7.5-1.6,7.7-5.7.1-2,.2-4.1.3-6.1.2-6.7.1-13.4.3-20.4,9.8-9,15.7-19.9,18.3-32.6.3.2.5.5.8.8t0,0c.3.2.5.5.7.8,1.4,1.5,2.7,3.1,4,4.9.4,8.2.7,15.8.7,23.6-1.7,1.1-3,2-4.3,3,1.3.7,2.7,1.2,4,2.1,1,.7,1.8,1.8,2.8,2.5.1.1.3.2.5.3,1.1.7,2.3,1.4,3.7,2.3,1.7,3.1,3.3,5.9,4.4,8.8-1.2.8-2.4,1.4-2.8,2.3-.5,1.1-.5,2.6-.7,3.9,1.1-.6,2.2-1.2,3.3-1.8.1,0,.2-.1.3-.2.7-.4,1.5-.8,2.3-.9.8,1.5,1.5,2.9,2.2,4.3,0,0,0,0,0,.1.7,1.4,1.4,2.8,2.1,4.1,0,0,0,.1.1.2.7,1.4,1.5,2.8,2.2,4.2.8,1.4,1.5,2.8,2.2,4.2,0,.1.3.2.5.3.4.1,1,.2,1.6.5,0,.1,0,.3.1.4.3.9.5,1.6.5,2.5,0,.2.1.4.2.5,0,0,0,0,0,0,0,0,0,.2.1.2.2.4.5.6.7.8,0,0,0,0,0,0,.1.1.2.2.4.3.8,0,1.3,0,1.8,0,0,0,.2.1,0,.7,0,.1.1.2.1.4,0-.1-.1-.2-.2-.3,1.1,2.6,2,5.1,3,7.5h0c.2.5.5,1.1.7,1.6.6,1.3,1.3,2.6,2,3.8,6.7,11.1,4,19-7.5,21.2-14.3,2.7-28.2.5-41.6-4.3-5.1-1.8-7.9-.3-11.4,2.9-5.8,5.4-12,10.4-17.9,15.6-.2.1-.3.3-.5.4-1.1,1.1-1.9,2.3-2.9,3.5,0,0,0,0,0,0ZM992.5,213.6c.6-1.3,1-2.8,1.3-4.5-9,0-17.5-.2-26,.1-3,.1-2.4,2.4-1.3,4.4,1.1,2.1,2.5,3.7,4.1,4.9.2.2.5.3.7.5,3.7,2.3,8.7,2.5,14.9.4h.3c.2-.2.3-.3.5-.4,2.5-1.2,4.4-2.9,5.5-5.4ZM971.2,234c1.4-2.4.3-3.9-2.4-3.9-7.3,0-14.6,0-21.9,0-3.8,0-4,1.9-2.5,4.9.7,1.4,1.6,2.6,2.7,3.6,3.3,3,8.4,4,14.9,2.7.7,0,1.3-.1,1.9-.3,2.7-.6,4.4-2.4,5.8-4.5.3-.4.5-.8.8-1.2l.8-1.3ZM948.6,214.3c2.6-3.1,1.4-5.1-2.7-5.2-6.6-.1-13.2-.1-19.8,0-1.3,0-3.2.7-3.6,1.6-.4,1,.2,3,1,4,1.2,1.5,2.5,2.8,4,3.8,3.5,2.4,7.8,3,12.7,2,0,0,0,0,.1,0,0,0,.2,0,.3,0,1.7-1.2,3.6-2.3,5.3-3.5,1-.8,2-1.6,2.8-2.5Z"/>
  <path class="st8" d="M919,291.6c-.5,0-1-.2-1.5-.3.5.1,1,.2,1.5.3Z"/>
  <path class="st8" d="M916,290.9c.5.1,1,.3,1.5.4-.5-.1-1-.2-1.5-.4Z"/>
  <path class="st8" d="M914.6,290.4c.1,0,.3.1.4.2-.1,0-.3-.1-.4-.2Z"/>
  <path class="st9" d="M908.9,51.6c.1.1.3.2.4.3-.1-.1-.3-.2-.4-.3Z"/>
  <path class="st9" d="M908.3,51.1c.1.1.2.3.4.4-.1-.1-.3-.2-.4-.4Z"/>
  <path class="st12" d="M933.8,126.7c2.2,2.8,1.1,5.5-.6,8.2-.3.4-.7.9-1,1.4-1.2,1.6-2.2,3.3.8,4.9,0,0,.2.1.2.1,5.1,3.9,6.4,5.9,4.8,9.2-.4.9-1,1.8-1.8,2.9-3.3,4.6-5.4,5-10.3,1.8-1.1-.7-2.2-1.4-2.9-1.8-3.1,2.5-5.8,5.4-9.2,7-1.3.6-4.2-1.3-6.1-2.6-4.5-3.1-4.4-3.4,1-14.2-3.6-3.7-11.8-5.7-5.8-13.7,3.8-5,3.6-5.1,14.8-.2.5-.8,1.1-1.5,1.7-2.4,4.1-6.3,9.8-6.7,14.5-.8Z"/>
  <path class="st9" d="M907.1,49.7c.2.2.4.5.5.7-.2-.2-.4-.4-.5-.7Z"/>
  <path class="st7" d="M933.5,274.5c1.1.3,2.1,1,3.2,1.8-5.1-1.3-10.2-2.9-15.3-4.4-1.7-.5-3.4-1-5.1-1.5-.4-.1-.9-.2-1.3-.4-1.3-.3-2.7-.6-4.2-1-5.7-4-11.1-7.8-16.3-11.9-.5-.4-1-.8-1.4-1.2-1.4-1.3-2.6-2.8-4-4.4h0c3.4,1.8,7,3.7,10.2,6.1.5.3.9.7,1.4,1,9.8,7.8,21,12.7,33,15.9Z"/>
  <path class="st2" d="M889,185.6s0,0,0,0c-.4-.4-.7-.7-1.1-1,.4.3.8.7,1.1,1.1Z"/>
  <path class="st3" d="M889,251s0,0,0,0c0,0,0,0,0,0,0,0,0,0,0,0,0,0,0,0,0,0Z"/>
  <path class="st7" d="M889,251.4h0s0,0,0,0c0,0,0,0,0,0Z"/>
  <path class="st2" d="M887.9,184.5c.3.3.7.7,1.1,1-.7-.3-1.3-.8-2.1-1.5-.3-.2-.5-.5-.8-.8.5.2,1.1.6,1.7,1.1,0,0,0,0,.1,0Z"/>
  <path class="st0" d="M887.7,129.7c0,.3-.2.6-.3.9,0-.3.2-.6.3-.9Z"/>
  <path class="st11" d="M993,164.2c5.5,1.6,11,3.4,16.6,4.5,1.8.4,4-1.1,6.1-1.8-.1-.6-.2-1.2-.3-1.7l-2.1-.6c-2.1-.6-4.1-1.2-5.9-1.9,6.8-2.5,13.4-4.3,19.6-7.1,1.5-.7,2.9-1.6,4.2-2.8.4-.3.7-.6,1-1,.5-.6,1.1-1.2,1.6-1.8,2-2.7,3.5-5.8,4.3-9v-.4c.1-.2.2-.4.2-.6.6-2.9.6-5.9-.1-8.4,0-1.5,0-2.6.3-4,0-4.1.7-8.1-.3-11.6-.4-1.4-1-2.8-1.6-4.2-.2-.5-.5-1-.7-1.5h0c-1.2-2.5-2.6-4.9-3.8-7.4-.1-.1-.2-.4-.2-.8-.3-.5-.6-1-.9-1.5-.9-1.4-1.9-2.7-2.9-4.2-1-1.5-1.7-3-2.8-4-.2-.2-.3-.3-.5-.4-8.2-6.5-17.7-7.1-27.4-5-.9.2-1.7.4-2.6.7-1.1.4-2.2.8-3.3,1.3-3.2,1.5-6,3.7-8.2,6.6-.9,1.1-1.6,2.3-2.3,3.6,0,.1-.1.3-.2.4-.2.4-.4.8-.8,1.4-4.2,4.7-6.8,9.8-7.9,15.2t0,0c-.3,1.4-.4,2.8-.5,4.2,0,.9,0,1.8,0,2.6,0,.4,0,.8,0,1.2,0,.8.1,1.6.3,2.5.1.8.3,1.7.4,2.5,1.1,5.8,2.6,11.4,3.5,17.1-9.2-3.7-16.4-1.4-22.2,5.7-.3-2.4-.3-4.4-.7-6.3-.1-.6-.2-1.2-.4-1.7-.4-1.7-.9-3.4-1.4-5.4,0-.8,0-1.2.2-1.9-.1-.6-.3-1.2-.4-1.8-.2-.8-.4-1.5-.6-2.2-.4-1.3-.9-2.6-1.4-3.9-.3-.5-.4-.9-.4-1.6-.3-.6-.6-1.2-.9-1.7-.5-.9-1.1-1.8-1.8-2.8-2.1-2.4-4-4.6-5.9-7.2-.7-.5-1.3-1-2-1.4-1.1-.7-2.3-1.4-3.6-2.1-.7-.4-1.1-.6-1.5-1,0,0-.1-.1-.2-.2-.1,0-.3,0-.4,0,0,0-.2-.2-.2-.4-.2,0-.4-.1-.6-.2-.2,0-.3,0-.4,0,0,0-.1,0-.2,0-.7-.1-1.4-.2-2.2-.3-12.7-4.2-25.2-.9-33.3,7.4-.9.9-1.8,1.9-2.5,2.9-.5.7-1,1.4-1.5,2.2s-.9,1.5-1.3,2.3c-.8,1.6-1.5,3.3-2.1,5.1,0,.3-.2.6-.3.9-.2.6-.3,1.2-.5,1.8-2.9,11.9.1,23,5.3,33.7,3.5,7.2,9.3,11.5,16.9,13.6.7.2,1.4.4,2.1.5.3,0,.7.1,1,.2,1,.2,2,.3,3.1.4,7.3.5,14-1.7,20.5-5.6,1.1,2.9,2.7,3.2,4.7,1.6.2-.2.4-.3.6-.5,1.3-1.1,2.7-2.2,4.2-3.1.9,1.1,1.7,2,2.5,3.2,0,1.5,0,2.5,0,3.7v.2c-.4.5-.6.9-1,1.4-1.3.7-2.5,1.4-3.6,2-.4.2-.7.4-1.1.6-16,9.5-32.3,12.7-49.4,2.9-.3-.2-.6-.3-.9-.4-.9-.4-1.9-.6-2.8-.9,0,0,0,0-.1-.3h0s0,0,0,0c-.4-.4-.8-.8-1.1-1.1,0,0,0,0-.1,0-.6-.5-1.2-1-1.8-1.4-4.8-4.4-8.2-9.6-10.9-15.3-2.1-4.4-3.7-9.1-5.2-13.9-.7-2.3-1.3-4.6-1.7-6.8,0-.2,0-.4-.1-.6-.3-1.7-.5-3.4-.7-5.1-.8-10.1,1.4-19.9,5.9-30,0-.1.1-.2.2-.3.8-1.6,1.5-3.1,2-4.7,0-.3.2-.5.2-.8s.1-.5.2-.8c1-4.6,1.3-9.5,2.7-14,1.4-4.3,4.7-4,8-1.6,1.8,1.3,3.6,2.7,5.9,4.4.5-5.2.3-9.8,1.4-14,1.4-6,5.6-6.9,10.3-3,9.6,7.9,19.4,15.6,29.1,23.6,14.9,12.2,33.7,3.8,41.3-7.8,6.7-10.1,13.5-20.2,20.4-30.1,3.2-4.6,6.9-4.4,9.7.4,2.1,3.5,3.6,7.2,5.8,11.6,1.1-1.6,2-2.7,2.7-3.9,3.4-5.8,6.6-6.3,10.4-.8,2.6,3.7,3.5,8.5,5.5,12.6.5.9,1.1,1.8,1.8,2.7.7.9,1.5,1.7,2.3,2.7,1.7,1.6,3.3,3.4,4.6,5.2.5.6.9,1.2,1.3,1.8.2.3.4.6.6.9,4.6,7.2,7.1,15.5,9.3,24.1,0,6.2,0,11.9.1,17.5-2.3,12.8-8.1,23.6-18.3,32.8-7.6,3.3-15.1,5.7-22.8,6-3.4.1-6.9-.2-10.4-1-.9-.2-1.8-.4-2.6-.7-2.6-.8-5.2-1.7-7.8-2.7,0-.4,0-.7,0-1.1,0-1.5,0-2.8,0-4.3.6-1.4,1-2.3,1.8-3.3,1.5.5,2.8,1.1,4,1.5Z"/>
  <path class="st5" d="M1008.4,265h0c0,0,.2,0,.4,0,5.9-4.7,11.9-9.2,17.6-14,1.9-1.6,3.8-3.2,5.7-4.9,2.3-2,3.7-2.9,6.6-1.9,14,4.9,28.3,7.1,43.2,4.8,10.8-1.6,16.9-8.4,13.3-16.7-.8-1.7-1.6-3.4-2.5-5.1-2.7-5-5.8-9.9-8.5-15,0,0-.2-.1-.3-.9-1.3-2.1-2.6-4.3-4.1-7.1-4.7-8.5-9.5-16.9-14-25.5-1.5-2.9-3-5.7-4.5-8.6-2.2-4.3-3.8-9.3-3.9-14-.5-26.9-.4-53.9-.7-80.8,0-8.6-3.4-16-9.6-22.2-10.3-10.2-22.5-11.8-35.6-7.6-8.8,2.8-17.3,6.5-25.8,9.9-11.6,4.7-23.6,7.8-35.8,5.9-2.1-.3-4.2-.8-6.3-1.4-10.6-3.1-21.1-6.7-31.2-11.3-9.6-4.4-19.2-5.9-29.3-4.3-1.7.3-3.4.8-5,1.4-.8.3-1.6.7-2.4,1.1-1.9,1-3.8,2.3-5.5,3.8-.7.6-1.3,1.2-2,1.8-1.3,1.3-2.5,2.7-3.6,4.2-.3.4-.5.8-.8,1.1-3.7,5.5-6.1,12.1-6.3,18.9,0,10.4-.1,20.8-.1,31.2s0,5.7,0,8.6c0,3,0,5.9,0,8.9.1,12.6.3,25.3.1,38.3-2.9,5.6-5.8,11.2-9.2,17.2-1.4,2.5-2.8,5-4.2,7.6,0,.1-.2.3-.2.4-.5.9-1,1.7-1.5,2.6-.3.5-.6,1-.8,1.5-6.9,12.5-13.9,24.9-20.6,37.5-4.2,7.9-.3,15.6,8.5,17.6,14,3.2,27.8,2.4,41.3-2.2,5.6-1.8,11-3.8,14.8,3.2.1.2.3.4.6.6.7.5,1.8.8,2.6,1.3,0,0,0,0,0,0,0,0,0,0,0,0,0,0,0,.2,0,.3,0,0,0,0,0,0h0c0,.1,0,.2,0,.3,1.3,1.3,2.6,2.8,4,4.1s.9.8,1.4,1.2c5.2,4.1,10.6,7.9,15.7,12.6-5.3,9.1-3.3,17.2,4,20.5.2,0,.4.2.5.2.1,0,.3.1.4.2.1,0,.2,0,.3.1l.6.2c.5.1,1,.3,1.5.4,0,0,0,0,0,0,.5.1,1,.2,1.5.3.3,0,.6,0,.8.1.5,0,1.1.1,1.6.1.3,0,.7,0,1,0,4.8,0,9.6-.2,14.5,0,1.2,0,2.3,0,3.4,0,.4,0,.9,0,1.3-.1.2,0,.4,0,.6-.1,3.8-.7,6.9-2.7,9.1-6,.1-.2.2-.3.3-.5.8-1.2,1.4-2.5,2-4,1.5-1.3,2.9-2.1,4.1-2.3,2.1-.2,3.8,1.2,5.1,4.3,1.2,3,3,5.6,5.6,6.9,0,0,0,0,0,0,.7.4,1.5.6,2.4.8.6.1,1.2.2,1.8.2,8.1.2,16.2.4,24.3.2,2.4,0,5.2-1.1,7.2-2.6,1.6-1.2,3-3.1,3.7-5.4,0-.2.1-.5.2-.7,0-.2.1-.5.2-.7.9-4.1.2-9.1-3.2-13.5.4-.5.8-1,1.2-1.4.6-.6,1.1-1.3,1.7-1.9,0,0,0,0,0,0,0,0,0,0,0,0,0,0,.2,0,.3,0ZM1293.8,1.1v374.9h-665.8V1.1h665.8Z"/>
  <path class="st9" d="M875.8,46.8c.8-.4,1.6-.8,2.4-1.1-.8.3-1.6.7-2.4,1.1Z"/>
  <path class="st2" d="M875.5,106.4c0-.3.2-.5.2-.8,0,.3-.1.5-.2.8Z"/>
  <path class="st2" d="M866.4,60.9c.7-1.6,1.8-3.2,3.3-4.9,2.8-.4,5.3-.8,7.7-1.1.4,0,.7,0,1.1-.1.2.5.3.9.5,1.4-4.1,1.6-8.1,3.1-12.6,4.7Z"/>
  <path class="st9" d="M868.3,52.3c.6-.6,1.3-1.2,2-1.8-.7.6-1.3,1.2-2,1.8Z"/>
  <path class="st11" d="M868,146.4c0,.2,0,.4.1.6,0-.2,0-.4-.1-.6Z"/>
  <path class="st7" d="M858.9,160.5c0-.1,0-.2,0-.3,0,.1,0,.2,0,.3Z"/>
  <path class="st7" d="M858.9,160.5c-.1.6-.3,1.3-.5,2.1,0,0,0-.2,0-.2.2-.8.4-1.4.5-1.9Z"/>
  <path class="st7" d="M857.6,116.3c0-2.9,0-5.7,0-8.6,0-10.4.1-20.8.3-31.4.4.9.8,1.9,1,3,0,.4,0,.7,0,1.1,0,26.3,0,52.7,0,79,0,.3,0,.5,0,.8,0,0,0,.2,0,.3-.1.5-.3,1.1-.5,1.9-.3-12.2-.6-24.7-.7-37.2,0-3,0-5.9,0-8.9Z"/>
  <path class="st9" d="M944,63c-5.8-1.9-11.5-3.9-17.9-6.2-2.8-1.1-5-2-7.1-2.8-3.2.3-6.3.1-8.8-1.4-.2-.1-.3-.2-.5-.3,0,0,0,0-.1,0-.1,0-.2-.2-.3-.2-.1,0-.3-.2-.4-.3,0,0,0,0-.1-.1-.1-.1-.3-.2-.4-.4-.2-.2-.5-.5-.7-.8-.2-.2-.4-.5-.5-.7-.3-.4-.7-.7-1.2-.9-5.8-3.4-25.5-2.1-31,2.1-.4.3-.9.7-1.3,1.1-1.3,1.1-2.5,2.3-4,3.8-1.5,2.1-2.6,3.7-3.7,5.3-3,3.9-4.8,8.2-5.2,12.9-.1,1.3-.1,2.6,0,4,.1,2,.2,4,.2,6,0,23.6,0,47.2,0,70.8,0,6,2.3,12.2-4.5,16.9-1,.7-1.8,1.6-2.5,2.6-1.6,2.3-2.9,5.1-4.6,7.4-.4-.5-.4-.9-.4-1.3,2.9-5.6,5.8-11.2,9.2-17.5,0-.2.1-.4.2-.5,0,0,0,.1,0,.2.2-.8.4-1.5.5-2.1,0-.1,0-.2,0-.3,0-.3,0-.6,0-.8,0-26.3,0-52.6,0-79,0-.4,0-.7,0-1.1-.2-1.1-.6-2.1-.8-3.2,0-6.5,2.3-13,5.9-18.4.3-.4.5-.8.8-1.1,1.1-1.5,2.3-2.9,3.6-4.2s1.3-1.2,2-1.8c1.7-1.5,3.6-2.7,5.5-3.8.8-.4,1.6-.8,2.4-1.1,1.6-.6,3.3-1.1,5-1.4,10.1-1.6,19.8,0,29.3,4.3,10,4.6,20.6,8.2,31.2,11.3,2.1.6,4.2,1.1,6.3,1.4l-.3,2c-1.8-.3-3.7-.3-5.6-.2Z"/>
  <path class="st7" d="M844,188.8c-.5.9-1,1.7-1.5,2.6.5-.9,1-1.7,1.5-2.6Z"/>
  <path class="st7" d="M823,231.5c-2.7,5.1,1,13.2,6.6,14.3,9.9,1.9,19.9,3.8,30,.4,4.7-1.5,9.6-2.1,14.4-3.3,5.4-1.4,8.6-1.1,11.2,1.7.2.2.4.4.6.6,0,0,0,0,0,0,.2.2.3.4.5.7h0c.9,1.2,1.7,2.8,2.6,4.7-.8-.2-1.9-.5-2.6-1-.2-.2-.4-.4-.6-.6-3.7-7-9.2-5-14.8-3.2-13.6,4.5-27.3,5.4-41.3,2.2-8.7-2-12.7-9.7-8.5-17.6,6.7-12.6,13.7-25,20.6-37.5.3-.5.6-1,.8-1.5.5-.9,1-1.7,1.5-2.6,0-.1.2-.3.2-.4,1.4-2.5,2.9-5.1,4.5-7.8.3.2.3.5.3,1.2-3.6,7.3-7.1,14.5-10.8,21.5-.5,1-1.1,2-1.6,3-4.5,8.5-9.2,16.8-13.7,25.2Z"/>
</svg>