<svg version="1.1" id="Layer_1" xmlns="http://www.w3.org/2000/svg" xmlns:xlink="http://www.w3.org/1999/xlink" x="0px" y="0px"
	 width="100%" viewBox="0 0 945 937" enable-background="new 0 0 945 937" xml:space="preserve">
<path fill="#FDFEFD" opacity="1.000000" stroke="none" 
	d="
M21.999990,938.000000 
	C15.001034,938.000000 8.002067,938.000000 1.002325,938.000000 
	C1.001550,625.713806 1.001550,313.427612 1.001550,1.070720 
	C315.906342,1.070720 630.812683,1.070720 945.859497,1.070720 
	C945.859497,313.333282 945.859497,625.666626 945.859497,938.000000 
	C938.587097,938.000000 931.254761,938.000000 923.510437,937.649414 
	C926.956055,934.139038 931.117615,931.280396 934.609924,927.758179 
	C942.531677,919.768921 943.078430,909.106140 940.233887,899.748413 
	C937.039795,889.240784 928.634033,881.399963 917.243225,879.251404 
	C909.674744,877.823792 901.736877,878.321838 893.961304,878.045898 
	C891.858459,877.971313 889.799500,878.141296 890.111389,874.954590 
	C890.237854,874.802246 890.630432,874.760498 890.976501,874.822144 
	C891.873474,874.285156 892.424377,873.686462 893.162231,872.810303 
	C895.291382,870.697205 897.233521,868.861694 899.499390,866.985229 
	C900.170532,866.239563 900.518066,865.534851 900.923584,864.512268 
	C901.702759,863.124451 902.423889,862.054443 903.487854,860.948303 
	C906.735413,856.783386 909.757507,852.693237 908.273804,846.791382 
	C908.307556,845.966858 908.421753,845.499573 908.875732,844.890747 
	C911.115784,836.152832 909.100403,828.268494 904.782227,820.835999 
	C904.523193,820.390381 903.675476,820.286743 902.957336,819.886841 
	C902.812988,819.749695 902.774414,819.353394 902.837585,818.984558 
	C901.689575,817.072754 900.478455,815.529846 898.981506,813.806091 
	C897.128357,812.068848 895.560913,810.512451 893.969727,808.595703 
	C892.828918,807.577087 891.711731,806.918945 890.401855,806.221741 
	C890.209106,806.182678 889.985168,805.859253 889.951172,805.518921 
	C887.072998,803.934631 884.228821,802.690735 881.034302,801.446899 
	C879.793274,801.183594 878.902649,800.920227 877.964844,800.360779 
	C876.958801,800.006958 876.000061,799.949219 874.635437,799.927673 
	C873.161621,799.790894 872.093689,799.617920 870.885315,799.107117 
	C868.369324,798.336914 865.993713,797.904602 863.248718,797.405090 
	C863.168640,795.772339 863.022400,794.151672 863.019226,792.530762 
	C862.664185,612.177551 862.307556,431.824402 861.984680,251.471161 
	C861.916748,213.493561 862.017212,175.515625 861.928894,137.538101 
	C861.915833,131.911942 861.739685,126.214996 860.858215,120.675034 
	C857.916016,102.182190 852.608398,84.411575 842.979919,68.194038 
	C841.195007,65.187553 838.517395,62.711075 836.075195,59.855644 
	C835.898621,59.721294 835.794556,59.289902 835.848633,58.952347 
	C835.310364,58.083332 834.717957,57.551876 833.961548,56.922077 
	C833.797485,56.823734 833.707031,56.452045 833.785400,56.087345 
	C832.941528,54.818428 832.019287,53.914211 830.807739,52.870556 
	C829.630371,51.556053 828.742249,50.380989 827.890320,48.849228 
	C826.301819,47.013348 824.677185,45.534168 822.795837,43.952129 
	C822.342102,43.546886 822.145020,43.244499 821.949341,42.600128 
	C819.775024,40.461712 817.599243,38.665287 815.113281,36.754875 
	C813.867004,35.723843 812.930908,34.806805 811.971802,33.532516 
	C810.825195,32.542595 809.701721,31.909922 808.390259,31.228069 
	C808.202271,31.178888 807.977722,30.861761 807.945923,30.530964 
	C807.196411,29.857721 806.478821,29.515280 805.532043,29.116812 
	C805.302917,29.060785 805.012878,28.688675 804.970459,28.378288 
	C804.231995,27.752270 803.535950,27.436638 802.598022,27.049999 
	C802.248352,26.849955 802.140564,26.720919 801.970093,26.285900 
	C801.188782,25.709215 800.470154,25.438513 799.533325,25.139071 
	C799.315186,25.110331 798.994080,24.809343 798.942139,24.473927 
	C798.128235,23.848169 797.366150,23.557829 796.300659,23.212280 
	C795.333862,22.684351 794.670471,22.211630 793.974060,21.397076 
	C790.455261,19.474470 786.969482,17.893694 783.203247,16.311968 
	C782.614014,16.112135 782.305237,15.913252 781.929932,15.371842 
	C780.049927,14.473725 778.236328,13.918135 776.051575,13.355713 
	C743.485657,1.658292 711.476318,2.109150 679.711060,14.957491 
	C664.766357,21.002274 649.959900,27.391525 634.975769,33.334801 
	C624.962402,37.306465 614.746521,40.767376 604.218323,44.330147 
	C598.549255,46.431988 593.283081,48.660553 587.749329,51.063583 
	C586.852905,51.305740 586.224060,51.373436 585.195557,51.320358 
	C581.670532,52.152985 578.483765,52.943295 575.432922,54.094006 
	C569.241333,56.429394 563.123230,58.959740 556.628418,61.595047 
	C554.059326,62.335297 551.836670,62.890217 549.192627,63.308502 
	C543.226868,64.592865 537.638794,65.866150 532.152954,67.485733 
	C528.362854,68.604675 524.713928,70.202103 520.637939,71.733429 
	C518.735718,72.093590 517.197571,72.306023 515.224854,72.358490 
	C510.851562,73.218864 506.912750,74.239204 502.747681,75.359711 
	C502.188232,75.560867 501.864960,75.535507 501.091309,75.252609 
	C489.188629,75.770996 477.745819,76.413078 466.305695,77.099991 
	C465.886566,77.125160 465.493835,77.589462 464.679871,77.916267 
	C463.182770,77.866821 462.094666,77.750221 460.903259,77.280960 
	C456.909668,76.520859 453.019379,76.113411 448.744019,75.811401 
	C447.595978,75.743080 446.832947,75.569313 445.927551,75.085571 
	C441.649933,74.002892 437.514740,73.230179 433.089539,72.529053 
	C432.217255,72.497040 431.634918,72.393425 430.855316,71.963638 
	C426.453308,70.754585 422.248627,69.871704 417.693176,69.011642 
	C416.894043,68.909119 416.445679,68.783775 415.928314,68.320251 
	C410.357971,66.483505 404.856628,64.984924 399.130951,63.547379 
	C398.580536,63.623798 398.292145,63.526978 397.864197,62.985138 
	C391.284454,60.425972 384.918335,58.086163 378.465210,56.018009 
	C374.895569,54.873981 371.180084,54.184872 367.198242,53.308990 
	C366.249878,53.102760 365.633606,52.878235 364.946167,52.324188 
	C357.706329,49.479408 350.537659,46.964149 343.014038,44.470451 
	C341.782196,44.172752 340.905334,43.853493 339.943176,43.218475 
	C337.378937,41.686779 334.991669,40.202702 332.399902,39.316830 
	C328.367218,37.938438 324.195557,36.966640 319.721252,35.846958 
	C317.583344,35.088703 315.806946,34.306011 313.937775,33.202309 
	C313.041046,32.717056 312.237152,32.552818 311.104065,32.384346 
	C310.188538,32.104271 309.602112,31.828430 308.944641,31.235474 
	C302.344727,28.464987 295.815918,26.011614 288.954529,23.518442 
	C287.409210,22.914522 286.196442,22.350403 284.928406,21.430241 
	C283.055664,20.511044 281.238190,19.947887 279.074829,19.365891 
	C277.497223,18.733858 276.265503,18.120667 274.940979,17.192696 
	C274.058472,16.698833 273.268799,16.519749 272.139984,16.349995 
	C271.214813,16.043644 270.628754,15.727962 269.941010,15.109922 
	C261.181305,10.449400 252.328003,6.726450 242.031219,6.429050 
	C239.756195,6.146501 237.885559,5.818829 235.938034,5.192335 
	C234.599579,4.881626 233.338013,4.869739 231.628998,4.931772 
	C228.803375,4.770633 226.425201,4.535574 223.866730,3.981782 
	C218.776184,3.870227 213.865906,4.077404 208.534622,4.436070 
	C205.712097,4.666515 203.310562,4.745471 200.683151,4.574776 
	C198.966080,4.742994 197.474899,5.160865 195.609268,5.746984 
	C193.355652,6.083436 191.476486,6.251640 189.163986,6.284008 
	C184.774414,7.065276 180.735886,7.730040 176.889679,8.984502 
	C174.134491,9.883123 171.636841,11.571288 168.811981,13.065823 
	C168.255615,13.279355 167.911545,13.334254 167.186157,13.283856 
	C165.200912,14.030352 163.597000,14.882144 161.798508,15.927259 
	C161.252045,16.192961 160.900146,16.265339 160.157043,16.244408 
	C157.172226,17.728493 154.578613,19.305889 151.802612,21.169983 
	C148.876175,23.050482 146.132156,24.644285 143.015503,26.177135 
	C140.768951,27.705084 138.894989,29.293987 136.851410,31.105907 
	C136.209122,31.616468 135.736481,31.904009 134.899536,32.143398 
	C132.622330,33.329231 130.381241,34.253185 128.863144,35.860161 
	C125.444443,39.479046 122.383865,43.436241 119.093910,47.536842 
	C118.583458,48.198334 118.156639,48.578735 117.401154,48.992821 
	C115.677414,50.887054 114.282341,52.747616 112.813553,54.901417 
	C112.447243,55.459942 112.154655,55.725224 111.498123,56.023888 
	C110.558250,57.232201 109.982323,58.407127 109.368530,59.889313 
	C108.800903,60.777687 108.271126,61.358814 107.421371,61.999008 
	C106.792076,62.780071 106.482765,63.502064 106.130386,64.455269 
	C106.087318,64.686485 105.732025,64.994766 105.392700,65.021423 
	C103.111580,68.814407 101.169792,72.580734 99.211563,76.646225 
	C99.000992,77.288940 98.806862,77.632500 98.292191,78.042130 
	C95.451088,84.929222 92.930527,91.750244 90.465530,98.808899 
	C90.522491,99.382263 90.431686,99.690849 89.940002,100.139366 
	C89.335831,102.166847 89.040329,104.027260 88.796738,106.250191 
	C88.694099,107.069687 88.539566,107.526649 88.069275,108.112274 
	C86.510033,116.371216 84.179489,124.502167 84.184456,132.631699 
	C84.273651,278.748993 84.694931,424.866028 84.935303,570.983337 
	C85.055923,644.309448 84.926003,717.636108 85.048073,790.962280 
	C85.054359,794.738403 84.502693,797.628052 80.579834,799.538635 
	C79.105644,799.742126 78.016098,799.799622 76.800461,799.650085 
	C76.099342,799.735046 75.524330,800.027100 74.638992,800.534912 
	C73.099297,800.991882 71.869926,801.233093 70.250015,801.343872 
	C65.363091,802.926880 60.197857,803.600342 57.839745,809.159302 
	C56.099731,810.976013 54.498905,812.488159 52.550186,814.021362 
	C51.184822,815.761719 50.167343,817.481018 49.085823,819.432556 
	C49.021786,819.664734 48.664787,819.988159 48.338791,820.043457 
	C40.258762,831.681030 40.629925,843.944824 45.280960,856.399719 
	C46.187256,858.826660 48.315422,860.797302 50.035095,863.096924 
	C50.190208,863.215332 50.258106,863.599731 50.186584,863.953491 
	C50.997581,865.209167 51.880100,866.111145 52.938427,867.121765 
	C53.114235,867.230347 53.232895,867.626221 53.178711,868.007568 
	C54.177807,869.193848 55.231083,869.998779 56.582222,870.885498 
	C57.584244,871.694397 58.288403,872.421509 59.044395,873.487000 
	C59.857094,874.136047 60.617950,874.446594 61.574989,874.790466 
	C61.771179,874.823730 62.018368,875.135559 62.031624,875.480957 
	C62.932827,879.075867 60.374611,877.942566 59.102699,877.959106 
	C51.630550,878.056702 44.149799,877.827820 36.686081,878.098511 
	C32.937878,878.234436 28.970264,878.555725 25.533876,879.898621 
	C14.708156,884.129395 3.742224,893.225769 4.788365,910.167542 
	C5.464545,921.117981 9.510404,929.107300 18.952126,934.543762 
	C20.213301,935.270020 20.995796,936.827515 21.999990,938.000000 
z"/>
<path fill="#E1E3DF" opacity="1.000000" stroke="none" 
	d="
M889.984924,875.106873 
	C889.799500,878.141296 891.858459,877.971313 893.961304,878.045898 
	C901.736877,878.321838 909.674744,877.823792 917.243225,879.251404 
	C928.634033,881.399963 937.039795,889.240784 940.233887,899.748413 
	C943.078430,909.106140 942.531677,919.768921 934.609924,927.758179 
	C931.117615,931.280396 926.956055,934.139038 923.049194,937.649414 
	C622.979126,938.000000 322.958221,938.000000 22.468647,938.000000 
	C20.995796,936.827515 20.213301,935.270020 18.952126,934.543762 
	C9.510404,929.107300 5.464545,921.117981 4.788365,910.167542 
	C3.742224,893.225769 14.708156,884.129395 25.533876,879.898621 
	C28.970264,878.555725 32.937878,878.234436 36.686081,878.098511 
	C44.149799,877.827820 51.630550,878.056702 59.102699,877.959106 
	C60.374611,877.942566 62.932827,879.075867 62.396301,875.492798 
	C67.173904,876.179993 71.595871,878.066162 76.026924,878.087830 
	C120.986824,878.306824 165.948196,878.226013 210.909164,878.207703 
	C213.063614,878.206848 215.218018,878.005188 217.793976,877.996582 
	C231.660660,878.029663 245.105835,877.963196 259.035522,878.018188 
	C260.519012,878.166809 261.517944,878.217651 262.516907,878.217712 
	C402.137848,878.221375 541.758789,878.222473 681.379761,878.207825 
	C683.035645,878.207642 684.691528,878.002441 686.771240,877.993713 
	C699.996094,878.027527 712.797180,877.960510 726.079956,878.013916 
	C777.926453,878.162354 829.291260,878.194275 880.656128,878.201294 
	C882.308411,878.201538 883.960632,877.947510 885.750977,877.944946 
	C885.990356,878.148376 886.091553,878.218933 886.192810,878.289551 
	C886.062500,878.081055 885.932190,877.872498 885.897095,877.354004 
	C887.323242,876.398315 888.654114,875.752563 889.984924,875.106873 
z"/>
<path fill="#86C801" opacity="1.000000" stroke="none" 
	d="
M686.347412,877.892883 
	C684.691528,878.002441 683.035645,878.207642 681.379761,878.207825 
	C541.758789,878.222473 402.137848,878.221375 262.516907,878.217712 
	C261.517944,878.217651 260.519012,878.166809 259.189148,877.685181 
	C260.858978,875.841797 262.990326,874.606140 264.834442,873.033630 
	C269.327728,869.202026 274.389130,865.760681 277.959625,861.178711 
	C286.091980,850.742493 289.047974,838.538940 287.986450,825.312683 
	C287.246887,816.098206 284.050598,807.665527 278.113922,800.911072 
	C265.303253,786.335693 251.812347,772.358459 238.612061,758.125061 
	C235.915863,755.217896 233.444717,752.079773 230.572540,749.362366 
	C223.471085,742.643860 216.925720,734.969543 208.814209,729.776794 
	C197.899338,722.789551 185.481216,721.599854 172.406555,724.698669 
	C156.488953,728.471191 145.974701,737.984741 138.847107,752.113281 
	C133.857697,762.003479 133.073822,772.392456 135.055801,783.098450 
	C136.719391,792.084412 140.556473,800.093201 146.776688,806.795410 
	C155.808502,816.527039 164.924866,826.184509 174.179688,835.703857 
	C187.767929,849.680664 198.760986,866.364563 216.280563,876.274658 
	C216.788071,876.561768 217.014801,877.345093 217.372437,877.897095 
	C215.218018,878.005188 213.063614,878.206848 210.909164,878.207703 
	C165.948196,878.226013 120.986824,878.306824 76.026924,878.087830 
	C71.595871,878.066162 67.173904,876.179993 62.383049,875.147339 
	C62.018368,875.135559 61.771179,874.823730 61.458740,874.497009 
	C60.428391,873.829712 59.710484,873.489136 58.992569,873.148560 
	C58.288403,872.421509 57.584244,871.694397 56.517365,870.563477 
	C55.180729,869.315186 54.206810,868.470703 53.232895,867.626221 
	C53.232895,867.626221 53.114235,867.230347 52.956978,866.801208 
	C51.952511,865.447937 51.105305,864.523865 50.258102,863.599731 
	C50.258106,863.599731 50.190208,863.215332 50.031868,862.738159 
	C45.741024,854.359375 42.830448,846.002502 44.010834,837.054993 
	C44.775036,831.262207 47.060822,825.670166 48.664787,819.988159 
	C48.664787,819.988159 49.021786,819.664734 49.404694,819.344971 
	C50.824440,817.350220 51.861279,815.675293 52.898094,814.000366 
	C54.498905,812.488159 56.099731,810.976013 58.183819,809.161743 
	C62.658245,806.397888 66.649414,803.936096 70.640572,801.474243 
	C71.869926,801.233093 73.099297,800.991882 74.893105,800.675354 
	C75.947205,800.352356 76.436867,800.104736 76.926544,799.857056 
	C78.016098,799.799622 79.105644,799.742126 80.965744,799.689636 
	C86.951683,800.537231 86.769669,797.170593 86.766060,793.555054 
	C86.660301,687.624695 86.592857,581.694214 86.542175,475.763794 
	C86.521393,432.330292 86.559395,388.896790 86.559662,345.463287 
	C86.559921,303.693207 86.539955,261.923126 86.540291,220.153061 
	C86.540520,190.680405 86.435219,161.206848 86.653275,131.735718 
	C86.711891,123.814514 87.780220,115.900780 88.385040,107.983620 
	C88.539566,107.526649 88.694099,107.069687 89.094864,106.089027 
	C89.643623,103.700989 89.946152,101.836639 90.248680,99.972290 
	C90.431686,99.690849 90.522491,99.382263 90.763412,98.617096 
	C93.541405,91.450447 96.077072,84.713257 98.612732,77.976059 
	C98.806862,77.632500 99.000992,77.288940 99.526733,76.512817 
	C101.816231,72.385094 103.774132,68.689926 105.732025,64.994766 
	C105.732025,64.994766 106.087318,64.686485 106.426720,64.374161 
	C107.091202,63.354530 107.416275,62.647236 107.741356,61.939938 
	C108.271126,61.358814 108.800903,60.777687 109.666168,59.742355 
	C110.621796,58.188934 111.241936,57.089722 111.862076,55.990509 
	C112.154655,55.725224 112.447243,55.459942 113.136688,54.886650 
	C114.932304,52.705471 116.331062,50.832310 117.729828,48.959145 
	C118.156639,48.578735 118.583458,48.198334 119.421829,47.457138 
	C124.976860,42.128075 130.120346,37.159809 135.263824,32.191547 
	C135.736481,31.904009 136.209122,31.616468 137.192383,31.123718 
	C139.598038,29.358370 141.493073,27.798227 143.388123,26.238087 
	C146.132156,24.644285 148.876175,23.050482 152.159821,21.185863 
	C155.315704,19.389275 157.931992,17.863497 160.548264,16.337719 
	C160.900146,16.265339 161.252045,16.192961 162.145645,15.971354 
	C164.314072,15.011135 165.940765,14.200145 167.567474,13.389154 
	C167.911545,13.334254 168.255615,13.279355 169.195663,13.113980 
	C176.393539,10.808950 182.995422,8.614395 189.597321,6.419842 
	C191.476486,6.251640 193.355652,6.083436 195.969803,5.873009 
	C198.106201,5.495333 199.507629,5.159881 200.909042,4.824428 
	C203.310562,4.745471 205.712097,4.666515 208.972809,4.610041 
	C214.570343,4.521854 219.308670,4.411184 224.047012,4.300514 
	C226.425201,4.535574 228.803375,4.770633 231.856689,5.200493 
	C233.692856,5.427247 234.853897,5.459201 236.014923,5.491156 
	C237.885559,5.818829 239.756195,6.146501 242.247940,6.729124 
	C251.926926,9.793476 260.984802,12.602878 270.042694,15.412280 
	C270.628754,15.727962 271.214813,16.043644 272.301208,16.616268 
	C273.545624,17.084631 274.289703,17.296051 275.033783,17.507473 
	C276.265503,18.120667 277.497223,18.733858 279.249023,19.667778 
	C281.507263,20.587763 283.245483,21.187023 284.983673,21.786282 
	C286.196442,22.350403 287.409210,22.914522 289.168365,23.794775 
	C296.148407,26.591467 302.582062,29.072025 309.015717,31.552586 
	C309.602112,31.828430 310.188538,32.104271 311.269012,32.647911 
	C312.518921,33.118244 313.274750,33.320782 314.030579,33.523323 
	C315.806946,34.306011 317.583344,35.088703 319.895691,36.150383 
	C326.963959,38.797657 333.496185,41.165947 340.028442,43.534233 
	C340.905334,43.853493 341.782196,44.172752 343.212708,44.762264 
	C350.850006,47.572914 357.933685,50.113312 365.017334,52.653709 
	C365.633606,52.878235 366.249878,53.102760 367.395020,53.607582 
	C377.963074,57.031227 388.002289,60.174580 398.041504,63.317936 
	C398.292145,63.526978 398.580536,63.623798 399.339844,63.838737 
	C405.181122,65.598854 410.589233,67.128639 415.997314,68.658417 
	C416.445679,68.783775 416.894043,68.909119 417.904022,69.302620 
	C422.661285,70.477119 426.856964,71.383469 431.052612,72.289825 
	C431.634918,72.393425 432.217255,72.497040 433.323242,72.813507 
	C437.921295,73.816086 441.995605,74.605812 446.069946,75.395538 
	C446.832947,75.569313 447.595978,75.743080 448.967316,76.125244 
	C453.385956,76.766975 457.196228,77.200302 461.006531,77.633621 
	C462.094666,77.750221 463.182770,77.866821 464.957458,78.212952 
	C471.720276,78.527901 477.835846,79.077362 483.861755,78.567322 
	C489.805603,78.064224 495.658722,76.488785 501.551636,75.383804 
	C501.864960,75.535507 502.188232,75.560867 503.029053,75.561928 
	C507.577606,74.615471 511.618530,73.566956 515.659424,72.518456 
	C517.197571,72.306023 518.735718,72.093590 521.014648,71.830658 
	C531.041626,69.001816 540.327820,66.223465 549.613953,63.445129 
	C551.836670,62.890217 554.059326,62.335297 556.984863,61.689537 
	C559.280151,61.134415 560.909180,60.768200 562.458862,60.189301 
	C570.182434,57.303967 577.885193,54.362717 585.595276,51.441132 
	C586.224060,51.373436 586.852905,51.305740 588.130798,51.117416 
	C594.060364,48.816811 599.340820,46.636841 604.621277,44.456867 
	C614.746521,40.767376 624.962402,37.306465 634.975769,33.334801 
	C649.959900,27.391525 664.766357,21.002274 679.711060,14.957491 
	C711.476318,2.109150 743.485657,1.658292 776.238831,13.649538 
	C778.530273,14.538251 780.263367,15.126307 781.996399,15.714365 
	C782.305237,15.913252 782.614014,16.112135 783.383179,16.608067 
	C787.231384,18.516378 790.619202,20.127642 794.007080,21.738907 
	C794.670471,22.211630 795.333862,22.684351 796.434692,23.489269 
	C797.579468,24.150755 798.286743,24.480045 798.994080,24.809338 
	C798.994080,24.809343 799.315186,25.110331 799.632568,25.432838 
	C800.644226,26.034191 801.338562,26.313036 802.032837,26.591881 
	C802.140564,26.720919 802.248352,26.849955 802.654175,27.358395 
	C803.639160,28.054754 804.325989,28.371710 805.012878,28.688671 
	C805.012878,28.688675 805.302917,29.060785 805.608032,29.415802 
	C806.601318,30.134468 807.289490,30.498119 807.977722,30.861767 
	C807.977722,30.861761 808.202271,31.178888 808.486633,31.541561 
	C809.845581,32.566078 810.920227,33.227921 811.994812,33.889763 
	C812.930908,34.806805 813.867004,35.723843 815.126465,37.077263 
	C817.615967,39.323124 819.781982,41.132603 821.947998,42.942097 
	C822.145020,43.244499 822.342102,43.546886 822.820801,44.281006 
	C824.686340,46.210461 826.270203,47.708187 827.854126,49.205917 
	C828.742249,50.380989 829.630371,51.556053 830.797485,53.198376 
	C831.953308,54.594440 832.830139,55.523243 833.707031,56.452045 
	C833.707031,56.452045 833.797485,56.823734 833.954224,57.227924 
	C834.672119,58.184704 835.233337,58.737289 835.794556,59.289890 
	C835.794556,59.289902 835.898621,59.721294 836.056396,60.197453 
	C836.451172,61.111145 836.653748,61.571781 836.929993,61.982891 
	C851.330017,83.414276 858.859680,106.994133 859.373413,132.848419 
	C860.305847,179.781693 860.261475,226.741318 860.603760,273.663910 
	C861.861694,446.108459 861.048828,618.568054 861.014343,791.022034 
	C861.012512,800.169495 861.008911,800.171753 870.062988,799.697449 
	C870.387451,799.680481 870.704956,799.532104 871.025696,799.445068 
	C872.093689,799.617920 873.161621,799.790894 874.849487,800.182861 
	C876.316956,800.486816 877.164490,800.571838 878.012024,800.656860 
	C878.902649,800.920227 879.793274,801.183594 881.220276,801.736450 
	C884.499512,803.303772 887.242371,804.581482 889.985168,805.859253 
	C889.985168,805.859253 890.209106,806.182678 890.512390,806.529663 
	C891.874939,807.569702 892.934204,808.262878 893.993469,808.956055 
	C895.560913,810.512451 897.128357,812.068848 898.921387,814.137817 
	C900.356140,816.217957 901.565247,817.785706 902.774414,819.353394 
	C902.774414,819.353394 902.812988,819.749695 902.971924,820.248108 
	C907.444580,828.282715 907.848816,836.689026 908.536011,845.032349 
	C908.421753,845.499573 908.307556,845.966858 907.958008,846.974609 
	C906.196838,852.004883 904.670898,856.494690 903.145020,860.984436 
	C902.423889,862.054443 901.702759,863.124451 900.623779,864.586060 
	C899.902527,865.660522 899.539124,866.343323 899.175659,867.026123 
	C897.233521,868.861694 895.291382,870.697205 892.851196,872.803772 
	C891.778992,873.636719 891.204712,874.198608 890.630432,874.760498 
	C890.630432,874.760498 890.237854,874.802246 890.111389,874.954590 
	C888.654114,875.752563 887.323242,876.398315 885.878540,877.427490 
	C885.764587,877.811035 885.612915,877.812073 885.612915,877.812073 
	C883.960632,877.947510 882.308411,878.201538 880.656128,878.201294 
	C829.291260,878.194275 777.926453,878.162354 726.247314,877.686646 
	C735.410156,873.262390 742.031860,865.726013 748.857178,858.543762 
	C763.845215,842.772034 778.656677,826.832275 793.518616,810.940857 
	C800.952026,802.992615 806.912781,794.143005 809.017883,783.265137 
	C811.858459,768.586548 808.646179,755.344604 799.793640,743.148254 
	C782.624878,719.494385 745.795410,715.845520 725.061523,737.495544 
	C707.602966,755.725464 690.362915,774.164673 673.049500,792.533325 
	C665.828857,800.193970 659.707336,808.367737 657.346802,819.082031 
	C653.474792,836.656799 657.430420,852.062866 669.669617,864.955811 
	C674.458069,869.999878 680.743713,873.622742 686.347412,877.892883 
M493.689423,475.930664 
	C498.842896,473.745422 500.375610,468.886841 501.842377,464.238129 
	C502.601074,461.833618 502.207031,459.020782 498.471558,459.017365 
	C480.518188,459.000977 462.564178,458.946930 444.612976,459.143799 
	C443.404968,459.157043 441.394196,460.973511 441.160919,462.215118 
	C439.992584,468.433350 446.682800,477.626587 452.943146,479.725281 
	C447.581696,485.363953 442.139832,490.929230 436.894562,496.674011 
	C434.478241,499.320496 432.618042,502.475433 430.196564,505.116364 
	C427.298248,508.277374 427.295013,511.695282 428.857483,515.213806 
	C431.138000,520.349304 434.821106,523.960693 440.832123,523.975830 
	C463.946106,524.034180 487.063354,524.172241 510.170624,523.772705 
	C512.991760,523.723999 516.566711,521.208130 518.391235,518.781982 
	C522.742981,512.995178 522.201111,506.919586 516.024780,500.562531 
	C509.420441,493.765076 502.605103,487.172913 495.973633,480.401276 
	C494.755585,479.157440 493.975647,477.484589 493.689423,475.930664 
M424.720795,440.019043 
	C425.164093,440.237427 425.691956,440.364960 426.038269,440.687439 
	C434.322388,448.402008 449.533417,449.190796 458.918915,443.135773 
	C468.406799,437.014771 477.858673,437.189484 487.698669,443.281586 
	C497.574066,449.395569 507.814423,448.842743 517.567688,442.266602 
	C519.327881,441.079803 521.157654,439.996155 523.389771,439.442078 
	C525.249329,441.098022 527.550964,442.459869 528.885071,444.465363 
	C532.805054,450.357666 535.643677,457.095459 540.163940,462.437500 
	C551.511475,475.847809 563.989868,487.914185 578.833374,497.885925 
	C598.020813,510.775879 619.141541,517.806519 641.427551,519.536438 
	C662.777832,521.193787 684.427917,521.381470 705.687439,515.153564 
	C723.600464,509.906006 739.880615,501.996063 754.550110,490.779755 
	C766.166077,481.898132 776.572388,471.529968 784.815430,459.442322 
	C793.339539,446.942474 800.901001,433.820068 804.899292,418.944366 
	C808.921875,403.978333 811.233887,388.893250 811.088196,373.323792 
	C810.798340,342.328339 810.856445,311.327271 811.063782,280.330475 
	C811.168091,264.731476 808.402771,249.543793 803.554871,234.980377 
	C798.841980,220.822693 791.648315,207.522736 782.176636,195.832016 
	C775.672241,187.803848 769.141846,179.885071 761.083374,173.003296 
	C751.881287,165.144836 741.768555,159.142532 731.601074,152.967270 
	C730.186707,152.108200 728.648193,150.710999 728.145691,149.230743 
	C726.566528,144.578369 725.839050,139.618225 724.068054,135.054153 
	C721.603943,128.703659 719.019531,122.288925 715.534851,116.471786 
	C710.515930,108.093422 699.206421,108.133102 693.823303,114.630898 
	C688.331543,121.259712 682.620056,127.708389 676.917969,134.159286 
	C675.867554,135.347656 674.403259,136.170227 672.851929,137.378174 
	C672.376953,136.040588 672.080872,135.586212 672.071838,135.126205 
	C671.748474,118.633560 667.104858,103.287132 660.036438,88.514587 
	C656.194580,80.485550 648.845215,77.146652 641.184753,81.631424 
	C636.101685,84.607269 631.691895,89.058395 627.689270,93.489204 
	C618.315247,103.866035 609.542542,114.785103 600.203064,125.194481 
	C588.373901,138.378769 576.191162,151.245331 564.229004,164.311172 
	C559.527344,169.446671 555.145630,174.878525 550.375854,179.947388 
	C543.350403,187.413345 536.842102,195.628296 528.801941,201.821381 
	C513.071960,213.937698 494.240082,218.393005 474.750519,218.738586 
	C465.817505,218.896957 456.858643,216.172287 447.872375,215.075684 
	C433.135925,213.277405 420.548126,206.380295 410.367889,196.443604 
	C395.656586,182.084244 382.375977,166.262390 368.424438,151.120255 
	C358.196106,140.019089 347.839417,129.036285 337.596863,117.948120 
	C326.904663,106.373222 316.418152,94.604736 305.567505,83.181335 
	C300.323547,77.660568 292.946075,78.139366 289.173370,84.623352 
	C284.847839,92.057388 280.325592,99.858147 278.407806,108.086685 
	C276.153229,117.760101 272.267975,127.465851 273.923157,137.843170 
	C274.023041,138.469467 273.352997,139.218552 272.936188,140.143631 
	C271.935028,139.648590 271.027527,139.469147 270.540192,138.918121 
	C264.168793,131.713654 257.852295,124.460556 251.531097,117.211769 
	C244.356049,108.983788 232.730911,105.122116 225.549011,119.244118 
	C220.375778,129.416382 216.053345,139.926361 214.747650,151.507538 
	C214.429901,154.325974 212.723358,157.690445 210.558777,159.469864 
	C203.280228,165.453201 195.376556,170.668091 187.949158,176.479996 
	C170.836761,189.870438 158.792969,207.192001 150.064987,226.871246 
	C145.685211,236.746460 141.436768,246.648697 140.742233,257.797516 
	C140.015457,269.463898 137.485626,281.047607 137.185410,292.704590 
	C136.597794,315.521454 136.998688,338.364136 137.016495,361.196136 
	C137.029907,378.386261 137.326752,395.431274 141.660019,412.370056 
	C145.464584,427.242126 150.940308,441.264221 158.763824,454.256958 
	C166.361526,466.874725 175.706772,478.157318 187.367203,487.541138 
	C198.685425,496.649506 210.107910,504.960449 223.708557,510.852783 
	C243.515930,519.434143 263.880005,523.696289 285.181244,523.543701 
	C304.547943,523.405029 324.029541,522.768066 342.189636,514.745544 
	C352.890228,510.018341 363.821167,505.495850 373.748810,499.412933 
	C387.289215,491.116455 398.516052,479.704681 408.042816,467.096771 
	C414.339050,458.764160 418.762756,449.016663 424.720795,440.019043 
z"/>
<path fill="#E1E3DF" opacity="1.000000" stroke="none" 
	d="
M88.069275,108.112274 
	C87.780220,115.900780 86.711891,123.814514 86.653275,131.735718 
	C86.435219,161.206848 86.540520,190.680405 86.540291,220.153061 
	C86.539955,261.923126 86.559921,303.693207 86.559662,345.463287 
	C86.559395,388.896790 86.521393,432.330292 86.542175,475.763794 
	C86.592857,581.694214 86.660301,687.624695 86.766060,793.555054 
	C86.769669,797.170593 86.951683,800.537231 81.350403,799.543640 
	C84.502693,797.628052 85.054359,794.738403 85.048073,790.962280 
	C84.926003,717.636108 85.055923,644.309448 84.935303,570.983337 
	C84.694931,424.866028 84.273651,278.748993 84.184456,132.631699 
	C84.179489,124.502167 86.510033,116.371216 88.069275,108.112274 
z"/>
<path fill="#E1E3DF" opacity="1.000000" stroke="none" 
	d="
M870.885315,799.107178 
	C870.704956,799.532104 870.387451,799.680481 870.062988,799.697449 
	C861.008911,800.171753 861.012512,800.169495 861.014343,791.022034 
	C861.048828,618.568054 861.861694,446.108459 860.603760,273.663910 
	C860.261475,226.741318 860.305847,179.781693 859.373413,132.848419 
	C858.859680,106.994133 851.330017,83.414276 836.929993,61.982891 
	C836.653748,61.571781 836.451172,61.111145 836.233032,60.331802 
	C838.517395,62.711075 841.195007,65.187553 842.979919,68.194038 
	C852.608398,84.411575 857.916016,102.182190 860.858215,120.675034 
	C861.739685,126.214996 861.915833,131.911942 861.928894,137.538101 
	C862.017212,175.515625 861.916748,213.493561 861.984680,251.471161 
	C862.307556,431.824402 862.664185,612.177551 863.019226,792.530762 
	C863.022400,794.151672 863.168640,795.772339 863.248718,797.405090 
	C865.993713,797.904602 868.369324,798.336914 870.885315,799.107178 
z"/>
<path fill="#E1E3DF" opacity="1.000000" stroke="none" 
	d="
M48.338791,820.043457 
	C47.060822,825.670166 44.775036,831.262207 44.010834,837.054993 
	C42.830448,846.002502 45.741024,854.359375 49.876755,862.619751 
	C48.315422,860.797302 46.187256,858.826660 45.280960,856.399719 
	C40.629925,843.944824 40.258762,831.681030 48.338791,820.043457 
z"/>
<path fill="#E1E3DF" opacity="1.000000" stroke="none" 
	d="
M501.091309,75.252609 
	C495.658722,76.488785 489.805603,78.064224 483.861755,78.567322 
	C477.835846,79.077362 471.720276,78.527901 465.366394,78.145798 
	C465.493835,77.589462 465.886566,77.125160 466.305695,77.099991 
	C477.745819,76.413078 489.188629,75.770996 501.091309,75.252609 
z"/>
<path fill="#E1E3DF" opacity="1.000000" stroke="none" 
	d="
M397.864197,62.985138 
	C388.002289,60.174580 377.963074,57.031227 367.727112,53.589287 
	C371.180084,54.184872 374.895569,54.873981 378.465210,56.018009 
	C384.918335,58.086163 391.284454,60.425972 397.864197,62.985138 
z"/>
<path fill="#E1E3DF" opacity="1.000000" stroke="none" 
	d="
M585.195557,51.320358 
	C577.885193,54.362717 570.182434,57.303967 562.458862,60.189301 
	C560.909180,60.768200 559.280151,61.134415 557.331299,61.504204 
	C563.123230,58.959740 569.241333,56.429394 575.432922,54.094006 
	C578.483765,52.943295 581.670532,52.152985 585.195557,51.320358 
z"/>
<path fill="#E1E3DF" opacity="1.000000" stroke="none" 
	d="
M908.875732,844.890747 
	C907.848816,836.689026 907.444580,828.282715 903.116333,820.385254 
	C903.675476,820.286743 904.523193,820.390381 904.782227,820.835999 
	C909.100403,828.268494 911.115784,836.152832 908.875732,844.890747 
z"/>
<path fill="#E1E3DF" opacity="1.000000" stroke="none" 
	d="
M269.941010,15.109921 
	C260.984802,12.602878 251.926926,9.793476 242.652313,6.684001 
	C252.328003,6.726450 261.181305,10.449400 269.941010,15.109921 
z"/>
<path fill="#E1E3DF" opacity="1.000000" stroke="none" 
	d="
M549.192627,63.308495 
	C540.327820,66.223465 531.041626,69.001816 521.378723,71.682930 
	C524.713928,70.202103 528.362854,68.604675 532.152954,67.485733 
	C537.638794,65.866150 543.226868,64.592865 549.192627,63.308495 
z"/>
<path fill="#E1E3DF" opacity="1.000000" stroke="none" 
	d="
M134.899536,32.143394 
	C130.120346,37.159809 124.976860,42.128075 119.505463,47.176048 
	C122.383865,43.436241 125.444443,39.479046 128.863144,35.860161 
	C130.381241,34.253185 132.622330,33.329231 134.899536,32.143394 
z"/>
<path fill="#E1E3DF" opacity="1.000000" stroke="none" 
	d="
M98.292198,78.042130 
	C96.077072,84.713257 93.541405,91.450447 90.707848,98.379456 
	C92.930527,91.750244 95.451088,84.929222 98.292198,78.042130 
z"/>
<path fill="#E1E3DF" opacity="1.000000" stroke="none" 
	d="
M364.946167,52.324188 
	C357.933685,50.113312 350.850006,47.572914 343.567688,44.740704 
	C350.537659,46.964149 357.706329,49.479408 364.946167,52.324188 
z"/>
<path fill="#E1E3DF" opacity="1.000000" stroke="none" 
	d="
M189.163986,6.284006 
	C182.995422,8.614395 176.393539,10.808950 169.407959,12.955347 
	C171.636841,11.571288 174.134491,9.883123 176.889679,8.984502 
	C180.735886,7.730040 184.774414,7.065276 189.163986,6.284006 
z"/>
<path fill="#E1E3DF" opacity="1.000000" stroke="none" 
	d="
M308.944641,31.235472 
	C302.582062,29.072025 296.148407,26.591467 289.500916,23.834574 
	C295.815918,26.011614 302.344727,28.464987 308.944641,31.235472 
z"/>
<path fill="#E1E3DF" opacity="1.000000" stroke="none" 
	d="
M339.943176,43.218475 
	C333.496185,41.165947 326.963959,38.797657 320.257263,36.125946 
	C324.195557,36.966640 328.367218,37.938438 332.399902,39.316830 
	C334.991669,40.202702 337.378937,41.686779 339.943176,43.218475 
z"/>
<path fill="#E1E3DF" opacity="1.000000" stroke="none" 
	d="
M415.928314,68.320251 
	C410.589233,67.128639 405.181122,65.598854 399.564148,63.777710 
	C404.856628,64.984924 410.357971,66.483505 415.928314,68.320251 
z"/>
<path fill="#E1E3DF" opacity="1.000000" stroke="none" 
	d="
M604.218323,44.330147 
	C599.340820,46.636841 594.060364,48.816811 588.398438,50.942947 
	C593.283081,48.660553 598.549255,46.431988 604.218323,44.330147 
z"/>
<path fill="#E1E3DF" opacity="1.000000" stroke="none" 
	d="
M223.866730,3.981782 
	C219.308670,4.411184 214.570343,4.521854 209.393814,4.458553 
	C213.865906,4.077404 218.776184,3.870227 223.866730,3.981782 
z"/>
<path fill="#E1E3DF" opacity="1.000000" stroke="none" 
	d="
M903.487854,860.948303 
	C904.670898,856.494690 906.196838,852.004883 908.038452,847.331848 
	C909.757507,852.693237 906.735413,856.783386 903.487854,860.948303 
z"/>
<path fill="#E1E3DF" opacity="1.000000" stroke="none" 
	d="
M70.250031,801.343872 
	C66.649414,803.936096 62.658245,806.397888 58.323002,808.857178 
	C60.197857,803.600342 65.363091,802.926880 70.250031,801.343872 
z"/>
<path fill="#E1E3DF" opacity="1.000000" stroke="none" 
	d="
M430.855316,71.963646 
	C426.856964,71.383469 422.661285,70.477119 418.254761,69.279800 
	C422.248627,69.871704 426.453308,70.754585 430.855316,71.963646 
z"/>
<path fill="#E1E3DF" opacity="1.000000" stroke="none" 
	d="
M445.927551,75.085571 
	C441.995605,74.605812 437.921295,73.816086 433.613251,72.741913 
	C437.514740,73.230179 441.649933,74.002892 445.927551,75.085571 
z"/>
<path fill="#E1E3DF" opacity="1.000000" stroke="none" 
	d="
M515.224854,72.358482 
	C511.618530,73.566956 507.577606,74.615471 503.255341,75.461761 
	C506.912750,74.239204 510.851562,73.218864 515.224854,72.358482 
z"/>
<path fill="#E1E3DF" opacity="1.000000" stroke="none" 
	d="
M460.903259,77.280960 
	C457.196228,77.200302 453.385956,76.766975 449.352356,76.019806 
	C453.019379,76.113411 456.909668,76.520859 460.903259,77.280960 
z"/>
<path fill="#E1E3DF" opacity="1.000000" stroke="none" 
	d="
M105.392700,65.021423 
	C103.774132,68.689926 101.816231,72.385094 99.543167,76.213654 
	C101.169792,72.580734 103.111580,68.814407 105.392700,65.021423 
z"/>
<path fill="#E1E3DF" opacity="1.000000" stroke="none" 
	d="
M793.974060,21.397076 
	C790.619202,20.127642 787.231384,18.516378 783.663574,16.609016 
	C786.969482,17.893694 790.455261,19.474470 793.974060,21.397076 
z"/>
<path fill="#E1E3DF" opacity="1.000000" stroke="none" 
	d="
M821.949341,42.600113 
	C819.781982,41.132603 817.615967,39.323124 815.436707,37.191254 
	C817.599243,38.665287 819.775024,40.461712 821.949341,42.600113 
z"/>
<path fill="#E1E3DF" opacity="1.000000" stroke="none" 
	d="
M889.951172,805.518921 
	C887.242371,804.581482 884.499512,803.303772 881.570679,801.736450 
	C884.228821,802.690735 887.072998,803.934631 889.951172,805.518921 
z"/>
<path fill="#E1E3DF" opacity="1.000000" stroke="none" 
	d="
M160.157043,16.244408 
	C157.931992,17.863497 155.315704,19.389275 152.342224,20.899168 
	C154.578613,19.305889 157.172226,17.728493 160.157043,16.244408 
z"/>
<path fill="#E1E3DF" opacity="1.000000" stroke="none" 
	d="
M117.401161,48.992821 
	C116.331062,50.832310 114.932304,52.705471 113.210403,54.593407 
	C114.282341,52.747616 115.677414,50.887054 117.401161,48.992821 
z"/>
<path fill="#E1E3DF" opacity="1.000000" stroke="none" 
	d="
M143.015503,26.177132 
	C141.493073,27.798227 139.598038,29.358370 137.362015,30.900702 
	C138.894989,29.293987 140.768951,27.705084 143.015503,26.177132 
z"/>
<path fill="#E1E3DF" opacity="1.000000" stroke="none" 
	d="
M827.890320,48.849220 
	C826.270203,47.708187 824.686340,46.210461 823.077515,44.383862 
	C824.677185,45.534168 826.301819,47.013348 827.890320,48.849220 
z"/>
<path fill="#E1E3DF" opacity="1.000000" stroke="none" 
	d="
M52.550209,814.021362 
	C51.861279,815.675293 50.824440,817.350220 49.468735,819.112793 
	C50.167343,817.481018 51.184822,815.761719 52.550209,814.021362 
z"/>
<path fill="#E1E3DF" opacity="1.000000" stroke="none" 
	d="
M902.837585,818.984558 
	C901.565247,817.785706 900.356140,816.217957 899.207153,814.318604 
	C900.478455,815.529846 901.689575,817.072754 902.837585,818.984558 
z"/>
<path fill="#E1E3DF" opacity="1.000000" stroke="none" 
	d="
M89.940002,100.139366 
	C89.946152,101.836639 89.643623,103.700989 89.042969,105.726501 
	C89.040329,104.027260 89.335831,102.166847 89.940002,100.139366 
z"/>
<path fill="#E1E3DF" opacity="1.000000" stroke="none" 
	d="
M284.928406,21.430241 
	C283.245483,21.187023 281.507263,20.587763 279.594910,19.686619 
	C281.238190,19.947887 283.055664,20.511044 284.928406,21.430241 
z"/>
<path fill="#E1E3DF" opacity="1.000000" stroke="none" 
	d="
M200.683151,4.574776 
	C199.507629,5.159881 198.106201,5.495333 196.344254,5.704761 
	C197.474899,5.160865 198.966080,4.742994 200.683151,4.574776 
z"/>
<path fill="#E1E3DF" opacity="1.000000" stroke="none" 
	d="
M781.929932,15.371840 
	C780.263367,15.126307 778.530273,14.538251 776.609985,13.656370 
	C778.236328,13.918135 780.049927,14.473725 781.929932,15.371840 
z"/>
<path fill="#E1E3DF" opacity="1.000000" stroke="none" 
	d="
M167.186157,13.283857 
	C165.940765,14.200145 164.314072,15.011135 162.340225,15.778030 
	C163.597000,14.882144 165.200912,14.030352 167.186157,13.283857 
z"/>
<path fill="#E1E3DF" opacity="1.000000" stroke="none" 
	d="
M235.938034,5.192334 
	C234.853897,5.459201 233.692856,5.427247 232.304138,5.126573 
	C233.338013,4.869739 234.599579,4.881626 235.938034,5.192334 
z"/>
<path fill="#E1E3DF" opacity="1.000000" stroke="none" 
	d="
M50.186581,863.953491 
	C51.105305,864.523865 51.952511,865.447937 52.781166,866.692627 
	C51.880100,866.111145 50.997581,865.209167 50.186581,863.953491 
z"/>
<path fill="#E1E3DF" opacity="1.000000" stroke="none" 
	d="
M833.785400,56.087345 
	C832.830139,55.523243 831.953308,54.594440 831.086731,53.337814 
	C832.019287,53.914211 832.941528,54.818428 833.785400,56.087345 
z"/>
<path fill="#E1E3DF" opacity="1.000000" stroke="none" 
	d="
M893.969727,808.595703 
	C892.934204,808.262878 891.874939,807.569702 890.705139,806.568726 
	C891.711731,806.918945 892.828918,807.577087 893.969727,808.595703 
z"/>
<path fill="#E1E3DF" opacity="1.000000" stroke="none" 
	d="
M111.498131,56.023891 
	C111.241936,57.089722 110.621796,58.188934 109.704025,59.435104 
	C109.982323,58.407127 110.558250,57.232201 111.498131,56.023891 
z"/>
<path fill="#E1E3DF" opacity="1.000000" stroke="none" 
	d="
M811.971802,33.532516 
	C810.920227,33.227921 809.845581,32.566078 808.674622,31.590742 
	C809.701721,31.909922 810.825195,32.542595 811.971802,33.532516 
z"/>
<path fill="#E1E3DF" opacity="1.000000" stroke="none" 
	d="
M53.178711,868.007568 
	C54.206810,868.470703 55.180729,869.315186 56.219501,870.481689 
	C55.231083,869.998779 54.177807,869.193848 53.178711,868.007568 
z"/>
<path fill="#E1E3DF" opacity="1.000000" stroke="none" 
	d="
M877.964844,800.360779 
	C877.164490,800.571838 876.316956,800.486816 875.255371,800.146606 
	C876.000061,799.949219 876.958801,800.006958 877.964844,800.360779 
z"/>
<path fill="#E1E3DF" opacity="1.000000" stroke="none" 
	d="
M59.044407,873.487000 
	C59.710484,873.489136 60.428391,873.829712 61.262550,874.463745 
	C60.617950,874.446594 59.857094,874.136047 59.044407,873.487000 
z"/>
<path fill="#E1E3DF" opacity="1.000000" stroke="none" 
	d="
M890.976501,874.822144 
	C891.204712,874.198608 891.778992,873.636719 892.664307,873.081299 
	C892.424377,873.686462 891.873474,874.285156 890.976501,874.822144 
z"/>
<path fill="#E1E3DF" opacity="1.000000" stroke="none" 
	d="
M899.499390,866.985229 
	C899.539124,866.343323 899.902527,865.660522 900.565735,864.903931 
	C900.518066,865.534851 900.170532,866.239563 899.499390,866.985229 
z"/>
<path fill="#E1E3DF" opacity="1.000000" stroke="none" 
	d="
M798.942139,24.473921 
	C798.286743,24.480045 797.579468,24.150755 796.738159,23.544477 
	C797.366150,23.557829 798.128235,23.848169 798.942139,24.473921 
z"/>
<path fill="#E1E3DF" opacity="1.000000" stroke="none" 
	d="
M76.800446,799.650024 
	C76.436867,800.104736 75.947205,800.352356 75.203430,800.459534 
	C75.524330,800.027100 76.099342,799.735046 76.800446,799.650024 
z"/>
<path fill="#E1E3DF" opacity="1.000000" stroke="none" 
	d="
M274.940979,17.192694 
	C274.289703,17.296051 273.545624,17.084631 272.640320,16.606937 
	C273.268799,16.519749 274.058472,16.698833 274.940979,17.192694 
z"/>
<path fill="#E1E3DF" opacity="1.000000" stroke="none" 
	d="
M801.970093,26.285900 
	C801.338562,26.313036 800.644226,26.034191 799.850708,25.461578 
	C800.470154,25.438513 801.188782,25.709215 801.970093,26.285900 
z"/>
<path fill="#E1E3DF" opacity="1.000000" stroke="none" 
	d="
M804.970459,28.378284 
	C804.325989,28.371710 803.639160,28.054754 802.896118,27.429401 
	C803.535950,27.436638 804.231995,27.752270 804.970459,28.378284 
z"/>
<path fill="#E1E3DF" opacity="1.000000" stroke="none" 
	d="
M807.945923,30.530968 
	C807.289490,30.498119 806.601318,30.134468 805.837158,29.471828 
	C806.478821,29.515280 807.196411,29.857721 807.945923,30.530968 
z"/>
<path fill="#E1E3DF" opacity="1.000000" stroke="none" 
	d="
M313.937775,33.202309 
	C313.274750,33.320782 312.518921,33.118244 311.598145,32.652142 
	C312.237152,32.552818 313.041046,32.717056 313.937775,33.202309 
z"/>
<path fill="#E1E3DF" opacity="1.000000" stroke="none" 
	d="
M107.421371,61.999008 
	C107.416275,62.647236 107.091202,63.354530 106.469788,64.142944 
	C106.482765,63.502064 106.792076,62.780071 107.421371,61.999008 
z"/>
<path fill="#E1E3DF" opacity="1.000000" stroke="none" 
	d="
M835.848633,58.952332 
	C835.233337,58.737289 834.672119,58.184704 834.118286,57.326267 
	C834.717957,57.551876 835.310364,58.083332 835.848633,58.952332 
z"/>
<path fill="#E79200" opacity="1.000000" stroke="none" 
	d="
M217.793976,877.996582 
	C217.014801,877.345093 216.788071,876.561768 216.280563,876.274658 
	C198.760986,866.364563 187.767929,849.680664 174.179688,835.703857 
	C164.924866,826.184509 155.808502,816.527039 146.776688,806.795410 
	C140.556473,800.093201 136.719391,792.084412 135.055801,783.098450 
	C133.073822,772.392456 133.857697,762.003479 138.847107,752.113281 
	C145.974701,737.984741 156.488953,728.471191 172.406555,724.698669 
	C185.481216,721.599854 197.899338,722.789551 208.814209,729.776794 
	C216.925720,734.969543 223.471085,742.643860 230.572540,749.362366 
	C233.444717,752.079773 235.915863,755.217896 238.612061,758.125061 
	C251.812347,772.358459 265.303253,786.335693 278.113922,800.911072 
	C284.050598,807.665527 287.246887,816.098206 287.986450,825.312683 
	C289.047974,838.538940 286.091980,850.742493 277.959625,861.178711 
	C274.389130,865.760681 269.327728,869.202026 264.834442,873.033630 
	C262.990326,874.606140 260.858978,875.841797 258.704620,877.563721 
	C245.105835,877.963196 231.660660,878.029663 217.793976,877.996582 
z"/>
<path fill="#E79200" opacity="1.000000" stroke="none" 
	d="
M686.771240,877.993713 
	C680.743713,873.622742 674.458069,869.999878 669.669617,864.955811 
	C657.430420,852.062866 653.474792,836.656799 657.346802,819.082031 
	C659.707336,808.367737 665.828857,800.193970 673.049500,792.533325 
	C690.362915,774.164673 707.602966,755.725464 725.061523,737.495544 
	C745.795410,715.845520 782.624878,719.494385 799.793640,743.148254 
	C808.646179,755.344604 811.858459,768.586548 809.017883,783.265137 
	C806.912781,794.143005 800.952026,802.992615 793.518616,810.940857 
	C778.656677,826.832275 763.845215,842.772034 748.857178,858.543762 
	C742.031860,865.726013 735.410156,873.262390 725.765625,877.566284 
	C712.797180,877.960510 699.996094,878.027527 686.771240,877.993713 
z"/>
<path fill="#FDFEFD" opacity="1.000000" stroke="none" 
	d="
M885.783203,877.737549 
	C885.932190,877.872498 886.062500,878.081055 886.192810,878.289551 
	C886.091553,878.218933 885.990356,878.148376 885.750977,877.944946 
	C885.612915,877.812073 885.764587,877.811035 885.783203,877.737549 
z"/>
<path fill="#9DDF02" opacity="1.000000" stroke="none" 
	d="
M424.024811,439.902618 
	C418.762756,449.016663 414.339050,458.764160 408.042816,467.096771 
	C398.516052,479.704681 387.289215,491.116455 373.748810,499.412933 
	C363.821167,505.495850 352.890228,510.018341 342.189636,514.745544 
	C324.029541,522.768066 304.547943,523.405029 285.181244,523.543701 
	C263.880005,523.696289 243.515930,519.434143 223.708557,510.852783 
	C210.107910,504.960449 198.685425,496.649506 187.367203,487.541138 
	C175.706772,478.157318 166.361526,466.874725 158.763824,454.256958 
	C150.940308,441.264221 145.464584,427.242126 141.660019,412.370056 
	C137.326752,395.431274 137.029907,378.386261 137.016495,361.196136 
	C136.998688,338.364136 136.597794,315.521454 137.185410,292.704590 
	C137.485626,281.047607 140.015457,269.463898 140.742233,257.797516 
	C141.436768,246.648697 145.685211,236.746460 150.064987,226.871246 
	C158.792969,207.192001 170.836761,189.870438 187.949158,176.479996 
	C195.376556,170.668091 203.280228,165.453201 210.558777,159.469864 
	C212.723358,157.690445 214.429901,154.325974 214.747650,151.507538 
	C216.053345,139.926361 220.375778,129.416382 225.549011,119.244118 
	C232.730911,105.122116 244.356049,108.983788 251.531097,117.211769 
	C257.852295,124.460556 264.168793,131.713654 270.540192,138.918121 
	C271.027527,139.469147 271.935028,139.648590 272.936188,140.143631 
	C273.352997,139.218552 274.023041,138.469467 273.923157,137.843170 
	C272.267975,127.465851 276.153229,117.760101 278.407806,108.086685 
	C280.325592,99.858147 284.847839,92.057388 289.173370,84.623352 
	C292.946075,78.139366 300.323547,77.660568 305.567505,83.181335 
	C316.418152,94.604736 326.904663,106.373222 337.596863,117.948120 
	C347.839417,129.036285 358.196106,140.019089 368.424438,151.120255 
	C382.375977,166.262390 395.656586,182.084244 410.367889,196.443604 
	C420.548126,206.380295 433.135925,213.277405 447.872375,215.075684 
	C456.858643,216.172287 465.817505,218.896957 474.750519,218.738586 
	C494.240082,218.393005 513.071960,213.937698 528.801941,201.821381 
	C536.842102,195.628296 543.350403,187.413345 550.375854,179.947388 
	C555.145630,174.878525 559.527344,169.446671 564.229004,164.311172 
	C576.191162,151.245331 588.373901,138.378769 600.203064,125.194481 
	C609.542542,114.785103 618.315247,103.866035 627.689270,93.489204 
	C631.691895,89.058395 636.101685,84.607269 641.184753,81.631424 
	C648.845215,77.146652 656.194580,80.485550 660.036438,88.514587 
	C667.104858,103.287132 671.748474,118.633560 672.071838,135.126205 
	C672.080872,135.586212 672.376953,136.040588 672.851929,137.378174 
	C674.403259,136.170227 675.867554,135.347656 676.917969,134.159286 
	C682.620056,127.708389 688.331543,121.259712 693.823303,114.630898 
	C699.206421,108.133102 710.515930,108.093422 715.534851,116.471786 
	C719.019531,122.288925 721.603943,128.703659 724.068054,135.054153 
	C725.839050,139.618225 726.566528,144.578369 728.145691,149.230743 
	C728.648193,150.710999 730.186707,152.108200 731.601074,152.967270 
	C741.768555,159.142532 751.881287,165.144836 761.083374,173.003296 
	C769.141846,179.885071 775.672241,187.803848 782.176636,195.832016 
	C791.648315,207.522736 798.841980,220.822693 803.554871,234.980377 
	C808.402771,249.543793 811.168091,264.731476 811.063782,280.330475 
	C810.856445,311.327271 810.798340,342.328339 811.088196,373.323792 
	C811.233887,388.893250 808.921875,403.978333 804.899292,418.944366 
	C800.901001,433.820068 793.339539,446.942474 784.815430,459.442322 
	C776.572388,471.529968 766.166077,481.898132 754.550110,490.779755 
	C739.880615,501.996063 723.600464,509.906006 705.687439,515.153564 
	C684.427917,521.381470 662.777832,521.193787 641.427551,519.536438 
	C619.141541,517.806519 598.020813,510.775879 578.833374,497.885925 
	C563.989868,487.914185 551.511475,475.847809 540.163940,462.437500 
	C535.643677,457.095459 532.805054,450.357666 528.885071,444.465363 
	C527.550964,442.459869 525.249329,441.098022 523.210388,438.810425 
	C527.746094,431.560944 529.382874,424.097046 529.497620,416.102570 
	C534.411072,417.745209 538.703674,417.065338 542.922302,415.263611 
	C538.816040,428.943420 542.594482,440.657837 550.776489,451.052094 
	C555.578308,457.152283 561.177124,462.683838 566.809326,468.060669 
	C584.365906,484.821381 605.547058,494.699280 629.232727,498.788391 
	C644.369141,501.401581 659.774658,500.041412 674.709778,496.942139 
	C689.915894,493.786652 704.825562,489.177002 719.825378,485.059570 
	C735.914185,480.643158 751.214050,474.289551 764.189636,463.642914 
	C773.004883,456.409973 781.476807,448.556000 784.895935,436.939941 
	C788.322632,425.298248 783.558411,407.366821 772.737061,402.921936 
	C768.615112,401.228821 764.535156,399.433746 760.544800,397.307953 
	C762.371094,387.126312 765.211304,377.363434 765.576416,367.508850 
	C766.377869,345.877014 766.124268,324.196564 765.883545,302.540619 
	C765.795227,294.595917 765.152344,286.547516 763.696106,278.745453 
	C753.252502,222.787323 698.877563,182.767044 638.583801,194.673416 
	C588.479553,204.567642 553.372559,248.162872 553.372498,299.240112 
	C553.372498,320.068237 552.964294,340.907776 553.544800,361.719727 
	C553.834839,372.117767 555.931152,382.465454 556.942139,393.066101 
	C553.474365,397.715149 550.274902,402.133942 547.025757,406.153503 
	C547.068909,402.646606 547.859924,399.355957 547.103760,396.470825 
	C545.699707,391.113708 543.341797,386.011414 541.471863,380.770569 
	C536.713013,367.433441 526.666565,358.010712 515.556702,350.823853 
	C499.744751,340.595337 481.745392,335.656555 462.581604,339.115448 
	C454.525085,340.569641 446.479065,342.756836 438.841431,345.687500 
	C429.161865,349.401672 421.474518,356.211639 414.564972,363.944794 
	C405.575104,374.006256 399.930664,385.458984 398.482910,398.988281 
	C393.443237,394.905182 388.737915,390.837463 384.164917,386.361633 
	C385.073669,377.524414 386.381348,369.104065 386.520447,360.664429 
	C386.852539,340.515656 386.710632,320.357452 386.619324,300.203705 
	C386.476227,268.611938 375.079559,241.842880 351.815002,220.337326 
	C331.567719,201.620895 307.321136,192.555695 279.995331,192.574005 
	C253.194305,192.591965 229.350113,201.664551 209.413147,219.721527 
	C191.507156,235.939072 179.480347,255.874710 176.146881,280.042969 
	C174.428818,292.499298 173.955719,305.235443 174.154007,317.825714 
	C174.579285,344.828156 170.979568,372.156586 179.395386,398.896179 
	C177.707138,400.333862 176.389633,401.618805 174.876511,402.602966 
	C166.099884,408.311554 162.480240,416.471893 163.170242,426.752533 
	C164.325729,443.968933 172.170197,457.763733 185.050720,468.817047 
	C197.762726,479.725739 212.428848,487.410889 228.023285,493.195892 
	C243.626495,498.984131 259.712128,503.371521 276.514038,502.777008 
	C290.203552,502.292603 303.659729,500.230225 317.026794,496.396423 
	C332.524323,491.951599 347.412628,486.200836 361.810425,479.244324 
	C369.188568,475.679504 375.665741,470.245514 382.536682,465.636292 
	C396.320374,456.389862 405.739014,444.643280 404.800842,426.909332 
	C404.574554,422.632172 404.570312,418.343262 404.803650,414.105042 
	C409.076782,414.694397 413.010254,415.238434 416.958649,416.248291 
	C416.252441,425.377655 418.933075,433.006744 424.024811,439.902618 
z"/>
<path fill="#E79200" opacity="1.000000" stroke="none" 
	d="
M424.372803,439.960815 
	C418.933075,433.006744 416.252441,425.377655 416.985596,415.880798 
	C418.722046,403.568024 426.972687,397.423706 436.341797,392.986938 
	C443.196716,389.740784 450.790771,388.003448 458.127869,385.839325 
	C469.736786,382.415253 481.342224,383.244690 492.855774,386.449738 
	C500.662903,388.623077 507.685791,392.216431 514.756470,396.347443 
	C522.920654,401.117310 527.828857,406.954773 529.098083,416.104980 
	C529.382874,424.097046 527.746094,431.560944 522.993164,438.521820 
	C521.157654,439.996155 519.327881,441.079803 517.567688,442.266602 
	C507.814423,448.842743 497.574066,449.395569 487.698669,443.281586 
	C477.858673,437.189484 468.406799,437.014771 458.918915,443.135773 
	C449.533417,449.190796 434.322388,448.402008 426.038269,440.687439 
	C425.691956,440.364960 425.164093,440.237427 424.372803,439.960815 
z"/>
<path fill="#7DB700" opacity="1.000000" stroke="none" 
	d="
M492.993469,476.009766 
	C493.975647,477.484589 494.755585,479.157440 495.973633,480.401276 
	C502.605103,487.172913 509.420441,493.765076 516.024780,500.562531 
	C522.201111,506.919586 522.742981,512.995178 518.391235,518.781982 
	C516.566711,521.208130 512.991760,523.723999 510.170624,523.772705 
	C487.063354,524.172241 463.946106,524.034180 440.832123,523.975830 
	C434.821106,523.960693 431.138000,520.349304 428.857483,515.213806 
	C427.295013,511.695282 427.298248,508.277374 430.196564,505.116364 
	C432.618042,502.475433 434.478241,499.320496 436.894562,496.674011 
	C442.139832,490.929230 447.581696,485.363953 453.325500,479.334625 
	C455.341949,477.580048 457.408875,476.504395 458.540100,474.805603 
	C465.996368,463.608337 485.746338,466.409149 492.993469,476.009766 
z"/>
<path fill="#9BDE00" opacity="1.000000" stroke="none" 
	d="
M493.341431,475.970215 
	C485.746338,466.409149 465.996368,463.608337 458.540100,474.805603 
	C457.408875,476.504395 455.341949,477.580048 453.366333,478.992798 
	C446.682800,477.626587 439.992584,468.433350 441.160919,462.215118 
	C441.394196,460.973511 443.404968,459.157043 444.612976,459.143799 
	C462.564178,458.946930 480.518188,459.000977 498.471558,459.017365 
	C502.207031,459.020782 502.601074,461.833618 501.842377,464.238129 
	C500.375610,468.886841 498.842896,473.745422 493.341431,475.970215 
z"/>
<path fill="#FAFBF9" opacity="1.000000" stroke="none" 
	d="
M557.210510,392.835907 
	C555.931152,382.465454 553.834839,372.117767 553.544800,361.719727 
	C552.964294,340.907776 553.372498,320.068237 553.372498,299.240112 
	C553.372559,248.162872 588.479553,204.567642 638.583801,194.673416 
	C698.877563,182.767044 753.252502,222.787323 763.696106,278.745453 
	C765.152344,286.547516 765.795227,294.595917 765.883545,302.540619 
	C766.124268,324.196564 766.377869,345.877014 765.576416,367.508850 
	C765.211304,377.363434 762.371094,387.126312 760.347290,397.375122 
	C760.041077,397.819489 759.708496,398.073242 759.277283,398.041748 
	C747.612610,396.752747 738.063354,402.280853 727.609009,405.671692 
	C726.006714,405.778625 724.778870,405.884521 723.340210,405.791382 
	C722.767822,405.479126 722.406189,405.365936 721.839478,405.091797 
	C721.303406,404.915222 720.972351,404.899628 720.361694,404.648895 
	C719.077942,403.822876 718.092163,403.198120 717.067078,402.646118 
	C700.699158,393.831909 693.293823,375.777679 698.994507,358.561005 
	C704.708679,341.303589 721.439270,331.228729 739.792603,334.004974 
	C742.194336,334.368256 744.587158,334.790070 748.278381,335.397949 
	C747.647949,320.796570 748.183594,306.747833 746.252319,293.046814 
	C737.845276,233.403549 670.363037,200.105515 617.597595,229.202637 
	C610.694275,233.009445 603.857727,237.075516 597.960144,244.292557 
	C631.746765,236.103348 656.509827,245.521317 668.942322,278.008820 
	C676.820618,298.595459 669.480469,323.168213 651.444580,335.683075 
	C621.170593,356.689789 594.666138,349.466064 571.386597,320.949310 
	C571.386597,332.295746 570.987549,342.394684 571.496948,352.447540 
	C572.024841,362.865051 573.433044,373.237946 574.085815,383.796021 
	C568.800659,387.036163 563.885864,390.110596 558.687317,393.083252 
	C558.005859,392.932953 557.608215,392.884430 557.210510,392.835907 
z"/>
<path fill="#FAFBF9" opacity="1.000000" stroke="none" 
	d="
M179.675781,398.604523 
	C170.979568,372.156586 174.579285,344.828156 174.154007,317.825714 
	C173.955719,305.235443 174.428818,292.499298 176.146881,280.042969 
	C179.480347,255.874710 191.507156,235.939072 209.413147,219.721527 
	C229.350113,201.664551 253.194305,192.591965 279.995331,192.574005 
	C307.321136,192.555695 331.567719,201.620895 351.815002,220.337326 
	C375.079559,241.842880 386.476227,268.611938 386.619324,300.203705 
	C386.710632,320.357452 386.852539,340.515656 386.520447,360.664429 
	C386.381348,369.104065 385.073669,377.524414 384.019592,386.447815 
	C383.741974,386.942047 383.504608,387.187408 383.141907,387.105469 
	C380.597351,386.391907 378.416870,385.223846 376.233459,385.218262 
	C364.718109,385.188904 353.183990,385.122498 341.693848,385.752686 
	C335.863129,386.072479 330.111328,387.831543 324.132141,388.696899 
	C323.349457,387.919006 322.758423,387.384155 322.122864,386.476440 
	C321.680023,385.010315 321.267822,383.921967 320.885468,382.823212 
	C313.132111,360.542450 326.143341,338.129761 349.425201,334.558716 
	C355.304993,333.656860 361.511902,334.887360 367.942841,335.153473 
	C367.942841,323.316772 368.739044,310.976990 367.776611,298.775940 
	C365.790619,273.598602 354.506592,252.770279 334.503601,237.449646 
	C307.595459,216.840271 277.783783,213.363541 246.303986,225.481049 
	C236.067398,229.421417 226.948868,235.497528 218.287384,244.449448 
	C253.033676,235.914291 278.205200,245.647659 290.119537,279.454102 
	C297.383820,300.066284 289.873993,323.711823 271.845734,336.022675 
	C241.733063,356.585419 215.303345,349.335449 192.761581,321.549011 
	C192.478012,322.939972 192.241196,323.559052 192.241989,324.177765 
	C192.258347,337.002228 191.614746,349.877899 192.566162,362.634186 
	C193.273849,372.122620 196.055084,381.456390 197.721283,391.162506 
	C197.608078,391.930145 197.686371,392.394287 197.355240,392.955139 
	C194.913513,393.704620 192.856064,394.289154 190.854553,395.025665 
	C187.565002,396.236115 184.311722,397.545135 180.816727,398.760742 
	C180.288452,398.647888 179.983612,398.613098 179.675781,398.604523 
z"/>
<path fill="#69B9B9" opacity="1.000000" stroke="none" 
	d="
M383.504608,387.187408 
	C383.504608,387.187408 383.741974,386.942047 383.887268,386.855896 
	C388.737915,390.837463 393.443237,394.905182 398.498444,399.379883 
	C400.720184,404.544464 402.592102,409.302094 404.463989,414.059753 
	C404.570312,418.343262 404.574554,422.632172 404.800842,426.909332 
	C405.739014,444.643280 396.320374,456.389862 382.536682,465.636292 
	C375.665741,470.245514 369.188568,475.679504 361.810425,479.244324 
	C347.412628,486.200836 332.524323,491.951599 317.026794,496.396423 
	C303.659729,500.230225 290.203552,502.292603 276.514038,502.777008 
	C259.712128,503.371521 243.626495,498.984131 228.023285,493.195892 
	C212.428848,487.410889 197.762726,479.725739 185.050720,468.817047 
	C172.170197,457.763733 164.325729,443.968933 163.170242,426.752533 
	C162.480240,416.471893 166.099884,408.311554 174.876511,402.602966 
	C176.389633,401.618805 177.707138,400.333862 179.395386,398.896179 
	C179.983612,398.613098 180.288452,398.647888 180.797058,399.186554 
	C181.419754,401.389313 181.649399,403.186249 182.282303,404.827667 
	C185.945908,414.328857 191.484573,422.685516 197.762421,430.666534 
	C211.336319,447.923065 228.872955,459.646667 249.646606,465.692413 
	C265.550720,470.320953 281.898529,471.362732 298.757507,468.410217 
	C316.738770,465.261169 332.383301,457.803345 346.554504,447.180206 
	C358.102997,438.523071 367.513947,427.354279 373.864960,414.328186 
	C378.045837,405.753052 380.356476,396.266052 383.504608,387.187408 
z"/>
<path fill="#67B7BB" opacity="1.000000" stroke="none" 
	d="
M556.942139,393.066101 
	C557.608215,392.884430 558.005859,392.932953 558.678101,393.500397 
	C559.436279,396.942810 559.482910,400.031555 560.510498,402.749390 
	C561.900879,406.426941 563.940857,409.878265 565.887695,413.321747 
	C569.105103,419.012665 571.670044,425.329132 575.923279,430.129852 
	C588.973938,444.860260 603.643799,457.845917 623.060059,463.514465 
	C632.976257,466.409485 643.216003,468.762115 653.467957,469.810730 
	C669.340942,471.434387 684.684937,467.960846 699.595642,462.342163 
	C710.733582,458.145111 720.657654,451.949310 729.280029,443.982239 
	C735.800476,437.957397 742.203308,431.418243 747.016418,424.037170 
	C752.238403,416.028961 755.558838,406.780731 759.708496,398.073242 
	C759.708496,398.073242 760.041077,397.819489 760.238525,397.752319 
	C764.535156,399.433746 768.615112,401.228821 772.737061,402.921936 
	C783.558411,407.366821 788.322632,425.298248 784.895935,436.939941 
	C781.476807,448.556000 773.004883,456.409973 764.189636,463.642914 
	C751.214050,474.289551 735.914185,480.643158 719.825378,485.059570 
	C704.825562,489.177002 689.915894,493.786652 674.709778,496.942139 
	C659.774658,500.041412 644.369141,501.401581 629.232727,498.788391 
	C605.547058,494.699280 584.365906,484.821381 566.809326,468.060669 
	C561.177124,462.683838 555.578308,457.152283 550.776489,451.052094 
	C542.594482,440.657837 538.816040,428.943420 543.027039,414.920837 
	C544.399292,411.638428 545.737427,409.095612 547.075500,406.552734 
	C550.274902,402.133942 553.474365,397.715149 556.942139,393.066101 
z"/>
<path fill="#F4C300" opacity="1.000000" stroke="none" 
	d="
M547.025757,406.153503 
	C545.737427,409.095612 544.399292,411.638428 542.956421,414.523987 
	C538.703674,417.065338 534.411072,417.745209 529.497620,416.102570 
	C527.828857,406.954773 522.920654,401.117310 514.756470,396.347443 
	C507.685791,392.216431 500.662903,388.623077 492.855774,386.449738 
	C481.342224,383.244690 469.736786,382.415253 458.127869,385.839325 
	C450.790771,388.003448 443.196716,389.740784 436.341797,392.986938 
	C426.972687,397.423706 418.722046,403.568024 416.970703,415.414917 
	C413.010254,415.238434 409.076782,414.694397 404.803650,414.105042 
	C402.592102,409.302094 400.720184,404.544464 398.832764,399.395233 
	C399.930664,385.458984 405.575104,374.006256 414.564972,363.944794 
	C421.474518,356.211639 429.161865,349.401672 438.841431,345.687500 
	C446.479065,342.756836 454.525085,340.569641 462.581604,339.115448 
	C481.745392,335.656555 499.744751,340.595337 515.556702,350.823853 
	C526.666565,358.010712 536.713013,367.433441 541.471863,380.770569 
	C543.341797,386.011414 545.699707,391.113708 547.103760,396.470825 
	C547.859924,399.355957 547.068909,402.646606 547.025757,406.153503 
M496.818268,364.178009 
	C497.420013,362.330750 498.021759,360.483490 498.487579,359.053528 
	C495.855133,351.001068 489.348450,348.261200 482.222137,347.100616 
	C470.836304,345.246277 459.419922,345.375702 448.607452,350.055328 
	C446.395020,351.012878 443.463165,353.416199 443.297546,355.360504 
	C442.930725,359.666107 441.106018,364.958099 446.270966,368.032928 
	C448.339813,369.264526 450.792328,370.658447 453.033844,370.599426 
	C456.197388,370.516144 459.317200,368.516388 462.473602,368.466370 
	C469.387115,368.356964 476.400299,368.390900 483.203979,369.450409 
	C488.595978,370.290009 493.561981,369.331635 496.818268,364.178009 
z"/>
<path fill="#4E4F50" opacity="1.000000" stroke="none" 
	d="
M574.456177,383.630371 
	C573.433044,373.237946 572.024841,362.865051 571.496948,352.447540 
	C570.987549,342.394684 571.386597,332.295746 571.386597,320.949310 
	C594.666138,349.466064 621.170593,356.689789 651.444580,335.683075 
	C669.480469,323.168213 676.820618,298.595459 668.942322,278.008820 
	C656.509827,245.521317 631.746765,236.103348 597.960144,244.292557 
	C603.857727,237.075516 610.694275,233.009445 617.597595,229.202637 
	C670.363037,200.105515 737.845276,233.403549 746.252319,293.046814 
	C748.183594,306.747833 747.647949,320.796570 748.278381,335.397949 
	C744.587158,334.790070 742.194336,334.368256 739.792603,334.004974 
	C721.439270,331.228729 704.708679,341.303589 698.994507,358.561005 
	C693.293823,375.777679 700.699158,393.831909 717.067078,402.646118 
	C718.092163,403.198120 719.077942,403.822876 719.994629,404.916443 
	C712.196045,405.636780 704.486023,405.976410 696.773560,406.045044 
	C683.527893,406.162872 670.382446,405.517914 657.689087,401.033264 
	C641.150513,395.190094 624.425232,389.856415 608.004883,383.704254 
	C596.847656,379.523987 586.005920,380.596802 574.828491,383.439819 
	C574.679871,383.434204 574.456177,383.630371 574.456177,383.630371 
z"/>
<path fill="#5391D3" opacity="1.000000" stroke="none" 
	d="
M574.977173,383.445404 
	C586.005920,380.596802 596.847656,379.523987 608.004883,383.704254 
	C624.425232,389.856415 641.150513,395.190094 657.689087,401.033264 
	C670.382446,405.517914 683.527893,406.162872 696.773560,406.045044 
	C704.486023,405.976410 712.196045,405.636780 720.274231,405.151550 
	C720.972351,404.899628 721.303406,404.915222 722.090088,405.214478 
	C722.880737,405.662231 723.215881,405.826324 723.550964,405.990417 
	C724.778870,405.884521 726.006714,405.778625 727.794128,406.004272 
	C729.741272,406.740540 731.128906,407.145325 732.489380,407.542175 
	C732.522644,407.968994 732.651917,408.327911 732.552917,408.605438 
	C732.275024,409.384644 732.000488,410.193848 731.553711,410.879852 
	C721.208191,426.762482 706.451111,437.445862 689.028748,443.641449 
	C676.171204,448.213654 662.491150,450.569946 648.495728,448.054840 
	C636.880005,445.967346 625.627441,442.971954 615.427856,436.863342 
	C603.029907,429.438110 592.752136,419.770050 585.012146,407.496429 
	C580.312500,400.044128 576.308716,392.302521 574.977173,383.445404 
z"/>
<path fill="#7CBFFD" opacity="1.000000" stroke="none" 
	d="
M574.828491,383.439819 
	C576.308716,392.302521 580.312500,400.044128 585.012146,407.496429 
	C592.752136,419.770050 603.029907,429.438110 615.427856,436.863342 
	C625.627441,442.971954 636.880005,445.967346 648.495728,448.054840 
	C662.491150,450.569946 676.171204,448.213654 689.028748,443.641449 
	C706.451111,437.445862 721.208191,426.762482 731.553711,410.879852 
	C732.000488,410.193848 732.275024,409.384644 732.552917,408.605438 
	C732.651917,408.327911 732.522644,407.968994 732.489380,407.542175 
	C731.128906,407.145325 729.741272,406.740540 728.168518,406.003235 
	C738.063354,402.280853 747.612610,396.752747 759.277283,398.041748 
	C755.558838,406.780731 752.238403,416.028961 747.016418,424.037170 
	C742.203308,431.418243 735.800476,437.957397 729.280029,443.982239 
	C720.657654,451.949310 710.733582,458.145111 699.595642,462.342163 
	C684.684937,467.960846 669.340942,471.434387 653.467957,469.810730 
	C643.216003,468.762115 632.976257,466.409485 623.060059,463.514465 
	C603.643799,457.845917 588.973938,444.860260 575.923279,430.129852 
	C571.670044,425.329132 569.105103,419.012665 565.887695,413.321747 
	C563.940857,409.878265 561.900879,406.426941 560.510498,402.749390 
	C559.482910,400.031555 559.436279,396.942810 558.961853,393.602173 
	C563.885864,390.110596 568.800659,387.036163 574.085815,383.796021 
	C574.456177,383.630371 574.679871,383.434204 574.828491,383.439819 
z"/>
<path fill="#4E4F50" opacity="1.000000" stroke="none" 
	d="
M723.340210,405.791382 
	C723.215881,405.826324 722.880737,405.662231 722.295044,405.375427 
	C722.406189,405.365936 722.767822,405.479126 723.340210,405.791382 
z"/>
<path fill="#4E4F4F" opacity="1.000000" stroke="none" 
	d="
M197.912781,390.859039 
	C196.055084,381.456390 193.273849,372.122620 192.566162,362.634186 
	C191.614746,349.877899 192.258347,337.002228 192.241989,324.177765 
	C192.241196,323.559052 192.478012,322.939972 192.761581,321.549011 
	C215.303345,349.335449 241.733063,356.585419 271.845734,336.022675 
	C289.873993,323.711823 297.383820,300.066284 290.119537,279.454102 
	C278.205200,245.647659 253.033676,235.914291 218.287384,244.449448 
	C226.948868,235.497528 236.067398,229.421417 246.303986,225.481049 
	C277.783783,213.363541 307.595459,216.840271 334.503601,237.449646 
	C354.506592,252.770279 365.790619,273.598602 367.776611,298.775940 
	C368.739044,310.976990 367.942841,323.316772 367.942841,335.153473 
	C361.511902,334.887360 355.304993,333.656860 349.425201,334.558716 
	C326.143341,338.129761 313.132111,360.542450 320.885468,382.823212 
	C321.267822,383.921967 321.680023,385.010315 321.934021,386.792297 
	C316.965942,389.448425 311.997681,391.124207 307.342468,393.431671 
	C282.087738,405.949799 255.888306,405.362701 229.395859,398.933716 
	C218.874985,396.380585 209.203217,390.487640 197.912781,390.859039 
z"/>
<path fill="#7CBFFD" opacity="1.000000" stroke="none" 
	d="
M383.141907,387.105469 
	C380.356476,396.266052 378.045837,405.753052 373.864960,414.328186 
	C367.513947,427.354279 358.102997,438.523071 346.554504,447.180206 
	C332.383301,457.803345 316.738770,465.261169 298.757507,468.410217 
	C281.898529,471.362732 265.550720,470.320953 249.646606,465.692413 
	C228.872955,459.646667 211.336319,447.923065 197.762421,430.666534 
	C191.484573,422.685516 185.945908,414.328857 182.282303,404.827667 
	C181.649399,403.186249 181.419754,401.389313 181.023499,399.238403 
	C184.311722,397.545135 187.565002,396.236115 190.854553,395.025665 
	C192.856064,394.289154 194.913513,393.704620 197.582550,392.976868 
	C198.527969,393.244843 198.836639,393.587738 199.106049,394.305847 
	C203.219635,401.520599 206.895966,408.712036 211.629211,415.123108 
	C220.241226,426.787933 231.616837,435.240692 244.882889,441.114990 
	C260.810242,448.167725 277.435181,449.672791 294.496399,447.095398 
	C317.917999,443.557159 336.646027,432.174988 350.605011,413.007996 
	C352.083679,410.977661 353.502319,408.903625 355.439514,406.153229 
	C341.309265,406.252289 331.732117,399.768127 323.970245,389.747742 
	C324.130859,389.285370 324.227356,389.112671 324.323853,388.939941 
	C330.111328,387.831543 335.863129,386.072479 341.693848,385.752686 
	C353.183990,385.122498 364.718109,385.188904 376.233459,385.218262 
	C378.416870,385.223846 380.597351,386.391907 383.141907,387.105469 
z"/>
<path fill="#4F7295" opacity="1.000000" stroke="none" 
	d="
M324.132141,388.696899 
	C324.227356,389.112671 324.130859,389.285370 323.664978,389.894073 
	C320.512787,391.708435 317.833038,393.379181 314.925568,394.403656 
	C309.016052,396.485901 302.972107,398.183746 297.006866,400.112091 
	C294.342682,400.973328 291.798157,402.554138 289.090149,402.868805 
	C278.414032,404.109467 267.684357,404.880432 256.994171,406.011047 
	C246.536591,407.117035 236.818344,404.425049 227.214386,400.784363 
	C222.115402,398.851440 217.030136,396.764923 211.766815,395.420624 
	C207.698227,394.381409 203.362366,394.388641 199.145325,393.930664 
	C198.836639,393.587738 198.527969,393.244843 197.991974,392.880188 
	C197.686371,392.394287 197.608078,391.930145 197.721283,391.162506 
	C209.203217,390.487640 218.874985,396.380585 229.395859,398.933716 
	C255.888306,405.362701 282.087738,405.949799 307.342468,393.431671 
	C311.997681,391.124207 316.965942,389.448425 321.978577,387.165222 
	C322.758423,387.384155 323.349457,387.919006 324.132141,388.696899 
z"/>
<path fill="#F7D900" opacity="1.000000" stroke="none" 
	d="
M496.673218,364.531250 
	C493.561981,369.331635 488.595978,370.290009 483.203979,369.450409 
	C476.400299,368.390900 469.387115,368.356964 462.473602,368.466370 
	C459.317200,368.516388 456.197388,370.516144 453.033844,370.599426 
	C450.792328,370.658447 448.339813,369.264526 446.270966,368.032928 
	C441.106018,364.958099 442.930725,359.666107 443.297546,355.360504 
	C443.463165,353.416199 446.395020,351.012878 448.607452,350.055328 
	C459.419922,345.375702 470.836304,345.246277 482.222137,347.100616 
	C489.348450,348.261200 495.855133,351.001068 498.487579,359.053528 
	C498.021759,360.483490 497.420013,362.330750 496.673218,364.531250 
z"/>
<path fill="#5392D5" opacity="1.000000" stroke="none" 
	d="
M199.106049,394.305847 
	C203.362366,394.388641 207.698227,394.381409 211.766815,395.420624 
	C217.030136,396.764923 222.115402,398.851440 227.214386,400.784363 
	C236.818344,404.425049 246.536591,407.117035 256.994171,406.011047 
	C267.684357,404.880432 278.414032,404.109467 289.090149,402.868805 
	C291.798157,402.554138 294.342682,400.973328 297.006866,400.112091 
	C302.972107,398.183746 309.016052,396.485901 314.925568,394.403656 
	C317.833038,393.379181 320.512787,391.708435 323.600830,390.183777 
	C331.732117,399.768127 341.309265,406.252289 355.439514,406.153229 
	C353.502319,408.903625 352.083679,410.977661 350.605011,413.007996 
	C336.646027,432.174988 317.917999,443.557159 294.496399,447.095398 
	C277.435181,449.672791 260.810242,448.167725 244.882889,441.114990 
	C231.616837,435.240692 220.241226,426.787933 211.629211,415.123108 
	C206.895966,408.712036 203.219635,401.520599 199.106049,394.305847 
z"/>
</svg>