<svg xmlns="http://www.w3.org/2000/svg" xmlns:xlink="http://www.w3.org/1999/xlink" width="1200" zoomAndPan="magnify" viewBox="0 0 900 472.499986" height="630" preserveAspectRatio="xMidYMid meet" version="1.0"><defs><clipPath id="592f633d2d"><path d="M 262.085938 0 L 638.1875 0 L 638.1875 472 L 262.085938 472 Z M 262.085938 0 " clip-rule="nonzero"/></clipPath></defs><g clip-path="url(#592f633d2d)"><path fill="#262524" d="M 628.785156 56.859375 L 628.785156 47.464844 L 619.382812 47.464844 L 619.382812 38.003906 L 581.769531 38.003906 L 581.769531 28.609375 L 572.367188 28.609375 L 572.367188 19.152344 L 562.964844 19.152344 L 562.964844 9.757812 L 544.160156 9.757812 L 544.160156 0.296875 L 468.941406 0.296875 L 468.941406 9.757812 L 440.734375 9.757812 L 440.734375 19.152344 L 421.929688 19.152344 L 421.929688 28.609375 L 412.527344 28.609375 L 412.527344 38.003906 L 403.121094 38.003906 L 403.121094 47.464844 L 384.316406 47.464844 L 384.316406 56.859375 L 374.914062 56.859375 L 374.914062 66.316406 L 318.5 66.316406 L 318.5 75.710938 L 309.097656 75.710938 L 309.097656 85.171875 L 290.292969 85.171875 L 290.292969 94.566406 L 280.890625 94.566406 L 280.890625 104.023438 L 271.488281 104.023438 L 271.488281 122.878906 L 299.695312 122.878906 L 299.695312 132.335938 L 309.097656 132.335938 L 309.097656 141.730469 L 318.5 141.730469 L 318.5 151.128906 L 309.097656 151.128906 L 309.097656 169.980469 L 299.695312 169.980469 L 299.695312 198.292969 L 290.292969 198.292969 L 290.292969 207.6875 L 280.890625 207.6875 L 280.890625 320.875 L 290.292969 320.875 L 290.292969 349.121094 L 299.695312 349.121094 L 299.695312 377.433594 L 309.097656 377.433594 L 309.097656 386.828125 L 299.695312 386.828125 L 299.695312 396.289062 L 280.890625 396.289062 L 280.890625 415.140625 L 271.488281 415.140625 L 271.488281 433.996094 L 262.085938 433.996094 L 262.085938 471.703125 L 280.890625 471.703125 L 280.890625 462.246094 L 299.695312 462.246094 L 299.695312 452.847656 L 318.5 452.847656 L 318.5 443.453125 L 327.902344 443.453125 L 327.902344 433.996094 L 337.304688 433.996094 L 337.304688 424.539062 L 356.109375 424.539062 L 356.109375 433.996094 L 412.527344 433.996094 L 412.527344 443.453125 L 421.929688 443.453125 L 421.929688 452.847656 L 440.734375 452.847656 L 440.734375 433.996094 L 431.332031 433.996094 L 431.332031 424.539062 L 421.929688 424.539062 L 421.929688 405.683594 L 412.527344 405.683594 L 412.527344 396.289062 L 393.71875 396.289062 L 393.71875 386.828125 L 384.316406 386.828125 L 384.316406 377.433594 L 356.109375 377.433594 L 356.109375 339.664062 L 365.511719 339.664062 L 365.511719 330.269531 L 374.914062 330.269531 L 374.914062 311.414062 L 384.316406 311.414062 L 384.316406 302.019531 L 393.71875 302.019531 L 393.71875 292.5625 L 403.121094 292.5625 L 403.121094 283.101562 L 421.929688 283.101562 L 421.929688 273.707031 L 431.332031 273.707031 L 431.332031 264.3125 L 440.734375 264.3125 L 440.734375 254.855469 L 450.136719 254.855469 L 450.136719 245.457031 L 459.539062 245.457031 L 459.539062 236 L 468.941406 236 L 468.941406 226.542969 L 487.746094 226.542969 L 487.746094 217.148438 L 497.148438 217.148438 L 497.148438 283.101562 L 506.550781 283.101562 L 506.550781 292.5625 L 515.953125 292.5625 L 515.953125 283.101562 L 525.355469 283.101562 L 525.355469 273.707031 L 534.757812 273.707031 L 534.757812 254.855469 L 544.160156 254.855469 L 544.160156 160.585938 L 534.757812 160.585938 L 534.757812 141.730469 L 544.160156 141.730469 L 544.160156 132.335938 L 553.5625 132.335938 L 553.5625 122.878906 L 562.964844 122.878906 L 562.964844 113.421875 L 581.769531 113.421875 L 581.769531 104.023438 L 600.578125 104.023438 L 600.578125 94.566406 L 619.382812 94.566406 L 619.382812 85.171875 L 628.785156 85.171875 L 628.785156 75.710938 L 638.1875 75.710938 L 638.1875 56.859375 Z M 628.785156 56.859375 " fill-opacity="1" fill-rule="nonzero"/></g><path fill="#15afab" d="M 525.355469 160.585938 L 525.355469 207.6875 L 515.953125 207.6875 L 515.953125 254.855469 L 506.550781 254.855469 L 506.550781 283.101562 L 515.953125 283.101562 L 515.953125 273.707031 L 525.355469 273.707031 L 525.355469 254.855469 L 534.757812 254.855469 L 534.757812 160.585938 Z M 525.355469 160.585938 " fill-opacity="1" fill-rule="nonzero"/><path fill="#e8e8e8" d="M 609.980469 75.710938 L 619.382812 75.710938 L 619.382812 85.171875 L 609.980469 85.171875 Z M 609.980469 75.710938 " fill-opacity="1" fill-rule="nonzero"/><path fill="#e8e8e8" d="M 581.769531 85.171875 L 581.769531 94.566406 L 600.578125 94.566406 L 600.578125 85.171875 Z M 581.769531 85.171875 " fill-opacity="1" fill-rule="nonzero"/><path fill="#e8e8e8" d="M 562.964844 94.566406 L 562.964844 104.023438 L 581.769531 104.023438 L 581.769531 94.566406 Z M 562.964844 94.566406 " fill-opacity="1" fill-rule="nonzero"/><path fill="#e8e8e8" d="M 544.160156 104.023438 L 544.160156 113.421875 L 525.355469 113.421875 L 525.355469 122.878906 L 515.953125 122.878906 L 515.953125 132.273438 L 506.550781 132.273438 L 506.550781 151.128906 L 497.148438 151.128906 L 497.148438 160.585938 L 487.746094 160.585938 L 487.746094 169.980469 L 478.34375 169.980469 L 478.34375 179.4375 L 468.941406 179.4375 L 468.941406 188.835938 L 459.539062 188.835938 L 459.539062 207.6875 L 450.136719 207.6875 L 450.136719 217.148438 L 440.734375 217.148438 L 440.734375 226.542969 L 431.332031 226.542969 L 431.332031 236 L 421.929688 236 L 421.929688 245.394531 L 412.527344 245.394531 L 412.527344 254.855469 L 403.121094 254.855469 L 403.121094 264.25 L 384.316406 264.25 L 384.316406 273.707031 L 374.914062 273.707031 L 374.914062 283.101562 L 365.511719 283.101562 L 365.511719 301.957031 L 356.109375 301.957031 L 356.109375 320.875 L 346.707031 320.875 L 346.707031 339.726562 L 356.109375 339.726562 L 356.109375 330.269531 L 365.511719 330.269531 L 365.511719 311.414062 L 374.914062 311.414062 L 374.914062 301.957031 L 384.316406 301.957031 L 384.316406 292.5625 L 393.71875 292.5625 L 393.71875 283.101562 L 403.121094 283.101562 L 403.121094 273.707031 L 421.929688 273.707031 L 421.929688 264.25 L 431.332031 264.25 L 431.332031 254.855469 L 440.734375 254.855469 L 440.734375 245.394531 L 450.136719 245.394531 L 450.136719 236 L 459.539062 236 L 459.539062 226.542969 L 468.941406 226.542969 L 468.941406 217.148438 L 487.746094 217.148438 L 487.746094 207.6875 L 497.148438 207.6875 L 497.148438 188.835938 L 506.550781 188.835938 L 506.550781 179.4375 L 515.953125 179.4375 L 515.953125 160.585938 L 525.355469 160.585938 L 525.355469 141.730469 L 534.757812 141.730469 L 534.757812 132.273438 L 544.160156 132.273438 L 544.160156 122.878906 L 553.5625 122.878906 L 553.5625 113.421875 L 562.964844 113.421875 L 562.964844 104.023438 Z M 544.160156 104.023438 " fill-opacity="1" fill-rule="nonzero"/><path fill="#e8e8e8" d="M 337.304688 349.121094 L 337.304688 358.582031 L 327.902344 358.582031 L 327.902344 396.289062 L 337.304688 396.289062 L 337.304688 377.433594 L 346.707031 377.433594 L 346.707031 339.726562 L 337.304688 339.726562 Z M 337.304688 349.121094 " fill-opacity="1" fill-rule="nonzero"/><path fill="#f9f8ea" d="M 619.382812 56.859375 L 619.382812 66.316406 L 600.578125 66.316406 L 600.578125 75.710938 L 581.769531 75.710938 L 581.769531 85.171875 L 609.980469 85.171875 L 609.980469 75.710938 L 628.785156 75.710938 L 628.785156 56.859375 Z M 619.382812 56.859375 " fill-opacity="1" fill-rule="nonzero"/><path fill="#f9f8ea" d="M 562.964844 85.171875 L 544.160156 85.171875 L 544.160156 94.566406 L 487.746094 94.566406 L 487.746094 104.023438 L 459.539062 104.023438 L 459.539062 113.421875 L 440.734375 113.421875 L 440.734375 122.878906 L 431.332031 122.878906 L 431.332031 132.273438 L 412.527344 132.273438 L 412.527344 141.730469 L 403.121094 141.730469 L 403.121094 151.128906 L 393.71875 151.128906 L 393.71875 160.585938 L 384.316406 160.585938 L 384.316406 169.980469 L 374.914062 169.980469 L 374.914062 179.4375 L 365.511719 179.4375 L 365.511719 188.835938 L 356.109375 188.835938 L 356.109375 207.6875 L 346.707031 207.6875 L 346.707031 226.542969 L 337.304688 226.542969 L 337.304688 236 L 327.902344 236 L 327.902344 264.25 L 318.5 264.25 L 318.5 367.976562 L 327.902344 367.976562 L 327.902344 358.582031 L 337.304688 358.582031 L 337.304688 339.726562 L 346.707031 339.726562 L 346.707031 320.875 L 356.109375 320.875 L 356.109375 301.957031 L 365.511719 301.957031 L 365.511719 283.101562 L 374.914062 283.101562 L 374.914062 273.707031 L 384.316406 273.707031 L 384.316406 245.394531 L 393.71875 245.394531 L 393.71875 198.292969 L 403.121094 198.292969 L 403.121094 179.4375 L 412.527344 179.4375 L 412.527344 160.585938 L 431.332031 160.585938 L 431.332031 151.128906 L 459.539062 151.128906 L 459.539062 188.835938 L 468.941406 188.835938 L 468.941406 179.4375 L 478.34375 179.4375 L 478.34375 169.980469 L 487.746094 169.980469 L 487.746094 160.585938 L 497.148438 160.585938 L 497.148438 151.128906 L 506.550781 151.128906 L 506.550781 132.273438 L 515.953125 132.273438 L 515.953125 122.878906 L 525.355469 122.878906 L 525.355469 113.421875 L 544.160156 113.421875 L 544.160156 104.023438 L 562.964844 104.023438 L 562.964844 94.566406 L 581.769531 94.566406 L 581.769531 85.171875 Z M 562.964844 85.171875 " fill-opacity="1" fill-rule="nonzero"/><path fill="#f9f8ea" d="M 450.136719 198.292969 L 459.539062 198.292969 L 459.539062 207.75 L 450.136719 207.75 Z M 450.136719 198.292969 " fill-opacity="1" fill-rule="nonzero"/><path fill="#eaf8f6" d="M 318.5 367.976562 L 327.902344 367.976562 L 327.902344 377.433594 L 318.5 377.433594 Z M 318.5 367.976562 " fill-opacity="1" fill-rule="nonzero"/><path fill="#1fcccc" d="M 515.953125 179.4375 L 515.953125 188.835938 L 506.550781 188.835938 L 506.550781 254.855469 L 515.953125 254.855469 L 515.953125 207.6875 L 525.355469 207.6875 L 525.355469 179.4375 Z M 515.953125 179.4375 " fill-opacity="1" fill-rule="nonzero"/><path fill="#1fcccc" d="M 421.929688 433.996094 L 431.332031 433.996094 L 431.332031 443.453125 L 421.929688 443.453125 Z M 421.929688 433.996094 " fill-opacity="1" fill-rule="nonzero"/><path fill="#1fcccc" d="M 412.527344 424.539062 L 421.929688 424.539062 L 421.929688 433.996094 L 412.527344 433.996094 Z M 412.527344 424.539062 " fill-opacity="1" fill-rule="nonzero"/><path fill="#1fcccc" d="M 412.527344 405.683594 L 393.71875 405.683594 L 393.71875 396.289062 L 384.316406 396.289062 L 384.316406 386.828125 L 356.109375 386.828125 L 356.109375 377.433594 L 337.304688 377.433594 L 337.304688 396.289062 L 327.902344 396.289062 L 327.902344 415.140625 L 318.5 415.140625 L 318.5 433.996094 L 327.902344 433.996094 L 327.902344 424.539062 L 337.304688 424.539062 L 337.304688 415.140625 L 356.109375 415.140625 L 356.109375 424.539062 L 412.527344 424.539062 Z M 412.527344 405.683594 " fill-opacity="1" fill-rule="nonzero"/><path fill="#1fcccc" d="M 309.097656 433.996094 L 318.5 433.996094 L 318.5 443.453125 L 309.097656 443.453125 Z M 309.097656 433.996094 " fill-opacity="1" fill-rule="nonzero"/><path fill="#1fcccc" d="M 309.097656 132.273438 L 327.902344 132.273438 L 327.902344 122.878906 L 318.5 122.878906 L 318.5 113.421875 L 299.695312 113.421875 L 299.695312 122.878906 L 309.097656 122.878906 Z M 309.097656 132.273438 " fill-opacity="1" fill-rule="nonzero"/><path fill="#7fdee2" d="M 562.964844 28.609375 L 572.367188 28.609375 L 572.367188 38.003906 L 562.964844 38.003906 Z M 562.964844 28.609375 " fill-opacity="1" fill-rule="nonzero"/><path fill="#7fdee2" d="M 553.5625 19.152344 L 544.160156 19.152344 L 544.160156 28.609375 L 562.964844 28.609375 L 562.964844 19.152344 Z M 553.5625 19.152344 " fill-opacity="1" fill-rule="nonzero"/><path fill="#7fdee2" d="M 534.757812 9.757812 L 468.941406 9.757812 L 468.941406 19.152344 L 544.160156 19.152344 L 544.160156 9.757812 Z M 534.757812 9.757812 " fill-opacity="1" fill-rule="nonzero"/><path fill="#7fdee2" d="M 506.550781 85.171875 L 515.953125 85.171875 L 515.953125 94.566406 L 506.550781 94.566406 Z M 506.550781 85.171875 " fill-opacity="1" fill-rule="nonzero"/><path fill="#7fdee2" d="M 506.550781 66.316406 L 506.550781 56.859375 L 497.148438 56.859375 L 497.148438 47.464844 L 487.746094 47.464844 L 487.746094 56.859375 L 478.34375 56.859375 L 478.34375 75.710938 L 487.746094 75.710938 L 487.746094 56.921875 L 497.148438 56.921875 L 497.148438 75.710938 L 506.550781 75.710938 Z M 506.550781 66.316406 " fill-opacity="1" fill-rule="nonzero"/><path fill="#7fdee2" d="M 487.746094 75.710938 L 497.148438 75.710938 L 497.148438 85.171875 L 487.746094 85.171875 Z M 487.746094 75.710938 " fill-opacity="1" fill-rule="nonzero"/><path fill="#7fdee2" d="M 478.34375 94.566406 L 487.746094 94.566406 L 487.746094 104.023438 L 478.34375 104.023438 Z M 478.34375 94.566406 " fill-opacity="1" fill-rule="nonzero"/><path fill="#7fdee2" d="M 450.136719 19.152344 L 440.734375 19.152344 L 440.734375 28.609375 L 421.929688 28.609375 L 421.929688 38.003906 L 412.527344 38.003906 L 412.527344 47.464844 L 431.332031 47.464844 L 431.332031 38.003906 L 450.136719 38.003906 L 450.136719 28.609375 L 468.941406 28.609375 L 468.941406 19.152344 Z M 450.136719 19.152344 " fill-opacity="1" fill-rule="nonzero"/><path fill="#7fdee2" d="M 421.929688 122.878906 L 431.332031 122.878906 L 431.332031 132.335938 L 421.929688 132.335938 Z M 421.929688 122.878906 " fill-opacity="1" fill-rule="nonzero"/><path fill="#7fdee2" d="M 403.121094 56.859375 L 384.316406 56.859375 L 384.316406 66.316406 L 374.914062 66.316406 L 374.914062 75.710938 L 393.71875 75.710938 L 393.71875 66.316406 L 403.121094 66.316406 L 403.121094 56.921875 L 412.527344 56.921875 L 412.527344 47.464844 L 403.121094 47.464844 Z M 403.121094 56.859375 " fill-opacity="1" fill-rule="nonzero"/><path fill="#7fdee2" d="M 365.511719 85.171875 L 356.109375 85.171875 L 356.109375 104.023438 L 365.511719 104.023438 L 365.511719 94.566406 L 374.914062 94.566406 L 374.914062 75.710938 L 365.511719 75.710938 Z M 365.511719 85.171875 " fill-opacity="1" fill-rule="nonzero"/><path fill="#7fdee2" d="M 346.707031 113.421875 L 337.304688 113.421875 L 337.304688 132.273438 L 346.707031 132.273438 L 346.707031 113.484375 L 356.109375 113.484375 L 356.109375 104.023438 L 346.707031 104.023438 Z M 346.707031 113.421875 " fill-opacity="1" fill-rule="nonzero"/><path fill="#7fdee2" d="M 346.707031 75.710938 L 318.5 75.710938 L 318.5 85.171875 L 309.097656 85.171875 L 309.097656 94.566406 L 346.707031 94.566406 L 346.707031 85.171875 L 356.109375 85.171875 L 356.109375 75.710938 Z M 346.707031 75.710938 " fill-opacity="1" fill-rule="nonzero"/><path fill="#7fdee2" d="M 337.304688 217.148438 L 346.707031 217.148438 L 346.707031 226.605469 L 337.304688 226.605469 Z M 337.304688 217.148438 " fill-opacity="1" fill-rule="nonzero"/><path fill="#7fdee2" d="M 327.902344 132.273438 L 337.304688 132.273438 L 337.304688 141.730469 L 327.902344 141.730469 Z M 327.902344 132.273438 " fill-opacity="1" fill-rule="nonzero"/><path fill="#7fdee2" d="M 318.5 254.855469 L 327.902344 254.855469 L 327.902344 264.3125 L 318.5 264.3125 Z M 318.5 254.855469 " fill-opacity="1" fill-rule="nonzero"/><path fill="#7fdee2" d="M 318.5 151.128906 L 327.902344 151.128906 L 327.902344 160.523438 L 318.5 160.523438 Z M 318.5 151.128906 " fill-opacity="1" fill-rule="nonzero"/><path fill="#7fdee2" d="M 309.097656 311.414062 L 309.097656 339.726562 L 318.5 339.726562 L 318.5 301.957031 L 309.097656 301.957031 Z M 309.097656 311.414062 " fill-opacity="1" fill-rule="nonzero"/><path fill="#7fdee2" d="M 318.5 179.4375 L 318.5 169.980469 L 309.097656 169.980469 L 309.097656 188.835938 L 318.5 188.835938 Z M 318.5 179.4375 " fill-opacity="1" fill-rule="nonzero"/><path fill="#7fdee2" d="M 309.097656 207.6875 L 309.097656 198.292969 L 299.695312 198.292969 L 299.695312 207.6875 L 290.292969 207.6875 L 290.292969 254.855469 L 299.695312 254.855469 L 299.695312 217.148438 L 309.097656 217.148438 Z M 309.097656 207.6875 " fill-opacity="1" fill-rule="nonzero"/><path fill="#7fdee2" d="M 290.292969 94.566406 L 290.292969 104.023438 L 309.097656 104.023438 L 309.097656 94.566406 Z M 290.292969 94.566406 " fill-opacity="1" fill-rule="nonzero"/><path fill="#7fdee2" d="M 280.890625 104.023438 L 290.292969 104.023438 L 290.292969 113.484375 L 280.890625 113.484375 Z M 280.890625 104.023438 " fill-opacity="1" fill-rule="nonzero"/><path fill="#9bf0f9" d="M 609.980469 47.464844 L 581.769531 47.464844 L 581.769531 56.921875 L 562.964844 56.921875 L 562.964844 66.378906 L 534.757812 66.378906 L 534.757812 56.921875 L 562.964844 56.921875 L 562.964844 47.464844 L 581.769531 47.464844 L 581.769531 38.003906 L 562.964844 38.003906 L 562.964844 28.609375 L 544.160156 28.609375 L 544.160156 19.152344 L 468.941406 19.152344 L 468.941406 28.609375 L 450.136719 28.609375 L 450.136719 38.003906 L 431.332031 38.003906 L 431.332031 47.464844 L 412.527344 47.464844 L 412.527344 56.921875 L 403.121094 56.921875 L 403.121094 66.378906 L 393.71875 66.378906 L 393.71875 75.835938 L 374.914062 75.835938 L 374.914062 94.691406 L 365.511719 94.691406 L 365.511719 104.148438 L 356.109375 104.148438 L 356.109375 113.609375 L 346.707031 113.609375 L 346.707031 132.460938 L 337.304688 132.460938 L 337.304688 141.917969 L 327.902344 141.917969 L 327.902344 160.773438 L 318.5 160.773438 L 318.5 189.085938 L 309.097656 189.085938 L 309.097656 217.398438 L 299.695312 217.398438 L 299.695312 255.105469 L 290.292969 255.105469 L 290.292969 321.125 L 299.695312 321.125 L 299.695312 349.4375 L 309.097656 349.4375 L 309.097656 377.746094 L 318.5 377.746094 L 318.5 340.039062 L 309.097656 340.039062 L 309.097656 302.332031 L 318.5 302.332031 L 318.5 255.167969 L 327.902344 255.167969 L 327.902344 236.3125 L 337.304688 236.3125 L 337.304688 217.460938 L 346.707031 217.460938 L 346.707031 208.0625 L 356.109375 208.0625 L 356.109375 189.210938 L 365.511719 189.210938 L 365.511719 179.753906 L 374.914062 179.753906 L 374.914062 170.292969 L 384.316406 170.292969 L 384.316406 160.835938 L 393.71875 160.835938 L 393.71875 151.441406 L 403.121094 151.441406 L 403.121094 141.980469 L 412.527344 141.980469 L 412.527344 132.523438 L 421.929688 132.523438 L 421.929688 123.066406 L 440.734375 123.066406 L 440.734375 113.609375 L 459.539062 113.609375 L 459.539062 104.148438 L 478.34375 104.148438 L 478.34375 94.691406 L 506.550781 94.691406 L 506.550781 85.296875 L 544.160156 85.296875 L 544.160156 75.835938 L 581.769531 75.835938 L 581.769531 66.378906 L 600.578125 66.378906 L 600.578125 56.921875 L 619.382812 56.921875 L 619.382812 47.464844 Z M 497.148438 75.710938 L 497.148438 85.171875 L 487.746094 85.171875 L 487.746094 75.710938 L 478.34375 75.710938 L 478.34375 56.859375 L 487.746094 56.859375 L 487.746094 47.402344 L 497.148438 47.402344 L 497.148438 56.859375 L 506.550781 56.859375 L 506.550781 75.710938 Z M 497.148438 75.710938 " fill-opacity="1" fill-rule="nonzero"/><path fill="#9bf0f9" d="M 431.332031 151.128906 L 431.332031 160.585938 L 421.929688 160.585938 L 421.929688 179.4375 L 412.527344 179.4375 L 412.527344 198.292969 L 403.121094 198.292969 L 403.121094 245.394531 L 412.527344 245.394531 L 412.527344 236 L 421.929688 236 L 421.929688 226.542969 L 431.332031 226.542969 L 431.332031 217.148438 L 440.734375 217.148438 L 440.734375 198.292969 L 450.136719 198.292969 L 450.136719 151.128906 Z M 431.332031 151.128906 " fill-opacity="1" fill-rule="nonzero"/><path fill="#9bf0f9" d="M 393.71875 245.394531 L 403.121094 245.394531 L 403.121094 254.855469 L 393.71875 254.855469 Z M 393.71875 245.394531 " fill-opacity="1" fill-rule="nonzero"/><path fill="#9bf0f9" d="M 309.097656 386.828125 L 309.097656 396.289062 L 299.695312 396.289062 L 299.695312 405.683594 L 290.292969 405.683594 L 290.292969 415.140625 L 280.890625 415.140625 L 280.890625 433.996094 L 271.488281 433.996094 L 271.488281 462.246094 L 280.890625 462.246094 L 280.890625 452.847656 L 299.695312 452.847656 L 299.695312 443.390625 L 309.097656 443.390625 L 309.097656 433.996094 L 318.5 433.996094 L 318.5 415.140625 L 327.902344 415.140625 L 327.902344 377.433594 L 318.5 377.433594 L 318.5 386.828125 Z M 309.097656 386.828125 " fill-opacity="1" fill-rule="nonzero"/><path fill="#9bf0f9" d="M 309.097656 113.421875 L 318.5 113.421875 L 318.5 122.878906 L 327.902344 122.878906 L 327.902344 113.421875 L 337.304688 113.421875 L 337.304688 104.023438 L 346.707031 104.023438 L 346.707031 94.566406 L 309.097656 94.566406 L 309.097656 104.023438 L 290.292969 104.023438 L 290.292969 113.421875 Z M 309.097656 113.421875 " fill-opacity="1" fill-rule="nonzero"/></svg>