<svg xmlns="http://www.w3.org/2000/svg" width="240" height="414" viewBox="0 0 240 414">
<g>
<path d="M 58.03 229.47 C56.03,231.88 53.36,231.28 52.06,228.14 C51.41,226.57 49.55,224.31 47.94,223.11 C46.32,221.92 45.00,220.54 45.00,220.05 C45.00,218.66 51.49,215.00 53.95,215.00 C55.84,215.00 56.07,214.60 55.56,212.25 C55.02,209.80 56.08,208.34 65.10,199.00 C70.68,193.23 79.42,183.69 84.52,177.82 C89.63,171.94 94.01,167.34 94.26,167.59 C94.51,167.84 95.27,167.38 95.94,166.57 C96.99,165.31 97.95,165.88 102.41,170.45 C106.15,174.29 108.91,176.15 112.07,177.01 C114.51,177.66 117.53,178.61 118.80,179.10 C122.43,180.52 134.35,180.15 140.70,178.42 L 140.96 178.35 C145.99,176.97 148.00,176.43 148.97,177.19 C149.62,177.71 149.81,178.83 150.14,180.70 C150.55,183.02 151.36,185.80 151.94,186.90 C153.37,189.57 150.37,192.65 142.81,196.27 C137.56,198.79 136.18,199.00 124.61,199.00 C108.54,199.00 104.11,197.21 104.03,190.72 C103.99,186.93 101.37,186.10 98.97,189.12 C97.93,190.43 94.63,194.57 91.65,198.32 C85.49,206.09 67.52,223.00 65.44,223.00 C64.67,223.00 63.39,221.73 62.59,220.18 C61.79,218.62 60.34,216.71 59.38,215.93 C57.79,214.63 57.71,214.69 58.54,216.50 C59.85,219.37 59.53,227.66 58.03,229.47 ZM 196.67 216.37 C194.51,219.19 193.28,219.86 189.66,220.15 C184.69,220.55 181.94,218.86 171.50,209.00 C157.28,195.59 157.00,195.24 157.00,191.02 C157.00,188.03 157.75,186.21 160.10,183.53 C161.81,181.59 164.10,180.00 165.18,180.00 C166.81,180.00 176.55,188.09 187.61,198.63 C188.84,199.80 191.15,201.68 192.74,202.82 C194.34,203.95 196.46,206.70 197.46,208.91 L 199.28 212.95 Z" fill="rgb(33,176,243)"/>
<path d="M 141.98 405.07 C135.03,406.25 106.83,407.50 106.00,406.67 C105.72,406.39 101.73,405.65 97.12,405.02 C83.03,403.09 65.70,395.70 57.62,388.18 C56.03,386.71 53.44,383.50 51.87,381.05 C49.42,377.27 49.00,375.60 49.00,369.76 C49.00,364.95 49.58,361.79 50.95,359.10 C53.51,354.08 61.24,347.22 68.99,343.09 C76.92,338.86 78.15,339.71 78.47,349.62 L 78.69 356.41 L 83.88 360.98 L 89.07 365.56 L 86.57 370.03 C79.64,382.42 79.16,387.36 84.40,392.60 C87.02,395.22 88.63,396.00 91.45,396.00 C98.81,396.00 100.61,393.88 111.12,372.87 C112.72,369.66 113.68,369.04 119.39,367.49 C124.03,366.24 126.78,364.79 129.13,362.37 C130.92,360.52 133.04,359.00 133.84,359.00 C134.63,359.00 138.03,361.40 141.39,364.33 C144.75,367.25 148.96,370.50 150.73,371.53 C153.93,373.39 154.02,373.39 158.54,371.19 C166.59,367.28 168.09,358.83 161.97,351.96 C160.32,350.12 159.10,348.35 159.26,348.05 C161.07,344.62 163.67,341.01 164.32,341.01 C165.80,340.99 179.08,349.98 181.71,352.78 C185.69,357.00 188.98,364.89 188.99,370.22 C189.01,378.84 180.81,389.90 170.77,394.81 C168.17,396.08 165.78,397.54 165.46,398.06 C165.14,398.58 164.04,399.00 163.02,399.00 C162.00,399.00 159.89,399.63 158.33,400.40 C154.26,402.42 149.37,403.81 141.98,405.07 Z" fill="rgb(56,69,79)"/>
<path d="M 77.00 75.97 C68.18,77.35 60.86,77.02 56.40,75.04 C51.96,73.06 45.62,66.01 44.68,62.00 C44.36,60.62 43.80,58.26 43.43,56.74 C43.03,55.08 43.26,53.40 44.00,52.49 C45.60,50.58 47.00,50.58 47.00,52.50 C47.00,53.55 48.06,54.00 50.50,54.00 C52.42,54.00 54.00,53.54 54.00,52.98 C54.00,52.39 55.06,52.23 56.51,52.59 C62.23,54.03 65.92,52.17 75.51,43.04 C80.60,38.19 86.06,33.52 87.64,32.67 C101.80,25.01 107.64,23.63 123.21,24.23 C140.73,24.90 150.60,28.94 146.78,33.88 C141.16,41.12 134.24,48.91 131.64,50.92 C129.91,52.25 127.15,54.58 125.50,56.09 C123.85,57.61 118.22,60.98 113.00,63.58 C107.78,66.18 102.87,68.79 102.11,69.39 C99.86,71.15 88.13,74.22 77.00,75.97 ZM 138.81 89.40 C136.23,90.83 133.67,92.00 133.13,92.00 C131.62,92.00 128.28,86.85 127.28,82.98 C126.46,79.82 126.63,79.38 129.40,77.51 C131.06,76.39 132.68,74.36 133.00,72.99 C133.47,70.98 134.28,70.44 137.23,70.19 C140.26,69.94 141.18,70.34 142.63,72.57 C144.80,75.87 146.08,84.69 144.57,85.92 C143.98,86.40 141.39,87.96 138.81,89.40 ZM 109.56 94.23 C108.09,95.25 106.23,95.18 105.55,94.08 C105.23,93.57 103.66,92.86 102.05,92.51 C100.14,92.09 98.40,90.65 97.06,88.38 C95.93,86.46 95.00,84.70 95.00,84.48 C95.00,84.25 96.30,82.59 97.88,80.78 C99.46,78.98 100.94,76.60 101.17,75.50 C101.82,72.33 107.79,73.24 111.25,77.02 C115.54,81.71 114.65,90.70 109.56,94.23 Z" fill="rgb(61,60,60)"/>
<path d="M 65.37 51.35 C62.16,53.18 59.64,53.38 56.51,52.59 C55.06,52.23 54.00,52.39 54.00,52.98 C54.00,53.54 52.42,54.00 50.50,54.00 C48.06,54.00 47.00,53.55 47.00,52.50 C47.00,52.03 46.91,51.67 46.76,51.43 C48.27,51.35 50.30,51.54 52.94,51.99 C58.76,52.97 61.87,53.17 65.37,51.35 ZM 47.40 67.05 C49.19,69.45 51.60,71.89 53.88,73.53 C52.01,72.32 50.34,70.77 48.79,68.86 C48.26,68.21 47.80,67.62 47.40,67.05 ZM 44.53 51.92 C44.36,52.09 44.18,52.28 44.00,52.49 C43.48,53.12 43.21,54.13 43.23,55.24 C43.02,53.58 43.39,52.49 44.53,51.92 ZM 77.00 75.97 C71.01,76.91 66.16,77.12 62.11,76.51 C66.20,77.04 71.28,76.87 77.00,75.97 Z" fill="rgb(83,72,78)"/>
<path d="M 98.98 189.10 C101.38,186.11 103.99,186.94 104.03,190.72 C104.11,197.21 108.54,199.00 124.61,199.00 C136.18,199.00 137.56,198.79 142.81,196.27 C150.37,192.65 153.37,189.57 151.94,186.90 C151.36,185.80 150.55,183.02 150.14,180.70 C149.81,178.83 149.62,177.71 148.97,177.19 C148.00,176.43 145.99,176.97 140.96,178.35 L 140.70 178.42 C134.35,180.15 122.43,180.52 118.80,179.10 C117.53,178.61 114.51,177.66 112.07,177.01 C108.91,176.15 106.15,174.29 102.41,170.45 C97.95,165.88 96.99,165.31 95.94,166.57 C95.27,167.38 94.51,167.84 94.26,167.59 C94.14,167.47 93.12,168.42 91.53,170.07 C95.30,166.05 97.56,164.00 98.22,164.00 C98.76,164.00 101.14,166.17 103.52,168.81 C109.05,174.96 118.94,179.00 128.45,179.00 C132.72,179.00 145.17,176.18 146.45,174.93 C147.97,173.44 151.73,173.86 152.39,175.58 C152.73,176.45 153.00,178.44 153.00,180.00 C153.00,187.25 155.65,187.82 160.00,181.50 C161.70,179.02 163.34,177.00 163.64,177.00 C163.93,177.00 168.73,181.30 174.30,186.57 C169.52,182.52 166.09,180.00 165.18,180.00 C164.10,180.00 161.81,181.59 160.10,183.53 C157.75,186.21 157.00,188.03 157.00,191.02 C157.00,194.45 157.19,195.32 164.89,202.74 C159.56,198.07 153.99,193.51 153.01,193.18 C152.49,193.00 150.56,194.00 148.73,195.40 C142.46,200.18 139.00,201.00 125.28,200.98 C109.11,200.95 104.72,199.39 103.02,193.08 C102.21,190.07 101.41,189.00 99.96,189.00 C99.61,189.00 99.27,189.04 98.98,189.10 ZM 58.03 229.47 C59.53,227.66 59.85,219.37 58.54,216.50 C57.71,214.69 57.79,214.63 59.38,215.93 C60.34,216.71 61.79,218.62 62.59,220.18 C63.39,221.73 64.67,223.00 65.44,223.00 C66.73,223.00 74.12,216.50 81.03,209.72 C79.19,211.56 77.37,213.32 75.67,214.88 C69.90,220.17 63.08,226.86 60.50,229.75 C57.92,232.64 55.46,235.00 55.03,235.00 C54.06,235.00 53.00,233.53 50.72,229.00 C49.75,227.07 47.34,224.40 45.37,223.05 L 41.80 220.60 L 48.15 214.68 C59.69,203.92 68.22,195.59 74.64,188.82 C71.23,192.54 67.79,196.21 65.10,199.00 C56.08,208.34 55.02,209.80 55.56,212.25 C56.07,214.60 55.84,215.00 53.95,215.00 C51.49,215.00 45.00,218.66 45.00,220.05 C45.00,220.54 46.32,221.92 47.94,223.11 C49.55,224.31 51.41,226.57 52.06,228.14 C53.36,231.28 56.03,231.88 58.03,229.47 ZM 196.67 216.37 L 199.28 212.95 L 197.46 208.91 C196.46,206.70 194.34,203.95 192.74,202.82 C191.15,201.68 188.84,199.80 187.61,198.63 C185.77,196.87 183.97,195.19 182.24,193.60 C184.81,195.72 186.90,197.25 187.85,197.66 C189.70,198.46 193.35,201.12 195.97,203.57 C200.56,207.86 200.70,208.16 199.99,212.08 C199.13,216.76 195.00,221.58 191.23,222.30 C188.45,222.83 182.30,219.12 176.28,213.42 C182.96,219.38 185.55,220.48 189.66,220.15 C193.28,219.86 194.51,219.19 196.67,216.37 ZM 91.70 198.27 C93.66,195.79 95.76,193.16 97.25,191.28 C96.23,192.85 94.22,195.36 91.70,198.27 ZM 84.65 177.67 C84.61,177.72 84.57,177.77 84.52,177.82 C83.83,178.62 83.07,179.48 82.25,180.40 C83.08,179.45 83.88,178.54 84.65,177.67 Z" fill="rgb(76,173,230)"/>
<path d="M 79.44 344.25 C77.82,354.66 78.15,355.93 83.86,360.97 L 78.69 356.41 L 78.47 349.62 C78.18,340.59 77.13,339.08 70.95,342.08 C74.32,340.27 77.27,339.00 78.53,339.00 C80.05,339.00 80.16,339.62 79.44,344.25 ZM 60.71 348.52 C57.18,351.29 54.12,354.33 52.20,357.05 C53.55,355.02 55.40,353.03 57.88,350.80 C58.67,350.08 59.64,349.31 60.71,348.52 Z" fill="rgb(160,118,149)"/>
<path d="M 163.35 177.19 C162.74,177.75 161.39,179.48 160.00,181.50 C155.65,187.82 153.00,187.25 153.00,180.00 C153.00,178.44 152.73,176.45 152.39,175.58 C151.73,173.86 147.97,173.44 146.45,174.93 C145.17,176.18 132.72,179.00 128.45,179.00 C118.94,179.00 109.05,174.96 103.52,168.81 C101.14,166.17 98.76,164.00 98.22,164.00 C97.56,164.00 95.30,166.05 91.53,170.07 C90.69,170.95 89.69,172.03 88.58,173.25 C91.99,169.15 94.29,165.96 95.12,164.07 C96.82,160.21 99.89,160.27 101.77,164.21 C103.68,168.20 108.56,172.71 112.52,174.14 C114.43,174.84 116.00,175.65 116.00,175.95 C116.00,176.99 135.51,176.23 139.99,175.01 C142.47,174.34 146.23,172.90 148.36,171.81 C150.49,170.73 152.61,170.21 153.06,170.67 C153.51,171.13 154.02,173.75 154.19,176.49 C154.55,182.24 156.88,183.76 158.81,179.51 C159.99,176.93 160.96,175.93 163.35,177.19 ZM 102.60 191.70 C102.74,192.10 102.88,192.56 103.02,193.08 C104.72,199.39 109.11,200.95 125.28,200.98 C139.00,201.00 142.46,200.18 148.73,195.40 C150.56,194.00 152.49,193.00 153.01,193.18 C153.99,193.51 159.56,198.07 164.89,202.74 C165.00,202.84 165.11,202.95 165.22,203.05 C156.09,195.63 153.40,195.26 145.02,199.34 C138.82,202.36 138.00,202.50 126.52,202.46 C119.79,202.45 111.71,201.80 108.16,200.99 L 101.82 199.55 L 102.41 195.85 C102.64,194.42 102.70,192.82 102.60,191.70 ZM 79.16 183.86 C77.71,185.47 76.18,187.15 74.64,188.82 C69.08,194.68 61.94,201.71 52.64,210.47 C62.62,201.01 71.85,191.73 79.16,183.86 ZM 175.67 212.87 C175.88,213.05 176.08,213.24 176.28,213.42 C178.74,215.74 181.22,217.74 183.48,219.25 C180.32,217.33 177.15,214.85 175.67,212.87 ZM 174.55 186.79 C174.47,186.71 174.38,186.64 174.30,186.57 C171.87,184.27 169.59,182.16 167.76,180.51 C169.38,181.92 171.33,183.74 173.73,186.01 C174.01,186.27 174.28,186.53 174.55,186.79 ZM 99.77 189.00 C99.84,189.00 99.90,189.00 99.96,189.00 C100.55,189.00 101.03,189.17 101.44,189.58 C100.95,189.29 100.34,189.08 99.77,189.00 ZM 186.50 196.87 C185.41,196.13 183.93,194.99 182.24,193.60 C182.15,193.52 182.06,193.44 181.98,193.36 C183.79,194.87 185.36,196.09 186.50,196.87 Z" fill="rgb(197,178,217)"/>
<path d="M 55.00 235.00 L 51.18 238.03 L 50.47 233.81 C49.60,228.69 45.32,224.00 41.49,224.00 C40.03,224.00 38.98,223.63 39.17,223.18 C39.35,222.73 44.45,217.91 50.50,212.47 C50.57,212.40 50.65,212.34 50.72,212.27 C49.88,213.06 49.02,213.86 48.15,214.68 L 41.80 220.60 L 45.37 223.05 C47.34,224.40 49.75,227.07 50.72,229.00 C52.98,233.48 54.04,234.97 55.00,235.00 ZM 182.66 218.74 C182.93,218.91 183.21,219.08 183.48,219.25 C186.76,221.44 189.58,222.61 191.23,222.30 C195.00,221.58 199.13,216.76 199.99,212.08 C200.70,208.16 200.56,207.86 195.97,203.57 C195.53,203.16 195.06,202.74 194.58,202.33 C195.61,203.15 196.60,203.99 197.44,204.78 C201.81,208.86 201.98,209.24 201.36,213.18 C200.88,216.16 199.61,218.35 196.73,221.15 C194.54,223.27 192.35,225.00 191.86,225.00 C190.91,225.00 186.79,222.11 182.66,218.74 ZM 95.30 85.20 C95.66,85.93 96.32,87.12 97.06,88.38 C98.40,90.65 100.14,92.09 102.05,92.51 C103.66,92.86 105.23,93.57 105.55,94.08 C105.59,94.15 105.64,94.22 105.70,94.28 C105.11,94.03 104.42,93.70 103.60,93.27 C102.00,92.43 99.30,91.63 97.60,91.50 C95.89,91.37 94.61,90.97 94.75,90.63 C94.89,90.28 95.00,88.67 95.00,87.03 C95.00,86.47 95.10,85.85 95.30,85.20 ZM 186.50 196.87 C185.36,196.09 183.79,194.87 181.98,193.36 C181.33,192.77 180.68,192.18 180.05,191.61 C182.66,193.86 185.07,195.81 186.81,197.07 C186.71,197.01 186.61,196.94 186.50,196.87 ZM 174.55 186.79 C174.28,186.53 174.01,186.27 173.73,186.01 C171.33,183.74 169.38,181.92 167.76,180.51 C167.60,180.36 167.45,180.22 167.29,180.08 C169.01,181.54 171.15,183.50 173.83,186.02 C174.57,186.72 175.32,187.41 176.08,188.10 C175.56,187.65 175.05,187.21 174.55,186.79 ZM 87.99 173.90 C91.70,169.46 94.29,165.95 95.12,164.07 C94.29,165.96 91.99,169.15 88.58,173.25 C88.39,173.46 88.19,173.67 87.99,173.90 ZM 61.53 228.71 C60.82,229.57 59.76,230.69 58.61,231.80 C59.22,231.17 59.86,230.47 60.50,229.75 C61.08,229.10 61.88,228.26 62.83,227.28 C62.25,227.89 61.81,228.37 61.53,228.71 ZM 68.37 221.77 C70.74,219.48 73.29,217.06 75.67,214.88 C76.86,213.78 78.12,212.59 79.40,211.33 C77.95,212.76 76.52,214.13 75.16,215.38 C72.82,217.54 70.46,219.76 68.37,221.77 ZM 145.02 199.35 C142.06,200.79 140.33,201.57 138.08,201.99 C140.33,201.57 142.06,200.78 145.02,199.34 C147.31,198.23 149.17,197.44 150.86,197.04 C149.18,197.46 147.30,198.24 145.02,199.35 ZM 92.29 197.59 C94.53,194.97 96.31,192.73 97.25,191.28 L 97.27 191.25 C96.34,192.70 94.56,194.95 92.29,197.59 ZM 109.56 94.23 C109.27,94.44 108.99,94.59 108.70,94.69 C108.99,94.58 109.28,94.43 109.56,94.23 Z" fill="rgb(171,154,167)"/>
<path d="M 128.93 120.54 C124.39,122.88 120.49,122.37 116.53,118.90 C112.84,115.65 111.82,112.00 114.62,112.00 C115.51,112.00 117.77,113.35 119.65,115.00 C121.53,116.65 123.57,118.00 124.19,118.00 C124.80,118.00 126.97,116.20 129.00,114.00 C132.42,110.29 136.00,108.73 136.00,110.94 C136.00,113.14 131.54,119.19 128.93,120.54 ZM 127.24 107.89 C124.75,111.22 122.91,111.56 120.02,109.22 C118.00,107.58 117.80,106.80 118.41,102.76 C119.62,94.65 123.39,93.92 127.05,101.09 C129.17,105.25 129.17,105.29 127.24,107.89 Z" fill="rgb(165,83,53)"/>
<path d="M 77.00 75.97 C79.15,75.63 81.33,75.24 83.45,74.83 C81.79,75.76 80.67,77.50 79.95,80.19 C78.54,85.42 79.86,88.71 83.72,89.56 C85.25,89.90 86.95,90.34 87.50,90.53 C88.05,90.73 89.84,90.80 91.49,90.69 C93.98,90.53 94.50,90.10 95.00,87.24 C94.99,88.80 94.88,90.30 94.75,90.63 C94.61,90.97 95.89,91.37 97.60,91.50 C99.30,91.63 102.00,92.43 103.60,93.27 C104.42,93.70 105.11,94.03 105.70,94.28 C106.32,95.00 107.54,95.15 108.70,94.69 L 108.70 94.69 C108.99,94.59 109.27,94.44 109.56,94.23 C110.33,93.70 111.01,93.03 111.59,92.27 C110.73,94.18 110.94,95.54 112.20,96.80 C114.26,98.86 116.41,98.12 118.87,94.50 L 121.25 91.01 L 124.62 93.97 C126.51,95.63 128.64,96.69 129.46,96.38 C132.00,95.40 132.26,92.18 130.06,89.08 C129.24,87.94 128.39,86.23 127.85,84.73 C129.21,88.24 131.84,92.00 133.13,92.00 C133.67,92.00 136.23,90.83 138.81,89.40 C141.39,87.96 143.98,86.40 144.57,85.92 C145.11,85.48 145.29,84.09 145.21,82.33 C145.42,83.43 145.75,84.35 146.12,84.72 C146.96,85.56 148.06,85.51 150.37,84.54 C152.09,83.82 154.84,82.83 156.48,82.35 C162.56,80.55 162.05,72.05 155.62,68.07 C153.42,66.72 150.23,66.04 144.99,65.82 C137.87,65.52 137.48,65.61 137.18,67.75 C136.94,69.47 137.36,70.00 138.95,70.00 C139.33,70.00 139.73,70.11 140.13,70.31 C139.40,70.09 138.50,70.09 137.23,70.19 C134.28,70.44 133.47,70.98 133.00,72.99 C132.94,73.21 132.86,73.45 132.74,73.71 C133.27,72.25 133.05,71.00 131.81,71.00 C129.93,71.00 126.00,75.17 126.00,77.17 C126.00,78.80 126.53,79.28 127.92,78.59 C126.89,79.47 126.69,80.16 126.95,81.59 C126.16,79.51 124.94,79.50 124.31,81.93 C123.60,84.64 120.73,85.53 119.50,83.42 C118.95,82.48 117.50,80.54 116.28,79.11 C113.85,76.25 113.70,76.56 113.99,83.81 C114.00,84.19 114.00,84.57 113.99,84.96 C114.04,82.04 113.15,79.11 111.25,77.02 C107.97,73.43 102.42,72.43 101.31,75.04 C101.34,74.93 101.37,74.83 101.40,74.73 C102.07,71.89 100.91,70.76 97.75,71.27 C99.88,70.57 101.43,69.92 102.11,69.39 C102.87,68.79 107.78,66.18 113.00,63.58 C118.22,60.98 123.85,57.61 125.50,56.09 C127.15,54.58 129.91,52.25 131.64,50.92 C134.24,48.91 141.16,41.12 146.78,33.88 C148.31,31.90 147.64,30.06 145.15,28.52 C151.31,31.16 156.96,35.02 162.62,40.30 C171.65,48.74 175.99,55.74 180.10,68.51 C183.11,77.84 183.25,78.94 182.67,88.94 C182.12,98.41 180.76,104.64 178.10,109.76 C177.61,110.72 176.14,113.72 174.85,116.42 C171.51,123.42 158.03,136.71 150.18,140.75 C146.71,142.54 143.20,144.00 142.38,144.00 C141.57,144.00 139.69,144.62 138.20,145.37 C136.72,146.13 131.45,146.97 126.50,147.26 C104.79,148.50 92.28,143.97 76.98,129.36 C70.51,123.18 68.46,120.38 64.46,112.26 L 59.67 102.54 L 59.37 90.02 C59.21,83.13 59.06,77.17 59.04,76.76 C59.03,76.48 58.29,75.94 57.24,75.37 C58.64,75.90 60.27,76.28 62.11,76.51 C66.16,77.12 71.01,76.91 77.00,75.97 ZM 28.16 251.28 C26.70,251.54 23.41,252.43 20.85,253.25 C16.43,254.67 16.09,254.64 13.70,252.62 C6.04,246.15 7.75,238.14 17.53,234.65 C25.50,231.82 35.02,225.76 45.81,216.73 C42.02,220.23 39.30,222.86 39.17,223.18 C38.98,223.63 40.03,224.00 41.49,224.00 C45.32,224.00 49.60,228.69 50.47,233.81 L 51.18 238.03 L 53.89 235.88 C52.05,237.66 50.30,239.34 48.96,240.57 C45.96,243.36 41.78,247.75 39.68,250.32 C35.49,255.47 33.65,256.08 31.95,252.90 C31.11,251.33 30.14,250.92 28.16,251.28 ZM 189.55 223.86 C190.67,224.57 191.50,225.00 191.86,225.00 C192.35,225.00 194.54,223.27 196.73,221.15 C199.61,218.35 200.88,216.16 201.36,213.18 C201.89,209.82 201.84,209.05 199.11,206.36 L 202.02 209.00 L 213.45 209.00 C223.90,209.00 225.10,209.19 227.39,211.25 C231.30,214.77 231.28,221.91 227.35,225.55 C225.18,227.56 223.68,228.00 218.95,228.00 C213.45,228.00 213.15,228.13 212.15,231.01 C210.64,235.32 208.89,235.53 203.26,232.06 C200.52,230.38 197.65,229.00 196.88,229.00 C196.11,229.00 193.68,227.42 191.49,225.49 C190.95,225.01 190.28,224.45 189.55,223.86 ZM 128.93 120.54 C131.54,119.19 136.00,113.14 136.00,110.94 C136.00,108.73 132.42,110.29 129.00,114.00 C126.97,116.20 124.80,118.00 124.19,118.00 C123.57,118.00 121.53,116.65 119.65,115.00 C117.77,113.35 115.51,112.00 114.62,112.00 C111.82,112.00 112.84,115.65 116.53,118.90 C120.49,122.37 124.39,122.88 128.93,120.54 ZM 127.24 107.89 C129.17,105.29 129.17,105.25 127.05,101.09 C123.39,93.92 119.62,94.65 118.41,102.76 C117.80,106.80 118.00,107.58 120.02,109.22 C122.91,111.56 124.75,111.22 127.24,107.89 ZM 120.19 24.00 C125.39,24.00 130.13,24.41 134.54,25.28 C131.27,24.75 127.47,24.39 123.21,24.23 C119.38,24.08 116.14,24.05 113.22,24.21 C115.35,24.06 117.64,24.00 120.19,24.00 ZM 84.65 177.67 C83.88,178.54 83.08,179.45 82.25,180.40 L 82.25 180.40 C81.28,181.49 80.24,182.66 79.16,183.86 C78.98,184.05 78.80,184.25 78.62,184.44 C80.54,182.31 82.49,180.11 84.46,177.85 C89.56,172.00 94.36,165.80 95.12,164.07 C94.29,165.95 91.70,169.46 87.99,173.90 C86.94,175.06 85.82,176.33 84.65,177.67 ZM 145.00 80.12 C144.69,77.98 144.11,75.66 143.36,73.95 C144.34,75.78 144.99,78.00 145.00,80.05 C145.00,80.07 145.00,80.10 145.00,80.12 ZM 101.19 75.40 C101.18,75.43 101.18,75.47 101.17,75.50 C100.94,76.60 99.46,78.98 97.88,80.78 C97.63,81.07 97.38,81.36 97.15,81.63 C97.49,81.09 97.86,80.60 98.22,80.21 C99.42,78.92 100.65,76.91 101.19,75.40 ZM 92.88 72.69 C90.87,73.33 88.76,73.84 87.55,73.97 C89.43,73.55 91.23,73.12 92.88,72.69 ZM 46.67 51.31 C47.97,51.24 49.87,51.47 52.94,51.99 C50.30,51.54 48.27,51.35 46.76,51.43 C46.73,51.39 46.71,51.35 46.67,51.31 ZM 55.33 74.48 C54.41,74.04 53.39,73.32 52.35,72.43 C52.84,72.83 53.35,73.19 53.88,73.53 C54.37,73.89 54.86,74.21 55.33,74.48 ZM 79.01 211.71 C79.14,211.59 79.27,211.46 79.40,211.33 L 79.40 211.33 C79.94,210.80 80.48,210.26 81.03,209.72 C81.20,209.55 81.37,209.38 81.54,209.21 C80.69,210.07 79.84,210.91 79.01,211.71 Z" fill="rgb(224,143,114)"/>
<path d="M 118.26 367.80 C113.54,369.14 112.61,369.89 111.12,372.87 C100.61,393.88 98.81,396.00 91.45,396.00 C88.63,396.00 87.02,395.22 84.40,392.60 C79.16,387.36 79.64,382.42 86.57,370.03 L 89.07 365.56 L 83.88 360.98 L 83.86 360.97 C83.80,360.91 83.74,360.86 83.68,360.81 C85.85,362.62 87.98,363.84 88.60,363.60 C89.29,363.34 90.34,363.71 90.94,364.43 C92.57,366.39 103.37,368.35 108.94,367.69 C111.65,367.37 114.01,367.52 114.18,368.02 C114.32,368.42 116.03,368.31 118.26,367.80 ZM 55.33 74.48 C55.70,74.70 56.06,74.88 56.40,75.04 C56.67,75.15 56.95,75.27 57.24,75.37 C58.29,75.94 59.03,76.48 59.04,76.76 C59.06,77.17 59.21,83.13 59.37,90.02 L 59.67 102.54 L 64.46 112.26 C68.46,120.38 70.51,123.18 76.98,129.36 C92.28,143.97 104.79,148.50 126.50,147.26 C131.45,146.97 136.72,146.13 138.20,145.37 C139.69,144.62 141.57,144.00 142.38,144.00 C143.20,144.00 146.71,142.54 150.18,140.75 C158.03,136.71 171.51,123.42 174.85,116.42 C176.14,113.72 177.61,110.72 178.10,109.76 C180.76,104.64 182.12,98.41 182.67,88.94 C183.25,78.94 183.11,77.84 180.10,68.51 C175.99,55.74 171.65,48.74 162.62,40.30 C156.96,35.02 151.31,31.16 145.15,28.52 C145.05,28.46 144.95,28.40 144.84,28.34 C146.73,28.97 148.47,29.45 149.43,29.59 C153.88,30.22 166.51,40.44 171.43,47.40 C176.97,55.21 179.19,59.73 182.00,68.92 C184.01,75.50 184.21,77.78 183.75,88.92 C183.28,100.37 182.94,102.17 179.93,109.00 C174.15,122.12 167.30,130.80 157.03,138.01 C152.24,141.38 137.01,149.00 135.08,149.00 C134.21,149.00 130.80,150.33 127.50,151.95 C121.60,154.85 108.03,159.66 102.87,160.67 C100.52,161.14 100.31,161.27 101.42,163.53 C99.69,160.56 97.20,160.44 95.57,163.19 C96.27,161.93 97.12,161.00 97.63,161.00 C98.26,161.00 98.72,160.23 98.64,159.29 C98.53,157.97 100.43,156.98 106.78,155.06 C116.11,152.23 117.36,150.09 110.49,148.69 C89.75,144.46 72.23,131.33 63.50,113.45 C59.02,104.28 57.94,99.79 57.36,88.00 C56.91,78.99 56.45,77.15 51.52,71.74 C51.79,71.98 52.07,72.21 52.35,72.43 C53.39,73.32 54.41,74.04 55.33,74.48 ZM 160.67 345.59 C160.18,346.39 159.69,347.22 159.26,348.05 C159.10,348.35 160.32,350.12 161.97,351.96 C168.09,358.83 166.59,367.28 158.54,371.19 C154.02,373.39 153.93,373.39 150.73,371.53 C148.96,370.50 144.75,367.25 141.39,364.33 C138.03,361.40 134.63,359.00 133.84,359.00 C133.15,359.00 131.49,360.12 129.90,361.61 C131.09,360.37 131.62,359.24 131.06,358.58 C130.50,357.90 131.10,356.42 132.67,354.60 C135.00,351.89 135.62,351.70 141.65,351.90 C149.25,352.15 154.58,350.64 156.08,347.84 C156.71,346.67 157.76,346.08 158.63,346.41 C159.25,346.65 159.95,346.36 160.67,345.59 ZM 145.02 199.35 C145.77,198.99 146.48,198.66 147.15,198.36 C146.23,199.23 145.49,200.64 145.49,202.18 C145.50,206.88 141.64,209.28 133.81,209.40 L 127.50 209.50 L 127.19 206.34 C127.02,204.59 126.23,202.92 125.43,202.61 C123.75,201.97 118.92,203.58 119.11,204.73 C119.67,208.15 118.86,209.00 115.03,209.00 C107.65,209.00 102.89,205.37 102.26,199.65 L 108.16 200.99 C111.71,201.80 119.79,202.45 126.52,202.46 C132.52,202.48 135.61,202.45 138.08,201.99 C140.33,201.57 142.06,200.79 145.02,199.35 ZM 112.20 96.80 C111.31,95.91 110.95,94.98 111.10,93.84 C111.01,94.96 111.37,95.97 112.20,96.80 C116.74,101.34 121.29,90.05 117.74,83.08 C115.59,78.88 114.00,79.36 114.00,84.23 C114.00,84.33 114.00,84.44 114.00,84.55 C114.00,84.30 114.00,84.05 113.99,83.81 C113.70,76.56 113.85,76.25 116.28,79.11 C117.50,80.54 118.95,82.48 119.50,83.42 C120.73,85.53 123.60,84.64 124.31,81.93 C124.94,79.50 126.16,79.51 126.95,81.59 C126.96,81.64 126.97,81.69 126.98,81.74 C126.59,80.75 126.06,80.15 125.62,80.31 C124.02,80.86 124.24,91.38 125.89,93.37 C127.50,95.31 130.58,95.48 131.51,93.79 C131.33,94.98 130.65,95.92 129.46,96.38 C128.64,96.69 126.51,95.63 124.62,93.97 L 121.25 91.01 L 118.87 94.50 C116.41,98.12 114.26,98.86 112.20,96.80 ZM 141.56 71.18 C141.12,70.74 140.68,70.47 140.13,70.31 C139.73,70.11 139.33,70.00 138.95,70.00 C137.36,70.00 136.94,69.47 137.18,67.75 C137.48,65.61 137.87,65.52 144.99,65.82 C146.24,65.87 147.37,65.95 148.40,66.05 C146.32,65.93 144.17,66.11 142.25,66.63 C139.73,67.31 139.46,67.91 141.56,71.18 ZM 149.32 197.51 C149.85,197.32 150.36,197.17 150.86,197.04 C152.46,196.67 153.91,196.64 155.40,197.00 C153.90,197.02 153.00,197.59 153.00,198.50 C153.00,200.41 151.11,200.46 150.38,198.56 C150.15,197.94 149.77,197.61 149.32,197.51 ZM 129.27 362.22 C129.22,362.27 129.17,362.32 129.13,362.37 C127.13,364.43 124.85,365.78 121.36,366.91 C124.37,365.81 127.37,363.96 129.27,362.22 ZM 157.19 197.61 C159.40,198.56 161.88,200.33 165.22,203.05 C165.32,203.14 165.41,203.23 165.51,203.32 C162.33,200.84 159.17,198.63 157.19,197.61 ZM 134.54 25.28 C133.32,25.04 132.09,24.83 130.82,24.66 C134.23,24.97 136.61,25.42 138.85,26.14 C137.54,25.82 136.10,25.53 134.54,25.28 ZM 45.45 63.99 C45.01,63.20 44.72,62.51 44.61,62.01 C44.49,61.37 44.33,60.60 44.16,59.80 C44.36,60.62 44.54,61.40 44.68,62.00 C44.82,62.60 45.09,63.28 45.45,63.99 ZM 155.57 68.04 C155.59,68.05 155.60,68.06 155.62,68.07 C158.57,69.90 160.27,72.67 160.67,75.32 C160.26,72.68 158.54,69.90 155.57,68.04 ZM 79.44 344.25 C78.70,348.96 78.39,351.84 78.76,353.99 C78.37,351.83 78.70,348.98 79.44,344.25 ZM 102.21 165.03 C103.24,166.80 104.69,168.56 106.31,170.07 C104.65,168.53 103.18,166.76 102.21,165.03 ZM 162.57 342.77 C163.29,341.73 163.99,341.01 164.32,341.01 C164.04,341.01 163.38,341.70 162.57,342.77 ZM 102.60 191.70 C102.70,192.82 102.64,194.42 102.41,195.85 L 102.37 196.06 C102.62,194.53 102.69,192.84 102.59,191.68 ZM 146.12 84.72 C145.75,84.35 145.42,83.43 145.21,82.33 C145.21,82.31 145.21,82.28 145.21,82.26 C145.41,83.40 145.75,84.35 146.12,84.72 ZM 145.00 80.12 C145.00,80.10 145.00,80.07 145.00,80.05 C145.00,79.35 144.92,78.63 144.78,77.91 C144.92,78.62 145.00,79.30 145.00,79.94 C145.00,80.01 145.00,80.09 145.00,80.16 C145.00,80.15 145.00,80.14 145.00,80.12 ZM 44.53 51.92 C44.33,52.02 44.15,52.14 44.00,52.27 C44.16,52.13 44.34,52.00 44.56,51.89 C44.55,51.90 44.54,51.91 44.53,51.92 ZM 113.30 24.20 C111.58,24.30 110.05,24.44 108.56,24.66 C110.07,24.44 111.63,24.29 113.30,24.20 Z" fill="rgb(243,152,196)"/>
<path d="M 79.44 344.25 C80.16,339.62 80.05,339.00 78.53,339.00 C77.27,339.00 74.32,340.27 70.95,342.08 C70.85,342.13 70.76,342.17 70.67,342.22 C74.51,340.19 78.02,338.12 78.60,337.54 C79.30,336.84 79.96,326.90 80.42,310.02 C80.83,295.48 81.56,282.83 82.05,281.91 C83.32,279.53 83.47,253.28 82.22,251.75 C80.33,249.42 78.00,239.67 78.00,234.03 C78.00,221.37 86.38,207.42 97.61,201.37 C99.47,200.37 101.00,198.84 101.00,197.97 C101.00,197.11 101.51,195.89 102.13,195.27 C102.30,195.10 102.44,194.91 102.55,194.69 C102.50,195.15 102.45,195.61 102.37,196.06 L 101.82 199.55 L 102.26 199.65 C102.89,205.37 107.65,209.00 115.03,209.00 C118.86,209.00 119.67,208.15 119.11,204.73 C118.92,203.58 123.75,201.97 125.43,202.61 C126.23,202.92 127.02,204.59 127.19,206.34 L 127.50 209.50 L 133.81 209.40 C141.64,209.28 145.50,206.88 145.49,202.18 C145.49,200.64 146.23,199.23 147.15,198.36 C147.92,198.03 148.64,197.74 149.32,197.51 C149.77,197.61 150.15,197.94 150.38,198.56 C151.11,200.46 153.00,200.41 153.00,198.50 C153.00,197.59 153.90,197.02 155.40,197.00 C155.62,197.05 155.84,197.11 156.06,197.18 C155.44,197.57 154.83,198.54 154.55,199.66 C153.98,201.91 154.63,203.10 158.77,207.41 C164.93,213.84 166.64,216.63 169.06,224.19 C171.39,231.49 171.43,232.72 169.50,237.35 C168.46,239.82 168.00,244.46 168.00,252.33 C168.00,258.60 167.58,265.93 167.08,268.61 C166.57,271.30 165.88,281.38 165.55,291.00 C165.21,300.62 164.51,312.77 163.98,318.00 C162.32,334.52 162.23,337.60 163.38,339.13 C163.88,339.80 166.52,341.80 169.68,343.92 C167.04,342.23 164.87,341.00 164.32,341.01 C164.04,341.01 163.38,341.70 162.57,342.77 C161.98,343.55 161.32,344.54 160.67,345.59 C159.95,346.36 159.25,346.65 158.63,346.41 C157.76,346.08 156.71,346.67 156.08,347.84 C154.58,350.64 149.25,352.15 141.65,351.90 C135.62,351.70 135.00,351.89 132.67,354.60 C131.10,356.42 130.50,357.90 131.06,358.58 C131.62,359.24 131.09,360.37 129.90,361.61 C129.69,361.81 129.48,362.01 129.27,362.22 C127.37,363.96 124.37,365.81 121.36,366.91 C120.74,367.11 120.09,367.30 119.39,367.49 C118.99,367.60 118.62,367.70 118.26,367.80 C116.03,368.31 114.32,368.42 114.18,368.02 C114.01,367.52 111.65,367.37 108.94,367.69 C103.37,368.35 92.57,366.39 90.94,364.43 C90.34,363.71 89.29,363.34 88.60,363.60 C87.98,363.84 85.85,362.62 83.68,360.81 C80.69,358.16 79.22,356.54 78.76,353.99 C78.39,351.84 78.70,348.96 79.44,344.25 ZM 65.37 51.35 C61.87,53.17 58.76,52.97 52.94,51.99 C49.87,51.47 47.97,51.24 46.67,51.31 C46.64,51.28 46.61,51.25 46.57,51.22 C46.59,51.22 46.60,51.21 46.61,51.21 C47.77,51.04 49.70,48.69 51.51,45.25 C54.88,38.85 57.13,35.95 65.00,27.82 C72.02,20.58 74.30,19.02 88.40,11.78 C93.10,9.36 102.29,6.97 111.23,5.84 C135.00,2.84 159.22,10.92 176.50,27.63 C181.10,32.08 186.00,37.72 186.00,38.56 C186.00,38.87 187.05,40.57 188.33,42.32 C191.53,46.68 195.80,57.01 198.09,65.91 C202.16,81.72 200.15,103.15 193.21,118.00 C187.30,130.64 175.88,144.21 164.75,151.84 C159.92,155.15 159.02,157.30 160.97,160.94 C161.50,161.93 162.02,165.53 162.12,168.93 L 162.30 175.12 L 170.88 183.28 C169.52,182.03 168.33,180.96 167.29,180.08 C165.19,178.19 163.79,177.00 163.64,177.00 C163.58,177.00 163.48,177.07 163.35,177.19 C160.96,175.93 159.99,176.93 158.81,179.51 C156.88,183.76 154.55,182.24 154.19,176.49 C154.02,173.75 153.51,171.13 153.06,170.67 C152.61,170.21 150.49,170.73 148.36,171.81 C146.23,172.90 142.47,174.34 139.99,175.01 C135.51,176.23 116.00,176.99 116.00,175.95 C116.00,175.65 114.43,174.84 112.52,174.14 C110.52,173.42 108.28,171.91 106.31,170.07 L 106.31 170.07 C104.69,168.56 103.24,166.80 102.21,165.03 C102.05,164.76 101.90,164.48 101.77,164.21 C101.66,163.97 101.54,163.74 101.42,163.53 C100.31,161.27 100.52,161.14 102.87,160.67 C108.03,159.66 121.60,154.85 127.50,151.95 C130.80,150.33 134.21,149.00 135.08,149.00 C137.01,149.00 152.24,141.38 157.03,138.01 C167.30,130.80 174.15,122.12 179.93,109.00 C182.94,102.17 183.28,100.37 183.75,88.92 C184.21,77.78 184.01,75.50 182.00,68.92 C179.19,59.73 176.97,55.21 171.43,47.40 C166.51,40.44 153.88,30.22 149.43,29.59 C148.47,29.45 146.73,28.97 144.84,28.34 C143.38,27.50 141.36,26.76 138.85,26.14 C136.61,25.42 134.23,24.97 130.82,24.66 C127.49,24.21 123.96,24.00 120.19,24.00 C117.68,24.00 115.41,24.06 113.30,24.20 C111.63,24.29 110.07,24.44 108.56,24.66 L 108.55 24.66 C102.97,25.47 98.14,27.25 91.55,30.61 C91.10,30.84 90.66,31.07 90.20,31.31 C89.37,31.74 88.52,32.19 87.64,32.67 C86.06,33.52 80.60,38.19 75.51,43.04 C71.16,47.18 68.03,49.83 65.37,51.35 ZM 47.40 67.05 C47.80,67.62 48.26,68.21 48.79,68.86 C49.66,69.93 50.56,70.89 51.52,71.74 C56.45,77.15 56.91,78.99 57.36,88.00 C57.94,99.79 59.02,104.28 63.50,113.45 C72.23,131.33 89.75,144.46 110.49,148.69 C117.36,150.09 116.11,152.23 106.78,155.06 C100.43,156.98 98.53,157.97 98.64,159.29 C98.72,160.23 98.26,161.00 97.63,161.00 C97.22,161.00 96.59,161.60 95.99,162.50 C95.80,162.13 92.97,160.57 89.53,158.94 C68.53,149.02 53.06,132.46 46.14,112.47 C41.48,99.02 40.37,89.20 41.91,75.09 C42.61,68.72 43.58,63.02 44.07,62.42 C44.32,62.12 44.42,61.57 44.38,60.88 C44.47,61.29 44.55,61.67 44.61,62.01 C44.72,62.51 45.01,63.20 45.45,63.99 C45.94,64.96 46.61,66.00 47.40,67.05 ZM 114.39 97.84 C115.77,96.88 118.00,91.73 118.00,89.15 C118.00,84.25 116.07,84.13 113.41,88.64 C113.77,87.46 113.96,86.21 113.99,84.96 C113.99,84.82 113.99,84.69 114.00,84.55 L 114.00 84.55 C114.00,84.44 114.00,84.33 114.00,84.23 C114.00,79.36 115.59,78.88 117.74,83.08 C120.71,88.91 118.01,97.76 114.39,97.84 ZM 183.66 383.91 C186.45,380.14 188.34,376.04 188.85,372.25 C188.61,374.67 187.92,377.02 186.78,379.22 C186.00,380.72 184.92,382.32 183.66,383.91 ZM 45.90 216.65 L 45.81 216.73 C35.02,225.76 25.50,231.82 17.53,234.65 C12.48,236.45 9.58,239.46 9.01,242.84 C9.23,239.48 12.32,236.51 17.53,234.65 C25.48,231.82 35.09,225.70 45.90,216.65 ZM 11.10 249.92 C11.79,250.84 12.66,251.74 13.70,252.62 C14.38,253.19 14.89,253.61 15.38,253.87 C15.01,253.71 14.63,253.49 14.20,253.21 C13.03,252.44 11.96,251.28 11.10,249.92 ZM 188.78 367.69 C188.33,364.83 187.22,361.60 185.73,358.68 C186.03,359.26 186.33,359.86 186.63,360.50 C187.75,362.89 188.47,365.31 188.78,367.69 ZM 179.55 350.89 C177.62,349.35 174.86,347.37 172.22,345.59 C175.33,347.61 177.68,349.27 179.55,350.89 ZM 88.55 173.01 C87.26,174.58 85.87,176.23 84.46,177.85 C82.49,180.11 80.54,182.31 78.62,184.44 L 78.62 184.44 C78.49,184.58 78.36,184.72 78.23,184.86 C80.09,182.80 81.96,180.67 83.86,178.50 C85.61,176.49 87.18,174.65 88.55,173.01 ZM 43.19 54.76 C43.20,54.92 43.21,55.08 43.23,55.24 C43.24,55.73 43.31,56.24 43.43,56.74 C43.54,57.20 43.67,57.73 43.80,58.28 C43.78,58.24 43.77,58.19 43.75,58.15 C43.28,56.90 43.10,55.75 43.19,54.76 ZM 29.54 251.16 C30.65,251.22 31.33,251.75 31.95,252.90 C32.88,254.65 33.86,255.25 35.25,254.58 C33.87,255.25 32.90,254.68 32.00,253.00 C31.41,251.89 30.75,251.28 29.54,251.16 ZM 111.10 93.84 C111.17,93.36 111.33,92.84 111.59,92.27 L 111.60 92.26 C111.30,93.03 111.13,93.67 111.09,94.22 C111.09,94.10 111.09,93.97 111.10,93.84 ZM 101.85 190.08 C101.67,189.85 101.48,189.65 101.27,189.48 C101.33,189.51 101.39,189.55 101.44,189.58 C101.58,189.72 101.72,189.88 101.85,190.08 ZM 19.54 253.66 C19.94,253.54 20.37,253.40 20.85,253.25 C21.12,253.16 21.40,253.07 21.69,252.99 C20.86,253.26 20.16,253.48 19.54,253.66 ZM 52.36 356.82 C52.31,356.90 52.25,356.98 52.20,357.05 C51.70,357.76 51.28,358.44 50.95,359.10 C51.32,358.36 51.80,357.60 52.36,356.82 ZM 165.07 202.99 C165.22,203.10 165.36,203.21 165.51,203.32 L 165.64 203.45 C165.45,203.30 165.26,203.14 165.07,202.99 ZM 98.98 189.10 C99.22,189.05 99.49,189.01 99.77,189.00 L 99.78 189.00 C99.49,189.02 99.22,189.05 98.98,189.10 Z" fill="rgb(253,184,227)"/>
<path d="M 0.00 207.00 L 0.00 0.00 L 120.00 0.00 L 240.00 0.00 L 240.00 207.00 L 240.00 414.00 L 120.00 414.00 L 0.00 414.00 L 0.00 207.00 ZM 141.98 405.07 C149.37,403.81 154.26,402.42 158.33,400.40 C159.89,399.63 162.00,399.00 163.02,399.00 C164.04,399.00 165.14,398.58 165.46,398.06 C165.78,397.54 168.17,396.08 170.77,394.81 C176.59,391.97 183.82,384.93 186.78,379.22 C189.72,373.55 189.67,366.95 186.63,360.50 C183.55,353.98 180.71,351.06 171.82,345.34 C167.80,342.74 164.00,339.95 163.38,339.13 C162.23,337.60 162.32,334.52 163.98,318.00 C164.51,312.77 165.21,300.62 165.55,291.00 C165.88,281.38 166.57,271.30 167.08,268.61 C167.58,265.93 168.00,258.60 168.00,252.33 C168.00,244.46 168.46,239.82 169.50,237.35 C171.43,232.72 171.39,231.49 169.06,224.19 C166.64,216.63 164.93,213.84 158.77,207.41 C154.63,203.10 153.98,201.91 154.55,199.66 C154.92,198.20 155.84,197.00 156.61,197.00 C158.29,197.00 174.00,210.04 175.71,212.85 C176.37,213.94 179.30,216.44 182.21,218.40 C185.12,220.37 189.30,223.55 191.49,225.49 C193.68,227.42 196.11,229.00 196.88,229.00 C197.65,229.00 200.52,230.38 203.26,232.06 C208.89,235.53 210.64,235.32 212.15,231.01 C213.15,228.13 213.45,228.00 218.95,228.00 C223.68,228.00 225.18,227.56 227.35,225.55 C231.28,221.91 231.30,214.77 227.39,211.25 C225.10,209.19 223.90,209.00 213.45,209.00 L 202.02 209.00 L 196.52 204.02 C193.49,201.28 189.55,198.40 187.76,197.63 C185.97,196.86 179.51,191.48 173.40,185.68 L 162.30 175.12 L 162.12 168.93 C162.02,165.53 161.50,161.93 160.97,160.94 C159.02,157.30 159.92,155.15 164.75,151.84 C175.88,144.21 187.30,130.64 193.21,118.00 C200.15,103.15 202.16,81.72 198.09,65.91 C195.80,57.01 191.53,46.68 188.33,42.32 C187.05,40.57 186.00,38.87 186.00,38.56 C186.00,37.72 181.10,32.08 176.50,27.63 C159.22,10.92 135.00,2.84 111.23,5.84 C102.29,6.97 93.10,9.36 88.40,11.78 C74.30,19.02 72.02,20.58 65.00,27.82 C57.13,35.95 54.88,38.85 51.51,45.25 C49.70,48.69 47.77,51.04 46.61,51.21 C43.51,51.68 42.36,54.46 43.75,58.15 C44.47,60.05 44.60,61.78 44.07,62.42 C43.58,63.02 42.61,68.72 41.91,75.09 C40.37,89.20 41.48,99.02 46.14,112.47 C53.06,132.46 68.53,149.02 89.53,158.94 C93.09,160.62 96.00,162.24 96.00,162.53 C96.00,163.87 91.89,169.27 83.86,178.50 C57.27,209.04 33.91,228.82 17.53,234.65 C12.12,236.58 9.00,239.72 9.00,243.22 C9.00,246.93 11.28,251.30 14.20,253.21 C16.27,254.56 17.05,254.53 22.00,252.88 C29.07,250.54 30.69,250.55 32.00,253.00 C33.65,256.08 35.52,255.42 39.68,250.32 C41.78,247.75 45.96,243.36 48.96,240.57 C51.97,237.78 57.14,232.75 60.46,229.39 C63.78,226.02 70.94,219.20 76.37,214.21 C85.22,206.08 97.94,191.69 97.98,189.75 C97.99,189.34 98.89,189.00 99.98,189.00 C102.32,189.00 103.87,193.53 102.13,195.27 C101.51,195.89 101.00,197.11 101.00,197.97 C101.00,198.84 99.47,200.37 97.61,201.37 C86.38,207.42 78.00,221.37 78.00,234.03 C78.00,239.67 80.33,249.42 82.22,251.75 C83.47,253.28 83.32,279.53 82.05,281.91 C81.56,282.83 80.83,295.48 80.42,310.02 C79.96,326.90 79.30,336.84 78.60,337.54 C77.99,338.14 74.21,340.36 70.18,342.48 C61.47,347.05 53.65,353.81 50.95,359.10 C49.58,361.79 49.00,364.95 49.00,369.76 C49.00,375.60 49.42,377.27 51.87,381.05 C53.44,383.50 56.03,386.71 57.62,388.18 C65.70,395.70 83.03,403.09 97.12,405.02 C101.73,405.65 105.72,406.39 106.00,406.67 C106.83,407.50 135.03,406.25 141.98,405.07 ZM 112.20 96.80 C110.58,95.18 110.69,93.76 112.75,89.83 C115.74,84.14 118.00,83.85 118.00,89.15 C118.00,92.00 115.28,98.00 113.98,98.00 C113.66,98.00 112.86,97.46 112.20,96.80 ZM 125.89 93.37 C124.24,91.38 124.02,80.86 125.62,80.31 C126.23,80.10 127.02,81.33 127.36,83.05 C127.70,84.76 128.93,87.50 130.09,89.12 C131.24,90.74 131.93,92.73 131.62,93.54 C130.87,95.49 127.57,95.40 125.89,93.37 ZM 87.50 90.53 C86.95,90.34 85.25,89.90 83.72,89.56 C79.86,88.71 78.54,85.42 79.95,80.19 C81.11,75.89 83.28,74.00 87.05,74.00 C88.25,74.00 91.35,73.25 93.94,72.33 C99.95,70.19 102.29,70.95 101.40,74.73 C101.04,76.25 99.61,78.72 98.22,80.21 C96.83,81.70 95.42,84.63 95.09,86.71 C94.55,90.05 94.12,90.52 91.49,90.69 C89.84,90.80 88.05,90.73 87.50,90.53 ZM 146.12 84.72 C145.51,84.11 145.00,81.95 145.00,79.94 C145.00,77.68 144.04,74.87 142.50,72.60 C139.43,68.07 139.40,67.39 142.25,66.63 C146.68,65.44 152.31,66.03 155.51,68.01 C162.04,72.04 162.61,80.53 156.48,82.35 C154.84,82.83 152.09,83.82 150.37,84.54 C148.06,85.51 146.96,85.56 146.12,84.72 ZM 126.00 77.17 C126.00,75.17 129.93,71.00 131.81,71.00 C133.98,71.00 133.04,74.82 130.37,76.93 C127.12,79.48 126.00,79.54 126.00,77.17 Z" fill="rgb(254,254,254)"/>
</g>
</svg>